<?xml version="1.0" encoding="utf-8"?>
<!-- Generator: Adobe Illustrator 16.0.3, SVG Export Plug-In . SVG Version: 6.00 Build 0)  -->
<!DOCTYPE svg PUBLIC "-//W3C//DTD SVG 1.1//EN" "http://www.w3.org/Graphics/SVG/1.1/DTD/svg11.dtd">
<svg version="1.1" id="Layer_1" xmlns="http://www.w3.org/2000/svg" xmlns:xlink="http://www.w3.org/1999/xlink" x="0px" y="0px"
	 width="600px" height="122px" viewBox="0 0 600 122" enable-background="new 0 0 600 122" xml:space="preserve">
<path fill="#FFFFFF" d="M592.926,60.003l-0.777-0.393c0.556-0.037,1.021-0.215,1.401-0.524c0.379-0.31,0.568-0.758,0.568-1.341
	c0-0.783-0.277-1.334-0.832-1.653c-0.555-0.318-1.221-0.479-1.997-0.479c-0.481,0-0.747,0.023-1.283,0.068
	c-0.537,0.045-1.006,0.113-1.006,0.204V63h1v-3.291l1.311,0.43L593.286,63h1.692L592.926,60.003z M590.9,59H590v-2.049
	c0-0.055,0.238-0.086,0.422-0.096c0.186-0.009,0.369-0.014,0.573-0.014c1.072,0,1.603,0.319,1.603,0.956
	c0,0.401-0.15,0.738-0.446,0.902C591.855,58.863,591.437,59,590.9,59z"/>
<path fill="#FFFFFF" d="M598.154,56.336c-0.38-0.901-0.901-1.657-1.567-2.267c-0.666-0.61-1.447-1.074-2.344-1.393
	c-0.897-0.318-1.854-0.478-2.871-0.478c-0.998,0-1.941,0.16-2.829,0.478c-0.888,0.319-1.669,0.783-2.344,1.393
	c-0.675,0.61-1.207,1.365-1.595,2.267c-0.389,0.901-0.583,1.935-0.583,3.1c0,1.166,0.189,2.199,0.569,3.1
	c0.378,0.901,0.901,1.657,1.566,2.267c0.666,0.61,1.442,1.075,2.33,1.394s1.849,0.478,2.885,0.478c0.999,0,1.941-0.159,2.829-0.478
	s1.669-0.783,2.344-1.394c0.675-0.609,1.207-1.365,1.595-2.267c0.389-0.901,0.583-1.935,0.583-3.1
	C598.723,58.271,598.533,57.237,598.154,56.336z M596.545,61.936c-0.287,0.701-0.68,1.283-1.179,1.747
	c-0.499,0.465-1.091,0.811-1.775,1.038c-0.684,0.229-1.424,0.342-2.219,0.342c-0.759,0-1.479-0.118-2.163-0.355
	c-0.685-0.236-1.281-0.587-1.789-1.051c-0.509-0.465-0.911-1.047-1.207-1.748s-0.443-1.525-0.443-2.472s0.139-1.771,0.416-2.472
	c0.277-0.701,0.666-1.284,1.165-1.748s1.091-0.815,1.775-1.052c0.684-0.236,1.433-0.355,2.246-0.355
	c0.776,0,1.502,0.119,2.178,0.355c0.675,0.237,1.267,0.587,1.775,1.052c0.508,0.464,0.91,1.047,1.206,1.748
	c0.296,0.701,0.444,1.525,0.444,2.472C596.976,60.401,596.832,61.234,596.545,61.936z"/>
<path fill="#FFFFFF" d="M409.391,57.927c1.989-3.754,4.284-6.793,6.885-9.115c2.6-2.321,5.377-3.995,8.335-5.019
	c2.958-1.024,5.857-1.536,8.702-1.536c6.171,0,10.773,0.819,13.81,2.458l3.437-7.579c-1.738-0.75-3.886-1.348-6.44-1.792
	c-2.555-0.443-5.912-0.666-10.073-0.666c-3.884,0-7.82,0.684-11.809,2.049c-3.988,1.367-7.757,3.534-11.305,6.504
	c-3.55,2.97-6.661,6.795-9.336,11.471c-2.675,4.678-4.612,10.362-5.81,17.053c-1.151,6.419-1.312,11.968-0.484,16.644
	c0.825,4.678,2.392,8.519,4.696,11.522c2.305,3.006,5.233,5.241,8.784,6.709c3.552,1.468,7.513,2.202,11.881,2.202
	c3.604,0,7.059-0.308,10.357-0.922c3.3-0.614,6.131-1.706,8.492-3.277l-0.888-6.658c-1.767,0.958-3.866,1.741-6.3,2.356
	c-2.433,0.614-5.208,0.922-8.329,0.922c-3.468,0-6.564-0.615-9.291-1.844c-2.728-1.229-4.964-3.073-6.707-5.531
	c-1.746-2.458-2.911-5.53-3.5-9.218c-0.588-3.688-0.44-7.989,0.441-12.905C405.917,66.292,407.401,61.683,409.391,57.927z"/>
<path fill="#FFFFFF" d="M491.97,65.813c-0.052-1.844-0.512-3.533-1.38-5.07c-0.869-1.537-2.311-2.782-4.323-3.738
	c-2.014-0.956-4.823-1.434-8.429-1.434c-3.813,0-7.539,0.376-11.175,1.126c-3.637,0.752-6.913,1.913-9.829,3.482l1.482,6.248
	c1.071-0.562,2.288-1.07,3.653-1.526c1.363-0.456,2.784-0.842,4.263-1.159c1.479-0.316,2.909-0.562,4.294-0.737
	c1.383-0.176,2.664-0.264,3.844-0.264c4.021,0,6.66,0.752,7.917,2.253c1.256,1.503,1.549,4.132,0.877,7.887
	c-0.294,1.639-0.728,3.379-1.303,5.427c-0.946-0.136-1.888-0.308-2.823-0.308h-2.86c-3.814,0-7.345,0.359-10.592,0.871
	c-3.247,0.513-6.104,1.419-8.571,2.612c-2.468,1.195-4.505,2.827-6.114,4.841s-2.684,4.536-3.222,7.54
	c-0.402,2.254-0.365,4.274,0.114,6.049c0.479,1.776,1.3,3.299,2.461,4.562c1.16,1.265,2.633,2.238,4.417,2.921
	c1.784,0.682,3.787,1.024,6.007,1.024c2.219,0,4.237-0.238,6.058-0.716c1.818-0.477,3.45-1.075,4.896-1.792s2.719-1.354,3.821-2.276
	c1.1-0.922,2.047-1.636,2.844-2.636h0.52l0.881,7h6c-0.213-1.911-0.064-4.188,0.131-6.441c0.195-2.253,0.52-4.643,0.974-7.169
	c0.622-3.482,1.386-7.17,2.291-11.062c0.905-3.893,1.725-7.887,2.459-11.983C491.882,69.501,492.021,67.657,491.97,65.813z
	 M479.22,93.16c-0.505,0.889-1.207,1.811-2.106,2.766c-0.9,0.957-1.975,1.827-3.225,2.611c-1.251,0.786-2.685,1.435-4.302,1.946
	s-3.396,0.769-5.337,0.769c-2.704,0-4.786-0.769-6.244-2.305c-1.46-1.536-1.975-3.498-1.547-5.89
	c0.305-1.706,1.028-3.124,2.166-4.25c1.138-1.127,2.543-2.014,4.221-2.663c1.676-0.648,3.558-1.092,5.646-1.332
	c2.088-0.238,4.207-0.358,6.357-0.358c0.971,0,1.955,0.018,2.955,0.052c0.999,0.035,1.979,0.086,2.938,0.153L479.22,93.16z"/>
<path fill="#FFFFFF" d="M518.007,56.391l0.257-1.434c0.366-2.048,0.738-3.841,1.118-5.377c0.379-1.537,0.89-2.833,1.529-3.892
	c0.641-1.058,1.512-1.86,2.615-2.407c1.102-0.545,2.555-0.819,4.358-0.819c1.249,0,2.565,0.103,3.95,0.308
	c1.384,0.205,2.814,0.649,4.287,1.332l3.101-6.862c-1.739-0.751-3.433-1.263-5.082-1.537c-1.651-0.272-3.585-0.41-5.804-0.41
	c-2.774,0-5.161,0.358-7.162,1.076c-2.001,0.717-3.722,1.81-5.163,3.277c-1.442,1.469-2.63,3.364-3.566,5.685
	c-0.936,2.322-1.684,5.054-2.246,8.194l-0.514,2.868h-8.112l-1.284,7.17h8.113L499.697,108h9l8.026-44.439h13.833l1.284-7.17
	H518.007z"/>
<polygon fill="#FFFFFF" points="574.496,36.008 574.697,34 565.697,34 556.697,49 561.645,49.119 "/>
<path fill="#FFFFFF" d="M575.764,64.943c-0.708-2.628-1.868-4.661-3.484-6.095c-1.615-1.434-3.558-2.407-5.823-2.919
	s-4.578-0.768-6.935-0.768c-7.351,0-13.411,2.289-18.183,6.862c-4.771,4.576-7.941,11.233-9.506,19.973
	c-0.735,4.097-0.944,7.784-0.629,11.062s1.197,6.095,2.647,8.45c1.449,2.355,3.519,4.166,6.205,5.429s6.007,1.895,9.959,1.895
	c3.537,0,6.968-0.479,10.294-1.434c3.325-0.956,6.176-2.254,8.549-3.893l-2.056-5.94c-1.375,1.093-3.315,2.049-5.818,2.868
	c-2.505,0.819-4.936,1.229-7.292,1.229c-3.053,0-5.559-0.426-7.521-1.28c-1.963-0.853-3.458-2.082-4.488-3.687
	c-1.031-1.604-1.651-3.476-1.859-5.798c-0.208-2.32-0.044-4.896,0.495-7.896h33.389c0.903-3,1.559-5.316,1.964-7.568
	C576.441,71.129,576.473,67.572,575.764,64.943z M567.375,76h-25.796c1.401-5,3.523-8.559,6.364-10.676
	c2.841-2.115,6.306-3.084,10.398-3.084c3.675,0,6.332,0.906,7.97,2.988C567.95,67.313,568.305,71,567.375,76z"/>
<polygon fill="#36B6E5" points="262.697,36 205.697,36 205.697,48 227.697,48 227.697,108 241.697,108 241.697,48 262.697,48 "/>
<path fill="#36B6E5" d="M297.938,65.711c-1.18-2.663-2.74-4.778-4.681-6.35c-1.942-1.57-4.161-2.697-6.657-3.38
	c-2.497-0.682-5.063-1.024-7.697-1.024c-7.905,0-14.042,2.253-18.411,6.76s-6.553,11.267-6.553,20.279
	c0,8.398,1.94,15.005,5.825,19.819c3.883,4.813,10.02,7.221,18.411,7.221c4.021,0,7.817-0.563,11.39-1.69
	c3.57-1.127,6.396-2.509,8.477-4.148l-4.458-8.705c-1.175,0.888-2.885,1.759-5.131,2.611c-2.246,0.854-4.786,1.28-7.619,1.28
	c-4.56,0-7.861-1.28-9.899-3.466c-2.04-2.184-3.163-4.918-3.369-9.918h31.104c0.344-1,0.604-3.295,0.777-4.934
	c0.172-1.639,0.26-3.08,0.26-4.514C299.707,71.593,299.117,68.374,297.938,65.711z M287.121,77h-19.243
	c0.344-3,1.36-6.224,3.05-8.308c1.69-2.082,4.294-3.104,7.813-3.104c3.034,0,5.259,0.962,6.673,2.941
	C286.829,70.511,287.397,73,287.121,77z"/>
<path fill="#36B6E5" d="M338.191,80.307c-1.734-1.194-3.641-2.167-5.721-2.92c-2.08-0.75-3.988-1.449-5.721-2.099
	c-1.734-0.648-3.19-1.348-4.369-2.101c-1.18-0.75-1.768-1.741-1.768-2.97c0-3.073,2.01-4.609,6.032-4.609
	c2.497,0,4.957,0.343,7.386,1.024c2.426,0.684,4.437,1.331,6.032,1.946l3.017-9.628c-1.804-1.024-4.3-1.946-7.489-2.766
	c-3.19-0.819-6.761-1.229-10.713-1.229c-5.757,0-10.159,1.332-13.21,3.995c-3.053,2.663-4.577,6.521-4.577,11.574
	c0,3.072,0.589,5.581,1.769,7.527c1.179,1.946,2.635,3.552,4.368,4.814c1.733,1.264,3.641,2.253,5.722,2.97
	c2.08,0.717,3.986,1.418,5.721,2.1c1.732,0.684,3.188,1.435,4.368,2.254c1.179,0.819,1.769,1.912,1.769,3.277
	c0,1.776-0.608,3.039-1.82,3.789c-1.214,0.753-2.826,1.127-4.837,1.127c-2.774,0-5.479-0.426-8.113-1.28
	c-2.636-0.853-4.75-1.724-6.345-2.611l-3.744,9.935c2.01,1.229,4.628,2.305,7.853,3.227s6.674,1.383,10.35,1.383
	c6.726,0,11.77-1.485,15.134-4.456c3.363-2.97,5.045-7.049,5.045-12.239c0-3.004-0.59-5.462-1.768-7.374
	C341.38,83.056,339.924,81.502,338.191,80.307z"/>
<path fill="#36B6E5" d="M377.871,96.848c-1.006,0.273-2.202,0.409-3.589,0.409c-2.012,0-3.38-0.768-4.108-2.304
	c-0.728-1.537-1.092-4.08-1.092-7.631V67.657h12.689V56.391h-12.689V42.973l-13.521,3.79v9.628h-7.178v11.267h7.178v25.811
	c0,5.53,1.126,9.509,3.38,11.932c2.253,2.423,5.772,3.637,10.558,3.637c2.564,0,5.097-0.308,7.593-0.922
	c2.496-0.615,4.681-1.365,6.553-2.254l-2.392-10.242C380.003,96.166,378.875,96.575,377.871,96.848z"/>
<polygon fill="#36B6E5" points="174.888,18.187 158.723,1.97 90.827,70.095 64.962,44.143 48.8,60.363 90.827,102.535 "/>
<polygon fill="#FFFFFF" points="116.697,83 108.697,90 136.697,90 160.697,112 26.697,112 50.697,90 71.697,90 64.697,83 45.697,83 
	0,122 187.514,122 141.697,83 "/>
</svg>
