<?xml version="1.0" encoding="utf-8"?>
<!DOCTYPE svg PUBLIC "-//W3C//DTD SVG 1.1//EN" "http://www.w3.org/Graphics/SVG/1.1/DTD/svg11.dtd">
<svg class="logo" version="1.1" id="Layer_1" xmlns="http://www.w3.org/2000/svg" xmlns:xlink="http://www.w3.org/1999/xlink" x="0px" y="0px"
	 width="276px" height="66px" viewBox="0 0 276 66" enable-background="new 0 0 276 66" xml:space="preserve">
<g>
	<g>
		<path fill="#FFFFFF" d="M186.956,31.79c0.877-1.653,1.89-2.992,3.036-4.014c1.146-1.021,2.371-1.758,3.676-2.208
			c1.305-0.452,2.583-0.676,3.838-0.676c2.721,0,4.751,0.36,6.09,1.083l1.516-3.337c-0.768-0.333-1.713-0.595-2.84-0.789
			c-1.127-0.196-2.606-0.293-4.441-0.293c-1.714,0-3.449,0.3-5.208,0.9c-1.759,0.602-3.421,1.555-4.985,2.864
			c-1.564,1.308-2.937,2.992-4.117,5.051c-1.18,2.059-2.033,4.563-2.563,7.508c-0.508,2.826-0.579,5.271-0.214,7.328
			c0.364,2.061,1.055,3.751,2.071,5.073c1.016,1.321,2.309,2.308,3.873,2.954c1.566,0.646,3.313,0.969,5.24,0.969
			c1.59,0,3.112-0.135,4.566-0.405c1.457-0.271,2.705-0.751,3.744-1.442l-0.391-2.933c-0.777,0.422-1.705,0.769-2.777,1.038
			c-1.073,0.27-2.297,0.406-3.674,0.406c-1.529,0-2.896-0.272-4.098-0.813c-1.203-0.541-2.188-1.354-2.958-2.437
			s-1.282-2.435-1.544-4.06c-0.26-1.623-0.193-3.517,0.195-5.682C185.425,35.473,186.078,33.444,186.956,31.79z M220.857,31.382
			c-0.887-0.419-2.127-0.63-3.717-0.63c-1.683,0-3.324,0.167-4.928,0.497s-3.05,0.842-4.335,1.532l0.653,2.751
			c0.472-0.248,1.01-0.472,1.609-0.673c0.604-0.199,1.229-0.368,1.881-0.51s1.285-0.248,1.895-0.326
			c0.609-0.075,1.175-0.114,1.695-0.114c1.772,0,2.938,0.331,3.49,0.991s0.683,1.82,0.387,3.473
			c-0.129,0.723-0.319,1.534-0.573,2.436c-0.418-0.06-0.832-0.091-1.245-0.091h-1.262c-1.682,0-3.238,0.113-4.672,0.339
			c-1.432,0.226-2.691,0.602-3.779,1.127c-1.089,0.525-1.986,1.233-2.695,2.118c-0.711,0.888-1.185,1.994-1.422,3.315
			c-0.177,0.992-0.16,1.88,0.051,2.66c0.213,0.783,0.573,1.449,1.086,2.009c0.512,0.557,1.16,0.983,1.948,1.282
			c0.787,0.302,1.671,0.453,2.647,0.453c0.979,0,1.867-0.105,2.672-0.316c0.802-0.21,1.521-0.473,2.158-0.789
			c0.64-0.314,1.199-0.676,1.687-1.082c0.485-0.406,0.902-0.818,1.255-1.241h0.229l0.396,3.159h2.707
			c-0.096-0.843-0.099-1.759-0.013-2.753c0.086-0.992,0.229-2.043,0.43-3.155c0.273-1.533,0.611-3.156,1.011-4.871
			c0.398-1.713,0.76-3.472,1.084-5.275c0.146-0.813,0.207-1.624,0.185-2.436s-0.226-1.556-0.606-2.231
			C222.382,32.354,221.746,31.805,220.857,31.382z M217.751,47.302c-0.224,0.392-0.532,0.8-0.929,1.218
			c-0.397,0.422-0.87,0.805-1.422,1.15c-0.553,0.346-1.187,0.63-1.896,0.855c-0.713,0.227-1.499,0.34-2.355,0.34
			c-1.19,0-2.108-0.34-2.752-1.016c-0.646-0.678-0.871-1.541-0.684-2.593c0.135-0.752,0.453-1.376,0.956-1.871
			c0.501-0.497,1.121-0.887,1.86-1.175c0.738-0.284,1.57-0.479,2.49-0.586c0.92-0.104,1.855-0.157,2.803-0.157
			c0.43,0,0.861,0.009,1.305,0.022c0.439,0.016,0.873,0.039,1.296,0.066L217.751,47.302z M234.855,31.112l0.113-0.63
			c0.161-0.902,0.326-1.691,0.493-2.368c0.167-0.678,0.394-1.249,0.675-1.714c0.282-0.466,0.666-0.819,1.152-1.06
			c0.486-0.241,1.126-0.36,1.922-0.36c0.551,0,1.132,0.044,1.743,0.134c0.608,0.09,1.239,0.286,1.892,0.586l1.366-3.021
			c-0.769-0.33-1.515-0.556-2.241-0.676c-0.729-0.12-1.582-0.18-2.561-0.18c-1.223,0-2.276,0.157-3.158,0.473
			s-1.641,0.796-2.277,1.442c-0.635,0.648-1.158,1.482-1.57,2.504c-0.414,1.022-0.744,2.224-0.992,3.607l-0.227,1.262h-3.578
			l-0.565,3.157h3.578l-3.479,19.392h3.672l3.478-19.392h6.101l0.566-3.157L234.855,31.112L234.855,31.112z M259.768,22.14
			l0.17-0.948h-4.082l-3.91,6.72h2.156L259.768,22.14z M258.791,32.195c-0.713-0.631-1.568-1.06-2.568-1.286
			c-0.998-0.226-2.02-0.337-3.059-0.337c-3.24,0-5.914,1.006-8.02,3.02c-2.104,2.016-3.502,4.946-4.19,8.794
			c-0.324,1.804-0.417,3.427-0.278,4.871c0.139,1.441,0.529,2.683,1.168,3.718c0.639,1.039,1.553,1.836,2.736,2.393
			c1.184,0.555,2.648,0.834,4.393,0.834c1.561,0,3.072-0.211,4.539-0.633c1.467-0.42,2.725-0.989,3.771-1.713l-0.907-2.615
			c-0.604,0.482-1.463,0.902-2.565,1.263c-1.104,0.362-2.178,0.542-3.215,0.542c-1.347,0-2.451-0.188-3.318-0.563
			c-0.863-0.377-1.522-0.916-1.979-1.625c-0.455-0.705-0.729-1.569-0.818-2.592c-0.092-1.021-0.021-2.195,0.219-3.52h14.725
			c0.396-1.201,0.688-2.299,0.867-3.29c0.338-1.894,0.352-3.421,0.039-4.577C260.016,33.723,259.503,32.828,258.791,32.195z
			 M256.628,39.907h-11.376c0.617-2.255,1.553-3.851,2.809-4.781c1.25-0.933,2.778-1.397,4.584-1.397
			c1.621,0,2.791,0.459,3.515,1.375C256.881,36.021,257.038,37.623,256.628,39.907z M267.555,32.525
			c0.243-0.016,0.448-0.093,0.617-0.228c0.167-0.136,0.249-0.332,0.249-0.589c0-0.345-0.12-0.587-0.366-0.728
			c-0.244-0.139-0.537-0.209-0.881-0.209c-0.211,0-0.438,0.01-0.673,0.03c-0.235,0.021-0.419,0.049-0.549,0.09v3.114h0.635v-1.431
			l0.587,0.181l0.881,1.25h0.746l-0.904-1.31L267.555,32.525z M267.004,32.212h-0.417V31.36c0.05-0.025,0.114-0.039,0.195-0.042
			c0.081-0.004,0.167-0.008,0.258-0.008c0.474,0,0.709,0.141,0.709,0.423c0,0.176-0.063,0.3-0.194,0.372
			C267.423,32.177,267.238,32.212,267.004,32.212z M270.201,31.089c-0.167-0.396-0.396-0.73-0.689-1
			c-0.296-0.268-0.641-0.473-1.035-0.612c-0.396-0.141-0.816-0.21-1.267-0.21c-0.438,0-0.854,0.069-1.247,0.21
			c-0.393,0.139-0.736,0.344-1.033,0.612c-0.298,0.269-0.531,0.603-0.703,1c-0.172,0.396-0.258,0.852-0.258,1.364
			c0,0.514,0.084,0.969,0.252,1.365c0.166,0.396,0.396,0.729,0.69,0.998c0.293,0.27,0.636,0.474,1.026,0.613
			c0.392,0.141,0.815,0.209,1.271,0.209c0.441,0,0.855-0.068,1.249-0.209c0.39-0.141,0.733-0.345,1.033-0.613
			c0.297-0.269,0.532-0.603,0.704-0.998c0.168-0.396,0.256-0.853,0.256-1.365C270.452,31.941,270.369,31.485,270.201,31.089z
			 M269.492,33.555c-0.129,0.31-0.301,0.565-0.521,0.771c-0.22,0.202-0.48,0.356-0.783,0.456c-0.301,0.101-0.627,0.15-0.979,0.15
			c-0.333,0-0.652-0.053-0.953-0.156c-0.302-0.104-0.564-0.258-0.789-0.463c-0.224-0.205-0.402-0.461-0.531-0.771
			c-0.131-0.309-0.194-0.67-0.194-1.089c0-0.415,0.06-0.779,0.182-1.088c0.123-0.31,0.294-0.565,0.515-0.771
			c0.22-0.205,0.48-0.358,0.783-0.462c0.301-0.104,0.631-0.157,0.989-0.157c0.345,0,0.663,0.053,0.962,0.157
			c0.297,0.104,0.557,0.258,0.783,0.462c0.223,0.205,0.4,0.46,0.531,0.771c0.129,0.309,0.195,0.673,0.195,1.088
			C269.682,32.878,269.619,33.246,269.492,33.555z M57.74,42.859l-2.851,2.856h11.407l11.406,9.998H17.819l11.406-9.998h8.556
			l-2.853-2.856h-8.554L6.412,60h82.695l-19.96-17.141H57.74z"/>
	</g>
</g>
<path fill="#3AB6E4" d="M122.255,22.094H97.208v5.501h9.404V53.66h6.284V27.596h9.358L122.255,22.094L122.255,22.094z"/>
<path fill="#3AB6E4" d="M135.885,47.889c-0.519,0.393-1.273,0.774-2.264,1.148c-0.991,0.376-2.111,0.564-3.36,0.564
	c-2.011,0-3.467-0.481-4.365-1.443c-0.9-0.963-1.395-2.391-1.486-4.283h13.717c0.152-0.78,0.267-1.532,0.343-2.255
	c0.076-0.724,0.115-1.397,0.115-2.028c0-1.742-0.261-3.203-0.78-4.376c-0.521-1.172-1.208-2.102-2.064-2.794
	c-0.856-0.693-1.834-1.188-2.935-1.489c-1.101-0.3-2.233-0.45-3.395-0.45c-3.486,0-6.193,0.99-8.119,2.975
	c-1.927,1.983-2.89,4.962-2.89,8.931c0,3.697,0.855,6.605,2.568,8.725c1.712,2.121,4.419,3.181,8.119,3.181
	c1.772,0,3.447-0.247,5.022-0.744c1.575-0.495,2.822-1.104,3.74-1.827L135.885,47.889z M132.282,36.479
	c0.624,0.875,0.875,2.121,0.753,3.744h-8.487c0.152-1.533,0.601-2.759,1.346-3.675c0.745-0.917,1.894-1.376,3.446-1.376
	C130.676,35.172,131.659,35.607,132.282,36.479z"/>
<path fill="#3AB6E4" d="M151.497,49.105c-0.535,0.33-1.247,0.496-2.134,0.496c-1.223,0-2.416-0.188-3.576-0.564
	c-1.164-0.374-2.096-0.757-2.799-1.148l-1.651,4.375c0.888,0.539,2.04,1.014,3.462,1.42c1.422,0.405,2.942,0.608,4.564,0.608
	c2.966,0,5.189-0.653,6.674-1.962c1.482-1.309,2.225-3.104,2.225-5.389c0-1.322-0.26-2.405-0.779-3.246
	c-0.521-0.842-1.162-1.525-1.928-2.053c-0.765-0.525-1.604-0.955-2.521-1.285c-0.917-0.332-1.761-0.641-2.522-0.926
	c-0.766-0.283-1.406-0.593-1.928-0.923c-0.521-0.333-0.779-0.767-0.779-1.31c0-1.354,0.887-2.028,2.66-2.028
	c1.102,0,2.186,0.149,3.258,0.451c1.068,0.302,1.955,0.585,2.66,0.854l1.33-4.237c-0.796-0.451-1.896-0.858-3.303-1.218
	c-1.407-0.361-2.982-0.541-4.725-0.541c-2.539,0-4.48,0.584-5.826,1.758c-1.346,1.172-2.019,2.872-2.019,5.096
	c0,1.354,0.261,2.457,0.779,3.314c0.521,0.854,1.162,1.563,1.926,2.117c0.765,0.559,1.604,0.992,2.522,1.309s1.76,0.625,2.523,0.926
	c0.764,0.3,1.406,0.63,1.926,0.992c0.521,0.359,0.78,0.841,0.78,1.441C152.3,48.22,152.032,48.775,151.497,49.105z"/>
<path fill="#3AB6E4" d="M160.051,36.072h3.165v11.365c0,2.435,0.497,4.187,1.491,5.252c0.993,1.068,2.545,1.603,4.656,1.603
	c1.13,0,2.246-0.138,3.348-0.406c1.102-0.27,2.064-0.603,2.891-0.991l-1.056-4.511c-0.55,0.24-1.048,0.423-1.489,0.542
	c-0.445,0.121-0.973,0.182-1.582,0.182c-0.889,0-1.492-0.34-1.813-1.017c-0.322-0.676-0.482-1.795-0.482-3.358v-8.659h5.596v-4.96
	h-5.596v-5.908l-5.964,1.669v4.239h-3.165V36.072L160.051,36.072z"/>
<path fill="#3AB6E4" d="M76.411,7.152L46.468,37.148L35.061,25.72l-7.128,7.142L46.468,51.43l37.071-37.139L76.411,7.152z"/>
</svg>
