<svg xmlns="http://www.w3.org/2000/svg" width="249" height="50" fill="none"><path fill="#404142" d="M48.4097 33.7818l-2.6909 2.7h10.7546l10.7547 9.4637H10.7547l10.7638-9.4637h8.0637l-2.691-2.7h-8.0637L0 50h77.9828L59.1644 33.7818H48.4097z"/><path fill="#36B6E5" d="M72.7377 6.7545L66.0149 0 37.7736 28.3818 27.019 17.5636l-6.7229 6.7545 17.4775 17.5728L72.7377 6.7545zM109.243 14.1314H85.6269v5.2078h8.8665v24.6659h5.9296V19.3392h8.82v-5.2078zM123.911 26.5513a6.8875 6.8875 0 0 0-1.952-2.6359 7.342 7.342 0 0 0-2.736-1.4095 12.1134 12.1134 0 0 0-3.202-.4301c-3.284 0-5.835.9396-7.653 2.8189-1.819 1.8793-2.731 4.6953-2.737 8.4478 0 3.4962.806 6.242 2.417 8.2372 1.612 1.9953 4.166 2.999 7.663 3.0112a15.7138 15.7138 0 0 0 4.734-.7048 10.928 10.928 0 0 0 3.53-1.7298l-1.824-3.661a9.2115 9.2115 0 0 1-5.3 1.62c-1.897 0-3.269-.4546-4.114-1.3637a6.2064 6.2064 0 0 1-1.478-4.0088h12.953c.146-.7413.256-1.4552.329-2.1325.073-.6773.1-1.3271.1-1.922a10.359 10.359 0 0 0-.73-4.137zm-4.497 4.7319h-8.009a6.4316 6.4316 0 0 1 1.268-3.478 3.9727 3.9727 0 0 1 1.478-1.0301 3.9547 3.9547 0 0 1 1.779-.2695 3.1705 3.1705 0 0 1 1.522.274c.478.2155.895.5458 1.214.9616a5.4117 5.4117 0 0 1 .748 3.542zM140.65 32.6286a10.8 10.8 0 0 0-2.381-1.2173l-2.381-.9152a10.21 10.21 0 0 1-1.824-.9153 1.4047 1.4047 0 0 1-.535-.5168 1.4073 1.4073 0 0 1-.195-.7188c0-1.2813.83-1.922 2.509-1.922 1.036.0017 2.068.1465 3.065.4302 1.012.2837 1.824.5491 2.508.8054l1.259-4.0088a13.4572 13.4572 0 0 0-3.138-1.0708 17.9727 17.9727 0 0 0-4.451-.5126 8.1055 8.1055 0 0 0-5.473 1.6658 6.0524 6.0524 0 0 0-1.509 2.193 6.0633 6.0633 0 0 0-.425 2.6303 5.9782 5.9782 0 0 0 .739 3.1393 6.8315 6.8315 0 0 0 1.824 2.0044c.74.5158 1.551.9198 2.408 1.199.912.302 1.651.5949 2.372.9153a9.105 9.105 0 0 1 1.824.9152c.227.1463.414.3483.541.5869.128.2386.193.506.189.7768.029.3081-.026.6182-.159.8972-.134.279-.34.5162-.598.6862a3.7955 3.7955 0 0 1-2.007.4668 10.8027 10.8027 0 0 1-3.375-.5309 15.2957 15.2957 0 0 1-2.636-1.0525l-1.56 4.1369a13.3811 13.3811 0 0 0 3.265 1.3546c1.402.3928 2.851.5869 4.306.5766 2.791 0 4.889-.6102 6.294-1.8305a6.4362 6.4362 0 0 0 1.621-2.3402c.36-.8915.517-1.8525.459-2.8127a5.7672 5.7672 0 0 0-.739-3.0752 6.4963 6.4963 0 0 0-1.797-1.9403zM157.151 39.5204a5.503 5.503 0 0 1-1.496.1739c-.343.0374-.689-.03-.993-.1933a1.7113 1.7113 0 0 1-.712-.7219 8.0352 8.0352 0 0 1-.456-3.176v-8.2372h5.281v-4.6952h-5.281v-5.5922l-5.62 1.5743v4.0179h-2.982v4.6861h2.982v10.7541c0 2.3065.469 3.9631 1.405 4.9698a5.7093 5.7093 0 0 0 2.033 1.2272 5.6939 5.6939 0 0 0 2.355.2921 13.0596 13.0596 0 0 0 3.156-.3844 13.975 13.975 0 0 0 2.737-.9152l-.995-4.2651c-.458.1982-.93.3604-1.414.4851z"/><path fill="#404142" d="M170.26 23.3114c.72-1.428 1.69-2.7145 2.864-3.7983a10.1832 10.1832 0 0 1 3.466-2.0959 11.1595 11.1595 0 0 1 3.649-.6407 12.5252 12.5252 0 0 1 5.738 1.0251l1.432-3.1576a11.923 11.923 0 0 0-2.682-.7414 24.4311 24.4311 0 0 0-4.187-.2837 14.8784 14.8784 0 0 0-4.908.8603 14.5973 14.5973 0 0 0-4.707 2.7458 17.314 17.314 0 0 0-3.876 4.7776 21.9412 21.9412 0 0 0-2.418 7.1023 19.87 19.87 0 0 0-.2 6.9376 10.8424 10.8424 0 0 0 1.952 4.7959 8.611 8.611 0 0 0 3.648 2.7457c1.572.6291 3.253.9402 4.945.9153a23.4161 23.4161 0 0 0 4.305-.3844 9.2598 9.2598 0 0 0 3.53-1.3729l-.365-2.7458c-.828.438-1.707.7701-2.618.9885a14.1834 14.1834 0 0 1-3.466.3844 9.3271 9.3271 0 0 1-3.868-.7688 6.7544 6.7544 0 0 1-2.736-2.3064 8.9822 8.9822 0 0 1-1.46-3.8441 16.2642 16.2642 0 0 1 .183-5.3725 19.731 19.731 0 0 1 1.779-5.766zM204.029 24.4829a3.8676 3.8676 0 0 0-1.825-1.5559 8.2552 8.2552 0 0 0-3.502-.6041 22.425 22.425 0 0 0-4.653.4759 14.9932 14.9932 0 0 0-4.086 1.4461l.62 2.6085c.486-.2557.993-.47 1.514-.6407a16.8397 16.8397 0 0 1 1.806-.4668 21.1321 21.1321 0 0 1 1.825-.302c.532-.0703 1.068-.107 1.605-.1098 1.666 0 2.761.305 3.284.9152.529.6315.648 1.7207.374 3.2857-.128.6895-.31 1.4583-.547 2.3065a8.471 8.471 0 0 0-1.177-.0824h-1.186a27.5373 27.5373 0 0 0-4.406.3203c-1.234.1774-2.435.535-3.566 1.0617a7.3564 7.3564 0 0 0-2.536 2.0044 6.78 6.78 0 0 0-1.341 3.1393 5.6435 5.6435 0 0 0 .046 2.5169c.18.7063.53 1.3571 1.021 1.8946.505.5438 1.13.9609 1.825 1.2173.8.2947 1.647.4405 2.499.4302a9.7974 9.7974 0 0 0 2.518-.3021 10.6794 10.6794 0 0 0 2.043-.7413 8.045 8.045 0 0 0 1.587-1.0251c.426-.3578.823-.7496 1.186-1.1715h.21l.374 2.9837h2.554a12.9758 12.9758 0 0 1 0-2.5993c.082-.9153.219-1.9403.401-2.9929.262-1.4461.581-2.9715.958-4.5762.377-1.6047.718-3.2705 1.022-4.9973.134-.758.192-1.5276.173-2.2972a4.4175 4.4175 0 0 0-.62-2.1417zm-4.725 13.4999a5.8403 5.8403 0 0 1-.913 1.1532 6.691 6.691 0 0 1-1.341 1.0891 7.91 7.91 0 0 1-1.824.8146 7.3314 7.3314 0 0 1-2.217.3204 3.4193 3.4193 0 0 1-1.395-.1842 3.4254 3.4254 0 0 1-1.204-.7311c-.3-.3243-.515-.718-.627-1.1459a2.701 2.701 0 0 1-.012-1.307c.108-.674.428-1.296.912-1.7755a5.1806 5.1806 0 0 1 1.752-1.1075 9.3413 9.3413 0 0 1 2.353-.5583c.876-.0951 1.756-.144 2.636-.1464h1.232l1.222.064-.574 3.5146zM215.431 22.6707l.109-.6041c.146-.8512.301-1.5925.466-2.2332a5.7828 5.7828 0 0 1 .629-1.62c.259-.4359.639-.786 1.095-1.0067a4.0464 4.0464 0 0 1 1.824-.3387c.55-.0007 1.099.0421 1.642.1282a6.3654 6.3654 0 0 1 1.824.5491l1.287-2.8556a8.925 8.925 0 0 0-2.108-.6406 15.446 15.446 0 0 0-2.417-.1739 9.0957 9.0957 0 0 0-2.983.4484 5.7745 5.7745 0 0 0-2.198 1.3546 7.2389 7.2389 0 0 0-1.487 2.3705 18.1463 18.1463 0 0 0-.912 3.4139l-.21 1.1989h-3.375l-.538 2.9837h3.375l-3.275 18.305h3.421l3.275-18.305h5.755l.539-2.9837-5.738.0092zM239.449 26.231a4.9718 4.9718 0 0 0-1.451-2.5352 5.2253 5.2253 0 0 0-2.417-1.2173 12.6327 12.6327 0 0 0-2.882-.3203 10.4578 10.4578 0 0 0-4.066.6679 10.4783 10.4783 0 0 0-3.496 2.1876c-1.989 1.9037-3.309 4.6769-3.959 8.3196a17.0473 17.0473 0 0 0-.256 4.5763 8.0583 8.0583 0 0 0 1.095 3.5145 5.894 5.894 0 0 0 2.581 2.2607 9.637 9.637 0 0 0 4.142.7962c1.45.0035 2.894-.1999 4.287-.604a11.8283 11.8283 0 0 0 3.548-1.62l-.848-2.4712a7.6813 7.6813 0 0 1-2.426 1.1898 9.5242 9.5242 0 0 1-3.029.5126 7.887 7.887 0 0 1-3.129-.5309 4.1225 4.1225 0 0 1-1.86-1.4827 5.3025 5.3025 0 0 1-.767-2.4528 12.7044 12.7044 0 0 1 .201-3.3315h13.884c.345-1.0163.616-2.0563.811-3.1119.328-1.4292.34-2.9129.037-4.3474zm-3.485 4.7593h-10.681a8.054 8.054 0 0 1 2.645-4.5213 6.9717 6.9717 0 0 1 4.324-1.3271 3.9358 3.9358 0 0 1 1.809.2548c.575.2257 1.09.5836 1.502 1.0448.657.8664.791 2.3827.401 4.5488zM238.92 14.1772l.164-.8969h-3.849l-3.686 6.3609h2.035l5.336-5.464zM246.591 24.1625l-.328-.1556c.213-.0097.417-.0866.584-.2196a.675.675 0 0 0 .184-.251.6883.6883 0 0 0 .053-.3073.7486.7486 0 0 0-.078-.3919.7383.7383 0 0 0-.269-.2945 1.6618 1.6618 0 0 0-.83-.2014h-.629a2.4621 2.4621 0 0 0-.52.0915v2.9471h.593v-1.3271l.556.1648.83 1.1898h.703l-.849-1.2448zm-.848-.4576h-.392v-.8054a.507.507 0 0 1 .191 0h.237c.447 0 .675.1373.675.4027a.3588.3588 0 0 1-.043.2031.3524.3524 0 0 1-.148.1447 1.0096 1.0096 0 0 1-.52.0549z"/><path fill="#404142" d="M248.762 22.6432a2.6725 2.6725 0 0 0-.647-.9152 2.743 2.743 0 0 0-.94-.5583 3.4448 3.4448 0 0 0-1.195-.2014 3.314 3.314 0 0 0-1.177.2014 2.7442 2.7442 0 0 0-.976.5766c-.283.2553-.509.567-.666.9152a3.341 3.341 0 0 0-.273 1.2539c-.011.442.069.8815.237 1.2905.151.3466.371.6582.648.9153.283.2513.611.4468.967.5766.387.1335.794.2015 1.204.2013.4-.0018.798-.0698 1.176-.2013.358-.132.688-.3273.976-.5766.28-.2562.504-.5679.657-.9153.171-.4083.255-.8478.246-1.2905a3.3373 3.3373 0 0 0-.237-1.2722zm-.675 2.3339a2.0685 2.0685 0 0 1-.492.7322 2.1254 2.1254 0 0 1-.739.4302 2.995 2.995 0 0 1-.912.1373 2.6774 2.6774 0 0 1-.913-.1465 2.1379 2.1379 0 0 1-.738-.4393 1.8241 1.8241 0 0 1-.502-.723 2.581 2.581 0 0 1-.192-1.0343 2.9105 2.9105 0 0 1 .174-1.025c.107-.278.276-.5282.492-.7322.21-.1967.458-.3464.73-.4394.295-.0939.602-.1433.912-.1464.31.0001.618.0495.912.1464.274.095.525.2444.739.4394.22.2035.391.4536.502.7322.131.3253.193.6744.182 1.025a2.743 2.743 0 0 1-.155 1.0434z"/></svg>