<svg width="898" height="111" viewBox="0 0 898 111" fill="none" xmlns="http://www.w3.org/2000/svg">
<rect width="898" height="111" fill="#2A3852"/>
<path d="M616 34C616 31.2386 618.239 29 621 29H854C856.761 29 859 31.2386 859 34V77C859 79.7614 856.761 82 854 82H621C618.239 82 616 79.7614 616 77V34Z" fill="#0AB42B"/>
<path d="M662.842 62H658.984V50.877H655.498V47.7227H666.318V50.877H662.842V62ZM675.352 62L674.619 60.5352H674.541C674.027 61.1732 673.503 61.6094 672.969 61.8438C672.435 62.0781 671.745 62.1953 670.898 62.1953C669.857 62.1953 669.036 61.8828 668.438 61.2578C667.839 60.6328 667.539 59.7539 667.539 58.6211C667.539 57.4427 667.949 56.5671 668.77 55.9941C669.59 55.4147 670.778 55.0892 672.334 55.0176L674.18 54.959V54.8027C674.18 53.8913 673.73 53.4355 672.832 53.4355C672.025 53.4355 670.999 53.709 669.756 54.2559L668.652 51.7363C669.941 51.0723 671.569 50.7402 673.535 50.7402C674.954 50.7402 676.051 51.0918 676.826 51.7949C677.607 52.498 677.998 53.4811 677.998 54.7441V62H675.352ZM672.52 59.5C672.982 59.5 673.376 59.3535 673.701 59.0605C674.033 58.7676 674.199 58.3867 674.199 57.918V57.0586L673.32 57.0977C672.064 57.1432 671.436 57.6055 671.436 58.4844C671.436 59.1615 671.797 59.5 672.52 59.5ZM684.297 55.7793C684.759 55.0436 685.153 54.4707 685.479 54.0605L687.959 50.9355H692.217L688.379 55.6426L692.461 62H688.096L685.674 58.0352L684.434 58.9824V62H680.596V46.8047H684.434V52.7812C684.434 53.8034 684.362 54.8027 684.219 55.7793H684.297ZM699.121 62.1953C697.279 62.1953 695.846 61.707 694.824 60.7305C693.809 59.7474 693.301 58.3509 693.301 56.541C693.301 54.6725 693.773 53.2402 694.717 52.2441C695.661 51.2415 697.008 50.7402 698.76 50.7402C700.426 50.7402 701.712 51.1764 702.617 52.0488C703.529 52.9147 703.984 54.1647 703.984 55.7988V57.498H697.158C697.184 58.1165 697.409 58.6016 697.832 58.9531C698.262 59.3047 698.844 59.4805 699.58 59.4805C700.251 59.4805 700.866 59.4186 701.426 59.2949C701.992 59.1647 702.604 58.9466 703.262 58.6406V61.3848C702.663 61.6908 702.044 61.9023 701.406 62.0195C700.768 62.1367 700.007 62.1953 699.121 62.1953ZM698.896 53.3379C698.447 53.3379 698.07 53.4811 697.764 53.7676C697.464 54.0475 697.288 54.4902 697.236 55.0957H700.518C700.505 54.5618 700.352 54.1354 700.059 53.8164C699.772 53.4974 699.385 53.3379 698.896 53.3379ZM716.758 59.1777C717.272 59.1777 717.887 59.0508 718.604 58.7969V61.5801C718.089 61.8014 717.598 61.9577 717.129 62.0488C716.667 62.1465 716.123 62.1953 715.498 62.1953C714.215 62.1953 713.291 61.8828 712.725 61.2578C712.158 60.6263 711.875 59.6595 711.875 58.3574V53.7969H710.537V52.2441L712.236 51.043L713.223 48.7188H715.723V50.9355H718.438V53.7969H715.723V58.1035C715.723 58.8197 716.068 59.1777 716.758 59.1777ZM727.5 62V55.9648C727.5 54.4805 727.061 53.7383 726.182 53.7383C725.557 53.7383 725.094 54.002 724.795 54.5293C724.502 55.0501 724.355 55.9193 724.355 57.1367V62H720.537V46.8047H724.355V48.9629C724.355 49.9395 724.303 51.0527 724.199 52.3027H724.375C724.74 51.7298 725.173 51.3262 725.674 51.0918C726.175 50.8574 726.758 50.7402 727.422 50.7402C728.659 50.7402 729.619 51.0983 730.303 51.8145C730.993 52.5241 731.338 53.5202 731.338 54.8027V62H727.5ZM739.277 62.1953C737.435 62.1953 736.003 61.707 734.98 60.7305C733.965 59.7474 733.457 58.3509 733.457 56.541C733.457 54.6725 733.929 53.2402 734.873 52.2441C735.817 51.2415 737.165 50.7402 738.916 50.7402C740.583 50.7402 741.868 51.1764 742.773 52.0488C743.685 52.9147 744.141 54.1647 744.141 55.7988V57.498H737.314C737.34 58.1165 737.565 58.6016 737.988 58.9531C738.418 59.3047 739.001 59.4805 739.736 59.4805C740.407 59.4805 741.022 59.4186 741.582 59.2949C742.148 59.1647 742.76 58.9466 743.418 58.6406V61.3848C742.819 61.6908 742.201 61.9023 741.562 62.0195C740.924 62.1367 740.163 62.1953 739.277 62.1953ZM739.053 53.3379C738.604 53.3379 738.226 53.4811 737.92 53.7676C737.62 54.0475 737.445 54.4902 737.393 55.0957H740.674C740.661 54.5618 740.508 54.1354 740.215 53.8164C739.928 53.4974 739.541 53.3379 739.053 53.3379ZM760.039 58.6016C760.039 59.7865 759.635 60.6816 758.828 61.2871C758.021 61.8926 756.862 62.1953 755.352 62.1953C754.531 62.1953 753.818 62.1497 753.213 62.0586C752.607 61.974 751.989 61.8145 751.357 61.5801V58.5234C751.95 58.7839 752.598 58.9987 753.301 59.168C754.01 59.3372 754.642 59.4219 755.195 59.4219C756.022 59.4219 756.436 59.2331 756.436 58.8555C756.436 58.6602 756.318 58.4876 756.084 58.3379C755.856 58.1816 755.186 57.8822 754.072 57.4395C753.057 57.0228 752.347 56.5508 751.943 56.0234C751.54 55.4896 751.338 54.8158 751.338 54.002C751.338 52.9733 751.735 52.1725 752.529 51.5996C753.324 51.0267 754.447 50.7402 755.898 50.7402C756.628 50.7402 757.311 50.8216 757.949 50.9844C758.594 51.1406 759.261 51.3717 759.951 51.6777L758.916 54.1387C758.408 53.9108 757.871 53.7188 757.305 53.5625C756.738 53.3997 756.276 53.3184 755.918 53.3184C755.293 53.3184 754.98 53.4714 754.98 53.7773C754.98 53.9661 755.088 54.1289 755.303 54.2656C755.524 54.3958 756.156 54.666 757.197 55.0762C757.972 55.3952 758.548 55.7077 758.926 56.0137C759.31 56.3197 759.59 56.681 759.766 57.0977C759.948 57.5078 760.039 58.0091 760.039 58.6016ZM770.039 62L769.561 60.623H769.336C769.017 61.1309 768.571 61.5215 767.998 61.7949C767.432 62.0618 766.764 62.1953 765.996 62.1953C764.779 62.1953 763.831 61.8438 763.154 61.1406C762.477 60.431 762.139 59.4316 762.139 58.1426V50.9355H765.957V56.9805C765.957 57.7031 766.058 58.25 766.26 58.6211C766.468 58.9922 766.807 59.1777 767.275 59.1777C767.933 59.1777 768.402 58.9206 768.682 58.4062C768.962 57.8854 769.102 57.0098 769.102 55.7793V50.9355H772.92V62H770.039ZM782.236 50.7402C782.568 50.7402 782.884 50.7663 783.184 50.8184L783.398 50.8574L783.057 54.4609C782.744 54.3828 782.311 54.3438 781.758 54.3438C780.924 54.3438 780.319 54.5358 779.941 54.9199C779.564 55.2975 779.375 55.8444 779.375 56.5605V62H775.557V50.9355H778.398L778.994 52.7031H779.18C779.499 52.1172 779.941 51.6452 780.508 51.2871C781.081 50.9225 781.657 50.7402 782.236 50.7402ZM787.852 62L783.633 50.9355H787.617L789.492 57.4785C789.499 57.5111 789.512 57.5664 789.531 57.6445C789.551 57.7227 789.57 57.8171 789.59 57.9277C789.609 58.0319 789.626 58.1458 789.639 58.2695C789.658 58.3867 789.668 58.4974 789.668 58.6016H789.736C789.736 58.263 789.795 57.8952 789.912 57.498L791.875 50.9355H795.85L791.631 62H787.852ZM802.52 62.1953C800.677 62.1953 799.245 61.707 798.223 60.7305C797.207 59.7474 796.699 58.3509 796.699 56.541C796.699 54.6725 797.171 53.2402 798.115 52.2441C799.059 51.2415 800.407 50.7402 802.158 50.7402C803.825 50.7402 805.111 51.1764 806.016 52.0488C806.927 52.9147 807.383 54.1647 807.383 55.7988V57.498H800.557C800.583 58.1165 800.807 58.6016 801.23 58.9531C801.66 59.3047 802.243 59.4805 802.979 59.4805C803.649 59.4805 804.264 59.4186 804.824 59.2949C805.391 59.1647 806.003 58.9466 806.66 58.6406V61.3848C806.061 61.6908 805.443 61.9023 804.805 62.0195C804.167 62.1367 803.405 62.1953 802.52 62.1953ZM802.295 53.3379C801.846 53.3379 801.468 53.4811 801.162 53.7676C800.863 54.0475 800.687 54.4902 800.635 55.0957H803.916C803.903 54.5618 803.75 54.1354 803.457 53.8164C803.171 53.4974 802.783 53.3379 802.295 53.3379ZM808.203 50.9355H812.227L814.102 57.2832C814.193 57.6152 814.255 58.0156 814.287 58.4844H814.365C814.417 58.0352 814.495 57.6413 814.6 57.3027L816.523 50.9355H820.42L816.045 62.7031C815.485 64.2005 814.795 65.2585 813.975 65.877C813.161 66.4954 812.096 66.8047 810.781 66.8047C810.273 66.8047 809.753 66.7493 809.219 66.6387V63.6406C809.564 63.7188 809.958 63.7578 810.4 63.7578C810.739 63.7578 811.035 63.6927 811.289 63.5625C811.543 63.4323 811.764 63.2467 811.953 63.0059C812.142 62.7715 812.344 62.3841 812.559 61.8438L808.203 50.9355Z" fill="white"/>
<path d="M67.667 57H61.481V44.3677H49.8896V57H43.6836V27.7314H49.8896V39.2026H61.481V27.7314H67.667V57ZM79.4585 45.769C79.4585 47.9845 79.8188 49.6595 80.5396 50.7939C81.2736 51.9284 82.4614 52.4956 84.103 52.4956C85.7313 52.4956 86.8991 51.9351 87.6064 50.814C88.3271 49.6795 88.6875 47.9979 88.6875 45.769C88.6875 43.5535 88.3271 41.8919 87.6064 40.7842C86.8857 39.6764 85.7046 39.1226 84.063 39.1226C82.4347 39.1226 81.2603 39.6764 80.5396 40.7842C79.8188 41.8786 79.4585 43.5402 79.4585 45.769ZM94.9336 45.769C94.9336 49.4126 93.9727 52.262 92.0508 54.3174C90.1289 56.3727 87.453 57.4004 84.0229 57.4004C81.8742 57.4004 79.979 56.9333 78.3374 55.999C76.6958 55.0514 75.4346 53.6968 74.5537 51.9351C73.6729 50.1733 73.2324 48.118 73.2324 45.769C73.2324 42.1121 74.1867 39.2694 76.0952 37.2407C78.0037 35.2121 80.6864 34.1978 84.1431 34.1978C86.2918 34.1978 88.187 34.6649 89.8286 35.5991C91.4702 36.5334 92.7314 37.8747 93.6123 39.623C94.4932 41.3714 94.9336 43.4201 94.9336 45.769ZM118.376 57L116.655 49.1724L114.333 39.2827H114.192L110.108 57H103.542L97.1758 34.6182H103.262L105.844 44.5278C106.258 46.3029 106.678 48.752 107.105 51.875H107.226C107.279 50.8607 107.513 49.2524 107.926 47.0503L108.247 45.3486L111.009 34.6182H117.736L120.358 45.3486C120.412 45.6423 120.492 46.076 120.599 46.6499C120.719 47.2238 120.832 47.8377 120.939 48.4917C121.046 49.1323 121.139 49.7663 121.219 50.3936C121.313 51.0075 121.366 51.5013 121.379 51.875H121.5C121.62 50.9141 121.833 49.5994 122.14 47.9312C122.447 46.2495 122.667 45.1151 122.801 44.5278L125.483 34.6182H131.469L125.023 57H118.376ZM152.83 57.4004C150.201 57.4004 148.132 56.3794 146.624 54.3374C145.129 52.2954 144.382 49.466 144.382 45.8491C144.382 42.1789 145.143 39.3228 146.664 37.2808C148.199 35.2254 150.308 34.1978 152.99 34.1978C155.806 34.1978 157.955 35.2922 159.437 37.481H159.637C159.33 35.8127 159.176 34.3245 159.176 33.0166V25.8496H165.302V57H160.618L159.437 54.0972H159.176C157.788 56.2993 155.673 57.4004 152.83 57.4004ZM154.972 52.5356C156.534 52.5356 157.675 52.0819 158.396 51.1743C159.13 50.2668 159.53 48.7253 159.597 46.5498V45.8892C159.597 43.4868 159.223 41.7651 158.476 40.7241C157.742 39.6831 156.54 39.1626 154.872 39.1626C153.511 39.1626 152.45 39.7432 151.689 40.9043C150.942 42.0521 150.568 43.7271 150.568 45.9292C150.568 48.1313 150.948 49.7863 151.709 50.894C152.47 51.9884 153.557 52.5356 154.972 52.5356ZM176.553 45.769C176.553 47.9845 176.914 49.6595 177.634 50.7939C178.368 51.9284 179.556 52.4956 181.198 52.4956C182.826 52.4956 183.994 51.9351 184.701 50.814C185.422 49.6795 185.782 47.9979 185.782 45.769C185.782 43.5535 185.422 41.8919 184.701 40.7842C183.98 39.6764 182.799 39.1226 181.158 39.1226C179.529 39.1226 178.355 39.6764 177.634 40.7842C176.914 41.8786 176.553 43.5402 176.553 45.769ZM192.028 45.769C192.028 49.4126 191.067 52.262 189.146 54.3174C187.224 56.3727 184.548 57.4004 181.118 57.4004C178.969 57.4004 177.074 56.9333 175.432 55.999C173.791 55.0514 172.529 53.6968 171.648 51.9351C170.768 50.1733 170.327 48.118 170.327 45.769C170.327 42.1121 171.281 39.2694 173.19 37.2407C175.098 35.2121 177.781 34.1978 181.238 34.1978C183.387 34.1978 185.282 34.6649 186.923 35.5991C188.565 36.5334 189.826 37.8747 190.707 39.623C191.588 41.3714 192.028 43.4201 192.028 45.769ZM204.521 34.6182H211.207L215.431 47.2104C215.792 48.3049 216.038 49.5994 216.172 51.0942H216.292C216.439 49.7196 216.726 48.425 217.153 47.2104L221.297 34.6182H227.843L218.374 59.8628C217.507 62.1984 216.265 63.9468 214.65 65.1079C213.049 66.269 211.174 66.8496 209.025 66.8496C207.971 66.8496 206.936 66.7362 205.922 66.5093V61.6646C206.656 61.8381 207.457 61.9248 208.324 61.9248C209.405 61.9248 210.346 61.5911 211.147 60.9238C211.961 60.2699 212.595 59.2756 213.049 57.9409L213.409 56.8398L204.521 34.6182ZM235.931 45.769C235.931 47.9845 236.292 49.6595 237.012 50.7939C237.746 51.9284 238.934 52.4956 240.576 52.4956C242.204 52.4956 243.372 51.9351 244.079 50.814C244.8 49.6795 245.16 47.9979 245.16 45.769C245.16 43.5535 244.8 41.8919 244.079 40.7842C243.358 39.6764 242.177 39.1226 240.536 39.1226C238.907 39.1226 237.733 39.6764 237.012 40.7842C236.292 41.8786 235.931 43.5402 235.931 45.769ZM251.406 45.769C251.406 49.4126 250.445 52.262 248.523 54.3174C246.602 56.3727 243.926 57.4004 240.496 57.4004C238.347 57.4004 236.452 56.9333 234.81 55.999C233.168 55.0514 231.907 53.6968 231.026 51.9351C230.146 50.1733 229.705 48.118 229.705 45.769C229.705 42.1121 230.659 39.2694 232.568 37.2407C234.476 35.2121 237.159 34.1978 240.616 34.1978C242.764 34.1978 244.66 34.6649 246.301 35.5991C247.943 36.5334 249.204 37.8747 250.085 39.623C250.966 41.3714 251.406 43.4201 251.406 45.769ZM272.307 57L271.486 54.1372H271.166C270.512 55.1782 269.584 55.9857 268.383 56.5596C267.182 57.1201 265.814 57.4004 264.279 57.4004C261.65 57.4004 259.668 56.6997 258.333 55.2983C256.998 53.8836 256.331 51.855 256.331 49.2124V34.6182H262.437V47.6909C262.437 49.3058 262.724 50.5203 263.298 51.3345C263.872 52.1353 264.786 52.5356 266.041 52.5356C267.749 52.5356 268.983 51.9684 269.744 50.834C270.505 49.6862 270.885 47.791 270.885 45.1484V34.6182H276.991V57H272.307ZM300.154 57H294.048V25.8496H300.154V57ZM306.32 28.8325C306.32 26.8439 307.428 25.8496 309.643 25.8496C311.859 25.8496 312.966 26.8439 312.966 28.8325C312.966 29.7801 312.686 30.5208 312.125 31.0547C311.578 31.5752 310.751 31.8354 309.643 31.8354C307.428 31.8354 306.32 30.8345 306.32 28.8325ZM312.686 57H306.58V34.6182H312.686V57ZM324.978 44.8281L327.641 41.4248L333.907 34.6182H340.793L331.905 44.3276L341.334 57H334.287L327.841 47.9312L325.218 50.0332V57H319.112V25.8496H325.218V39.7432L324.898 44.8281H324.978ZM353.806 38.542C352.512 38.542 351.497 38.9557 350.763 39.7832C350.029 40.5973 349.609 41.7585 349.502 43.2666H358.07C358.044 41.7585 357.65 40.5973 356.889 39.7832C356.128 38.9557 355.101 38.542 353.806 38.542ZM354.667 57.4004C351.063 57.4004 348.247 56.4061 346.219 54.4175C344.19 52.4289 343.176 49.6128 343.176 45.9692C343.176 42.2189 344.11 39.3228 345.979 37.2808C347.86 35.2254 350.456 34.1978 353.766 34.1978C356.929 34.1978 359.392 35.0986 361.153 36.9004C362.915 38.7021 363.796 41.1912 363.796 44.3677V47.3306H349.362C349.429 49.0656 349.942 50.4202 350.903 51.3945C351.864 52.3688 353.212 52.856 354.947 52.856C356.295 52.856 357.57 52.7158 358.771 52.4355C359.972 52.1553 361.227 51.7082 362.535 51.0942V55.8188C361.467 56.3527 360.326 56.7464 359.111 57C357.897 57.2669 356.415 57.4004 354.667 57.4004ZM391.183 57H384.977V32.8965H377.029V27.7314H399.13V32.8965H391.183V57ZM412.423 38.542C411.129 38.542 410.114 38.9557 409.38 39.7832C408.646 40.5973 408.226 41.7585 408.119 43.2666H416.688C416.661 41.7585 416.267 40.5973 415.506 39.7832C414.746 38.9557 413.718 38.542 412.423 38.542ZM413.284 57.4004C409.681 57.4004 406.865 56.4061 404.836 54.4175C402.807 52.4289 401.793 49.6128 401.793 45.9692C401.793 42.2189 402.727 39.3228 404.596 37.2808C406.478 35.2254 409.073 34.1978 412.383 34.1978C415.546 34.1978 418.009 35.0986 419.771 36.9004C421.532 38.7021 422.413 41.1912 422.413 44.3677V47.3306H407.979C408.046 49.0656 408.56 50.4202 409.521 51.3945C410.481 52.3688 411.829 52.856 413.564 52.856C414.912 52.856 416.187 52.7158 417.388 52.4355C418.589 52.1553 419.844 51.7082 421.152 51.0942V55.8188C420.084 56.3527 418.943 56.7464 417.729 57C416.514 57.2669 415.033 57.4004 413.284 57.4004ZM442.993 50.3535C442.993 52.6491 442.192 54.3975 440.591 55.5986C439.003 56.7998 436.62 57.4004 433.444 57.4004C431.816 57.4004 430.428 57.2869 429.28 57.0601C428.132 56.8465 427.058 56.5262 426.057 56.0991V51.0542C427.191 51.5881 428.466 52.0352 429.88 52.3955C431.308 52.7559 432.563 52.936 433.644 52.936C435.86 52.936 436.967 52.2954 436.967 51.0142C436.967 50.5337 436.82 50.1466 436.527 49.853C436.233 49.5461 435.726 49.2057 435.005 48.832C434.285 48.445 433.324 47.9979 432.123 47.4907C430.401 46.77 429.133 46.1027 428.319 45.4888C427.518 44.8748 426.931 44.1742 426.557 43.3867C426.197 42.5859 426.017 41.605 426.017 40.4438C426.017 38.4552 426.784 36.9204 428.319 35.8394C429.867 34.745 432.056 34.1978 434.885 34.1978C437.581 34.1978 440.204 34.785 442.753 35.9595L440.911 40.3638C439.79 39.8833 438.742 39.4896 437.768 39.1826C436.794 38.8757 435.799 38.7222 434.785 38.7222C432.983 38.7222 432.083 39.2093 432.083 40.1836C432.083 40.7308 432.369 41.2046 432.943 41.605C433.531 42.0054 434.805 42.5993 436.767 43.3867C438.515 44.0941 439.797 44.7547 440.611 45.3687C441.425 45.9826 442.026 46.6899 442.413 47.4907C442.8 48.2915 442.993 49.2458 442.993 50.3535ZM457.187 52.5356C458.255 52.5356 459.536 52.3021 461.031 51.835V56.3794C459.509 57.0601 457.641 57.4004 455.425 57.4004C452.983 57.4004 451.201 56.7865 450.08 55.5586C448.972 54.3174 448.418 52.4622 448.418 49.9932V39.2026H445.496V36.6201L448.859 34.5781L450.621 29.8535H454.524V34.6182H460.791V39.2026H454.524V49.9932C454.524 50.8607 454.765 51.5013 455.245 51.915C455.739 52.3288 456.386 52.5356 457.187 52.5356ZM478.488 32.4761C476.152 32.4761 474.344 33.3569 473.062 35.1187C471.781 36.867 471.141 39.3094 471.141 42.4458C471.141 48.9722 473.59 52.2354 478.488 52.2354C480.543 52.2354 483.032 51.7215 485.955 50.6938V55.8989C483.553 56.8999 480.87 57.4004 477.907 57.4004C473.65 57.4004 470.393 56.1125 468.138 53.5366C465.882 50.9474 464.754 47.2371 464.754 42.4058C464.754 39.3628 465.308 36.7002 466.416 34.418C467.524 32.1224 469.112 30.3674 471.181 29.1528C473.263 27.925 475.698 27.311 478.488 27.311C481.331 27.311 484.187 27.9984 487.056 29.373L485.054 34.418C483.96 33.8975 482.859 33.4437 481.751 33.0566C480.643 32.6696 479.556 32.4761 478.488 32.4761ZM505.935 57L504.753 53.957H504.593C503.566 55.2516 502.505 56.1525 501.41 56.6597C500.329 57.1535 498.914 57.4004 497.166 57.4004C495.017 57.4004 493.322 56.7865 492.081 55.5586C490.853 54.3307 490.239 52.5824 490.239 50.3135C490.239 47.9378 491.067 46.1895 492.722 45.0684C494.39 43.9339 496.899 43.3066 500.249 43.1865L504.133 43.0664V42.0854C504.133 39.8166 502.972 38.6821 500.649 38.6821C498.861 38.6821 496.759 39.2227 494.343 40.3037L492.321 36.1797C494.897 34.8317 497.753 34.1577 500.89 34.1577C503.893 34.1577 506.195 34.8117 507.796 36.1196C509.398 37.4276 510.199 39.4162 510.199 42.0854V57H505.935ZM504.133 46.6299L501.771 46.71C499.995 46.7633 498.674 47.0837 497.807 47.6709C496.939 48.2581 496.505 49.1523 496.505 50.3535C496.505 52.0752 497.493 52.936 499.468 52.936C500.883 52.936 502.011 52.529 502.852 51.7148C503.706 50.9007 504.133 49.8197 504.133 48.4717V46.6299ZM528.877 39.2026H523.592V57H517.486V39.2026H514.123V36.2598L517.486 34.6182V32.9766C517.486 30.4274 518.113 28.5656 519.368 27.3911C520.622 26.2166 522.631 25.6294 525.394 25.6294C527.502 25.6294 529.377 25.943 531.019 26.5703L529.458 31.0547C528.23 30.6676 527.095 30.4741 526.054 30.4741C525.187 30.4741 524.559 30.7344 524.172 31.2549C523.785 31.762 523.592 32.416 523.592 33.2168V34.6182H528.877V39.2026ZM541.669 38.542C540.375 38.542 539.361 38.9557 538.626 39.7832C537.892 40.5973 537.472 41.7585 537.365 43.2666H545.934C545.907 41.7585 545.513 40.5973 544.752 39.7832C543.992 38.9557 542.964 38.542 541.669 38.542ZM542.53 57.4004C538.927 57.4004 536.111 56.4061 534.082 54.4175C532.053 52.4289 531.039 49.6128 531.039 45.9692C531.039 42.2189 531.973 39.3228 533.842 37.2808C535.724 35.2254 538.319 34.1978 541.629 34.1978C544.792 34.1978 547.255 35.0986 549.017 36.9004C550.778 38.7021 551.659 41.1912 551.659 44.3677V47.3306H537.225C537.292 49.0656 537.806 50.4202 538.767 51.3945C539.728 52.3688 541.076 52.856 542.811 52.856C544.159 52.856 545.433 52.7158 546.634 52.4355C547.835 52.1553 549.09 51.7082 550.398 51.0942V55.8188C549.33 56.3527 548.189 56.7464 546.975 57C545.76 57.2669 544.279 57.4004 542.53 57.4004ZM558.946 47.2905V45.8091C558.946 44.5278 559.22 43.4134 559.767 42.4658C560.314 41.5182 561.315 40.5106 562.77 39.4429C564.171 38.4419 565.092 37.6278 565.533 37.0005C565.986 36.3732 566.213 35.6725 566.213 34.8984C566.213 34.0309 565.893 33.3703 565.252 32.9165C564.612 32.4627 563.718 32.2358 562.57 32.2358C560.568 32.2358 558.286 32.8898 555.723 34.1978L553.541 29.8135C556.517 28.1452 559.674 27.311 563.01 27.311C565.76 27.311 567.942 27.9717 569.557 29.293C571.185 30.6143 571.999 32.376 571.999 34.5781C571.999 36.0462 571.665 37.3141 570.998 38.3818C570.331 39.4495 569.063 40.6507 567.194 41.9854C565.913 42.9329 565.099 43.6536 564.752 44.1475C564.418 44.6413 564.251 45.2886 564.251 46.0894V47.2905H558.946ZM558.306 54.1372C558.306 53.0161 558.606 52.1686 559.207 51.5947C559.807 51.0208 560.681 50.7339 561.829 50.7339C562.937 50.7339 563.791 51.0275 564.392 51.6147C565.006 52.202 565.312 53.0428 565.312 54.1372C565.312 55.1916 565.006 56.0257 564.392 56.6396C563.778 57.2402 562.924 57.5405 561.829 57.5405C560.708 57.5405 559.84 57.2469 559.227 56.6597C558.613 56.0591 558.306 55.2183 558.306 54.1372Z" fill="white"/>
<path d="M45.7891 80.9297H46.9844C48.1016 80.9297 48.9375 80.7109 49.4922 80.2734C50.0469 79.8281 50.3242 79.1836 50.3242 78.3398C50.3242 77.4883 50.0898 76.8594 49.6211 76.4531C49.1602 76.0469 48.4336 75.8438 47.4414 75.8438H45.7891V80.9297ZM53.9922 78.2109C53.9922 80.0547 53.4141 81.4648 52.2578 82.4414C51.1094 83.418 49.4727 83.9062 47.3477 83.9062H45.7891V90H42.1562V72.8672H47.6289C49.707 72.8672 51.2852 73.3164 52.3633 74.2148C53.4492 75.1055 53.9922 76.4375 53.9922 78.2109ZM60.5195 90H56.9453V71.7656H60.5195V90ZM69.707 79.1953C68.9492 79.1953 68.3555 79.4375 67.9258 79.9219C67.4961 80.3984 67.25 81.0781 67.1875 81.9609H72.2031C72.1875 81.0781 71.957 80.3984 71.5117 79.9219C71.0664 79.4375 70.4648 79.1953 69.707 79.1953ZM70.2109 90.2344C68.1016 90.2344 66.4531 89.6523 65.2656 88.4883C64.0781 87.3242 63.4844 85.6758 63.4844 83.543C63.4844 81.3477 64.0312 79.6523 65.125 78.457C66.2266 77.2539 67.7461 76.6523 69.6836 76.6523C71.5352 76.6523 72.9766 77.1797 74.0078 78.2344C75.0391 79.2891 75.5547 80.7461 75.5547 82.6055V84.3398H67.1055C67.1445 85.3555 67.4453 86.1484 68.0078 86.7188C68.5703 87.2891 69.3594 87.5742 70.375 87.5742C71.1641 87.5742 71.9102 87.4922 72.6133 87.3281C73.3164 87.1641 74.0508 86.9023 74.8164 86.543V89.3086C74.1914 89.6211 73.5234 89.8516 72.8125 90C72.1016 90.1562 71.2344 90.2344 70.2109 90.2344ZM86.7812 90L86.0898 88.2188H85.9961C85.3945 88.9766 84.7734 89.5039 84.1328 89.8008C83.5 90.0898 82.6719 90.2344 81.6484 90.2344C80.3906 90.2344 79.3984 89.875 78.6719 89.1562C77.9531 88.4375 77.5938 87.4141 77.5938 86.0859C77.5938 84.6953 78.0781 83.6719 79.0469 83.0156C80.0234 82.3516 81.4922 81.9844 83.4531 81.9141L85.7266 81.8438V81.2695C85.7266 79.9414 85.0469 79.2773 83.6875 79.2773C82.6406 79.2773 81.4102 79.5938 79.9961 80.2266L78.8125 77.8125C80.3203 77.0234 81.9922 76.6289 83.8281 76.6289C85.5859 76.6289 86.9336 77.0117 87.8711 77.7773C88.8086 78.543 89.2773 79.707 89.2773 81.2695V90H86.7812ZM85.7266 83.9297L84.3438 83.9766C83.3047 84.0078 82.5312 84.1953 82.0234 84.5391C81.5156 84.8828 81.2617 85.4062 81.2617 86.1094C81.2617 87.1172 81.8398 87.6211 82.9961 87.6211C83.8242 87.6211 84.4844 87.3828 84.9766 86.9062C85.4766 86.4297 85.7266 85.7969 85.7266 85.0078V83.9297ZM102.109 86.1094C102.109 87.4531 101.641 88.4766 100.703 89.1797C99.7734 89.8828 98.3789 90.2344 96.5195 90.2344C95.5664 90.2344 94.7539 90.168 94.082 90.0352C93.4102 89.9102 92.7812 89.7227 92.1953 89.4727V86.5195C92.8594 86.832 93.6055 87.0938 94.4336 87.3047C95.2695 87.5156 96.0039 87.6211 96.6367 87.6211C97.9336 87.6211 98.582 87.2461 98.582 86.4961C98.582 86.2148 98.4961 85.9883 98.3242 85.8164C98.1523 85.6367 97.8555 85.4375 97.4336 85.2188C97.0117 84.9922 96.4492 84.7305 95.7461 84.4336C94.7383 84.0117 93.9961 83.6211 93.5195 83.2617C93.0508 82.9023 92.707 82.4922 92.4883 82.0312C92.2773 81.5625 92.1719 80.9883 92.1719 80.3086C92.1719 79.1445 92.6211 78.2461 93.5195 77.6133C94.4258 76.9727 95.707 76.6523 97.3633 76.6523C98.9414 76.6523 100.477 76.9961 101.969 77.6836L100.891 80.2617C100.234 79.9805 99.6211 79.75 99.0508 79.5703C98.4805 79.3906 97.8984 79.3008 97.3047 79.3008C96.25 79.3008 95.7227 79.5859 95.7227 80.1562C95.7227 80.4766 95.8906 80.7539 96.2266 80.9883C96.5703 81.2227 97.3164 81.5703 98.4648 82.0312C99.4883 82.4453 100.238 82.832 100.715 83.1914C101.191 83.5508 101.543 83.9648 101.77 84.4336C101.996 84.9023 102.109 85.4609 102.109 86.1094ZM110.324 79.1953C109.566 79.1953 108.973 79.4375 108.543 79.9219C108.113 80.3984 107.867 81.0781 107.805 81.9609H112.82C112.805 81.0781 112.574 80.3984 112.129 79.9219C111.684 79.4375 111.082 79.1953 110.324 79.1953ZM110.828 90.2344C108.719 90.2344 107.07 89.6523 105.883 88.4883C104.695 87.3242 104.102 85.6758 104.102 83.543C104.102 81.3477 104.648 79.6523 105.742 78.457C106.844 77.2539 108.363 76.6523 110.301 76.6523C112.152 76.6523 113.594 77.1797 114.625 78.2344C115.656 79.2891 116.172 80.7461 116.172 82.6055V84.3398H107.723C107.762 85.3555 108.062 86.1484 108.625 86.7188C109.188 87.2891 109.977 87.5742 110.992 87.5742C111.781 87.5742 112.527 87.4922 113.23 87.3281C113.934 87.1641 114.668 86.9023 115.434 86.543V89.3086C114.809 89.6211 114.141 89.8516 113.43 90C112.719 90.1562 111.852 90.2344 110.828 90.2344ZM130.832 87.3867C131.457 87.3867 132.207 87.25 133.082 86.9766V89.6367C132.191 90.0352 131.098 90.2344 129.801 90.2344C128.371 90.2344 127.328 89.875 126.672 89.1562C126.023 88.4297 125.699 87.3438 125.699 85.8984V79.582H123.988V78.0703L125.957 76.875L126.988 74.1094H129.273V76.8984H132.941V79.582H129.273V85.8984C129.273 86.4062 129.414 86.7812 129.695 87.0234C129.984 87.2656 130.363 87.3867 130.832 87.3867ZM144.062 90L143.371 88.2188H143.277C142.676 88.9766 142.055 89.5039 141.414 89.8008C140.781 90.0898 139.953 90.2344 138.93 90.2344C137.672 90.2344 136.68 89.875 135.953 89.1562C135.234 88.4375 134.875 87.4141 134.875 86.0859C134.875 84.6953 135.359 83.6719 136.328 83.0156C137.305 82.3516 138.773 81.9844 140.734 81.9141L143.008 81.8438V81.2695C143.008 79.9414 142.328 79.2773 140.969 79.2773C139.922 79.2773 138.691 79.5938 137.277 80.2266L136.094 77.8125C137.602 77.0234 139.273 76.6289 141.109 76.6289C142.867 76.6289 144.215 77.0117 145.152 77.7773C146.09 78.543 146.559 79.707 146.559 81.2695V90H144.062ZM143.008 83.9297L141.625 83.9766C140.586 84.0078 139.812 84.1953 139.305 84.5391C138.797 84.8828 138.543 85.4062 138.543 86.1094C138.543 87.1172 139.121 87.6211 140.277 87.6211C141.105 87.6211 141.766 87.3828 142.258 86.9062C142.758 86.4297 143.008 85.7969 143.008 85.0078V83.9297ZM153.684 82.875L155.242 80.8828L158.91 76.8984H162.941L157.738 82.582L163.258 90H159.133L155.359 84.6914L153.824 85.9219V90H150.25V71.7656H153.824V79.8984L153.637 82.875H153.684ZM170.559 79.1953C169.801 79.1953 169.207 79.4375 168.777 79.9219C168.348 80.3984 168.102 81.0781 168.039 81.9609H173.055C173.039 81.0781 172.809 80.3984 172.363 79.9219C171.918 79.4375 171.316 79.1953 170.559 79.1953ZM171.062 90.2344C168.953 90.2344 167.305 89.6523 166.117 88.4883C164.93 87.3242 164.336 85.6758 164.336 83.543C164.336 81.3477 164.883 79.6523 165.977 78.457C167.078 77.2539 168.598 76.6523 170.535 76.6523C172.387 76.6523 173.828 77.1797 174.859 78.2344C175.891 79.2891 176.406 80.7461 176.406 82.6055V84.3398H167.957C167.996 85.3555 168.297 86.1484 168.859 86.7188C169.422 87.2891 170.211 87.5742 171.227 87.5742C172.016 87.5742 172.762 87.4922 173.465 87.3281C174.168 87.1641 174.902 86.9023 175.668 86.543V89.3086C175.043 89.6211 174.375 89.8516 173.664 90C172.953 90.1562 172.086 90.2344 171.062 90.2344ZM195.941 76.6992C195.941 77.7695 195.617 78.6797 194.969 79.4297C194.32 80.1797 193.41 80.6953 192.238 80.9766V81.0469C193.621 81.2188 194.668 81.6406 195.379 82.3125C196.09 82.9766 196.445 83.875 196.445 85.0078C196.445 86.6562 195.848 87.9414 194.652 88.8633C193.457 89.7773 191.75 90.2344 189.531 90.2344C187.672 90.2344 186.023 89.9258 184.586 89.3086V86.2266C185.25 86.5625 185.98 86.8359 186.777 87.0469C187.574 87.2578 188.363 87.3633 189.145 87.3633C190.34 87.3633 191.223 87.1602 191.793 86.7539C192.363 86.3477 192.648 85.6953 192.648 84.7969C192.648 83.9922 192.32 83.4219 191.664 83.0859C191.008 82.75 189.961 82.582 188.523 82.582H187.223V79.8047H188.547C189.875 79.8047 190.844 79.6328 191.453 79.2891C192.07 78.9375 192.379 78.3398 192.379 77.4961C192.379 76.1992 191.566 75.5508 189.941 75.5508C189.379 75.5508 188.805 75.6445 188.219 75.832C187.641 76.0195 186.996 76.3438 186.285 76.8047L184.609 74.3086C186.172 73.1836 188.035 72.6211 190.199 72.6211C191.973 72.6211 193.371 72.9805 194.395 73.6992C195.426 74.418 195.941 75.418 195.941 76.6992ZM217.223 90H213.648V82.3477C213.648 81.4023 213.488 80.6953 213.168 80.2266C212.855 79.75 212.359 79.5117 211.68 79.5117C210.766 79.5117 210.102 79.8477 209.688 80.5195C209.273 81.1914 209.066 82.2969 209.066 83.8359V90H205.492V76.8984H208.223L208.703 78.5742H208.902C209.254 77.9727 209.762 77.5039 210.426 77.168C211.09 76.8242 211.852 76.6523 212.711 76.6523C214.672 76.6523 216 77.293 216.695 78.5742H217.012C217.363 77.9648 217.879 77.4922 218.559 77.1562C219.246 76.8203 220.02 76.6523 220.879 76.6523C222.363 76.6523 223.484 77.0352 224.242 77.8008C225.008 78.5586 225.391 79.7773 225.391 81.457V90H221.805V82.3477C221.805 81.4023 221.645 80.6953 221.324 80.2266C221.012 79.75 220.516 79.5117 219.836 79.5117C218.961 79.5117 218.305 79.8242 217.867 80.4492C217.438 81.0742 217.223 82.0664 217.223 83.4258V90ZM228.918 73.5117C228.918 72.3477 229.566 71.7656 230.863 71.7656C232.16 71.7656 232.809 72.3477 232.809 73.5117C232.809 74.0664 232.645 74.5 232.316 74.8125C231.996 75.1172 231.512 75.2695 230.863 75.2695C229.566 75.2695 228.918 74.6836 228.918 73.5117ZM232.645 90H229.07V76.8984H232.645V90ZM248.5 90H244.926V82.3477C244.926 81.4023 244.758 80.6953 244.422 80.2266C244.086 79.75 243.551 79.5117 242.816 79.5117C241.816 79.5117 241.094 79.8477 240.648 80.5195C240.203 81.1836 239.98 82.2891 239.98 83.8359V90H236.406V76.8984H239.137L239.617 78.5742H239.816C240.215 77.9414 240.762 77.4648 241.457 77.1445C242.16 76.8164 242.957 76.6523 243.848 76.6523C245.371 76.6523 246.527 77.0664 247.316 77.8945C248.105 78.7148 248.5 79.9023 248.5 81.457V90ZM261.461 90L260.98 88.3242H260.793C260.41 88.9336 259.867 89.4062 259.164 89.7422C258.461 90.0703 257.66 90.2344 256.762 90.2344C255.223 90.2344 254.062 89.8242 253.281 89.0039C252.5 88.1758 252.109 86.9883 252.109 85.4414V76.8984H255.684V84.5508C255.684 85.4961 255.852 86.207 256.188 86.6836C256.523 87.1523 257.059 87.3867 257.793 87.3867C258.793 87.3867 259.516 87.0547 259.961 86.3906C260.406 85.7188 260.629 84.6094 260.629 83.0625V76.8984H264.203V90H261.461ZM273.473 87.3867C274.098 87.3867 274.848 87.25 275.723 86.9766V89.6367C274.832 90.0352 273.738 90.2344 272.441 90.2344C271.012 90.2344 269.969 89.875 269.312 89.1562C268.664 88.4297 268.34 87.3438 268.34 85.8984V79.582H266.629V78.0703L268.598 76.875L269.629 74.1094H271.914V76.8984H275.582V79.582H271.914V85.8984C271.914 86.4062 272.055 86.7812 272.336 87.0234C272.625 87.2656 273.004 87.3867 273.473 87.3867ZM283.809 79.1953C283.051 79.1953 282.457 79.4375 282.027 79.9219C281.598 80.3984 281.352 81.0781 281.289 81.9609H286.305C286.289 81.0781 286.059 80.3984 285.613 79.9219C285.168 79.4375 284.566 79.1953 283.809 79.1953ZM284.312 90.2344C282.203 90.2344 280.555 89.6523 279.367 88.4883C278.18 87.3242 277.586 85.6758 277.586 83.543C277.586 81.3477 278.133 79.6523 279.227 78.457C280.328 77.2539 281.848 76.6523 283.785 76.6523C285.637 76.6523 287.078 77.1797 288.109 78.2344C289.141 79.2891 289.656 80.7461 289.656 82.6055V84.3398H281.207C281.246 85.3555 281.547 86.1484 282.109 86.7188C282.672 87.2891 283.461 87.5742 284.477 87.5742C285.266 87.5742 286.012 87.4922 286.715 87.3281C287.418 87.1641 288.152 86.9023 288.918 86.543V89.3086C288.293 89.6211 287.625 89.8516 286.914 90C286.203 90.1562 285.336 90.2344 284.312 90.2344ZM301.703 86.1094C301.703 87.4531 301.234 88.4766 300.297 89.1797C299.367 89.8828 297.973 90.2344 296.113 90.2344C295.16 90.2344 294.348 90.168 293.676 90.0352C293.004 89.9102 292.375 89.7227 291.789 89.4727V86.5195C292.453 86.832 293.199 87.0938 294.027 87.3047C294.863 87.5156 295.598 87.6211 296.23 87.6211C297.527 87.6211 298.176 87.2461 298.176 86.4961C298.176 86.2148 298.09 85.9883 297.918 85.8164C297.746 85.6367 297.449 85.4375 297.027 85.2188C296.605 84.9922 296.043 84.7305 295.34 84.4336C294.332 84.0117 293.59 83.6211 293.113 83.2617C292.645 82.9023 292.301 82.4922 292.082 82.0312C291.871 81.5625 291.766 80.9883 291.766 80.3086C291.766 79.1445 292.215 78.2461 293.113 77.6133C294.02 76.9727 295.301 76.6523 296.957 76.6523C298.535 76.6523 300.07 76.9961 301.562 77.6836L300.484 80.2617C299.828 79.9805 299.215 79.75 298.645 79.5703C298.074 79.3906 297.492 79.3008 296.898 79.3008C295.844 79.3008 295.316 79.5859 295.316 80.1562C295.316 80.4766 295.484 80.7539 295.82 80.9883C296.164 81.2227 296.91 81.5703 298.059 82.0312C299.082 82.4453 299.832 82.832 300.309 83.1914C300.785 83.5508 301.137 83.9648 301.363 84.4336C301.59 84.9023 301.703 85.4609 301.703 86.1094ZM316.246 87.3867C316.871 87.3867 317.621 87.25 318.496 86.9766V89.6367C317.605 90.0352 316.512 90.2344 315.215 90.2344C313.785 90.2344 312.742 89.875 312.086 89.1562C311.438 88.4297 311.113 87.3438 311.113 85.8984V79.582H309.402V78.0703L311.371 76.875L312.402 74.1094H314.688V76.8984H318.355V79.582H314.688V85.8984C314.688 86.4062 314.828 86.7812 315.109 87.0234C315.398 87.2656 315.777 87.3867 316.246 87.3867ZM324.004 83.4258C324.004 84.7227 324.215 85.7031 324.637 86.3672C325.066 87.0312 325.762 87.3633 326.723 87.3633C327.676 87.3633 328.359 87.0352 328.773 86.3789C329.195 85.7148 329.406 84.7305 329.406 83.4258C329.406 82.1289 329.195 81.1562 328.773 80.5078C328.352 79.8594 327.66 79.5352 326.699 79.5352C325.746 79.5352 325.059 79.8594 324.637 80.5078C324.215 81.1484 324.004 82.1211 324.004 83.4258ZM333.062 83.4258C333.062 85.5586 332.5 87.2266 331.375 88.4297C330.25 89.6328 328.684 90.2344 326.676 90.2344C325.418 90.2344 324.309 89.9609 323.348 89.4141C322.387 88.8594 321.648 88.0664 321.133 87.0352C320.617 86.0039 320.359 84.8008 320.359 83.4258C320.359 81.2852 320.918 79.6211 322.035 78.4336C323.152 77.2461 324.723 76.6523 326.746 76.6523C328.004 76.6523 329.113 76.9258 330.074 77.4727C331.035 78.0195 331.773 78.8047 332.289 79.8281C332.805 80.8516 333.062 82.0508 333.062 83.4258ZM349.492 79.582H346.398V90H342.824V79.582H340.855V77.8594L342.824 76.8984V75.9375C342.824 74.4453 343.191 73.3555 343.926 72.668C344.66 71.9805 345.836 71.6367 347.453 71.6367C348.688 71.6367 349.785 71.8203 350.746 72.1875L349.832 74.8125C349.113 74.5859 348.449 74.4727 347.84 74.4727C347.332 74.4727 346.965 74.625 346.738 74.9297C346.512 75.2266 346.398 75.6094 346.398 76.0781V76.8984H349.492V79.582ZM351.391 73.5117C351.391 72.3477 352.039 71.7656 353.336 71.7656C354.633 71.7656 355.281 72.3477 355.281 73.5117C355.281 74.0664 355.117 74.5 354.789 74.8125C354.469 75.1172 353.984 75.2695 353.336 75.2695C352.039 75.2695 351.391 74.6836 351.391 73.5117ZM355.117 90H351.543V76.8984H355.117V90ZM362.441 90H358.867V71.7656H362.441V90ZM369.777 90H366.203V71.7656H369.777V90ZM382.621 83.4258C382.621 84.7227 382.832 85.7031 383.254 86.3672C383.684 87.0312 384.379 87.3633 385.34 87.3633C386.293 87.3633 386.977 87.0352 387.391 86.3789C387.812 85.7148 388.023 84.7305 388.023 83.4258C388.023 82.1289 387.812 81.1562 387.391 80.5078C386.969 79.8594 386.277 79.5352 385.316 79.5352C384.363 79.5352 383.676 79.8594 383.254 80.5078C382.832 81.1484 382.621 82.1211 382.621 83.4258ZM391.68 83.4258C391.68 85.5586 391.117 87.2266 389.992 88.4297C388.867 89.6328 387.301 90.2344 385.293 90.2344C384.035 90.2344 382.926 89.9609 381.965 89.4141C381.004 88.8594 380.266 88.0664 379.75 87.0352C379.234 86.0039 378.977 84.8008 378.977 83.4258C378.977 81.2852 379.535 79.6211 380.652 78.4336C381.77 77.2461 383.34 76.6523 385.363 76.6523C386.621 76.6523 387.73 76.9258 388.691 77.4727C389.652 78.0195 390.391 78.8047 390.906 79.8281C391.422 80.8516 391.68 82.0508 391.68 83.4258ZM403.914 90L403.434 88.3242H403.246C402.863 88.9336 402.32 89.4062 401.617 89.7422C400.914 90.0703 400.113 90.2344 399.215 90.2344C397.676 90.2344 396.516 89.8242 395.734 89.0039C394.953 88.1758 394.562 86.9883 394.562 85.4414V76.8984H398.137V84.5508C398.137 85.4961 398.305 86.207 398.641 86.6836C398.977 87.1523 399.512 87.3867 400.246 87.3867C401.246 87.3867 401.969 87.0547 402.414 86.3906C402.859 85.7188 403.082 84.6094 403.082 83.0625V76.8984H406.656V90H403.914ZM415.926 87.3867C416.551 87.3867 417.301 87.25 418.176 86.9766V89.6367C417.285 90.0352 416.191 90.2344 414.895 90.2344C413.465 90.2344 412.422 89.875 411.766 89.1562C411.117 88.4297 410.793 87.3438 410.793 85.8984V79.582H409.082V78.0703L411.051 76.875L412.082 74.1094H414.367V76.8984H418.035V79.582H414.367V85.8984C414.367 86.4062 414.508 86.7812 414.789 87.0234C415.078 87.2656 415.457 87.3867 415.926 87.3867ZM429.918 83.4258C429.918 84.7227 430.129 85.7031 430.551 86.3672C430.98 87.0312 431.676 87.3633 432.637 87.3633C433.59 87.3633 434.273 87.0352 434.688 86.3789C435.109 85.7148 435.32 84.7305 435.32 83.4258C435.32 82.1289 435.109 81.1562 434.688 80.5078C434.266 79.8594 433.574 79.5352 432.613 79.5352C431.66 79.5352 430.973 79.8594 430.551 80.5078C430.129 81.1484 429.918 82.1211 429.918 83.4258ZM438.977 83.4258C438.977 85.5586 438.414 87.2266 437.289 88.4297C436.164 89.6328 434.598 90.2344 432.59 90.2344C431.332 90.2344 430.223 89.9609 429.262 89.4141C428.301 88.8594 427.562 88.0664 427.047 87.0352C426.531 86.0039 426.273 84.8008 426.273 83.4258C426.273 81.2852 426.832 79.6211 427.949 78.4336C429.066 77.2461 430.637 76.6523 432.66 76.6523C433.918 76.6523 435.027 76.9258 435.988 77.4727C436.949 78.0195 437.688 78.8047 438.203 79.8281C438.719 80.8516 438.977 82.0508 438.977 83.4258ZM451.211 90L450.73 88.3242H450.543C450.16 88.9336 449.617 89.4062 448.914 89.7422C448.211 90.0703 447.41 90.2344 446.512 90.2344C444.973 90.2344 443.812 89.8242 443.031 89.0039C442.25 88.1758 441.859 86.9883 441.859 85.4414V76.8984H445.434V84.5508C445.434 85.4961 445.602 86.207 445.938 86.6836C446.273 87.1523 446.809 87.3867 447.543 87.3867C448.543 87.3867 449.266 87.0547 449.711 86.3906C450.156 85.7188 450.379 84.6094 450.379 83.0625V76.8984H453.953V90H451.211ZM465.016 76.6523C465.5 76.6523 465.902 76.6875 466.223 76.7578L465.953 80.1094C465.664 80.0312 465.312 79.9922 464.898 79.9922C463.758 79.9922 462.867 80.2852 462.227 80.8711C461.594 81.457 461.277 82.2773 461.277 83.332V90H457.703V76.8984H460.41L460.938 79.1016H461.113C461.52 78.3672 462.066 77.7773 462.754 77.332C463.449 76.8789 464.203 76.6523 465.016 76.6523ZM483.977 86.1094C483.977 87.4531 483.508 88.4766 482.57 89.1797C481.641 89.8828 480.246 90.2344 478.387 90.2344C477.434 90.2344 476.621 90.168 475.949 90.0352C475.277 89.9102 474.648 89.7227 474.062 89.4727V86.5195C474.727 86.832 475.473 87.0938 476.301 87.3047C477.137 87.5156 477.871 87.6211 478.504 87.6211C479.801 87.6211 480.449 87.2461 480.449 86.4961C480.449 86.2148 480.363 85.9883 480.191 85.8164C480.02 85.6367 479.723 85.4375 479.301 85.2188C478.879 84.9922 478.316 84.7305 477.613 84.4336C476.605 84.0117 475.863 83.6211 475.387 83.2617C474.918 82.9023 474.574 82.4922 474.355 82.0312C474.145 81.5625 474.039 80.9883 474.039 80.3086C474.039 79.1445 474.488 78.2461 475.387 77.6133C476.293 76.9727 477.574 76.6523 479.23 76.6523C480.809 76.6523 482.344 76.9961 483.836 77.6836L482.758 80.2617C482.102 79.9805 481.488 79.75 480.918 79.5703C480.348 79.3906 479.766 79.3008 479.172 79.3008C478.117 79.3008 477.59 79.5859 477.59 80.1562C477.59 80.4766 477.758 80.7539 478.094 80.9883C478.438 81.2227 479.184 81.5703 480.332 82.0312C481.355 82.4453 482.105 82.832 482.582 83.1914C483.059 83.5508 483.41 83.9648 483.637 84.4336C483.863 84.9023 483.977 85.4609 483.977 86.1094ZM496.047 90L495.566 88.3242H495.379C494.996 88.9336 494.453 89.4062 493.75 89.7422C493.047 90.0703 492.246 90.2344 491.348 90.2344C489.809 90.2344 488.648 89.8242 487.867 89.0039C487.086 88.1758 486.695 86.9883 486.695 85.4414V76.8984H490.27V84.5508C490.27 85.4961 490.438 86.207 490.773 86.6836C491.109 87.1523 491.645 87.3867 492.379 87.3867C493.379 87.3867 494.102 87.0547 494.547 86.3906C494.992 85.7188 495.215 84.6094 495.215 83.0625V76.8984H498.789V90H496.047ZM509.852 76.6523C510.336 76.6523 510.738 76.6875 511.059 76.7578L510.789 80.1094C510.5 80.0312 510.148 79.9922 509.734 79.9922C508.594 79.9922 507.703 80.2852 507.062 80.8711C506.43 81.457 506.113 82.2773 506.113 83.332V90H502.539V76.8984H505.246L505.773 79.1016H505.949C506.355 78.3672 506.902 77.7773 507.59 77.332C508.285 76.8789 509.039 76.6523 509.852 76.6523ZM516.555 90L511.562 76.8984H515.301L517.832 84.3633C518.113 85.3086 518.289 86.2031 518.359 87.0469H518.43C518.469 86.2969 518.645 85.4023 518.957 84.3633L521.477 76.8984H525.215L520.223 90H516.555ZM532.527 79.1953C531.77 79.1953 531.176 79.4375 530.746 79.9219C530.316 80.3984 530.07 81.0781 530.008 81.9609H535.023C535.008 81.0781 534.777 80.3984 534.332 79.9219C533.887 79.4375 533.285 79.1953 532.527 79.1953ZM533.031 90.2344C530.922 90.2344 529.273 89.6523 528.086 88.4883C526.898 87.3242 526.305 85.6758 526.305 83.543C526.305 81.3477 526.852 79.6523 527.945 78.457C529.047 77.2539 530.566 76.6523 532.504 76.6523C534.355 76.6523 535.797 77.1797 536.828 78.2344C537.859 79.2891 538.375 80.7461 538.375 82.6055V84.3398H529.926C529.965 85.3555 530.266 86.1484 530.828 86.7188C531.391 87.2891 532.18 87.5742 533.195 87.5742C533.984 87.5742 534.73 87.4922 535.434 87.3281C536.137 87.1641 536.871 86.9023 537.637 86.543V89.3086C537.012 89.6211 536.344 89.8516 535.633 90C534.922 90.1562 534.055 90.2344 533.031 90.2344ZM539.406 76.8984H543.32L545.793 84.2695C546.004 84.9102 546.148 85.668 546.227 86.543H546.297C546.383 85.7383 546.551 84.9805 546.801 84.2695L549.227 76.8984H553.059L547.516 91.6758C547.008 93.043 546.281 94.0664 545.336 94.7461C544.398 95.4258 543.301 95.7656 542.043 95.7656C541.426 95.7656 540.82 95.6992 540.227 95.5664V92.7305C540.656 92.832 541.125 92.8828 541.633 92.8828C542.266 92.8828 542.816 92.6875 543.285 92.2969C543.762 91.9141 544.133 91.332 544.398 90.5508L544.609 89.9062L539.406 76.8984Z" fill="white"/>
</svg>
