<svg width="23" height="22" viewBox="0 0 23 22" fill="none" xmlns="http://www.w3.org/2000/svg">
<path fill-rule="evenodd" clip-rule="evenodd" d="M11.2777 0C8.59949 0.000453086 6.00878 0.953884 3.96917 2.6897C1.92957 4.42551 0.574153 6.83043 0.145459 9.47415C-0.283236 12.1179 0.242762 14.8279 1.62934 17.1193C3.01591 19.4106 5.17258 21.1339 7.71345 21.9807C8.27738 22.0841 8.48323 21.7359 8.48323 21.437C8.48323 21.1693 8.47344 20.46 8.46798 19.5188C5.3307 20.2003 4.66869 18.0069 4.66869 18.0069C4.15584 16.704 3.41646 16.357 3.41646 16.357C2.39242 15.6573 3.49392 15.6715 3.49392 15.6715C3.85138 15.7209 4.19283 15.8512 4.49223 16.0527C4.79163 16.2541 5.04105 16.5213 5.22148 16.8338C6.22757 18.5573 7.8612 18.0596 8.50385 17.7709C8.55531 17.1991 8.80924 16.6644 9.2199 16.2632C6.71543 15.9785 4.08253 15.0109 4.08253 10.6889C4.06614 9.56837 4.48188 8.48457 5.24345 7.66246C4.89933 6.68967 4.93886 5.6223 5.35398 4.67762C5.35398 4.67762 6.30097 4.37436 8.45553 5.8338C10.3039 5.32763 12.2543 5.32763 14.1027 5.8338C16.256 4.37436 17.2011 4.67762 17.2011 4.67762C17.6174 5.62194 17.6576 6.68953 17.3134 7.66246C18.0751 8.48441 18.4903 9.56846 18.4727 10.6889C18.4727 15.0217 15.8357 15.9751 13.3232 16.2543C13.5923 16.5278 13.7998 16.8556 13.9319 17.2158C14.0639 17.576 14.1174 17.9603 14.0888 18.3429C14.0888 19.8507 14.075 21.0671 14.075 21.4369C14.075 21.7385 14.2781 22.0894 14.8505 21.9793C17.3903 21.1309 19.5455 19.4067 20.9306 17.1149C22.3157 14.8232 22.8404 12.1134 22.4107 9.47035C21.9811 6.82726 20.6252 4.4232 18.5855 2.68816C16.5459 0.953121 13.9555 0.000259797 11.2777 0Z" fill="#404142"/>
</svg>
