<?xml version="1.0" encoding="utf-8"?>
<!-- Generator: Adobe Illustrator 16.0.3, SVG Export Plug-In . SVG Version: 6.00 Build 0)  -->
<!DOCTYPE svg PUBLIC "-//W3C//DTD SVG 1.1//EN" "http://www.w3.org/Graphics/SVG/1.1/DTD/svg11.dtd">
<svg version="1.1" id="Layer_1" xmlns="http://www.w3.org/2000/svg" xmlns:xlink="http://www.w3.org/1999/xlink" x="0px" y="0px"
	 width="18px" height="22px" viewBox="0 0 18 22" enable-background="new 0 0 18 22" xml:space="preserve">
<g>
	<path fill-rule="evenodd" clip-rule="evenodd" fill="#FFFFFF" d="M14,14c-1,0-1.9,0.4-2.6,1l-3.7-2.6C7.9,12,8,11.5,8,11
		c0-0.5-0.1-1-0.3-1.4L11.4,7C12.1,7.6,13,8,14,8c2.2,0,4-1.8,4-4s-1.8-4-4-4s-4,1.8-4,4c0,0.5,0.1,1,0.3,1.4L6.6,8C5.9,7.4,5,7,4,7
		c-2.2,0-4,1.8-4,4s1.8,4,4,4c1,0,1.9-0.4,2.6-1l3.7,2.6C10.1,17,10,17.5,10,18c0,2.2,1.8,4,4,4s4-1.8,4-4S16.2,14,14,14z M14,2
		c1.1,0,2,0.9,2,2s-0.9,2-2,2s-2-0.9-2-2S12.9,2,14,2z M4,13c-1.1,0-2-0.9-2-2s0.9-2,2-2s2,0.9,2,2S5.1,13,4,13z M14,20
		c-1.1,0-2-0.9-2-2s0.9-2,2-2s2,0.9,2,2S15.1,20,14,20z"/>
</g>
</svg>
