<?xml version="1.0" encoding="utf-8"?>
<!-- Generator: Adobe Illustrator 16.0.3, SVG Export Plug-In . SVG Version: 6.00 Build 0)  -->
<!DOCTYPE svg PUBLIC "-//W3C//DTD SVG 1.1//EN" "http://www.w3.org/Graphics/SVG/1.1/DTD/svg11.dtd">
<svg version="1.1" id="Layer_1" xmlns="http://www.w3.org/2000/svg" xmlns:xlink="http://www.w3.org/1999/xlink" x="0px" y="0px"
	 width="54px" height="54px" viewBox="0 0 54 54" enable-background="new 0 0 54 54" xml:space="preserve">
<g>
	<path fill-rule="evenodd" clip-rule="evenodd" fill="#FFFFFF" d="M27,0C12.1,0,0,12.1,0,27c0,14.9,12.1,27,27,27
		c14.9,0,27-12.1,27-27C54,12.1,41.9,0,27,0z M27,52C13.2,52,2,40.8,2,27C2,13.2,13.2,2,27,2c13.8,0,25,11.2,25,25
		C52,40.8,40.8,52,27,52z M40,15.4L38.6,14L27,25.6L15.2,13.8l-1.4,1.4L25.6,27L14,38.6l1.4,1.4L27,28.4l11.8,11.8l1.4-1.4L28.4,27
		L40,15.4z"/>
</g>
</svg>
