<?xml version="1.0" encoding="utf-8"?>
<!-- Generator: Adobe Illustrator 16.0.3, SVG Export Plug-In . SVG Version: 6.00 Build 0)  -->
<!DOCTYPE svg PUBLIC "-//W3C//DTD SVG 1.1//EN" "http://www.w3.org/Graphics/SVG/1.1/DTD/svg11.dtd">
<svg version="1.1" id="Layer_1" xmlns="http://www.w3.org/2000/svg" xmlns:xlink="http://www.w3.org/1999/xlink" x="0px" y="0px"
	 width="54px" height="54px" viewBox="0 0 54 54" enable-background="new 0 0 54 54" xml:space="preserve">
<g>
	<path fill="#FFFFFF" d="M27,0C12.1,0,0,12.1,0,27c0,14.9,12.1,27,27,27c14.9,0,27-12.1,27-27C54,12.1,41.9,0,27,0z M40.6,21.5
		c0,0.3,0,0.6,0,0.8C40.7,31,33.8,41,21.4,41C17.6,41,14,39.9,11,38c0.5,0.1,1.1,0.1,1.6,0.1c3.2,0,6.1-1,8.4-2.8
		c-3-0.1-5.5-2-6.3-4.6c0.4,0.1,0.8,0.1,1.3,0.1c0.6,0,1.2-0.1,1.8-0.2c-3.1-0.6-5.4-3.3-5.4-6.4c0,0,0-0.1,0-0.1
		c0.9,0.5,2,0.8,3.1,0.8c-1.8-1.2-3-3.2-3-5.5c0-1.2,0.3-2.3,0.9-3.3c3.3,4,8.3,6.6,14,6.9c-0.1-0.5-0.2-1-0.2-1.5
		c0-3.6,3-6.6,6.8-6.6c1.9,0,3.7,0.8,4.9,2.1c1.5-0.3,3-0.8,4.3-1.6c-0.5,1.5-1.6,2.8-3,3.6c1.4-0.2,2.7-0.5,3.9-1
		C43.1,19.4,42,20.5,40.6,21.5z"/>
</g>
</svg>
