<svg xmlns="http://www.w3.org/2000/svg" width="32" height="17" fill="none"><path fill="#DA4463" d="M0 2a2 2 0 012-2h28a2 2 0 012 2v13a2 2 0 01-2 2H2a2 2 0 01-2-2V2z"/><path fill="#C94060" fill-rule="evenodd" d="M30 1H2a1 1 0 00-1 1v13a1 1 0 001 1h28a1 1 0 001-1V2a1 1 0 00-1-1zM2 0a2 2 0 00-2 2v13a2 2 0 002 2h28a2 2 0 002-2V2a2 2 0 00-2-2H2z" clip-rule="evenodd"/><path fill="#fff" d="M6.244 12V6.883h.078L9.94 12h.987V4.954H9.862v5.127h-.078L6.166 4.954H5.18V12h1.064zM17.172 11.058h-3.379V8.865h3.198v-.908h-3.198v-2.06h3.379v-.943h-4.473V12h4.473v-.942zM22.748 6.731h.068L24.33 12h1.03l1.905-7.046h-1.138l-1.29 5.479h-.067l-1.48-5.479h-1.016l-1.47 5.479h-.068l-1.294-5.479h-1.137l1.9 7.046h1.034l1.509-5.269z"/></svg>