<svg xmlns="http://www.w3.org/2000/svg" width="161" height="32" fill="none"><path fill="#404142" d="M31.3011 21.6204l-1.74 1.728h6.9539l6.9538 6.0567H6.9538l6.9597-6.0567h5.2139l-1.7399-1.728h-5.2139L0 32h50.4226L38.2549 21.6204h-6.9538z"/><path fill="#fff" d="M47.0311 4.3229L42.6842 0 24.4238 18.1644l-6.9539-6.9237-4.3469 4.3229 11.3008 11.2466L47.0311 4.3229zM70.6353 9.0442H55.3652v3.333h5.733v15.7862h3.8337V12.3772h5.7034v-3.333zM80.1195 16.993a4.419 4.419 0 0 0-1.2622-1.687 4.765 4.765 0 0 0-1.7694-.902 7.9035 7.9035 0 0 0-2.0702-.2753c-2.1233 0-3.7728.6013-4.9485 1.8041s-1.7655 3.0049-1.7694 5.4066c0 2.2376.521 3.9948 1.563 5.2718 1.042 1.2769 2.6934 1.9193 4.9544 1.9271a10.2567 10.2567 0 0 0 3.0611-.451 7.0986 7.0986 0 0 0 2.2825-1.1071l-1.1796-2.343a5.998 5.998 0 0 1-3.4268 1.0368c-1.2268 0-2.1134-.291-2.66-.8728a3.9436 3.9436 0 0 1-.9555-2.5656h8.3753c.0943-.4745.1651-.9314.2123-1.3649.0472-.4334.0649-.8493.0649-1.23a6.5734 6.5734 0 0 0-.4719-2.6477zm-2.9077 3.0284h-5.1785a4.0836 4.0836 0 0 1 .8198-2.2259 2.5674 2.5674 0 0 1 .9553-.6593 2.5826 2.5826 0 0 1 1.1503-.1725 2.07 2.07 0 0 1 .9844.1754c.3087.1379.5783.3493.785.6154.4191.6778.59 1.4785.4837 2.2669zM90.9426 20.8823a7.0167 7.0167 0 0 0-1.5394-.7791l-1.5394-.5858a6.6327 6.6327 0 0 1-1.1796-.5857.9.9 0 0 1-.3458-.3307.8922.8922 0 0 1-.126-.4601c0-.82.5367-1.2301 1.6219-1.2301a7.355 7.355 0 0 1 1.9818.2753c.6547.1816 1.1796.3515 1.622.5155l.8139-2.5656a8.7666 8.7666 0 0 0-2.0289-.6854 11.7409 11.7409 0 0 0-2.8783-.328 5.2805 5.2805 0 0 0-3.5388 1.0661 3.8766 3.8766 0 0 0-.9756 1.4035 3.8547 3.8547 0 0 0-.2748 1.6834 3.7984 3.7984 0 0 0 .4777 2.0092 4.3928 4.3928 0 0 0 1.1796 1.2828 5.9673 5.9673 0 0 0 1.5571.7673c.5898.1933 1.0676.3808 1.5335.5858.414.1508.8097.3473 1.1796.5858.1469.0936.2673.2229.3499.3756s.1245.3238.122.4971a1.0833 1.0833 0 0 1-.1031.5743 1.0912 1.0912 0 0 1-.3865.4391 2.4728 2.4728 0 0 1-1.2975.2987 7.0502 7.0502 0 0 1-2.1823-.3397 9.9477 9.9477 0 0 1-1.7046-.6736l-1.0085 2.6476a8.7026 8.7026 0 0 0 2.1115.8669c.906.2515 1.8431.3757 2.7839.3691 1.8048 0 3.1613-.3905 4.0696-1.1716a4.1288 4.1288 0 0 0 1.0484-1.4977 4.1055 4.1055 0 0 0 .2964-1.8001 3.6639 3.6639 0 0 0-.4778-1.9681 4.1682 4.1682 0 0 0-1.1619-1.2418zM101.612 25.293a3.6059 3.6059 0 0 1-.968.1113 1.1138 1.1138 0 0 1-.642-.1237 1.104 1.104 0 0 1-.4606-.4621 5.1027 5.1027 0 0 1-.2949-2.0326v-5.2718h3.4145v-3.0049h-3.4145v-3.579l-3.6333 1.0075v2.5715h-1.9286v2.999h1.9286v6.8827c0 1.4761.3028 2.5363.9083 3.1807.378.3503.8259.6178 1.3146.7853a3.7145 3.7145 0 0 0 1.5224.187 8.52 8.52 0 0 0 2.0405-.246 9.0799 9.0799 0 0 0 1.77-.5857l-.643-2.7297a6.2534 6.2534 0 0 1-.914.3105z"/><path fill="#404142" d="M110.087 14.9192a8.561 8.561 0 0 1 1.852-2.4309 6.6057 6.6057 0 0 1 2.242-1.3414 7.279 7.279 0 0 1 2.359-.41 8.173 8.173 0 0 1 3.71.656l.926-2.0208a7.786 7.786 0 0 0-1.734-.4745 15.9675 15.9675 0 0 0-2.708-.1816 9.7029 9.7029 0 0 0-3.173.5506 9.4495 9.4495 0 0 0-3.043 1.7573 11.105 11.105 0 0 0-2.507 3.0577 13.9672 13.9672 0 0 0-1.563 4.5454c-.306 1.461-.35 2.964-.13 4.4401a6.907 6.907 0 0 0 1.263 3.0694 5.564 5.564 0 0 0 2.359 1.7572 8.3478 8.3478 0 0 0 3.197.5858c.933.0032 1.865-.0792 2.783-.246a6.0222 6.0222 0 0 0 2.283-.8787l-.236-1.7572a7.2622 7.2622 0 0 1-1.693.6326 9.262 9.262 0 0 1-2.241.246 6.0838 6.0838 0 0 1-2.501-.492 4.357 4.357 0 0 1-1.769-1.4761 5.7019 5.7019 0 0 1-.944-2.4602 10.3144 10.3144 0 0 1 .118-3.4384c.19-1.2815.578-2.5262 1.15-3.6903zM131.922 15.669a2.49 2.49 0 0 0-1.18-.9958 5.3904 5.3904 0 0 0-2.265-.3866 14.6487 14.6487 0 0 0-3.008.3046 9.758 9.758 0 0 0-2.642.9255l.401 1.6694a6.379 6.379 0 0 1 .979-.41c.383-.1209.773-.2206 1.168-.2987.393-.082.786-.1465 1.179-.1933.345-.045.691-.0685 1.039-.0703 1.077 0 1.785.1952 2.123.5857.342.4042.419 1.1013.242 2.1029-.083.4413-.201.9333-.354 1.4761a5.5556 5.5556 0 0 0-.761-.0527h-.767a18 18 0 0 0-2.849.205 8.297 8.297 0 0 0-2.306.6795 4.751 4.751 0 0 0-1.639 1.2828 4.316 4.316 0 0 0-.867 2.0092 3.5767 3.5767 0 0 0 .029 1.6108c.116.452.343.8685.661 1.2125.326.3481.73.615 1.179.7791a4.5618 4.5618 0 0 0 1.616.2753 6.3926 6.3926 0 0 0 1.628-.1933 6.9369 6.9369 0 0 0 1.321-.4745 5.2061 5.2061 0 0 0 1.027-.656c.275-.229.532-.4797.766-.7498h.136l.242 1.9096h1.651a8.2578 8.2578 0 0 1 0-1.6636c.053-.5857.142-1.2418.26-1.9154.169-.9255.375-1.9018.619-2.9288s.464-2.0931.661-3.1982c.087-.4852.124-.9777.112-1.4703a2.8027 2.8027 0 0 0-.401-1.3707zm-3.055 8.64a3.7687 3.7687 0 0 1-.59.738 4.3412 4.3412 0 0 1-.867.6971c-.37.2223-.766.3975-1.18.5213a4.7822 4.7822 0 0 1-1.433.205 2.2274 2.2274 0 0 1-.902-.1179 2.2144 2.2144 0 0 1-.779-.4678 1.711 1.711 0 0 1-.405-.7334 1.7042 1.7042 0 0 1-.008-.8365c.07-.4314.277-.8294.59-1.1363a3.3458 3.3458 0 0 1 1.132-.7088 6.0948 6.0948 0 0 1 1.522-.3573 16.338 16.338 0 0 1 1.705-.0937h.796l.79.041-.371 2.2493zM139.295 14.5092l.071-.3866c.094-.5448.194-1.0192.3-1.4293.082-.364.22-.7136.407-1.0368.168-.279.414-.503.708-.6443a2.6411 2.6411 0 0 1 1.18-.2167c.355-.0005.71.0269 1.061.082.409.0579.807.1764 1.18.3514l.832-1.8275a5.8089 5.8089 0 0 0-1.363-.41 10.0932 10.0932 0 0 0-1.563-.1114 5.9323 5.9323 0 0 0-1.928.287 3.7374 3.7374 0 0 0-1.422.867 4.627 4.627 0 0 0-.961 1.5171 11.4859 11.4859 0 0 0-.59 2.1849l-.136.7673h-2.182l-.348 1.9096h2.182l-2.117 11.7152h2.212l2.117-11.7152h3.722l.348-1.9096-3.71.0059zM154.825 16.7878a3.173 3.173 0 0 0-.938-1.6225 3.3915 3.3915 0 0 0-1.563-.7791 8.2576 8.2576 0 0 0-1.864-.205 6.8277 6.8277 0 0 0-2.629.4275 6.792 6.792 0 0 0-2.26 1.4001c-1.286 1.2184-2.139 2.9932-2.56 5.3245a10.8166 10.8166 0 0 0-.165 2.9288c.058.7941.3 1.5641.708 2.2493.399.6361.98 1.1397 1.669 1.4469a6.2846 6.2846 0 0 0 2.678.5096 9.9622 9.9622 0 0 0 2.772-.3866 7.6957 7.6957 0 0 0 2.294-1.0368l-.548-1.5816a4.9947 4.9947 0 0 1-1.569.7615 6.2137 6.2137 0 0 1-1.958.328 5.1423 5.1423 0 0 1-2.023-.3397 2.6627 2.6627 0 0 1-1.204-.9489 3.3674 3.3674 0 0 1-.495-1.5699 8.0261 8.0261 0 0 1 .13-2.1321h8.977c.223-.6504.398-1.316.524-1.9916.212-.9147.22-1.8643.024-2.7824zm-2.253 3.046h-6.907a5.1536 5.1536 0 0 1 1.711-2.8937 4.5392 4.5392 0 0 1 2.795-.8493 2.573 2.573 0 0 1 1.171.1631c.371.1444.704.3735.97.6687.425.5545.512 1.5249.26 2.9112zM154.482 9.0733l.107-.574H152.1l-2.383 4.071h1.315l3.45-3.497zM159.442 15.464l-.212-.0996a.6519.6519 0 0 0 .377-.1406.4374.4374 0 0 0 .12-.1606.4417.4417 0 0 0 .034-.1967.4737.4737 0 0 0-.05-.2508.482.482 0 0 0-.174-.1885 1.0892 1.0892 0 0 0-.537-.1289h-.407a1.6 1.6 0 0 0-.336.0586v1.8862h.383v-.8494l.36.1054.537.7615h.454l-.549-.7966zm-.548-.2929h-.254v-.5154a.3315.3315 0 0 1 .124 0h.153c.289 0 .437.0878.437.2577a.2268.2268 0 0 1-.028.13.227.227 0 0 1-.096.0926.659.659 0 0 1-.336.0351z"/><path fill="#404142" d="M160.846 14.4915a1.7043 1.7043 0 0 0-.419-.5857 1.7709 1.7709 0 0 0-.607-.3573 2.2512 2.2512 0 0 0-.773-.1289 2.1613 2.1613 0 0 0-.761.1289 1.769 1.769 0 0 0-.631.369c-.183.1634-.33.3629-.431.5857a2.134 2.134 0 0 0-.176.8025c-.008.2829.045.5642.153.8259.097.2219.24.4213.419.5858.183.1608.395.286.625.369.25.0855.513.129.778.1289a2.375 2.375 0 0 0 .761-.1289c.231-.0844.445-.2094.631-.369.181-.164.326-.3634.425-.5858.11-.2613.165-.5426.159-.8259a2.1228 2.1228 0 0 0-.153-.8142zm-.437 1.4937a1.321 1.321 0 0 1-.318.4686 1.3736 1.3736 0 0 1-.478.2753c-.191.0593-.39.089-.59.0879-.2.0029-.4-.0289-.589-.0937a1.3821 1.3821 0 0 1-.478-.2812 1.1714 1.1714 0 0 1-.325-.4628 1.6324 1.6324 0 0 1-.123-.6619 1.8352 1.8352 0 0 1 .112-.656c.069-.1779.178-.338.318-.4686.136-.1259.296-.2217.472-.2812.191-.0601.39-.0917.59-.0937.2 0 .399.0317.59.0937.176.0608.339.1564.477.2812.142.1302.253.2903.325.4686.084.2082.125.4316.118.656.01.227-.024.4537-.101.6678z"/></svg>