<svg width="163" height="38" viewBox="0 0 163 38" fill="none" xmlns="http://www.w3.org/2000/svg">
<path fill-rule="evenodd" clip-rule="evenodd" d="M43.7048 25.8555H34.7801L32.7965 27.8384H41.7219L49.6548 34.7802H8.00535L15.9383 27.8384H22.8801L20.8965 25.8555H13.9554L0.0717773 37.7548H57.5884L43.7048 25.8555Z" fill="white"/>
<path fill-rule="evenodd" clip-rule="evenodd" d="M53.6217 5.03001L48.6635 0.0717773L27.8381 20.8965L19.9052 12.9636L14.9463 17.9218L27.8381 30.8136L53.6217 5.03001Z" fill="white"/>
<path d="M121.218 21.503C120.709 21.7685 120.169 21.9698 119.61 22.1023C118.914 22.2673 118.199 22.3461 117.484 22.3369C116.669 22.3511 115.86 22.1911 115.112 21.8677C114.425 21.5621 113.833 21.0759 113.4 20.4607C112.925 19.7587 112.619 18.956 112.507 18.1158C112.361 17.0229 112.4 15.9134 112.619 14.833C112.815 13.609 113.198 12.4225 113.756 11.3156C114.199 10.4443 114.794 9.65908 115.513 8.99674C116.13 8.43381 116.854 7.9997 117.641 7.71985C118.354 7.46654 119.105 7.33448 119.862 7.32914C121.069 7.25769 122.277 7.4719 123.387 7.9544L124.264 6.02623C123.736 5.81169 123.184 5.6587 122.62 5.57029C121.769 5.44345 120.909 5.38681 120.049 5.40094C119.022 5.40704 118.004 5.58314 117.034 5.92211C115.979 6.29099 115.001 6.8519 114.149 7.57653C113.188 8.39966 112.381 9.38787 111.766 10.4947C111.027 11.8454 110.526 13.3127 110.283 14.833C109.995 16.2262 109.953 17.6592 110.159 19.0669C110.316 20.1266 110.727 21.1324 111.358 21.9982C111.94 22.7573 112.714 23.3466 113.6 23.7046C114.565 24.089 115.595 24.2793 116.633 24.2647C117.52 24.2679 118.405 24.1894 119.277 24.0301C120.048 23.9018 120.786 23.6183 121.444 23.1967L121.218 21.503ZM126.244 13.478C126.544 13.3239 126.856 13.194 127.177 13.0896C127.534 12.9712 127.897 12.8729 128.265 12.7951C128.642 12.7144 129.008 12.6518 129.361 12.6073C129.687 12.5644 130.014 12.5419 130.342 12.5401C131.368 12.5401 132.042 12.7312 132.363 13.1133C132.683 13.4955 132.758 14.1642 132.587 15.1196C132.512 15.5363 132.401 16.0053 132.254 16.5266C132.016 16.4922 131.775 16.4748 131.534 16.4746H130.804C129.898 16.4694 128.994 16.5347 128.099 16.6699C127.342 16.7787 126.605 16.9981 125.912 17.3212C125.306 17.6065 124.773 18.0251 124.351 18.5457C123.92 19.1047 123.638 19.7634 123.529 20.4607C123.424 20.969 123.434 21.4942 123.558 21.9982C123.67 22.4302 123.886 22.8283 124.186 23.1578C124.499 23.49 124.885 23.7444 125.314 23.9004C125.805 24.0799 126.324 24.1681 126.847 24.1606C127.368 24.1658 127.888 24.1044 128.393 23.9781C128.824 23.8688 129.243 23.716 129.643 23.5221C129.992 23.3531 130.319 23.1432 130.618 22.8969C130.881 22.6801 131.124 22.4404 131.344 22.1807H131.477L131.707 24.0045H133.274C133.219 23.4763 133.217 22.9439 133.267 22.4153C133.316 21.8417 133.399 21.2337 133.515 20.5912C133.674 19.7053 133.869 18.7673 134.1 17.7772C134.331 16.7872 134.54 15.7711 134.728 14.7289C134.812 14.2648 134.847 13.7933 134.834 13.3219C134.826 12.8694 134.705 12.4261 134.482 12.0321C134.222 11.6079 133.837 11.2754 133.379 11.0811C132.696 10.807 131.962 10.6826 131.227 10.7164C130.269 10.7148 129.313 10.8108 128.375 11.003C127.5 11.1752 126.655 11.4736 125.866 11.8888L126.244 13.478ZM126.165 21.7504C125.98 21.5531 125.847 21.3129 125.778 21.0514C125.709 20.7899 125.706 20.5154 125.77 20.2525C125.836 19.8427 126.029 19.4641 126.323 19.171C126.631 18.873 126.998 18.6423 127.4 18.4937C127.864 18.3202 128.349 18.2064 128.841 18.155C129.38 18.094 129.922 18.0635 130.464 18.0638C130.712 18.0638 130.963 18.0681 131.219 18.0769C131.474 18.0858 131.724 18.0986 131.968 18.1158L131.58 20.2785C131.429 20.5336 131.249 20.7697 131.042 20.9819C130.797 21.2379 130.521 21.4612 130.219 21.6463C129.876 21.8572 129.507 22.0236 129.121 22.1415C128.68 22.2758 128.22 22.3417 127.759 22.3369C127.467 22.3557 127.174 22.3133 126.9 22.2123C126.625 22.1113 126.375 21.954 126.165 21.7504ZM136.958 12.7487H139.029L137.015 23.9524H139.139L141.153 12.7487H144.684L145.012 10.9246H141.48L141.546 10.5599C141.639 10.0388 141.734 9.58283 141.832 9.19212C141.911 8.84433 142.043 8.51049 142.222 8.20183C142.38 7.93757 142.612 7.72495 142.889 7.58975C143.239 7.43693 143.62 7.36562 144.002 7.38121C144.339 7.38264 144.676 7.40873 145.01 7.4593C145.389 7.5195 145.758 7.63365 146.104 7.79828L146.896 6.05261C146.481 5.87007 146.046 5.73875 145.599 5.66157C145.109 5.58727 144.613 5.55246 144.117 5.55747C143.497 5.54391 142.878 5.63638 142.289 5.8309C141.792 6.00479 141.341 6.28998 140.971 6.66469C140.575 7.08196 140.266 7.57349 140.061 8.11092C139.799 8.78423 139.607 9.48266 139.487 10.1952L139.356 10.9246H137.285L136.958 12.7487ZM153.936 21.3989C153.487 21.7264 152.984 21.9732 152.451 22.1283C151.851 22.3303 151.222 22.4358 150.589 22.441C149.934 22.4633 149.281 22.3526 148.67 22.1155C148.202 21.9258 147.803 21.5986 147.524 21.1772C147.246 20.7241 147.083 20.2099 147.049 19.6793C147.001 18.9992 147.044 18.3159 147.176 17.647H155.699C155.91 17.0255 156.078 16.3899 156.2 15.7449C156.397 14.8753 156.405 13.9734 156.223 13.1005C156.087 12.5072 155.777 11.9677 155.334 11.5502C154.91 11.1795 154.398 10.9238 153.847 10.8073C153.266 10.6768 152.673 10.6113 152.077 10.6119C151.227 10.5823 150.379 10.7213 149.582 11.021C148.785 11.3206 148.056 11.7748 147.436 12.3576C146.105 13.7486 145.255 15.5292 145.009 17.4385C144.828 18.3649 144.775 19.3116 144.849 20.2525C144.906 21.0115 145.137 21.7471 145.525 22.4021C145.904 23.0093 146.455 23.4899 147.108 23.783C147.911 24.1272 148.779 24.2915 149.651 24.2647C150.54 24.2667 151.424 24.1441 152.279 23.9004C153.055 23.6904 153.792 23.356 154.461 22.9101L153.936 21.3989ZM153.81 13.2306C154.229 13.7607 154.319 14.6856 154.082 16.0054H147.497C147.717 14.9298 148.288 13.958 149.122 13.2438C149.894 12.6905 150.827 12.4067 151.776 12.436C152.153 12.4011 152.534 12.4547 152.887 12.5926C153.24 12.7306 153.557 12.949 153.81 13.2306ZM151.371 9.07481H152.619L155.9 5.73961L155.998 5.19275H153.635L151.371 9.07481Z" fill="white"/>
<path d="M76.8131 5.71362H62.3167V8.89234H67.7596V23.9524H71.3969V8.89234H76.8131V5.71362Z" fill="white"/>
<path d="M84.7026 20.6172C83.7441 21.2714 82.6085 21.6169 81.4481 21.6072C80.9922 21.6497 80.5324 21.5976 80.0976 21.4542C79.6627 21.3108 79.2622 21.0791 78.921 20.7737C78.3484 20.0775 78.0435 19.1996 78.0612 18.2983H86.0005C86.0882 17.8467 86.1543 17.4124 86.1989 16.9954C86.2416 16.6061 86.2638 16.2147 86.2654 15.823C86.2918 14.9584 86.1381 14.0979 85.8141 13.2959C85.5509 12.6694 85.141 12.1153 84.6189 11.6803C84.1186 11.2786 83.54 10.9858 82.92 10.8205C82.2796 10.6466 81.6188 10.559 80.9552 10.5599C80.0957 10.5076 79.2347 10.6333 78.426 10.9292C77.6174 11.2251 76.8786 11.6848 76.2559 12.2796C75.1407 13.426 74.5831 15.1457 74.583 17.4385C74.4799 19.2407 75.0055 21.0228 76.0701 22.4805C77.061 23.7047 78.6275 24.3168 80.7694 24.3168C81.7547 24.323 82.735 24.1781 83.6764 23.8872C84.4547 23.6668 85.1875 23.3094 85.8404 22.8317L84.7026 20.6172ZM82.6169 14.0253C83.0104 14.6731 83.1646 15.4383 83.0528 16.188H78.1409C78.1848 15.4188 78.4557 14.6798 78.9193 14.0645C79.1683 13.7876 79.4778 13.5719 79.8237 13.4341C80.1696 13.2962 80.5426 13.2401 80.9137 13.2699C81.2381 13.2438 81.5638 13.2993 81.8613 13.4312C82.1587 13.5631 82.4185 13.7674 82.6169 14.0253ZM93.739 21.3206C93.3618 21.5284 92.9344 21.6276 92.5042 21.6072C91.8011 21.6082 91.1023 21.4983 90.4334 21.2817C89.8738 21.1117 89.3316 20.8892 88.8139 20.6172L87.8579 23.1446C88.4871 23.5055 89.1612 23.7816 89.8628 23.9656C90.7227 24.2046 91.6117 24.3228 92.5042 24.3168C94.2212 24.3168 95.5089 23.939 96.3672 23.1836C96.7991 22.7924 97.1387 22.3102 97.3615 21.7717C97.5843 21.2332 97.6846 20.652 97.6552 20.07C97.6823 19.4149 97.526 18.7653 97.2039 18.1942C96.9191 17.7254 96.5391 17.3215 96.0885 17.0086C95.6356 16.6997 95.1449 16.4501 94.6284 16.2661C94.0974 16.075 93.6107 15.897 93.1684 15.7321C92.7791 15.5929 92.4053 15.4139 92.0529 15.1977C91.9168 15.1239 91.8031 15.0148 91.7237 14.8819C91.6443 14.7489 91.6021 14.5971 91.6016 14.4423C91.6016 13.6606 92.1148 13.2698 93.1413 13.2699C93.7787 13.2699 94.413 13.3576 95.0264 13.5304C95.6457 13.7041 96.1592 13.869 96.5668 14.0253L97.3364 11.5762C96.7318 11.2614 96.0894 11.0249 95.425 10.8725C94.53 10.6546 93.6112 10.5496 92.69 10.5599C91.48 10.4774 90.2814 10.8387 89.3186 11.5762C88.9175 11.9494 88.6045 12.4073 88.4025 12.9166C88.2004 13.4258 88.1143 13.9737 88.1505 14.5204C88.122 15.1881 88.2781 15.8507 88.6017 16.4354C88.8873 16.9143 89.2665 17.3307 89.7165 17.6599C90.1626 17.9835 90.6548 18.2382 91.1766 18.4156C91.7076 18.5978 92.1945 18.7758 92.6373 18.9496C93.0296 19.0975 93.4036 19.2899 93.7521 19.5229C93.8926 19.6114 94.0079 19.7346 94.0869 19.8807C94.1659 20.0267 94.2061 20.1906 94.2034 20.3566C94.2204 20.5443 94.1861 20.733 94.1044 20.9028C94.0226 21.0725 93.8963 21.2169 93.739 21.3206ZM98.6897 13.7907H100.522V20.3566C100.522 21.7637 100.81 22.7756 101.385 23.3924C101.745 23.7255 102.171 23.9798 102.635 24.1389C103.099 24.2981 103.591 24.3587 104.08 24.3168C104.733 24.317 105.383 24.2385 106.018 24.0829C106.593 23.9475 107.153 23.7555 107.691 23.5097L107.08 20.9039C106.8 21.0291 106.512 21.1336 106.217 21.2165C105.918 21.291 105.61 21.326 105.301 21.3206C105.087 21.3416 104.872 21.2968 104.685 21.192C104.497 21.0872 104.346 20.9276 104.253 20.7345C104.029 20.1131 103.934 19.4527 103.974 18.7935V13.7907H107.213V10.9247H103.974V7.51172L100.522 8.47564V10.9247H98.6897V13.7907Z" fill="white"/>
<path d="M160.282 13.1016C160.019 13.1093 159.757 13.0647 159.512 12.9704C159.266 12.8761 159.042 12.7339 158.852 12.5522C158.664 12.3729 158.515 12.1559 158.417 11.9155C158.318 11.6751 158.271 11.4165 158.279 11.1567C158.274 10.8969 158.323 10.639 158.423 10.3993C158.523 10.1595 158.672 9.94316 158.86 9.76382C159.246 9.40031 159.755 9.19645 160.285 9.19328C160.815 9.1901 161.327 9.38783 161.717 9.74669C161.899 9.9303 162.044 10.1482 162.142 10.3878C162.241 10.6274 162.291 10.884 162.29 11.143C162.289 11.402 162.237 11.6583 162.137 11.8972C162.037 12.136 161.89 12.3528 161.706 12.535C161.519 12.72 161.296 12.8654 161.051 12.9627C160.807 13.0601 160.545 13.1073 160.282 13.1016ZM160.287 9.4726C160.065 9.46727 159.843 9.50697 159.637 9.58932C159.43 9.67167 159.242 9.79495 159.084 9.95177C158.927 10.1086 158.802 10.2957 158.718 10.5019C158.635 10.708 158.594 10.929 158.598 11.1514C158.592 11.3746 158.632 11.5966 158.716 11.8032C158.801 12.0099 158.927 12.1968 159.088 12.3519C159.41 12.6598 159.839 12.8312 160.285 12.8302C160.73 12.8292 161.159 12.6559 161.48 12.3466C161.793 12.0278 161.97 11.5988 161.971 11.1514C161.972 10.7041 161.798 10.2741 161.486 9.95357C161.329 9.79621 161.142 9.67241 160.936 9.58972C160.73 9.50703 160.509 9.46718 160.287 9.4726ZM160.719 12.3558L160.498 11.7338C160.412 11.4897 160.293 11.3676 160.142 11.3675H159.931V12.3558H159.452V9.89427H160.255C160.504 9.87756 160.752 9.94181 160.962 10.0774C161.04 10.1358 161.104 10.2126 161.146 10.301C161.188 10.3895 161.208 10.4869 161.204 10.5848C161.204 10.9221 161.006 11.14 160.611 11.2384V11.2489C160.703 11.2814 160.785 11.3351 160.852 11.4056C160.919 11.4762 160.968 11.5616 160.996 11.6548L161.291 12.3558L160.719 12.3558ZM159.931 10.2896V11.0012H160.271C160.381 11.0073 160.49 10.9721 160.576 10.9023C160.612 10.8696 160.642 10.8292 160.661 10.7838C160.68 10.7385 160.689 10.6894 160.688 10.6401C160.688 10.4065 160.529 10.2897 160.213 10.2896H159.931Z" fill="white"/>
<path d="M70.7728 34.0114C70.776 33.9047 70.7548 33.7987 70.7109 33.7014C70.6669 33.6041 70.6013 33.5182 70.5191 33.4501C70.3256 33.2907 70.1114 33.1582 69.8823 33.056C69.6267 32.9374 69.3496 32.8151 69.0512 32.689C68.7574 32.566 68.4785 32.4102 68.2197 32.2246C67.9639 32.0409 67.7474 31.8079 67.5829 31.5393C67.4024 31.2208 67.3145 30.8582 67.3292 30.4924C67.3213 30.1645 67.3839 29.8387 67.5127 29.537C67.6302 29.2732 67.8098 29.0417 68.0362 28.8624C68.2749 28.6766 68.5485 28.5406 68.8407 28.4624C69.1786 28.3725 69.5271 28.3291 69.8767 28.3333C70.2933 28.3311 70.7091 28.369 71.1184 28.4466C71.4543 28.5038 71.7787 28.615 72.079 28.776L71.6148 30.0173C71.3921 29.891 71.152 29.7982 70.9023 29.7419C70.5672 29.6569 70.2225 29.6152 69.8768 29.6181C69.5972 29.5998 69.3192 29.6716 69.0835 29.823C68.9958 29.8849 68.9247 29.9675 68.8767 30.0635C68.8286 30.1594 68.8051 30.2658 68.8081 30.3731C68.8066 30.4765 68.8287 30.5789 68.8726 30.6725C68.9166 30.7661 68.9812 30.8485 69.0617 30.9134C69.2562 31.0731 69.4703 31.2073 69.6989 31.3127C69.9542 31.4352 70.2312 31.561 70.53 31.6902C70.8231 31.8167 71.1017 31.9742 71.3612 32.1599C71.6159 32.3427 71.8323 32.5738 71.998 32.8399C72.1764 33.1456 72.2644 33.4956 72.2517 33.8493C72.2607 34.2069 72.1926 34.5621 72.052 34.891C71.9248 35.1746 71.7325 35.4243 71.4907 35.6197C71.2324 35.8228 70.9347 35.9698 70.6164 36.0512C70.2483 36.1481 69.869 36.1953 69.4884 36.1916C69.009 36.1983 68.5306 36.1477 68.0633 36.0407C67.7509 35.9734 67.4469 35.872 67.1567 35.7383L67.6317 34.4752C67.7313 34.5281 67.8339 34.575 67.9391 34.6156C68.0784 34.6707 68.2208 34.7176 68.3657 34.7559C68.5308 34.801 68.6983 34.8371 68.8674 34.864C69.0477 34.8932 69.23 34.9078 69.4126 34.9074C69.7631 34.9283 70.1124 34.8516 70.422 34.6861C70.5358 34.6157 70.6285 34.5158 70.6903 34.397C70.752 34.2783 70.7806 34.145 70.7728 34.0114ZM89.3239 29.8012H87.122V36.0407H85.6428V29.8012H83.4294V28.4841H89.3239V29.8012ZM104.916 28.4841H106.319V33.3637C106.329 33.7929 106.263 34.2204 106.125 34.6268C106.011 34.954 105.827 35.2524 105.585 35.5011C105.349 35.7347 105.06 35.9086 104.743 36.0084C104.391 36.1197 104.023 36.1744 103.653 36.1705C101.738 36.1705 100.781 35.296 100.782 33.5469V28.4841H102.26V33.2557C102.255 33.5082 102.283 33.7604 102.341 34.0061C102.384 34.1896 102.471 34.3598 102.595 34.5022C102.712 34.6296 102.861 34.7229 103.027 34.7724C103.223 34.8297 103.427 34.857 103.631 34.8534C103.813 34.8704 103.996 34.8451 104.167 34.7795C104.337 34.7139 104.49 34.6098 104.614 34.4752C104.846 34.113 104.952 33.6844 104.916 33.2557V28.4841ZM118.307 28.4841C118.458 28.4624 118.629 28.4446 118.82 28.4301C119.011 28.4163 119.206 28.4051 119.408 28.3978C119.609 28.3906 119.806 28.3853 119.996 28.382C120.187 28.3781 120.358 28.3761 120.509 28.3761C121.093 28.3616 121.676 28.4568 122.225 28.6568C122.668 28.8224 123.065 29.0927 123.381 29.4447C123.682 29.7958 123.903 30.2084 124.029 30.6538C124.17 31.156 124.239 31.6758 124.233 32.1975C124.235 32.697 124.17 33.1945 124.039 33.6767C123.916 34.1392 123.695 34.5699 123.391 34.9398C123.067 35.3231 122.659 35.626 122.198 35.8246C121.619 36.0644 120.995 36.1785 120.369 36.1593C120.254 36.1593 120.1 36.156 119.91 36.1488C119.72 36.1416 119.521 36.1323 119.316 36.1217C119.111 36.1105 118.915 36.0998 118.728 36.0895C118.541 36.0783 118.4 36.0655 118.307 36.0512V28.4841ZM120.628 29.6932C120.469 29.6932 120.309 29.6969 120.148 29.7044C120.027 29.7076 119.906 29.7184 119.786 29.7367V34.7994C119.834 34.8089 119.883 34.8142 119.932 34.8152C120 34.8192 120.073 34.8224 120.153 34.8264C120.232 34.8297 120.307 34.8336 120.38 34.8369C120.451 34.8409 120.506 34.8422 120.542 34.8422C120.902 34.855 121.259 34.7792 121.583 34.6215C121.849 34.4839 122.075 34.2815 122.242 34.0331C122.409 33.7753 122.525 33.4872 122.582 33.1852C122.647 32.86 122.68 32.5292 122.679 32.1975C122.679 31.8987 122.65 31.6006 122.592 31.3074C122.54 31.021 122.432 30.7476 122.274 30.5029C122.114 30.2605 121.897 30.0604 121.643 29.9198C121.33 29.7579 120.98 29.6799 120.628 29.6932ZM136.166 28.4841H137.645V36.0407H136.166V28.4841ZM149.578 32.2628C149.511 31.2261 149.804 30.198 150.409 29.3532C150.698 29.0104 151.064 28.7398 151.476 28.5627C151.888 28.3857 152.336 28.3071 152.784 28.3333C153.27 28.3224 153.753 28.4182 154.198 28.6139C154.593 28.7945 154.937 29.0686 155.202 29.4125C155.48 29.783 155.682 30.2049 155.796 30.6538C155.931 31.1793 155.996 31.7202 155.99 32.2628C156.057 33.3001 155.761 34.3285 155.153 35.1716C154.864 35.5134 154.5 35.7834 154.089 35.9603C153.678 36.1373 153.231 36.2165 152.784 36.1916C152.294 36.2032 151.808 36.1074 151.359 35.9109C150.965 35.7313 150.622 35.4569 150.36 35.1123C150.085 34.7409 149.886 34.3192 149.772 33.8711C149.637 33.3458 149.572 32.8051 149.578 32.2628ZM151.132 32.2628C151.13 32.6158 151.162 32.9683 151.229 33.315C151.283 33.6044 151.383 33.8832 151.526 34.1405C151.649 34.3606 151.826 34.5464 152.039 34.6808C152.264 34.8146 152.522 34.8819 152.784 34.8752C153.023 34.8849 153.26 34.8335 153.474 34.7258C153.687 34.6181 153.87 34.4577 154.004 34.2598C154.34 33.6506 154.49 32.9563 154.435 32.2628C154.437 31.9187 154.407 31.5752 154.344 31.2369C154.292 30.9468 154.195 30.6666 154.058 30.406C153.939 30.1802 153.764 29.9888 153.55 29.85C153.224 29.664 152.841 29.6052 152.474 29.6849C152.108 29.7646 151.783 29.9771 151.564 30.2815C151.232 30.8863 151.082 31.5745 151.132 32.2628Z" fill="white"/>
</svg>
