<?xml version="1.0" encoding="UTF-8" standalone="no"?>
<svg
   xmlns:dc="http://purl.org/dc/elements/1.1/"
   xmlns:cc="http://creativecommons.org/ns#"
   xmlns:rdf="http://www.w3.org/1999/02/22-rdf-syntax-ns#"
   xmlns:svg="http://www.w3.org/2000/svg"
   xmlns="http://www.w3.org/2000/svg"
   xmlns:sodipodi="http://sodipodi.sourceforge.net/DTD/sodipodi-0.dtd"
   xmlns:inkscape="http://www.inkscape.org/namespaces/inkscape"
   width="50"
   height="50"
   viewBox="0 0 50 50"
   fill="none"
   id="svg2"
   version="1.1"
   inkscape:version="0.91 r13725"
   sodipodi:docname="support-issue.svg">
  <metadata
     id="metadata10">
    <rdf:RDF>
      <cc:Work
         rdf:about="">
        <dc:format>image/svg+xml</dc:format>
        <dc:type
           rdf:resource="http://purl.org/dc/dcmitype/StillImage" />
        <dc:title></dc:title>
      </cc:Work>
    </rdf:RDF>
  </metadata>
  <defs
     id="defs8" />
  <sodipodi:namedview
     pagecolor="#ffffff"
     bordercolor="#666666"
     borderopacity="1"
     objecttolerance="10"
     gridtolerance="10"
     guidetolerance="10"
     inkscape:pageopacity="0"
     inkscape:pageshadow="2"
     inkscape:window-width="1196"
     inkscape:window-height="480"
     id="namedview6"
     showgrid="false"
     inkscape:zoom="4.72"
     inkscape:cx="-1.3771186"
     inkscape:cy="25"
     inkscape:window-x="418"
     inkscape:window-y="336"
     inkscape:window-maximized="0"
     inkscape:current-layer="svg2" />
  <circle
     cx="25"
     cy="25"
     r="24"
     stroke="#544945"
     stroke-width="2"
     id="circle4" />
  <path
     inkscape:connector-curvature="0"
     style="clip-rule:evenodd;fill:#544945;fill-rule:evenodd"
     d="m 31.496889,27.562923 c 0.9219,-0.2256 1.7383,-0.761 2.3125,-1.5167 0.5741,-0.7557 0.8712,-1.6857 0.8415,-2.6343 0.043,-0.8731 -0.1381,-1.7427 -0.526,-2.526 -0.3983,-0.661 -0.9812,-1.19112 -1.677,-1.525 -0.4027,-0.2097 -0.8464,-0.32914 -1.3,-0.35 -0.5006,-0.03333 -1.034,-0.04167 -1.6,-0.025 -0.566,0.01667 -1.166,0.05 -1.8,0.1 -0.634,0.05 -1.2673,0.075 -1.9,0.075 -0.6326,0 -1.266,-0.025 -1.9,-0.075 -0.634,-0.05 -1.234,-0.08333 -1.79998,-0.1 -0.566,-0.01667 -1.09933,-0.0083 -1.6,0.025 -0.45361,0.02083 -0.89724,0.14027 -1.3,0.35 -0.69227,0.32949 -1.2683,0.8612 -1.652,1.525 -0.37018,0.7886 -0.54184,1.6558 -0.5,2.526 -0.0307,0.946 0.2637,1.874 0.83415,2.6294 0.57045,0.7553 1.3825,1.2923 2.30085,1.5216 0.36733,0.1 0.76733,0.2 1.2,0.3 0.36733,0.0667 0.82633,0.1333 1.37698,0.2 0.6401,0.0715 1.2839,0.1049 1.928,0.1 l 2.2,0 c 0.6348,0.0035 1.2692,-0.0299 1.9,-0.1 0.5674,-0.0667 1.0514,-0.1333 1.452,-0.2 0.4727,-0.1 0.8757,-0.2 1.209,-0.3 z m 6.009,-7.252 c 0.0055,1.0191 -0.1124,2.0352 -0.351,3.026 -0.2313,0.9465 -0.6759,1.8277 -1.3,2.576 -0.7178,0.8279 -1.6177,1.4782 -2.629,1.9 -1.363,0.5564 -2.8105,0.8776 -4.281,0.95 0.2667,0.1333 0.6087,0.3 1.026,0.5 0.4733,0.2576 0.8509,0.6609 1.077,1.15 0.198,0.5111 0.3078,1.0521 0.325,1.6 0.05,0.7 0.075,1.4167 0.075,2.15 0,0.7333 -0.0083,1.4087 -0.025,2.026 -0.0397,0.3771 -0.0147,0.7583 0.074,1.127 0.1386,0.2726 0.3352,0.5116 0.576,0.7 0.1988,0.1633 0.4079,0.3136 0.626,0.45 0.0354,0.0136 0.0677,0.0343 0.0947,0.0609 0.027,0.0267 0.0483,0.0586 0.0623,0.0938 0.0141,0.0352 0.0208,0.073 0.0196,0.1109 -0.0012,0.0379 -0.0103,0.0751 -0.0266,0.1094 -0.0857,0.099 -0.1942,0.1758 -0.3161,0.2237 -0.1219,0.0479 -0.2537,0.0655 -0.3839,0.0513 -0.2531,-0.0067 -0.5049,-0.0402 -0.751,-0.1 -0.3016,-0.0671 -0.5894,-0.1855 -0.851,-0.35 -0.2632,-0.1632 -0.4927,-0.3754 -0.676,-0.625 -0.1943,-0.2869 -0.2908,-0.6289 -0.275,-0.975 l 0,-4.1 c 0.0177,-0.1802 -0.0021,-0.362 -0.0582,-0.5342 -0.0561,-0.1721 -0.1473,-0.3307 -0.2678,-0.4658 -0.1906,-0.1848 -0.4223,-0.3218 -0.676,-0.4 l 0,5.4 c -0.068,0.6539 0.0539,1.3136 0.351,1.9 0.1013,0.1352 0.1932,0.2772 0.275,0.425 0.0701,0.116 0.1208,0.2427 0.15,0.375 0.0167,0.1 -0.0416,0.1583 -0.175,0.175 -0.2554,-0.0013 -0.5089,-0.0435 -0.751,-0.125 -0.3214,-0.064 -0.6238,-0.201 -0.8838,-0.4004 -0.2601,-0.1994 -0.4709,-0.4559 -0.6162,-0.7496 -0.2978,-0.589 -0.4524,-1.24 -0.451,-1.9 l 0,-5.3 -1.1,0 0,5.3 c 0.0019,0.6572 -0.1437,1.3065 -0.426,1.9 -0.1445,0.2995 -0.3585,0.5601 -0.6241,0.7601 -0.2656,0.2 -0.5751,0.3337 -0.9029,0.3899 -0.2338,0.0798 -0.4789,0.122 -0.726,0.125 -0.0231,7e-4 -0.0462,-0.0034 -0.0678,-0.0119 -0.0215,-0.0086 -0.0411,-0.0214 -0.0575,-0.0378 -0.0164,-0.0164 -0.0292,-0.036 -0.0378,-0.0575 -0.0085,-0.0216 -0.0126,-0.0446 -0.0119,-0.0678 0.0137,-0.1366 0.0657,-0.2666 0.15,-0.375 0.1,-0.15 0.2,-0.2917 0.3,-0.425 0.0974,-0.2255 0.1727,-0.46 0.225,-0.7 0.0899,-0.3935 0.1319,-0.7964 0.125,-1.2 l 0,-5.4 c -0.2479,0.0749 -0.4721,0.2127 -0.651,0.4 -0.22717,0.2811 -0.3349,0.6402 -0.29998,1 l 0,4.1 c 0.01578,0.3461 -0.08068,0.6881 -0.275,0.975 -0.18332,0.2496 -0.41279,0.4618 -0.676,0.625 -0.26155,0.1645 -0.5494,0.2829 -0.851,0.35 -0.24609,0.0598 -0.49783,0.0933 -0.751,0.1 -0.13021,0.0141 -0.2619,-0.0036 -0.3838,-0.0515 -0.12191,-0.0478 -0.2304,-0.1245 -0.3162,-0.2235 -0.0163,-0.0343 -0.02534,-0.0715 -0.02655,-0.1094 -0.0012,-0.0379 0.0054,-0.0757 0.01953,-0.1109 0.01409,-0.0352 0.03531,-0.0671 0.06234,-0.0938 0.02702,-0.0266 0.05926,-0.0473 0.09468,-0.0609 0.21813,-0.1364 0.42723,-0.2867 0.626,-0.45 0.24095,-0.1883 0.43758,-0.4273 0.576,-0.7 0.08792,-0.4358 0.11318,-0.882 0.075,-1.325 -0.01667,-0.7167 -0.025,-1.5087 -0.025,-2.376 -0.33956,0.1143 -0.69318,0.1816 -1.051,0.2 -0.48629,0.03 -0.97441,-0.0036 -1.452,-0.1 -0.75098,-0.1002 -1.46061,-0.4027 -2.053,-0.875 -0.5724,-0.5666 -1.03129,-1.2372 -1.352,-1.976 -0.20512,-0.3941 -0.46653,-0.7562 -0.776,-1.075 -0.23746,-0.2408 -0.489967,-0.4662 -0.755999,-0.675 -0.175269,-0.1312 -0.342255,-0.2732 -0.5,-0.425 -0.02734,-0.0164 -0.05035,-0.0392 -0.06711,-0.0663 -0.01676,-0.0272 -0.02678,-0.0579 -0.02923,-0.0898 -0.0024,-0.0318 0.0028,-0.0637 0.01516,-0.0931 0.01241,-0.0294 0.03167,-0.0554 0.05617,-0.0758 0.100834,-0.1159 0.229407,-0.2042 0.37369,-0.2569 0.144284,-0.0526 0.299563,-0.0678 0.45131,-0.0441 0.217999,-0.0038 0.433389,0.0478 0.625999,0.15 0.48497,0.239 0.89875,0.601 1.2,1.05 0.36533,0.4956 0.78531,0.9484 1.252,1.35 0.2343,0.1896 0.48572,0.357 0.751,0.5 0.31187,0.1707 0.64972,0.289 1,0.35 0.39722,0.0667 0.80278,0.0667 1.2,0 0.46954,-0.082 0.91417,-0.2701 1.3,-0.55 0.0727,-0.3754 0.23611,-0.7273 0.476,-1.025 0.20007,-0.2358 0.43635,-0.4384 0.7,-0.6 0.22291,-0.1364 0.4571,-0.2535 0.69998,-0.35 0.2167,-0.0833 0.392,-0.1583 0.526,-0.225 -1.54113,-0.0707 -3.06163,-0.3828 -4.50598,-0.925 -1.05139,-0.4047 -2.00035,-1.0368 -2.779,-1.851 -0.6725,-0.7297 -1.15353,-1.6148 -1.4,-2.576 -0.25427,-0.9969 -0.38062,-2.0222 -0.376,-3.051 -0.01657,-1.00607 0.15295,-2.00654 0.5,-2.951 0.32102,-0.84635 0.79565,-1.62611 1.4,-2.3 -0.2666,-0.813309 -0.35861,-1.673709 -0.27,-2.524999 0.06851,-0.81189 0.24646,-1.610787 0.529,-2.375 1.10628,0.0247 2.19281,0.298125 3.179,0.8 0.63072,0.32103 1.22655,0.70641 1.778,1.15 1.45108,-0.40214 2.95028,-0.60401 4.45598,-0.6 l 0.35,0 c 1.4006,-0.0043 2.7964,0.16364 4.156,0.5 0.564,-0.42266 1.1666,-0.79097 1.8,-1.1 0.9686,-0.46674 2.0252,-0.722383 3.1,-0.75 0.2802,0.721905 0.4573,1.47969 0.526,2.251 0.0857,0.80403 0.0265,1.61691 -0.175,2.399999 0.6744,0.67749 1.2027,1.48617 1.552,2.376 0.3842,0.99674 0.5736,2.05791 0.558,3.126 l 0,-0.001 z m -5.258,2.75 c 0.0113,0.4306 -0.121,0.8528 -0.376,1.2 -0.1017,0.1527 -0.2393,0.2781 -0.4007,0.3653 -0.1615,0.0872 -0.3418,0.1334 -0.5253,0.1347 -0.1801,0 -0.3573,-0.0459 -0.5148,-0.1334 -0.1574,-0.0875 -0.29,-0.2136 -0.3852,-0.3666 -0.2288,-0.3584 -0.3504,-0.7748 -0.3504,-1.2 0,-0.4252 0.1216,-0.8416 0.3504,-1.2 0.0951,-0.153 0.2277,-0.2792 0.3852,-0.3667 0.1575,-0.0875 0.3347,-0.1334 0.5148,-0.1333 0.1835,0.0013 0.3638,0.0475 0.5253,0.1347 0.1614,0.0872 0.299,0.2126 0.4007,0.3653 0.2553,0.3475 0.3875,0.77 0.376,1.201 l 0,-0.001 z m -9.81398,0 c 0.01123,0.4306 -0.12104,0.8528 -0.376,1.2 -0.1017,0.1527 -0.2393,0.2781 -0.40074,0.3653 -0.16144,0.0872 -0.34179,0.1334 -0.52526,0.1347 -0.18014,0 -0.35731,-0.0459 -0.51478,-0.1334 -0.15747,-0.0875 -0.29005,-0.2136 -0.38522,-0.3666 -0.2287,-0.3585 -0.35021,-0.7748 -0.35021,-1.2 0,-0.4252 0.12151,-0.8415 0.35021,-1.2 0.09517,-0.153 0.22775,-0.2791 0.38522,-0.3666 0.15747,-0.0875 0.33464,-0.1334 0.51478,-0.1334 0.18347,0.0013 0.36382,0.0475 0.52526,0.1347 0.16144,0.0872 0.29904,0.2126 0.40074,0.3653 0.25524,0.3475 0.38753,0.77 0.376,1.201 l 0,-0.001 z"
     id="path4" />
</svg>
