<svg width="30" height="30" viewBox="0 0 30 30" fill="none" xmlns="http://www.w3.org/2000/svg">
<path fill-rule="evenodd" clip-rule="evenodd" d="M26.9999 12C26.9999 16.9706 22.9705 21 17.9999 21C13.0293 21 8.99991 16.9706 8.99991 12C8.99991 7.02945 13.0293 3 17.9999 3C22.9705 3 26.9999 7.02945 26.9999 12ZM29.9999 12C29.9999 18.6274 24.6273 24 17.9999 24C15.2194 24 12.6597 23.0543 10.625 21.467L2.6846 29.4073C2.09891 29.9931 1.14908 29.9931 0.563385 29.4073C-0.0224304 28.8215 -0.0224304 27.8718 0.563385 27.286L8.50735 19.342C6.93546 17.3126 5.99991 14.7656 5.99991 12C5.99991 5.37259 11.3725 0 17.9999 0C24.6273 0 29.9999 5.37259 29.9999 12Z" fill="#56656C"/>
</svg>
