<svg width="40" height="50" viewBox="0 0 40 50" fill="none" xmlns="http://www.w3.org/2000/svg">
<path d="M26.9333 40H13.0667C12.48 40 12 40.45 12 41C12 41.55 12.48 42 13.0667 42H26.9333C27.52 42 28 41.55 28 41C28 40.45 27.52 40 26.9333 40Z" fill="#544945"/>
<path d="M28 45C28 44.45 27.52 44 26.9333 44H13.0667C12.48 44 12 44.45 12 45C12 45.55 12.48 46 13.0667 46H26.9333C27.52 46 28 45.55 28 45Z" fill="#544945"/>
<path d="M26 49C26 48.45 25.5091 48 24.9091 48H15.0909C14.4909 48 14 48.45 14 49C14 49.55 14.4909 50 15.0909 50H24.9091C25.5091 50 26 49.55 26 49Z" fill="#544945"/>
<rect x="19" width="2" height="5" rx="1" fill="#544945"/>
<rect x="5" y="20" width="2" height="5" rx="1" transform="rotate(90 5 20)" fill="#544945"/>
<rect x="40" y="20" width="2" height="5" rx="1" transform="rotate(90 40 20)" fill="#544945"/>
<rect x="34.5355" y="5" width="2" height="5" rx="1" transform="rotate(45 34.5355 5)" fill="#544945"/>
<rect x="4" y="6.41418" width="2" height="5" rx="1" transform="rotate(-45 4 6.41418)" fill="#544945"/>
<rect width="2.01174" height="5.02936" rx="1.00587" transform="matrix(0.704085 -0.710116 -0.704085 -0.710116 34.5836 37)" fill="#544945"/>
<rect width="2.01174" height="5.02936" rx="1.00587" transform="matrix(0.704085 0.710116 0.704085 -0.710116 4 35.5714)" fill="#544945"/>
<mask id="path-11-inside-1" fill="white">
<path fill-rule="evenodd" clip-rule="evenodd" d="M28 32.534C28 31.8802 28.3259 31.2752 28.8329 30.8624C31.986 28.2953 34 24.3828 34 20C34 12.2681 27.732 6 20 6C12.268 6 6 12.2681 6 20C6 24.3828 8.01402 28.2953 11.1671 30.8624C11.6741 31.2752 12 31.8802 12 32.534V36C12 37.1046 12.8954 38 14 38H26C27.1046 38 28 37.1046 28 36V32.534Z"/>
</mask>
<path d="M11.1671 30.8624L9.90436 32.4134L11.1671 30.8624ZM28.8329 30.8624L30.0956 32.4134L28.8329 30.8624ZM32 20C32 23.7559 30.2768 27.1078 27.5702 29.3114L30.0956 32.4134C33.6952 29.4828 36 25.0098 36 20H32ZM20 8C26.6274 8 32 13.3726 32 20H36C36 11.1635 28.8366 4 20 4V8ZM8 20C8 13.3726 13.3726 8 20 8V4C11.1634 4 4 11.1635 4 20H8ZM12.4298 29.3114C9.72322 27.1078 8 23.7559 8 20H4C4 25.0098 6.30482 29.4828 9.90436 32.4134L12.4298 29.3114ZM14 36V32.534H10V36H14ZM26 36H14V40H26V36ZM26 32.534V36H30V32.534H26ZM10 36C10 38.2091 11.7909 40 14 40V36H10ZM9.90436 32.4134C9.95153 32.4518 9.97853 32.49 9.99128 32.5151C10.0029 32.5378 10 32.5433 10 32.534H14C14 31.201 13.3396 30.0521 12.4298 29.3114L9.90436 32.4134ZM26 40C28.2091 40 30 38.2091 30 36H26V40ZM27.5702 29.3114C26.6604 30.0521 26 31.201 26 32.534H30C30 32.5433 29.9971 32.5378 30.0087 32.5151C30.0215 32.49 30.0485 32.4518 30.0956 32.4134L27.5702 29.3114Z" fill="#544945" mask="url(#path-11-inside-1)"/>
</svg>
