<svg width="290" height="56" viewBox="0 0 290 56" fill="none" xmlns="http://www.w3.org/2000/svg">
<path d="M65.568 34.6235L62.1976 34.3224C59.5933 34.1719 58.6741 33.1181 58.6741 31.3117C58.6741 29.2042 60.2061 27.9999 63.27 27.9999C65.4148 27.9999 67.2531 28.4515 68.7851 29.6558L70.7766 27.6988C68.9383 26.1934 66.3339 25.5913 63.4232 25.5913C58.9805 25.5913 55.9166 27.8493 55.9166 31.4622C55.9166 34.7741 58.0614 36.5805 62.0444 36.8816L65.4148 37.1827C67.8659 37.3332 68.7851 38.387 68.7851 40.1934C68.7851 42.602 66.6403 43.8063 63.27 43.8063C60.6657 43.8063 58.5209 43.2042 56.8358 41.3977L54.8442 43.3547C57.1422 45.4622 59.7465 46.2149 63.27 46.2149C68.1723 46.2149 71.6958 43.9569 71.6958 40.0429C71.6958 36.2794 69.2447 34.9246 65.568 34.6235ZM91.3049 25.5913C87.9345 25.5913 85.943 26.1934 84.1047 28.4515L86.0962 30.4085C87.3218 28.7526 88.7005 28.1504 91.3049 28.1504C95.1348 28.1504 96.5135 29.6558 96.5135 32.516V34.473H90.3857C85.7898 34.473 83.3387 36.7311 83.3387 40.344C83.3387 41.9999 83.9515 43.5052 84.8706 44.4085C86.0962 45.7633 87.7814 46.2149 90.6921 46.2149C93.4496 46.2149 94.9816 45.6128 96.6667 44.1074V46.0644H99.7306V32.3655C99.5774 27.8493 96.8199 25.5913 91.3049 25.5913ZM96.6667 38.8386C96.6667 40.4945 96.3603 41.6988 95.5943 42.3009C94.3688 43.5052 92.6836 43.6558 90.9985 43.6558C87.7814 43.6558 86.2494 42.602 86.2494 40.1934C86.2494 37.7848 87.7814 36.5805 90.8453 36.5805H96.6667V38.8386ZM111.374 28.1504C113.365 28.1504 114.591 28.7526 116.123 30.4085L118.114 28.4515C115.969 26.1934 114.284 25.4407 111.374 25.4407C106.165 25.4407 102.335 28.9031 102.335 35.8278C102.335 42.7526 106.318 46.2149 111.374 46.2149C114.284 46.2149 115.969 45.4622 118.114 43.2042L116.123 41.2472C114.591 42.9031 113.365 43.5052 111.374 43.5052C109.382 43.5052 107.697 42.7526 106.624 41.2472C105.705 39.8923 105.246 38.387 105.246 35.8278C105.246 33.2687 105.552 31.7633 106.624 30.4085C107.697 28.9031 109.382 28.1504 111.374 28.1504ZM137.11 25.7418H133.434L124.089 34.6235V16.7096H121.025V45.9138H124.089V38.5375L127.765 34.9246L134.659 45.9138H138.336L129.757 32.8171L137.11 25.7418ZM151.358 24.688C148.141 24.688 145.996 25.8923 144.77 27.2472C142.779 29.2042 142.319 31.6128 142.319 35.3762C142.319 39.1397 142.779 41.5483 144.77 43.5052C146.149 44.8601 148.294 46.0644 151.358 46.0644C154.575 46.0644 156.72 44.8601 157.945 43.5052C159.937 41.5483 160.396 39.1397 160.396 35.3762C160.396 31.6128 159.937 29.2042 157.945 27.2472C156.72 25.8923 154.422 24.688 151.358 24.688ZM153.809 40.645C153.196 41.2472 152.43 41.5483 151.358 41.5483C150.285 41.5483 149.519 41.2472 148.907 40.645C147.834 39.5913 147.681 37.6343 147.681 35.5268C147.681 33.4192 147.834 31.4622 148.907 30.4085C149.519 29.8063 150.285 29.5052 151.358 29.5052C152.43 29.5052 153.196 29.8063 153.809 30.4085C154.881 31.4622 155.034 33.2687 155.034 35.5268C155.034 37.6343 154.881 39.4407 153.809 40.645ZM174.643 24.9891L170.354 37.9354L166.064 24.9891H160.396L168.362 46.0644H172.499L180.312 24.9891H174.643ZM189.35 24.688C183.835 24.688 180.005 28.602 180.005 35.3762C180.005 43.9569 184.908 46.2149 189.963 46.2149C193.793 46.2149 195.938 45.0106 198.082 42.9031L194.865 39.7418C193.486 41.0966 192.414 41.6988 189.963 41.6988C186.899 41.6988 185.214 39.7418 185.214 37.0321H198.695V34.6235C198.695 28.9031 195.325 24.688 189.35 24.688ZM185.367 33.5698C185.367 32.6665 185.52 32.0644 185.827 31.3117C186.439 30.1074 187.665 29.2042 189.35 29.2042C191.189 29.2042 192.414 30.1074 192.874 31.3117C193.18 32.0644 193.333 32.6665 193.333 33.5698H185.367ZM206.661 26.9461V24.9891H201.453V46.0644H206.815V33.4192C206.815 30.7095 208.653 29.5052 210.338 29.5052C211.717 29.5052 212.33 29.9569 213.096 30.7095L217.079 26.7956C215.547 25.2902 214.168 24.8386 212.023 24.8386C209.725 24.688 207.581 25.7418 206.661 26.9461ZM218.764 22.7311V45.9138H224.126V29.3547H228.109V25.2902H224.126V23.0321C224.126 21.8278 224.738 21.0751 225.964 21.0751H227.956V16.559H224.892C220.602 16.7096 218.764 19.7203 218.764 22.7311ZM250.016 24.688C246.799 24.688 244.654 25.8923 243.428 27.2472C241.437 29.2042 240.977 31.6128 240.977 35.3762C240.977 39.1397 241.437 41.5483 243.428 43.5052C244.807 44.8601 246.952 46.0644 250.016 46.0644C253.233 46.0644 255.378 44.8601 256.603 43.5052C258.595 41.5483 259.054 39.1397 259.054 35.3762C259.054 31.6128 258.595 29.2042 256.603 27.2472C255.378 25.8923 253.233 24.688 250.016 24.688ZM252.467 40.645C251.854 41.2472 251.088 41.5483 250.016 41.5483C248.943 41.5483 248.177 41.2472 247.565 40.645C246.492 39.5913 246.339 37.6343 246.339 35.5268C246.339 33.4192 246.492 31.4622 247.565 30.4085C248.177 29.8063 248.943 29.5052 250.016 29.5052C251.088 29.5052 251.854 29.8063 252.467 30.4085C253.539 31.4622 253.693 33.2687 253.693 35.5268C253.693 37.6343 253.539 39.4407 252.467 40.645ZM284.332 24.9891L280.808 37.9354L276.519 24.9891H272.689L268.399 37.9354L264.723 24.9891H259.054L265.642 46.0644H270.084L274.527 32.8171L278.97 46.0644H283.412L290 24.9891H284.332ZM235.922 39.5913V16.7096H230.56V39.8923C230.56 42.9031 232.398 45.9138 236.841 45.9138H239.905V41.3977H237.913C236.381 41.5483 235.922 40.9461 235.922 39.5913ZM79.9684 28.9031L82.7259 26.1934H77.0576V19.5698H73.9937V40.4945C73.9937 43.5052 75.6789 45.9138 79.2024 45.9138H81.3471V43.3547H79.8152C77.8236 43.3547 77.0576 42.3009 77.0576 40.344V28.7526L79.9684 28.9031C79.9684 28.9031 79.9684 28.7526 79.9684 28.9031Z" fill="#222426"/>
<path d="M40.5969 51.0323V35.9786H45.6524V56.0001H0V35.9786H5.05546V51.0323H40.5969Z" fill="#BCBBBB"/>
<path d="M10.7236 34.6236L35.5414 39.7419L36.6137 34.9247L11.796 29.8064L10.7236 34.6236ZM13.9407 22.8817L36.9201 33.4193L39.0649 28.9032L16.0855 18.3656L13.9407 22.8817ZM20.375 11.7419L39.8308 27.6989L43.048 23.9355L23.5921 7.97849L20.375 11.7419ZM32.937 0L28.8007 3.01075L43.9671 23.0322L48.1034 20.0215L32.937 0ZM10.1108 45.9139H35.5414V40.9462H10.1108V45.9139Z" fill="#F48024"/>
</svg>
