<svg width="44" height="49" viewBox="0 0 44 49" fill="none" xmlns="http://www.w3.org/2000/svg">
<circle cx="16" cy="16" r="15" fill="#EEF1F3" stroke="#544945" stroke-width="2"/>
<path d="M10.3506 11.4668H12.5215C12.6611 9.65137 13.8799 8.52148 15.7969 8.52148C17.6885 8.52148 18.9072 9.67676 18.9072 11.251C18.9072 12.6094 18.3359 13.4092 16.8633 14.3105C15.124 15.3516 14.3115 16.4941 14.3242 18.1699V19.3379H16.5459V18.5127C16.5459 17.1797 17.0029 16.4688 18.6152 15.5166C20.2402 14.5391 21.2686 13.1299 21.2686 11.1367C21.2686 8.52148 19.085 6.54102 15.8857 6.54102C12.3184 6.54102 10.4902 8.72461 10.3506 11.4668ZM15.6064 25.2285C16.6348 25.2285 17.3584 24.4922 17.3584 23.4639C17.3584 22.4229 16.6348 21.6865 15.6064 21.6865C14.5781 21.6865 13.8418 22.4229 13.8418 23.4639C13.8418 24.4922 14.5781 25.2285 15.6064 25.2285Z" fill="#544945"/>
<path d="M19 21L43 21V43H35.4806C34.8731 43 34.2984 43.2762 33.9189 43.7506L31 47.3992L28.0811 43.7506C27.7016 43.2762 27.1269 43 26.5194 43H19L19 21Z" fill="#EEF1F3" stroke="#544945" stroke-width="2"/>
<rect x="24.4869" y="33.5939" width="2" height="6.41793" rx="1" transform="rotate(-45 24.4869 33.5939)" fill="#544945"/>
<rect x="27.6109" y="36.718" width="12.8419" height="2" rx="1" transform="rotate(-45 27.6109 36.718)" fill="#544945"/>
</svg>
