<svg xmlns="http://www.w3.org/2000/svg" width="714" height="247" fill="none" viewBox="0 0 714 247">
  <g filter="url(#filter0_d)">
    <path fill="#D7F0FA" d="M20 26a4 4 0 014-4h392a4 4 0 014 4v187a4 4 0 01-4 4H24a4 4 0 01-4-4V26z"/>
  </g>
  <path fill="#333" d="M25.84 13h-2.42V3.6h-3.1V1.57h8.63v2.01h-3.1V13zM34.13 5.8c-.5 0-.9.16-1.18.48a2.2 2.2 0 00-.5 1.36h3.35a1.97 1.97 0 00-.46-1.36c-.3-.32-.7-.48-1.2-.48zm.34 7.36a4.5 4.5 0 01-3.3-1.17c-.79-.77-1.19-1.87-1.19-3.3 0-1.46.37-2.59 1.1-3.39.73-.8 1.75-1.2 3.04-1.2 1.23 0 2.2.35 2.88 1.06.69.7 1.03 1.67 1.03 2.91v1.16H32.4c.02.67.23 1.2.6 1.58.38.38.9.57 1.58.57a6.56 6.56 0 002.96-.68v1.84c-.42.2-.86.36-1.34.46-.47.1-1.05.16-1.73.16zM46.06 10.4c0 .9-.31 1.58-.94 2.05-.61.47-1.54.7-2.78.7-.64 0-1.18-.04-1.63-.13-.45-.08-.87-.2-1.26-.37v-1.97a8.33 8.33 0 002.96.73c.87 0 1.3-.25 1.3-.75a.61.61 0 00-.17-.45 2.34 2.34 0 00-.6-.4c-.28-.15-.65-.32-1.12-.52a7.18 7.18 0 01-1.48-.78 2.26 2.26 0 01-.7-.82 2.8 2.8 0 01-.2-1.15c0-.78.3-1.38.9-1.8a4.4 4.4 0 012.56-.64c1.05 0 2.07.23 3.07.69l-.72 1.72c-.44-.19-.85-.34-1.23-.46a3.85 3.85 0 00-1.16-.18c-.7 0-1.06.19-1.06.57 0 .21.12.4.34.55.23.16.73.39 1.5.7.68.27 1.18.53 1.5.77.31.24.54.52.7.83.15.31.22.68.22 1.12zM51.6 11.26c.42 0 .92-.1 1.5-.28v1.78c-.6.26-1.32.4-2.19.4-.95 0-1.64-.24-2.08-.72-.43-.49-.65-1.21-.65-2.17V6.05h-1.14v-1l1.31-.8.69-1.84h1.52v1.86h2.45v1.78h-2.45v4.22c0 .33.1.58.28.75.2.16.45.24.76.24zM59.91 3.43c-.9 0-1.61.34-2.11 1.03-.5.68-.75 1.64-.75 2.86 0 2.55.95 3.82 2.86 3.82.8 0 1.78-.2 2.92-.6v2.03a8.1 8.1 0 01-3.14.59c-1.66 0-2.93-.5-3.81-1.51-.89-1.01-1.33-2.46-1.33-4.35 0-1.18.22-2.22.65-3.11a4.67 4.67 0 011.86-2.06 5.51 5.51 0 012.85-.72c1.11 0 2.23.27 3.35.8l-.78 1.98c-.43-.2-.86-.38-1.3-.53a3.85 3.85 0 00-1.27-.23zM70.63 13l-.47-1.19h-.06c-.4.5-.81.86-1.24 1.06-.42.19-.97.29-1.66.29a2.7 2.7 0 01-1.98-.72c-.48-.48-.72-1.16-.72-2.05 0-.93.32-1.6.97-2.05a5.63 5.63 0 012.94-.73l1.51-.05v-.38c0-.89-.45-1.33-1.36-1.33-.7 0-1.52.21-2.46.63l-.79-1.6a7.1 7.1 0 013.35-.8c1.17 0 2.07.26 2.7.77.62.51.93 1.29.93 2.33V13h-1.67zm-.7-4.05l-.93.03c-.7.03-1.2.15-1.55.38-.34.23-.5.58-.5 1.05 0 .67.38 1 1.15 1 .55 0 1-.15 1.32-.47.34-.32.5-.74.5-1.27v-.72zM79.58 6.05h-2.06V13h-2.39V6.05h-1.31V4.91l1.31-.64v-.64c0-1 .25-1.73.74-2.18.49-.46 1.27-.7 2.35-.7.82 0 1.55.13 2.2.38l-.62 1.75a4.44 4.44 0 00-1.32-.23c-.34 0-.59.1-.74.3-.15.2-.22.46-.22.77v.55h2.06v1.78zM84.57 5.8c-.5 0-.9.16-1.19.48a2.2 2.2 0 00-.49 1.36h3.34a1.97 1.97 0 00-.46-1.36c-.3-.32-.7-.48-1.2-.48zm.34 7.36a4.5 4.5 0 01-3.3-1.17c-.8-.77-1.19-1.87-1.19-3.3 0-1.46.37-2.59 1.1-3.39.73-.8 1.74-1.2 3.03-1.2 1.24 0 2.2.35 2.89 1.06.69.7 1.03 1.67 1.03 2.91v1.16h-5.63c.02.67.22 1.2.6 1.58.37.38.9.57 1.58.57a6.56 6.56 0 002.96-.68v1.84c-.42.2-.87.36-1.34.46-.47.1-1.05.16-1.73.16zM104.88 13h-3.07l-4.97-8.64h-.07c.1 1.53.14 2.61.14 3.26V13h-2.16V1.58h3.05l4.97 8.55h.05a69.37 69.37 0 01-.12-3.15v-5.4h2.18V13zM109.48 8.62c0 .86.14 1.52.42 1.96.28.44.75.66 1.39.66.63 0 1.09-.22 1.37-.65.28-.45.42-1.1.42-1.97a3.6 3.6 0 00-.42-1.95c-.28-.43-.75-.65-1.39-.65-.63 0-1.09.22-1.37.65a3.59 3.59 0 00-.42 1.95zm6.04 0a4.7 4.7 0 01-1.13 3.33c-.75.8-1.8 1.2-3.13 1.2a4.4 4.4 0 01-2.22-.54 3.69 3.69 0 01-1.48-1.59 5.33 5.33 0 01-.51-2.4c0-1.43.37-2.54 1.11-3.33a4.1 4.1 0 013.15-1.19c.83 0 1.57.18 2.21.55.64.36 1.14.89 1.48 1.57.34.68.52 1.48.52 2.4zM120.25 13.16c-1.03 0-1.83-.4-2.42-1.2-.58-.8-.88-1.9-.88-3.31 0-1.43.3-2.55.9-3.35.6-.8 1.42-1.2 2.46-1.2 1.1 0 1.94.43 2.52 1.28h.08a9.72 9.72 0 01-.18-1.74V.84h2.39V13h-1.83l-.46-1.13h-.1a2.73 2.73 0 01-2.48 1.29zm.84-1.9c.6 0 1.05-.18 1.33-.53.29-.36.44-.96.47-1.8v-.27c0-.93-.14-1.6-.44-2.01-.28-.4-.75-.61-1.4-.61-.53 0-.95.23-1.24.68a3.6 3.6 0 00-.44 1.96c0 .86.15 1.5.44 1.94.3.42.72.64 1.28.64zM131.23 5.8c-.5 0-.9.16-1.2.48-.28.32-.44.77-.48 1.36h3.34a1.97 1.97 0 00-.46-1.36c-.3-.32-.7-.48-1.2-.48zm.33 7.36a4.5 4.5 0 01-3.3-1.17c-.79-.77-1.18-1.87-1.18-3.3 0-1.46.36-2.59 1.1-3.39.73-.8 1.74-1.2 3.03-1.2 1.23 0 2.2.35 2.88 1.06a4 4 0 011.03 2.91v1.16h-5.63c.03.67.23 1.2.6 1.58.38.38.9.57 1.58.57a6.56 6.56 0 002.96-.68v1.84c-.41.2-.86.36-1.33.46-.48.1-1.06.16-1.74.16zM136.73 11.88c0-.43.11-.77.35-.99.23-.22.57-.34 1.02-.34.43 0 .77.12 1 .35.24.23.36.56.36.98 0 .41-.12.74-.36.98-.24.23-.57.35-1 .35-.44 0-.77-.11-1.01-.34a1.31 1.31 0 01-.36-.99zM140.92 16.84c-.6 0-1.13-.06-1.57-.2v-1.87c.37.1.74.15 1.12.15.4 0 .7-.11.87-.33.2-.23.28-.56.28-1V4.27h2.39v9.68c0 .92-.27 1.64-.8 2.14-.54.5-1.3.75-2.29.75zm.6-14.83c0-.78.44-1.17 1.3-1.17.87 0 1.3.4 1.3 1.17 0 .37-.11.66-.33.87-.21.2-.54.3-.97.3-.86 0-1.3-.4-1.3-1.17zM152.6 10.4c0 .9-.3 1.58-.93 2.05-.62.47-1.55.7-2.79.7-.63 0-1.17-.04-1.62-.13-.45-.08-.87-.2-1.26-.37v-1.97a8.34 8.34 0 002.96.73c.87 0 1.3-.25 1.3-.75a.61.61 0 00-.17-.45 2.36 2.36 0 00-.6-.4c-.28-.15-.65-.32-1.12-.52a7.19 7.19 0 01-1.49-.78 2.26 2.26 0 01-.69-.82 2.8 2.8 0 01-.2-1.15c0-.78.3-1.38.9-1.8a4.4 4.4 0 012.56-.64c1.05 0 2.07.23 3.07.69l-.72 1.72a13.2 13.2 0 00-1.23-.46 3.85 3.85 0 00-1.16-.18c-.7 0-1.06.19-1.06.57 0 .21.11.4.34.55.23.16.72.39 1.49.7.68.27 1.18.53 1.5.77.32.24.55.52.7.83.15.31.23.68.23 1.12zM163.42 13.16a2.9 2.9 0 01-2.41-1.12h-.13c.09.73.13 1.15.13 1.26v3.54h-2.38V4.27h1.93l.34 1.13h.1a2.76 2.76 0 012.48-1.3c1.04 0 1.84.4 2.43 1.2.58.8.87 1.9.87 3.32a6.5 6.5 0 01-.41 2.43 3.39 3.39 0 01-1.17 1.57 3 3 0 01-1.78.54zm-.7-7.15c-.59 0-1.02.18-1.29.54-.27.36-.41.96-.42 1.8v.25c0 .94.14 1.61.41 2.02.28.4.73.6 1.33.6 1.07 0 1.6-.87 1.6-2.63 0-.86-.13-1.5-.4-1.93-.26-.44-.67-.65-1.23-.65zM173.63 4.1c.32 0 .59.03.8.07l-.18 2.24c-.2-.06-.43-.08-.7-.08-.76 0-1.36.2-1.78.58-.43.4-.64.94-.64 1.64V13h-2.38V4.27h1.8l.36 1.46h.11c.27-.49.64-.88 1.1-1.18.46-.3.96-.45 1.5-.45zM177.91 8.62c0 .86.15 1.52.43 1.96.28.44.75.66 1.39.66.63 0 1.09-.22 1.36-.65.28-.45.43-1.1.43-1.97 0-.87-.15-1.52-.43-1.95-.28-.43-.74-.65-1.38-.65-.63 0-1.1.22-1.37.65a3.59 3.59 0 00-.43 1.95zm6.04 0a4.7 4.7 0 01-1.12 3.33c-.75.8-1.8 1.2-3.14 1.2a4.4 4.4 0 01-2.21-.54 3.69 3.69 0 01-1.48-1.59 5.31 5.31 0 01-.52-2.4c0-1.43.38-2.54 1.12-3.33a4.1 4.1 0 013.14-1.19c.84 0 1.58.18 2.22.55.64.36 1.13.89 1.48 1.57.34.68.51 1.48.51 2.4zM189.47 13.16c-2.72 0-4.08-1.5-4.08-4.48 0-1.48.37-2.62 1.11-3.4.74-.79 1.8-1.18 3.18-1.18 1.01 0 1.92.2 2.72.6l-.7 1.84c-.38-.15-.73-.27-1.05-.37-.32-.1-.65-.15-.97-.15-1.24 0-1.86.88-1.86 2.64 0 1.71.62 2.57 1.86 2.57.46 0 .88-.06 1.27-.18.4-.13.78-.32 1.18-.58v2.04c-.39.24-.78.41-1.18.5-.39.1-.88.15-1.48.15zM197.77 5.8c-.5 0-.9.16-1.18.48a2.2 2.2 0 00-.5 1.36h3.35a1.98 1.98 0 00-.46-1.36c-.3-.32-.7-.48-1.2-.48zm.34 7.36c-1.4 0-2.5-.4-3.3-1.17-.79-.77-1.19-1.87-1.19-3.3 0-1.46.37-2.59 1.1-3.39.73-.8 1.75-1.2 3.04-1.2 1.23 0 2.2.35 2.88 1.06a4 4 0 011.03 2.91v1.16h-5.63c.03.67.23 1.2.6 1.58.38.38.9.57 1.58.57a6.56 6.56 0 002.96-.68v1.84c-.42.2-.86.36-1.34.46-.47.1-1.05.16-1.73.16zM209.7 10.4c0 .9-.3 1.58-.93 2.05-.62.47-1.55.7-2.8.7a8.5 8.5 0 01-1.62-.13c-.45-.08-.87-.2-1.26-.37v-1.97a8.32 8.32 0 002.97.73c.86 0 1.3-.25 1.3-.75a.62.62 0 00-.18-.45 2.36 2.36 0 00-.6-.4c-.28-.15-.65-.32-1.12-.52a7.16 7.16 0 01-1.48-.78 2.26 2.26 0 01-.7-.82c-.13-.32-.2-.7-.2-1.15 0-.78.3-1.38.9-1.8a4.4 4.4 0 012.56-.64c1.05 0 2.08.23 3.07.69l-.72 1.72a13.3 13.3 0 00-1.23-.46 3.85 3.85 0 00-1.16-.18c-.7 0-1.06.19-1.06.57 0 .21.12.4.34.55.23.16.73.39 1.5.7.68.27 1.18.53 1.5.77.31.24.55.52.7.83.15.31.22.68.22 1.12zM217.66 10.4c0 .9-.32 1.58-.94 2.05-.62.47-1.55.7-2.79.7-.64 0-1.18-.04-1.63-.13-.44-.08-.86-.2-1.25-.37v-1.97a8.34 8.34 0 002.96.73c.86 0 1.3-.25 1.3-.75a.62.62 0 00-.18-.45 2.36 2.36 0 00-.6-.4c-.27-.15-.65-.32-1.12-.52a7.16 7.16 0 01-1.48-.78 2.26 2.26 0 01-.69-.82 2.8 2.8 0 01-.2-1.15c0-.78.3-1.38.89-1.8a4.4 4.4 0 012.56-.64c1.05 0 2.08.23 3.07.69l-.72 1.72a13.3 13.3 0 00-1.22-.46 3.85 3.85 0 00-1.17-.18c-.7 0-1.05.19-1.05.57 0 .21.11.4.33.55.23.16.73.39 1.5.7.68.27 1.18.53 1.5.77.31.24.55.52.7.83.15.31.23.68.23 1.12z"/>
  <path fill="#36B6E5" d="M40 42h194v155H40V42z"/>
  <path fill="#fff" d="M48 74h178v115H48V74z"/>
  <path fill="#333" d="M64.57 95v-.88h.94v-2.24h-.95V91h.95v-.22c0-.25.04-.47.13-.65a1.34 1.34 0 01.85-.7c.19-.06.39-.1.59-.1.37 0 .67.04.9.1.24.06.44.14.6.23l-.3.79a3.47 3.47 0 00-.4-.16 1.7 1.7 0 00-.55-.07c-.29 0-.5.06-.61.2-.11.12-.17.32-.17.58h1.68v.88h-1.68v2.24h1.69V95h-3.67zM69.27 94.12h1.4v-2.24h-1.4V91h2.45v3.12h1.48V95h-3.93v-.88zm1.21-4.2c0-.17.07-.31.19-.43s.3-.18.51-.18c.22 0 .4.06.54.18.13.12.2.26.2.42 0 .17-.07.31-.2.43a.83.83 0 01-.54.16.75.75 0 01-.51-.16.55.55 0 01-.19-.43zM75.28 92.94L73.9 91h1.24l.9 1.34.95-1.34h1.13l-1.37 1.92L78.19 95h-1.21l-1.02-1.47L74.93 95h-1.14l1.5-2.06zM79.32 91.88h-.8V91h.8v-.91l1.04-.3V91h2.1v.88h-2.1v1.14c0 .41.08.71.23.9a.8.8 0 00.65.27c.14 0 .27-.01.4-.05a1.53 1.53 0 00.56-.3l.21-.18.48.72c-.09.1-.2.2-.34.3a3.1 3.1 0 01-.93.38c-.17.03-.34.05-.5.05-.6 0-1.05-.16-1.35-.5-.3-.33-.45-.86-.45-1.59v-1.14zM85.83 91h1.49V94.12h.6V95h-1.26l-.18-.6h-.04c-.12.21-.3.38-.55.51a1.87 1.87 0 01-1.38.12 1 1 0 01-.42-.26c-.12-.12-.2-.29-.27-.5-.06-.2-.1-.47-.1-.78v-1.61h-.45V91h1.5v2.27c0 .33.04.56.15.7.1.15.27.22.5.22a.94.94 0 00.86-.6v-1.71h-.45V91zM88.3 94.12h.99v-2.24h-1V91h1.8l.13.53h.03c.15-.18.32-.32.51-.44.2-.12.42-.18.67-.18a.9.9 0 01.75.35c.2.24.28.63.28 1.18h-.93c0-.2-.03-.33-.09-.42-.05-.09-.14-.13-.26-.13a.8.8 0 00-.52.16c-.13.1-.24.23-.33.37v1.7h1.73V95H88.3v-.88zM97.05 94.58a1.5 1.5 0 01-.27.19 2.64 2.64 0 01-.86.3 3.13 3.13 0 01-1.48-.1c-.27-.1-.5-.24-.68-.42-.19-.18-.33-.4-.43-.66-.1-.26-.15-.56-.15-.89 0-.35.06-.66.17-.92.11-.27.26-.49.46-.66.2-.18.42-.31.68-.4a2.57 2.57 0 011.48-.05c.21.05.41.14.6.28.18.13.32.3.44.52.11.22.17.5.17.83 0 .23-.03.48-.08.74h-2.88c0 .17.04.32.1.44.07.11.16.2.27.28.11.08.24.13.38.17a2.3 2.3 0 001.24-.06c.2-.08.37-.17.5-.27l.34.68zm-1.72-2.86c-.14 0-.27.02-.4.06-.12.03-.23.09-.33.16a.88.88 0 00-.24.27c-.07.1-.1.22-.11.36h1.96a.83.83 0 00-.22-.62c-.14-.15-.37-.23-.66-.23zM105.56 90.47h-.58l-1.21-1.23h1.3l.49 1.23zM110.56 92.02l.04-.88h-.05l-.9 1.47h-.19l-.94-1.47h-.04l.05.79V95h-1.04v-5.6h1.11l.96 1.55h.04l.95-1.55h1.1V95h-1.1v-2.98zM114.38 93.87h.3l.78-2.87h1.07l-1.14 3.6c-.1.3-.2.58-.3.82-.09.25-.2.47-.33.65a1.22 1.22 0 01-1.09.57 1.27 1.27 0 01-.64-.17c-.1-.04-.18-.09-.25-.14l-.16-.14.53-.71c.07.06.16.11.25.16.1.05.19.08.27.08.16 0 .29-.06.38-.17.1-.11.19-.3.27-.55h-.57l-1.66-4h1.13l1.16 2.87zM122.13 95v-.88h.94v-2.24h-.95V91h.95v-.22c0-.25.05-.47.13-.65a1.35 1.35 0 01.85-.7c.2-.06.39-.1.6-.1.36 0 .66.04.9.1.24.06.43.14.59.23l-.3.79a3.42 3.42 0 00-.4-.16 1.7 1.7 0 00-.55-.07c-.29 0-.49.06-.6.2-.12.12-.18.32-.18.58h1.68v.88h-1.68v2.24h1.7V95h-3.68zM126.83 94.12h1.4v-2.24h-1.4V91h2.45v3.12h1.48V95h-3.93v-.88zm1.22-4.2c0-.17.06-.31.18-.43s.3-.18.51-.18c.23 0 .4.06.54.18.13.12.2.26.2.42 0 .17-.07.31-.2.43a.83.83 0 01-.54.16.76.76 0 01-.5-.16.55.55 0 01-.2-.43zM132.84 92.94L131.45 91h1.24l.9 1.34.95-1.34h1.13l-1.37 1.92 1.45 2.08h-1.21l-1.02-1.47L132.5 95h-1.13l1.48-2.06zM136.88 91.88h-.8V91h.8v-.91l1.04-.3V91h2.1v.88h-2.1v1.14c0 .41.08.71.23.9a.8.8 0 00.65.27c.14 0 .28-.01.4-.05a1.54 1.54 0 00.56-.3l.22-.18.48.72c-.1.1-.2.2-.35.3a3.09 3.09 0 01-.93.38c-.17.03-.33.05-.5.05-.6 0-1.05-.16-1.35-.5-.3-.33-.45-.86-.45-1.59v-1.14zM143.39 91h1.49V94.12h.6V95h-1.26l-.18-.6H144c-.13.21-.31.38-.56.51a1.87 1.87 0 01-1.38.12 1 1 0 01-.42-.26c-.11-.12-.2-.29-.27-.5-.06-.2-.1-.47-.1-.78v-1.61h-.45V91h1.5v2.27c0 .33.05.56.15.7.1.15.27.22.5.22a.94.94 0 00.86-.6v-1.71h-.45V91zM145.86 94.12h1v-2.24h-1V91h1.8l.12.53h.03c.15-.18.32-.32.51-.44.2-.12.42-.18.68-.18a.9.9 0 01.75.35c.18.24.28.63.28 1.18h-.94c0-.2-.03-.33-.09-.42-.05-.09-.14-.13-.26-.13a.8.8 0 00-.52.16c-.13.1-.24.23-.33.37v1.7h1.74V95h-3.77v-.88zM154.62 94.58c-.07.06-.16.12-.28.19a2.68 2.68 0 01-.86.3 3.13 3.13 0 01-1.48-.1c-.27-.1-.5-.24-.68-.42-.19-.18-.33-.4-.43-.66-.1-.26-.15-.56-.15-.89 0-.35.06-.66.17-.92.11-.27.27-.49.46-.66.2-.18.42-.31.69-.4a2.57 2.57 0 011.47-.05c.22.05.42.14.6.28.18.13.33.3.44.52.12.22.17.5.17.83 0 .23-.02.48-.08.74h-2.88c0 .17.04.32.1.44a.9.9 0 00.27.28c.11.08.24.13.38.17a2.3 2.3 0 001.24-.06c.2-.08.37-.17.5-.27l.35.68zm-1.73-2.86c-.14 0-.27.02-.4.06-.12.03-.23.09-.33.16a.88.88 0 00-.24.27.8.8 0 00-.11.36h1.97a.83.83 0 00-.23-.62c-.14-.15-.36-.23-.66-.23zM158.32 90.47h-.57l-1.22-1.23h1.31l.48 1.23zM84.94 114.47c0-.19.06-.33.18-.44a.64.64 0 01.46-.17c.2 0 .36.06.48.17.12.1.18.25.18.44s-.06.34-.18.45a.67.67 0 01-.48.17.64.64 0 01-.46-.17.59.59 0 01-.18-.45zM87.98 111h1.36l.12.48h.04c.27-.4.72-.6 1.34-.6.25 0 .47.05.67.13.21.07.39.2.53.36.15.16.26.37.34.62a3 3 0 01.12.9c0 .35-.04.66-.13.93-.1.28-.22.5-.4.7-.16.2-.37.34-.62.44-.24.1-.52.15-.84.15-.16 0-.33-.01-.49-.04-.16-.02-.29-.06-.4-.11v1.64h-1.04v-4.72h-.6V111zm2.55.77c-.2 0-.4.05-.56.15a.79.79 0 00-.35.46v1.66c.08.06.19.1.32.14.15.04.3.05.44.05a.89.89 0 00.75-.32c.1-.11.17-.25.22-.42.06-.17.08-.38.08-.62 0-.35-.08-.62-.25-.81a.83.83 0 00-.65-.3zM93.5 111.27a4.37 4.37 0 011.74-.35c.27 0 .5.03.7.1.2.07.36.16.47.28.13.13.21.27.27.44.05.18.08.37.08.58 0 .27-.01.5-.03.7a6.25 6.25 0 00.01 1.1h.52v.88h-1.33l-.1-.54h-.04c-.1.16-.26.3-.46.43-.2.11-.46.17-.8.17-.4 0-.71-.1-.95-.32a1.1 1.1 0 01-.35-.84c0-.23.04-.42.12-.58.08-.16.2-.3.36-.4.16-.1.35-.18.57-.23a3.23 3.23 0 011.05-.07l.39.04.01-.16v-.16c0-.2-.06-.34-.17-.43-.12-.09-.3-.13-.52-.13-.27 0-.52.03-.74.1l-.55.2-.25-.8zm1.37 2.94a1 1 0 00.58-.14c.12-.1.22-.2.28-.3v-.48a2.7 2.7 0 00-.24-.03 2.32 2.32 0 00-.65 0c-.1.02-.2.05-.27.1a.5.5 0 00-.2.14.37.37 0 00-.07.24c0 .15.04.26.13.35.09.08.24.12.44.12zM101.82 115c0 .29-.05.54-.15.75a1.57 1.57 0 01-1.02.84 2.74 2.74 0 01-1.33.06 3 3 0 01-.83-.27c-.1-.06-.2-.11-.26-.16l.4-.74c.13.08.28.16.46.24.18.08.4.12.68.12.34 0 .6-.08.77-.23.17-.16.26-.38.26-.67v-.25h-.03a.86.86 0 01-.42.29c-.2.05-.4.08-.65.08-.26 0-.5-.04-.71-.12a1.56 1.56 0 01-.94-.98 2.74 2.74 0 01-.13-.88c0-.35.05-.66.15-.94a1.82 1.82 0 011.12-1.1c.27-.09.57-.14.9-.14a5.48 5.48 0 01.98.08 3.92 3.92 0 01.75.16V115zm-1.92-.77c.2 0 .38-.04.54-.13a.7.7 0 00.34-.41v-1.8a2.47 2.47 0 00-.7-.1c-.16 0-.3.02-.43.07a.91.91 0 00-.34.23c-.1.1-.18.23-.24.39-.05.16-.08.34-.08.56 0 .2.03.36.08.51.04.15.11.28.2.38.08.1.18.18.28.23.11.05.23.07.35.07zM106.65 114.58c-.07.06-.16.12-.28.19a2.62 2.62 0 01-.86.3 3.13 3.13 0 01-1.48-.1c-.27-.1-.5-.24-.68-.42-.19-.19-.33-.4-.43-.66-.1-.26-.14-.56-.14-.89 0-.35.05-.66.16-.92.12-.27.27-.49.46-.66.2-.18.43-.31.69-.4a2.56 2.56 0 011.47-.05c.22.05.42.14.6.28.18.13.33.3.44.52.12.22.18.5.18.83 0 .23-.03.48-.09.74h-2.88c.01.17.05.32.1.44.08.11.17.2.27.28.11.08.24.13.38.17a2.3 2.3 0 001.24-.06c.2-.08.37-.17.5-.27l.35.68zm-1.73-2.86c-.14 0-.27.02-.4.06-.12.03-.23.09-.33.16a.87.87 0 00-.35.63h1.97a.83.83 0 00-.23-.62c-.14-.15-.36-.23-.66-.23zM115.15 110.47h-.57l-1.22-1.23h1.31l.48 1.23zM116.77 109.4h1.61v2.05h.03c.13-.17.3-.3.52-.41.2-.1.46-.15.75-.15.2 0 .39.03.56.08.17.05.32.14.44.26.12.13.22.3.29.5.06.21.1.47.1.78V115h-1.04v-2.27c0-.33-.07-.56-.2-.7a.72.72 0 00-.55-.22c-.2 0-.38.06-.55.18a.95.95 0 00-.35.46V115h-1.04v-4.72h-.57v-.88zM122.49 111.88h-.8V111h.8v-.91l1.04-.3V111h2.1v.88h-2.1v1.14c0 .42.08.71.23.9a.8.8 0 00.65.27c.14 0 .28-.01.4-.05a1.5 1.5 0 00.57-.31l.2-.17.49.72c-.1.1-.2.2-.35.3a3.09 3.09 0 01-.93.38c-.17.03-.33.05-.5.05-.6 0-1.05-.16-1.35-.5-.3-.33-.45-.86-.45-1.59v-1.14zM127.29 111.88h-.8V111h.8v-.91l1.04-.3V111h2.1v.88h-2.1v1.14c0 .42.07.71.23.9a.8.8 0 00.65.27c.14 0 .27-.01.39-.05a1.5 1.5 0 00.57-.31l.21-.17.48.72c-.09.1-.2.2-.34.3a3.09 3.09 0 01-.93.38c-.17.03-.34.05-.5.05-.6 0-1.05-.16-1.36-.5-.3-.33-.44-.86-.44-1.59v-1.14zM131.16 111h1.36l.12.48h.03c.28-.4.72-.6 1.34-.6.25 0 .47.05.67.13.21.07.39.2.53.36.15.16.27.37.35.62a3 3 0 01.12.9c0 .35-.05.66-.14.93-.09.28-.22.5-.4.7-.16.2-.37.34-.62.44-.24.1-.52.15-.84.15-.16 0-.32-.01-.48-.04-.16-.02-.3-.06-.4-.11v1.64h-1.04v-4.72h-.6V111zm2.54.77c-.2 0-.39.05-.56.15a.8.8 0 00-.34.46v1.66c.07.06.18.1.32.14.14.04.28.05.43.05a.89.89 0 00.75-.32c.1-.11.17-.25.22-.42.06-.17.08-.38.08-.62 0-.35-.08-.62-.25-.81a.83.83 0 00-.65-.3zM139.17 113.9c0-.11-.07-.2-.2-.26a2.68 2.68 0 00-.48-.18l-.63-.16a3.19 3.19 0 01-.64-.23c-.19-.1-.35-.22-.48-.37a.9.9 0 01-.2-.6c0-.2.05-.37.13-.52.1-.14.21-.27.36-.37.16-.1.34-.19.55-.24a3.77 3.77 0 011.89.11 4.27 4.27 0 01.65.36l-.45.71c-.08-.05-.17-.1-.28-.14a2.75 2.75 0 00-1.05-.29c-.23 0-.4.03-.55.09-.14.06-.2.15-.2.27 0 .1.06.17.19.23s.3.12.48.17l.64.16c.23.06.44.14.63.23.2.1.35.21.48.36s.2.34.2.58c0 .4-.15.72-.45.96-.3.23-.73.34-1.31.34a2.85 2.85 0 01-2-.68l.49-.75a3 3 0 00.27.2 3.05 3.05 0 001.33.4 1 1 0 00.45-.09.3.3 0 00.18-.3zM142.5 111.58c0-.2.06-.34.18-.44a.64.64 0 01.46-.17c.2 0 .37.05.48.17.12.1.18.25.18.44a.6.6 0 01-.18.44.67.67 0 01-.48.17.64.64 0 01-.46-.17.6.6 0 01-.18-.44zm0 2.9c0-.2.06-.34.18-.45a.64.64 0 01.46-.17c.2 0 .37.06.48.17.12.1.18.25.18.44a.6.6 0 01-.18.45.67.67 0 01-.48.17.64.64 0 01-.46-.17.6.6 0 01-.18-.45zM148.98 109.3l.78.36-2.85 6.46-.79-.37 2.86-6.45zM153.78 109.3l.78.36-2.86 6.46-.78-.37 2.86-6.45zM159.41 114.58l-.27.19a2.62 2.62 0 01-.86.3 3.13 3.13 0 01-1.48-.1c-.27-.1-.5-.24-.68-.42-.19-.19-.33-.4-.44-.66-.1-.26-.14-.56-.14-.89 0-.35.06-.66.17-.92.11-.27.26-.49.45-.66.2-.18.43-.31.7-.4a2.56 2.56 0 011.46-.05c.22.05.42.14.6.28.19.13.33.3.45.52.11.22.17.5.17.83 0 .23-.03.48-.08.74h-2.88c0 .17.04.32.1.44.07.11.16.2.27.28.11.08.24.13.38.17a2.3 2.3 0 001.24-.06c.2-.08.37-.17.5-.27l.34.68zm-1.72-2.86c-.14 0-.28.02-.4.06-.12.03-.23.09-.33.16a.87.87 0 00-.36.63h1.97a.83.83 0 00-.22-.62c-.14-.15-.37-.23-.66-.23zM161.63 112.94l-1.4-1.94h1.24l.9 1.34.95-1.34h1.13l-1.37 1.92 1.45 2.08h-1.2l-1.03-1.47-1.03 1.47h-1.13l1.49-2.06zM165.45 111.27a4.4 4.4 0 011.74-.35c.28 0 .51.03.7.1a1.1 1.1 0 01.74.72c.05.18.08.37.08.58 0 .27-.01.5-.03.7a6.25 6.25 0 00.01 1.1h.52v.88h-1.32l-.1-.54h-.05c-.1.16-.26.3-.45.43-.2.11-.47.17-.8.17-.4 0-.72-.1-.96-.32a1.1 1.1 0 01-.35-.84c0-.23.04-.42.12-.58.09-.16.2-.3.36-.4.16-.1.35-.18.57-.23a3.23 3.23 0 011.05-.07l.39.04.02-.16v-.16c0-.2-.06-.34-.18-.43-.12-.09-.29-.13-.52-.13-.27 0-.52.03-.74.1l-.55.2-.25-.8zm1.37 2.94a1 1 0 00.58-.14c.13-.1.22-.2.28-.3v-.48a2.66 2.66 0 00-.24-.03 2.31 2.31 0 00-.65 0c-.1.02-.2.05-.27.1a.5.5 0 00-.2.14.37.37 0 00-.07.24c0 .15.05.26.13.35.1.08.24.12.44.12zM171.46 115v-2.45c0-.16-.01-.29-.03-.38a.62.62 0 00-.1-.23.21.21 0 00-.12-.12.37.37 0 00-.15-.03.42.42 0 00-.4.31v2.9h-.97v-4h.76l.11.44h.03a.97.97 0 01.9-.53c.17 0 .34.05.5.13.16.08.27.23.32.45.09-.19.2-.33.37-.43.17-.1.35-.15.54-.15.14 0 .27.02.38.07.12.03.22.1.3.2.1.1.16.24.2.42.05.17.07.4.07.66V115h-.96v-2.56c0-.24-.04-.4-.12-.5a.34.34 0 00-.28-.15c-.1 0-.18.03-.25.07a.35.35 0 00-.14.22V115h-.96zM174.33 111h1.36l.12.48h.03c.28-.4.72-.6 1.34-.6.25 0 .47.05.68.13.2.07.38.2.52.36.15.16.27.37.35.62a3 3 0 01.12.9c0 .35-.05.66-.14.93-.09.28-.22.5-.39.7-.17.2-.38.34-.62.44-.25.1-.53.15-.84.15-.17 0-.33-.01-.5-.04-.15-.02-.29-.06-.4-.11v1.64h-1.03v-4.72h-.6V111zm2.54.77c-.2 0-.39.05-.56.15a.8.8 0 00-.34.46v1.66c.07.06.18.1.32.14.14.04.29.05.43.05a.89.89 0 00.75-.32c.1-.11.17-.25.23-.42.05-.17.08-.38.08-.62 0-.35-.09-.62-.26-.81a.83.83 0 00-.65-.3zM179.82 109.4h1.7v3.7c0 .4.06.7.16.85.1.16.26.24.48.24.17 0 .3-.01.41-.05.11-.03.22-.08.32-.15l.4.72-.28.17c-.09.05-.18.09-.28.12-.1.04-.22.06-.34.08-.12.02-.25.03-.4.03-.5 0-.88-.13-1.13-.38-.25-.26-.38-.62-.38-1.09v-3.36h-.66v-.88zM188.2 114.58c-.07.06-.17.12-.28.19a2.62 2.62 0 01-.86.3 3.13 3.13 0 01-1.48-.1c-.27-.1-.5-.24-.68-.42-.19-.19-.33-.4-.43-.66-.1-.26-.15-.56-.15-.89 0-.35.06-.66.17-.92.11-.27.26-.49.46-.66.2-.18.42-.31.68-.4a2.56 2.56 0 011.48-.05c.21.05.41.14.6.28.18.13.32.3.44.52.11.22.17.5.17.83 0 .23-.03.48-.08.74h-2.88c0 .17.04.32.1.44.07.11.16.2.27.28.11.08.24.13.38.17a2.3 2.3 0 001.24-.06c.2-.08.37-.17.5-.27l.34.68zm-1.73-2.86c-.14 0-.27.02-.4.06-.12.03-.23.09-.33.16a.87.87 0 00-.35.63h1.96a.83.83 0 00-.22-.62c-.14-.15-.37-.23-.66-.23zM190.47 114.47c0-.19.06-.33.18-.44a.64.64 0 01.46-.17c.2 0 .36.06.48.17.12.1.18.25.18.44a.6.6 0 01-.18.45.67.67 0 01-.48.17.64.64 0 01-.46-.17.59.59 0 01-.18-.45zM197.88 114.62c-.22.16-.47.29-.76.37-.3.08-.6.12-.92.12-.35 0-.66-.05-.93-.15-.27-.1-.5-.24-.68-.42a1.88 1.88 0 01-.42-.68 2.49 2.49 0 01.03-1.76 1.9 1.9 0 011.17-1.07 3.29 3.29 0 011.73-.04c.26.07.46.14.6.2v1.41h-.88v-.74a2.27 2.27 0 00-.5-.05c-.15 0-.3.02-.44.07-.15.04-.28.12-.4.22-.1.1-.2.22-.28.36-.07.15-.1.33-.1.54 0 .17.03.33.09.47a1.12 1.12 0 00.64.63 1.85 1.85 0 001.27-.04c.2-.08.34-.16.44-.22l.34.78zM198.6 113c0-.34.04-.64.14-.9s.25-.48.44-.66c.18-.18.4-.32.66-.4.26-.1.55-.15.87-.15.34 0 .64.05.9.15a1.81 1.81 0 011.08 1.1c.1.26.14.55.14.86 0 .34-.05.64-.15.9a1.83 1.83 0 01-1.1 1.08c-.26.09-.55.13-.87.13-.33 0-.64-.05-.9-.15a1.9 1.9 0 01-.67-.42 1.9 1.9 0 01-.41-.68 2.64 2.64 0 01-.14-.86zm1.06 0c0 .18.03.34.08.49.04.15.11.28.2.39.1.11.2.2.33.26s.28.1.44.1a1 1 0 00.75-.3c.2-.2.3-.51.3-.94 0-.37-.09-.66-.27-.89a.93.93 0 00-.78-.34c-.15 0-.29.02-.41.07a.82.82 0 00-.34.22c-.09.1-.16.22-.22.38-.05.16-.08.34-.08.56zM205.04 115v-2.45c0-.16-.01-.29-.03-.38a.62.62 0 00-.1-.23.21.21 0 00-.12-.12.37.37 0 00-.15-.03.42.42 0 00-.41.31v2.9h-.96v-4h.76l.11.44h.03a.97.97 0 01.9-.53c.17 0 .33.05.5.13.16.08.27.23.32.45.08-.19.2-.33.37-.43.17-.1.34-.15.54-.15.14 0 .27.02.38.07.12.03.22.1.3.2.1.1.16.24.2.42.04.17.07.4.07.66V115h-.96v-2.56c0-.24-.04-.4-.12-.5a.34.34 0 00-.28-.15c-.1 0-.18.03-.25.07a.35.35 0 00-.14.22V115h-.96zM211.09 110.47h-.58l-1.21-1.23h1.31l.48 1.23zM64.93 131.88h-.8V131h.8v-.91l1.04-.3V131h2.1v.88h-2.1v1.14c0 .41.08.71.23.9a.8.8 0 00.65.27c.14 0 .27-.01.39-.05a1.53 1.53 0 00.57-.3l.21-.18.48.72c-.09.1-.2.2-.34.3a3.1 3.1 0 01-.93.38c-.17.03-.34.05-.5.05-.6 0-1.05-.16-1.35-.5-.3-.33-.45-.86-.45-1.59v-1.14zM73.07 134.58a1.5 1.5 0 01-.27.19 2.59 2.59 0 01-.87.3 3.13 3.13 0 01-1.48-.1c-.26-.1-.49-.24-.68-.42-.18-.19-.33-.4-.43-.66-.1-.26-.14-.56-.14-.89 0-.35.05-.66.16-.92.12-.27.27-.49.46-.66.2-.18.43-.31.69-.4a2.56 2.56 0 011.47-.05c.22.05.42.15.6.28.18.13.33.3.44.52.12.22.18.5.18.83 0 .23-.03.48-.08.74h-2.88c0 .17.04.32.1.44.07.11.16.2.26.28.12.08.24.13.38.17a2.3 2.3 0 001.24-.06c.2-.08.38-.17.5-.27l.35.68zm-1.73-2.86c-.14 0-.27.02-.4.06-.11.03-.23.09-.33.16a.87.87 0 00-.35.63h1.97a.83.83 0 00-.23-.62c-.14-.15-.36-.23-.66-.23zM76.81 133.9c0-.11-.07-.2-.2-.26a2.68 2.68 0 00-.48-.18l-.63-.16a3.18 3.18 0 01-.63-.23c-.2-.1-.36-.22-.5-.37a.9.9 0 01-.18-.6c0-.2.04-.37.12-.52.1-.15.21-.27.36-.37.16-.1.34-.19.55-.24a3.77 3.77 0 011.89.11 4.24 4.24 0 01.65.36l-.45.71a2.7 2.7 0 00-.28-.14 2.74 2.74 0 00-1.05-.29c-.23 0-.4.03-.55.09-.13.06-.2.15-.2.27 0 .1.06.17.19.23s.3.12.49.17l.63.16c.23.06.44.14.63.23.2.1.35.21.48.36s.2.34.2.58c0 .4-.15.72-.45.96-.3.23-.73.34-1.31.34a2.85 2.85 0 01-2-.68l.49-.75.27.2a3.07 3.07 0 001.34.4 1 1 0 00.44-.09.3.3 0 00.18-.3zM79.32 131.88h-.8V131h.8v-.91l1.04-.3V131h2.1v.88h-2.1v1.14c0 .41.08.71.23.9a.8.8 0 00.65.27c.14 0 .27-.01.4-.05a1.53 1.53 0 00.56-.3l.21-.18.48.72c-.09.1-.2.2-.34.3a3.1 3.1 0 01-.93.38c-.17.03-.34.05-.5.05-.6 0-1.05-.16-1.35-.5-.3-.33-.45-.86-.45-1.59v-1.14zM86.83 136.7a3.72 3.72 0 01-1.09-.36 3.18 3.18 0 01-1.6-1.8 4.23 4.23 0 01-.23-1.48c0-.56.08-1.06.24-1.48a3.23 3.23 0 011.6-1.83c.34-.19.7-.31 1.08-.38l.19.85c-.19.05-.4.12-.64.24-.24.1-.46.26-.67.48-.22.22-.4.5-.55.84a3.3 3.3 0 00-.21 1.28 2.73 2.73 0 00.8 2.06 2.65 2.65 0 001.28.7l-.2.88zM89.93 129.4h.91l-.29 2.53h-.62v-2.53zM96.17 132.02l.04-.88h-.05l-.9 1.47h-.2l-.93-1.47h-.04l.05.79V135H93.1v-5.6h1.11l.96 1.55h.04l.95-1.55h1.1v5.6h-1.1v-2.98zM99.99 133.87h.3l.78-2.87h1.07l-1.14 3.6c-.1.3-.2.58-.3.82-.09.26-.2.47-.33.65-.13.18-.28.32-.46.42-.17.1-.38.15-.63.15a1.27 1.27 0 01-.65-.17c-.09-.04-.17-.09-.24-.14a1.2 1.2 0 01-.16-.14l.53-.71c.07.06.15.11.25.16s.19.08.27.08c.16 0 .29-.06.38-.17.1-.11.18-.3.27-.55h-.57l-1.66-4h1.13l1.16 2.87zM108.1 131.88h-.8V131h.8v-.91l1.04-.3V131h2.1v.88h-2.1v1.14c0 .41.08.71.23.9a.8.8 0 00.65.27c.14 0 .28-.01.4-.05a1.54 1.54 0 00.56-.3l.22-.18.48.72c-.1.1-.2.2-.35.3a3.09 3.09 0 01-.93.38c-.17.03-.34.05-.5.05-.6 0-1.05-.16-1.35-.5-.3-.33-.45-.86-.45-1.59v-1.14zM116.24 134.58l-.27.19a2.62 2.62 0 01-.86.3 3.13 3.13 0 01-1.48-.1c-.27-.1-.5-.24-.69-.42-.18-.19-.33-.4-.43-.66-.1-.26-.14-.56-.14-.89 0-.35.05-.66.17-.92.1-.27.26-.49.45-.66.2-.18.43-.31.7-.4a2.56 2.56 0 011.46-.05c.22.05.42.15.6.28.18.13.33.3.44.52.12.22.18.5.18.83 0 .23-.03.48-.08.74h-2.88c0 .17.04.32.1.44.07.11.16.2.27.28.1.08.23.13.37.17a2.3 2.3 0 001.24-.06c.21-.08.38-.17.5-.27l.35.68zm-1.73-2.86c-.14 0-.27.02-.39.06-.12.03-.23.09-.34.16a.87.87 0 00-.35.63h1.97a.83.83 0 00-.22-.62c-.15-.15-.37-.23-.67-.23zM119.98 133.9c0-.11-.06-.2-.2-.26a2.68 2.68 0 00-.48-.18l-.63-.16a3.17 3.17 0 01-.63-.23c-.2-.1-.36-.22-.49-.37a.9.9 0 01-.2-.6 1.02 1.02 0 01.5-.9c.15-.1.33-.18.54-.23a3.77 3.77 0 011.89.11 4.58 4.58 0 01.65.36l-.44.71-.28-.14a2.82 2.82 0 00-.7-.25 1.71 1.71 0 00-.9.05c-.14.06-.21.15-.21.27 0 .1.06.17.19.23s.3.12.49.17l.63.16c.23.06.44.14.63.23.2.1.35.21.48.36.14.15.2.34.2.58 0 .4-.15.72-.45.96-.29.23-.73.34-1.3.34a2.84 2.84 0 01-2-.68l.48-.75a3 3 0 00.27.2 3.05 3.05 0 001.34.4c.17 0 .31-.03.44-.09a.3.3 0 00.18-.3zM122.49 131.88h-.8V131h.8v-.91l1.04-.3V131h2.1v.88h-2.1v1.14c0 .41.08.71.23.9a.8.8 0 00.65.27c.14 0 .28-.01.4-.05a1.5 1.5 0 00.57-.31l.2-.17.49.72c-.1.1-.2.2-.35.3a3.09 3.09 0 01-.93.38c-.17.03-.33.05-.5.05-.6 0-1.05-.16-1.35-.5-.3-.33-.45-.86-.45-1.59v-1.14zM128.3 129.4h.91l-.28 2.53h-.63v-2.53zM132.9 134.49c0-.18.06-.33.18-.43.12-.11.27-.16.45-.16.3 0 .52.1.67.28.15.2.22.43.22.72a1.66 1.66 0 01-.5 1.17c-.15.14-.32.25-.5.35-.19.09-.37.15-.55.18l-.22-.44a2.18 2.18 0 00.75-.36c.1-.09.2-.19.26-.3a.8.8 0 00.13-.39.96.96 0 01-.41.01.63.63 0 01-.28-.12.58.58 0 01-.15-.22.86.86 0 01-.05-.3zM141.47 131.27a4.37 4.37 0 011.74-.35c.27 0 .5.04.7.1.2.07.35.16.47.28.13.13.21.27.27.44.05.17.08.37.08.58 0 .27-.01.5-.04.7a6.25 6.25 0 00.02 1.1h.52v.88h-1.33l-.1-.54h-.04c-.1.16-.26.3-.46.43-.2.12-.46.17-.8.17-.4 0-.72-.1-.95-.32-.24-.2-.35-.5-.35-.84 0-.23.04-.42.12-.58.08-.16.2-.3.36-.4.16-.1.35-.18.57-.23a3.23 3.23 0 011.04-.07l.4.04.01-.16v-.16c0-.2-.06-.34-.17-.43-.12-.09-.3-.13-.52-.13-.28 0-.52.03-.74.1l-.55.2-.25-.8zm1.37 2.94a1 1 0 00.57-.14c.13-.1.22-.2.28-.3v-.48a2.66 2.66 0 00-.24-.03 2.32 2.32 0 00-.64 0c-.1.02-.2.05-.28.1a.5.5 0 00-.19.14.37.37 0 00-.07.24c0 .14.04.26.13.35.09.08.23.12.44.12zM148.76 133.9c0-.11-.06-.2-.2-.26a2.68 2.68 0 00-.48-.18l-.63-.16a3.19 3.19 0 01-.63-.23c-.2-.1-.36-.22-.49-.37a.9.9 0 01-.2-.6c0-.2.05-.37.14-.52.09-.15.2-.27.36-.37.15-.1.33-.19.54-.24a3.77 3.77 0 011.89.11c.15.05.27.12.38.18l.27.18-.44.71-.28-.14a2.75 2.75 0 00-1.06-.29c-.22 0-.4.03-.54.09s-.21.15-.21.27c0 .1.06.17.2.23.12.06.29.12.48.17l.63.16c.23.06.44.14.63.23.2.1.35.21.48.36.14.15.2.34.2.58 0 .4-.15.72-.45.96-.29.23-.73.34-1.3.34a2.85 2.85 0 01-2-.68l.48-.75a3 3 0 00.27.2 3.05 3.05 0 001.34.4 1 1 0 00.44-.09.3.3 0 00.18-.3zM152.75 133.87h.3l.78-2.87h1.07l-1.13 3.6c-.1.3-.2.58-.3.82-.1.26-.2.47-.33.65-.13.18-.28.32-.46.42-.17.1-.38.15-.63.15a1.27 1.27 0 01-.65-.17c-.1-.04-.17-.09-.24-.14l-.17-.14.54-.71c.07.06.15.11.25.16s.18.08.27.08c.16 0 .28-.06.37-.17.1-.11.19-.3.28-.55h-.57l-1.67-4h1.13l1.16 2.87zM155.24 131h1.4l.12.53h.03a1.66 1.66 0 011.35-.64c.2 0 .38.02.55.08.18.05.33.14.45.26.12.13.22.3.29.5.07.21.11.47.11.78V135h-1.04v-2.27c0-.33-.07-.56-.22-.7a.75.75 0 00-.56-.22c-.2 0-.37.06-.54.17a.84.84 0 00-.33.43V135h-1.04v-3.12h-.57V131zM164.3 134.62c-.21.16-.47.29-.76.37-.3.08-.6.12-.92.12-.35 0-.66-.05-.93-.15-.27-.1-.5-.24-.68-.42a1.9 1.9 0 01-.42-.68 2.49 2.49 0 01.03-1.76 1.92 1.92 0 011.17-1.07 3.28 3.28 0 011.73-.04c.26.07.46.14.6.2v1.41h-.88v-.74a2.26 2.26 0 00-.5-.05c-.14 0-.3.02-.44.07-.15.04-.28.12-.4.22-.1.1-.2.22-.28.36-.06.15-.1.33-.1.54 0 .17.03.33.09.47a1.15 1.15 0 00.64.63 1.85 1.85 0 001.27-.04c.2-.08.34-.16.44-.22l.34.78zM170.46 131.88h-.8V131h.8v-.91l1.04-.3V131h2.1v.88h-2.1v1.14c0 .41.08.71.23.9a.8.8 0 00.65.27c.14 0 .27-.01.4-.05a1.5 1.5 0 00.57-.31l.2-.17.48.72c-.09.1-.2.2-.34.3a3.09 3.09 0 01-.93.38c-.17.03-.33.05-.5.05-.6 0-1.05-.16-1.35-.5-.3-.33-.45-.86-.45-1.59v-1.14zM179.6 131.08h3.85v.9h-3.85v-.9zm0 1.54h3.85v.9h-3.85v-.9zM184.67 134.84l-.46-.72 2.91-1.72-2.91-1.76.46-.72 3.73 2.32v.4l-3.73 2.2zM195.32 134.55c0-.39-.1-.66-.28-.8-.2-.16-.47-.23-.84-.23v-.8c.37 0 .65-.08.84-.23.19-.16.28-.42.28-.77v-1.02c0-.4.1-.73.32-.96.2-.23.52-.34.94-.34h1.2v.88h-.64c-.15 0-.29.01-.4.03a.5.5 0 00-.24.12.48.48 0 00-.14.25c-.02.1-.04.23-.04.4v.91c0 .35-.1.61-.28.79-.2.16-.45.26-.76.28v.08c.3.03.56.13.75.32.2.18.3.44.3.79v.91c0 .16 0 .3.03.4.03.1.08.19.14.25.06.06.15.1.26.12.1.02.23.03.39.03h.63v.88h-1.2c-.4 0-.71-.1-.93-.32-.22-.21-.33-.54-.33-.97v-1zM83.9 151.27a4.37 4.37 0 011.74-.35c.28 0 .52.04.7.1a1.06 1.06 0 01.74.72c.06.17.08.37.08.58 0 .27 0 .5-.03.7a6.25 6.25 0 00.02 1.1h.52v.88h-1.33l-.1-.54h-.04c-.11.16-.26.3-.46.43-.2.12-.46.17-.8.17-.4 0-.72-.1-.95-.32-.24-.2-.35-.5-.35-.84 0-.23.04-.42.12-.58.08-.16.2-.3.36-.4.16-.1.34-.18.56-.23a3.23 3.23 0 011.05-.07l.4.04.01-.16v-.16c0-.2-.06-.34-.18-.43-.11-.09-.29-.13-.52-.13-.27 0-.51.03-.73.1l-.55.2-.25-.8zm1.38 2.94a1 1 0 00.57-.14c.13-.1.22-.2.28-.3v-.48a2.7 2.7 0 00-.24-.03 2.32 2.32 0 00-.65 0c-.1.02-.19.05-.27.1a.5.5 0 00-.2.14.37.37 0 00-.06.24c0 .14.04.26.13.35.09.08.23.12.44.12zM90.8 151.96l.6 1.75h.03l.07-.69.33-2.02h.94l-.81 4h-1.05l-.45-1.58h-.04l-.5 1.58h-1.08l-.84-4h1.04l.4 2.22.06.5h.04l.59-1.76h.66zM93.5 151.27a4.37 4.37 0 011.74-.35c.27 0 .5.04.7.1.2.07.36.16.47.28.13.13.21.27.27.44.05.17.08.37.08.58 0 .27-.01.5-.03.7a6.25 6.25 0 00.01 1.1h.52v.88h-1.33l-.1-.54h-.04c-.1.16-.26.3-.46.43-.2.12-.46.17-.8.17-.4 0-.71-.1-.95-.32a1.1 1.1 0 01-.35-.84c0-.23.04-.42.12-.58.08-.16.2-.3.36-.4.16-.1.35-.18.57-.23a3.23 3.23 0 011.05-.07l.39.04.01-.16v-.16c0-.2-.06-.34-.17-.43-.12-.09-.3-.13-.52-.13-.27 0-.52.03-.74.1l-.55.2-.25-.8zm1.37 2.94a1 1 0 00.58-.14c.12-.1.22-.2.28-.3v-.48a2.7 2.7 0 00-.24-.03 2.32 2.32 0 00-.65 0c-.1.02-.2.05-.27.1a.5.5 0 00-.2.14.37.37 0 00-.07.24c0 .14.04.26.13.35.09.08.24.12.44.12zM98.05 154.12h1.4v-2.24h-1.4V151h2.45v3.12h1.48v.88h-3.93v-.88zm1.22-4.2c0-.17.06-.31.18-.43s.3-.18.51-.18c.23 0 .4.06.54.18.13.11.2.26.2.42 0 .17-.07.31-.2.43a.83.83 0 01-.54.16.75.75 0 01-.51-.16.55.55 0 01-.18-.43zM103.3 151.88h-.79V151h.8v-.91l1.03-.3V151h2.1v.88h-2.1v1.14c0 .41.08.71.23.9a.8.8 0 00.65.27c.15 0 .28-.01.4-.05a1.54 1.54 0 00.56-.3l.22-.18.48.72c-.1.1-.2.2-.34.3a3.09 3.09 0 01-.93.38c-.17.03-.34.05-.5.05-.6 0-1.05-.16-1.36-.5-.3-.33-.45-.86-.45-1.59v-1.14zM112.9 151.88h-.8V151h.8v-.91l1.04-.3V151h2.1v.88h-2.1v1.14c0 .41.07.71.23.9a.8.8 0 00.65.27c.14 0 .27-.01.39-.05a1.54 1.54 0 00.57-.3l.21-.18.48.72c-.09.1-.2.2-.34.3a3.14 3.14 0 01-.93.38c-.17.03-.34.05-.5.05-.6 0-1.05-.16-1.36-.5-.3-.33-.44-.86-.44-1.59v-1.14zM118.52 154.47c0-.19.06-.33.17-.44a.64.64 0 01.47-.17c.2 0 .36.06.48.17.11.1.17.25.17.44a.6.6 0 01-.17.45.67.67 0 01-.48.17.64.64 0 01-.47-.17.59.59 0 01-.17-.45zM125.93 154.62c-.22.16-.47.29-.77.37-.3.08-.6.12-.92.12-.34 0-.65-.05-.93-.15-.26-.1-.49-.24-.68-.42a1.9 1.9 0 01-.41-.68 2.49 2.49 0 01.02-1.76 1.92 1.92 0 011.18-1.07 3.28 3.28 0 011.73-.04c.26.07.46.14.6.2v1.41h-.88v-.74a2.26 2.26 0 00-.5-.05c-.15 0-.3.02-.45.07-.14.04-.27.12-.39.22-.11.1-.2.22-.28.36-.07.15-.1.33-.1.54 0 .17.03.33.08.47a1.15 1.15 0 00.64.63 1.85 1.85 0 001.27-.04c.2-.08.35-.16.45-.22l.34.78zM127.06 149.4h1.7v3.7c0 .4.05.7.15.85.1.16.27.24.49.24.16 0 .3-.01.4-.05.11-.03.22-.08.33-.15l.39.72-.27.17c-.1.05-.19.09-.3.12a2.27 2.27 0 01-.74.11c-.49 0-.86-.13-1.12-.38a1.5 1.5 0 01-.37-1.09v-3.36h-.66v-.88zM131.63 154.12h1.4v-2.24h-1.4V151h2.45v3.12h1.48v.88h-3.93v-.88zm1.21-4.2c0-.17.07-.31.19-.43s.3-.18.51-.18c.22 0 .4.06.54.18.13.11.2.26.2.42 0 .17-.07.31-.2.43a.83.83 0 01-.54.16.75.75 0 01-.51-.16.55.55 0 01-.19-.43zM140.32 154.62c-.22.16-.47.29-.77.37-.29.08-.6.12-.92.12-.34 0-.65-.05-.92-.15-.27-.1-.5-.24-.69-.42a1.9 1.9 0 01-.41-.68 2.49 2.49 0 01.02-1.76 1.92 1.92 0 011.18-1.07 3.28 3.28 0 011.73-.04c.26.07.46.14.6.2v1.41h-.88v-.74a2.27 2.27 0 00-.5-.05c-.15 0-.3.02-.45.07-.14.04-.27.12-.39.22-.11.1-.2.22-.28.36-.07.15-.1.33-.1.54 0 .17.03.33.09.47a1.13 1.13 0 00.63.63 1.85 1.85 0 001.27-.04c.2-.08.35-.16.45-.22l.34.78zM140.75 149.4h1.7v3.2h.24l1.3-1.6h1.23l-1.61 1.82 1.04 1.3h.75v.88h-1.3l-1.37-1.66h-.28V155h-1.04v-4.72h-.66v-.88zM149.19 156.7a3.72 3.72 0 01-1.1-.36 3.18 3.18 0 01-1.58-1.8 4.23 4.23 0 01-.24-1.48c0-.56.08-1.06.24-1.48a3.23 3.23 0 011.6-1.83c.34-.19.7-.31 1.08-.38l.19.85c-.19.05-.4.12-.64.24-.24.1-.46.26-.67.48-.22.22-.4.5-.55.84a3.3 3.3 0 00-.21 1.28 2.73 2.73 0 00.8 2.06 2.65 2.65 0 001.28.7l-.2.88zM152.29 149.4h.91l-.29 2.53h-.62v-2.53zM155.86 151.27a4.34 4.34 0 011.74-.35c.27 0 .5.04.7.1a1.07 1.07 0 01.74.72c.05.17.08.37.08.58 0 .27-.01.5-.03.7a6.25 6.25 0 00.01 1.1h.52v.88h-1.33l-.1-.54h-.04c-.1.16-.26.3-.46.43-.2.12-.46.17-.8.17-.4 0-.71-.1-.95-.32-.23-.2-.35-.5-.35-.84 0-.23.04-.42.12-.58.08-.16.2-.3.36-.4.16-.1.35-.18.57-.23a3.23 3.23 0 011.05-.07l.39.04.01-.16v-.16c0-.2-.06-.34-.17-.43a.84.84 0 00-.52-.13c-.28 0-.52.03-.74.1l-.55.2-.25-.8zm1.37 2.94a1 1 0 00.58-.14c.12-.1.22-.2.28-.3v-.48a2.77 2.77 0 00-.25-.03 2.33 2.33 0 00-.64 0c-.1.02-.2.05-.27.1a.5.5 0 00-.2.14.37.37 0 00-.07.24c0 .14.04.26.13.35.09.08.24.12.44.12zM161.88 149.4h.91l-.28 2.53h-.63v-2.53zM165.7 155.82a2.63 2.63 0 001.27-.7c.22-.21.41-.49.56-.82.16-.34.24-.75.24-1.24 0-.52-.08-.94-.23-1.28a2.56 2.56 0 00-.53-.84 2.2 2.2 0 00-.68-.48 3.1 3.1 0 00-.64-.24l.2-.85c.37.07.73.2 1.08.37a3.23 3.23 0 011.59 1.84c.16.42.25.92.25 1.48a4.1 4.1 0 01-.25 1.48 3.18 3.18 0 01-1.58 1.8c-.36.18-.72.3-1.1.36l-.19-.88zM171.28 154.49c0-.18.05-.33.17-.43.12-.11.28-.16.46-.16.3 0 .51.1.66.28.15.2.22.43.22.72a1.66 1.66 0 01-.5 1.17c-.15.14-.32.25-.5.35-.18.09-.36.15-.55.18l-.21-.44a2.18 2.18 0 00.74-.36c.1-.09.2-.19.26-.3a.8.8 0 00.13-.39.96.96 0 01-.4.01.63.63 0 01-.28-.12.58.58 0 01-.16-.22.86.86 0 01-.04-.3zm0-2.91c0-.2.06-.34.18-.44a.65.65 0 01.46-.17c.2 0 .37.05.48.17.12.1.18.25.18.44 0 .18-.06.33-.18.44a.67.67 0 01-.48.17.65.65 0 01-.46-.17.6.6 0 01-.18-.44zM67.14 175.55c0 .43-.1.76-.32.97-.22.21-.53.32-.93.32h-1.2v-.88h.63c.15 0 .29-.01.4-.03.1-.02.18-.06.25-.12.06-.06.1-.14.13-.25.03-.1.04-.24.04-.4v-.91c0-.35.1-.61.3-.8.19-.18.44-.28.74-.3v-.09a1.3 1.3 0 01-.75-.28c-.19-.18-.29-.44-.29-.79v-.91c0-.17-.01-.3-.04-.4a.49.49 0 00-.14-.25.52.52 0 00-.26-.12c-.1-.02-.22-.03-.37-.03h-.64v-.88h1.2c.41 0 .73.11.93.34.22.23.32.55.32.96v1.02c0 .35.1.6.28.77.2.15.48.23.84.23v.8c-.36 0-.64.07-.83.22-.19.15-.29.42-.29.81v1zM69.76 175.82a2.65 2.65 0 001.27-.7c.22-.21.41-.49.57-.82.15-.34.23-.75.23-1.24 0-.52-.08-.94-.23-1.28a2.58 2.58 0 00-.53-.84 2.2 2.2 0 00-.68-.48 3.13 3.13 0 00-.63-.24l.19-.85c.37.07.73.2 1.09.37a3.23 3.23 0 011.58 1.84c.17.42.25.92.25 1.48a4.1 4.1 0 01-.25 1.48 3.18 3.18 0 01-1.58 1.8c-.36.18-.72.3-1.1.36l-.18-.88zM75.34 174.49c0-.18.06-.33.17-.43.13-.11.28-.16.46-.16.3 0 .51.1.66.28.15.2.23.43.23.72a1.68 1.68 0 01-.5 1.17c-.16.14-.32.25-.51.35-.18.09-.36.15-.54.18l-.22-.44a2.18 2.18 0 00.74-.36c.11-.09.2-.19.27-.3a.82.82 0 00.13-.39.96.96 0 01-.41.01.63.63 0 01-.28-.12.58.58 0 01-.15-.22.86.86 0 01-.05-.3zm0-2.91c0-.2.06-.34.18-.44a.64.64 0 01.47-.17c.2 0 .36.05.48.17.11.1.17.25.17.44 0 .18-.06.33-.17.44a.67.67 0 01-.48.17.64.64 0 01-.47-.17.59.59 0 01-.17-.44z"/>
  <path fill="#fff" d="M51.96 61h-1.51v-5.88H48.5v-1.26h5.39v1.26h-1.94V61zM57.14 56.5c-.31 0-.56.1-.74.3-.18.2-.28.48-.3.85h2.08c0-.37-.1-.65-.29-.85a.97.97 0 00-.75-.3zm.21 4.6c-.88 0-1.56-.24-2.06-.73-.5-.48-.74-1.17-.74-2.06 0-.92.23-1.62.68-2.12.46-.5 1.1-.75 1.9-.75.77 0 1.37.22 1.8.66.43.44.65 1.04.65 1.82v.72h-3.52c.01.42.14.76.37 1 .24.23.57.35 1 .35a4.1 4.1 0 001.84-.43v1.15c-.26.13-.54.23-.83.29-.3.07-.66.1-1.09.1zM64.6 59.38c0 .56-.2.99-.59 1.28-.38.3-.97.44-1.74.44-.4 0-.74-.03-1.02-.09a3.74 3.74 0 01-.78-.23v-1.23a5.2 5.2 0 001.85.46c.54 0 .8-.16.8-.47a.38.38 0 00-.1-.28c-.07-.08-.2-.16-.37-.25-.18-.1-.41-.2-.7-.33a4.5 4.5 0 01-.93-.49c-.2-.15-.34-.32-.43-.51-.09-.2-.13-.43-.13-.72 0-.48.19-.86.56-1.12.38-.27.91-.4 1.6-.4.66 0 1.3.14 1.92.43l-.45 1.07a8.27 8.27 0 00-.77-.29 2.4 2.4 0 00-.72-.1c-.44 0-.66.11-.66.35 0 .13.07.25.2.35.15.1.46.24.94.43.43.17.74.33.94.48.2.15.34.33.44.52.1.2.14.43.14.7zM68.06 59.91c.26 0 .57-.06.94-.17v1.1c-.37.17-.83.26-1.37.26-.6 0-1.03-.15-1.3-.45-.27-.3-.4-.76-.4-1.36v-2.63h-.72v-.63l.82-.5.43-1.15h.95v1.16h1.53v1.12H67.4v2.63c0 .21.06.37.18.47.12.1.28.15.47.15zM74.33 57.03h.5c.47 0 .82-.08 1.05-.24.23-.16.34-.4.34-.75 0-.34-.11-.58-.35-.72a2.1 2.1 0 00-1.08-.22h-.46v1.93zm0 1.23V61h-1.5v-7.14h2.07c.97 0 1.69.18 2.15.53.47.36.7.9.7 1.61 0 .42-.11.8-.34 1.12a2.3 2.3 0 01-.99.77l2.1 3.11h-1.68l-1.7-2.74h-.8zM83.17 61l-.2-.7h-.08c-.16.26-.38.45-.67.6-.3.13-.63.2-1 .2-.65 0-1.13-.17-1.46-.52-.32-.34-.48-.83-.48-1.48v-3.56h1.49v3.19c0 .4.07.69.2.89.15.2.37.3.67.3.42 0 .72-.15.9-.42.2-.28.29-.75.29-1.4v-2.56h1.49V61h-1.15zM90.92 61h-1.5v-3.19c0-.4-.06-.69-.2-.88-.14-.2-.37-.3-.67-.3-.42 0-.72.14-.9.42-.19.28-.28.74-.28 1.38V61h-1.5v-5.46h1.15l.2.7h.08c.16-.26.4-.46.68-.6.3-.13.63-.2 1-.2.63 0 1.12.17 1.44.52.33.34.5.83.5 1.48V61zM97.49 61H96v-3.19c0-.4-.07-.69-.21-.88-.14-.2-.36-.3-.67-.3-.42 0-.72.14-.9.42-.19.28-.28.74-.28 1.38V61h-1.49v-5.46h1.14l.2.7h.08c.17-.26.4-.46.68-.6.3-.13.63-.2 1-.2.64 0 1.12.17 1.45.52.32.34.49.83.49 1.48V61zM101.28 56.5c-.31 0-.56.1-.74.3-.18.2-.28.48-.3.85h2.08c0-.37-.1-.65-.28-.85a.97.97 0 00-.76-.3zm.21 4.6c-.88 0-1.56-.24-2.06-.73-.5-.48-.74-1.17-.74-2.06 0-.92.23-1.62.68-2.12.46-.5 1.1-.75 1.9-.75.78 0 1.38.22 1.8.66.44.44.65 1.04.65 1.82v.72h-3.52c.02.42.14.76.38 1 .23.23.56.35.98.35a4.1 4.1 0 001.85-.43v1.15c-.26.13-.54.23-.83.29-.3.07-.66.1-1.09.1zM107.98 55.44c.2 0 .37.01.5.04l-.11 1.4a1.7 1.7 0 00-.44-.05c-.48 0-.85.12-1.12.37-.26.24-.39.58-.39 1.02V61h-1.49v-5.46h1.13l.22.92h.07c.17-.3.4-.55.69-.74.28-.19.6-.28.94-.28z"/>
  <path fill="#36B6E5" d="M304 42h96v155h-96V42z"/>
  <path fill="#fff" d="M325.8 113.33h.75c.7 0 1.22-.14 1.57-.4.35-.29.52-.69.52-1.22s-.15-.92-.44-1.18c-.29-.25-.74-.38-1.36-.38h-1.03v3.18zm5.13-1.7c0 1.15-.36 2.04-1.08 2.65a4.6 4.6 0 01-3.07.91h-.97V119h-2.27v-10.7h3.42c1.3 0 2.28.27 2.96.83.67.56 1.01 1.4 1.01 2.5zM337.48 113.05h.73a2.8 2.8 0 001.59-.36c.34-.24.5-.62.5-1.13 0-.5-.17-.87-.52-1.09a3.15 3.15 0 00-1.62-.32h-.69v2.9zm0 1.84V119h-2.28v-10.7h3.12c1.46 0 2.54.26 3.23.79.7.53 1.05 1.33 1.05 2.41 0 .63-.17 1.2-.52 1.69-.34.48-.84.87-1.47 1.14 1.61 2.41 2.66 3.97 3.15 4.67h-2.52l-2.56-4.1h-1.2zM357.08 113.63c0 1.77-.44 3.14-1.32 4.09-.88.95-2.14 1.43-3.78 1.43-1.64 0-2.9-.48-3.78-1.43-.88-.95-1.32-2.32-1.32-4.1 0-1.79.44-3.15 1.32-4.08.88-.95 2.15-1.42 3.8-1.42 1.64 0 2.9.48 3.76 1.42.88.95 1.32 2.31 1.32 4.1zm-7.82 0c0 1.2.23 2.1.68 2.7.46.6 1.13.91 2.04.91 1.81 0 2.71-1.2 2.71-3.6 0-2.42-.9-3.63-2.7-3.63-.9 0-1.58.3-2.04.92-.46.6-.69 1.5-.69 2.7zM370.2 119h-2.6l-2.48-4.05-2.5 4.05h-2.42l3.55-5.52-3.33-5.19h2.5l2.32 3.85 2.26-3.85h2.45l-3.37 5.31 3.62 5.4zM377.13 112.7l2.24-4.4h2.44l-3.55 6.53V119H376v-4.1l-3.55-6.6h2.46l2.22 4.4zM312.41 130.26c0-.86.13-1.67.38-2.42s.61-1.41 1.09-1.98h1.22c-.46.63-.8 1.32-1.04 2.07a7.73 7.73 0 000 4.63c.25.75.59 1.42 1.03 2.02h-1.21a5.76 5.76 0 01-1.1-1.94 7.37 7.37 0 01-.37-2.38zM322.15 133h-1.51v-3.08h-2.83V133h-1.51v-7.14h1.51v2.8h2.83v-2.8h1.5V133zM328.32 133l-.51-1.7h-2.6l-.52 1.7h-1.63l2.51-7.17h1.86l2.52 7.17h-1.63zm-.88-2.97a1604.63 1604.63 0 01-.93-3.09c-.11.42-.42 1.45-.93 3.1h1.86zM333.88 133l-1.72-5.6h-.04c.06 1.14.09 1.9.09 2.28V133h-1.35v-7.14h2.06l1.69 5.46h.03l1.79-5.46h2.06V133h-1.41v-3.38a39.7 39.7 0 01.07-2.21h-.04l-1.84 5.59h-1.39zM343.31 133l-1.71-5.6h-.05c.06 1.14.1 1.9.1 2.28V133h-1.36v-7.14h2.06l1.7 5.46h.02l1.8-5.46h2.05V133h-1.4v-3.38a28.5 28.5 0 01.06-2.21h-.04L344.7 133h-1.39zM353.84 133h-4.11v-7.14h4.1v1.24h-2.6v1.57h2.42v1.24h-2.41v1.84h2.6V133zM356.84 129.03h.5c.47 0 .82-.08 1.05-.24.23-.16.34-.4.34-.75 0-.34-.11-.58-.35-.72a2.1 2.1 0 00-1.08-.22h-.46v1.93zm0 1.23V133h-1.51v-7.14h2.08c.97 0 1.69.18 2.15.53.47.36.7.9.7 1.61 0 .42-.11.8-.34 1.12a2.3 2.3 0 01-.99.77l2.1 3.11h-1.68l-1.7-2.74h-.8zM367.78 133h-1.5v-3.08h-2.83V133h-1.52v-7.14h1.51v2.8h2.83v-2.8h1.51V133zM373.7 133h-4.11v-7.14h4.1v1.24h-2.59v1.57h2.42v1.24h-2.42v1.84h2.6V133zM379.56 133l-.51-1.7h-2.6l-.52 1.7h-1.63l2.51-7.17h1.86l2.52 7.17h-1.63zm-.88-2.97a1187.19 1187.19 0 01-.93-3.09c-.11.42-.42 1.45-.93 3.1h1.87zM388.02 129.36c0 1.18-.33 2.08-1 2.7-.67.63-1.64.94-2.9.94h-2.02v-7.14h2.24c1.16 0 2.07.3 2.71.92.65.62.97 1.48.97 2.58zm-1.57.04c0-1.53-.68-2.3-2.03-2.3h-.8v4.65h.64c1.46 0 2.19-.78 2.19-2.35zM391.59 130.26c0 .86-.13 1.65-.38 2.4a5.7 5.7 0 01-1.09 1.92h-1.21a7.49 7.49 0 001.03-6.65 7.03 7.03 0 00-1.04-2.07h1.22c.48.57.84 1.23 1.1 1.99.24.75.37 1.56.37 2.41z"/>
  <path fill="#333" d="M491.44 18.58h3.55c1.62 0 2.8.23 3.53.7.73.45 1.1 1.18 1.1 2.19 0 .68-.16 1.24-.49 1.68-.31.44-.74.7-1.27.79v.08a2.5 2.5 0 011.56.9c.32.44.49 1.03.49 1.77a2.9 2.9 0 01-1.14 2.43c-.75.59-1.77.88-3.06.88h-4.27V18.58zm2.42 4.52h1.4c.66 0 1.14-.1 1.43-.3.3-.2.44-.54.44-1.01 0-.44-.16-.75-.48-.94-.32-.2-.82-.29-1.52-.29h-1.27v2.54zm0 1.92V28h1.58c.66 0 1.16-.13 1.47-.38.32-.26.48-.65.48-1.17 0-.95-.68-1.43-2.03-1.43h-1.5zM506.88 21.1c.32 0 .59.02.8.07l-.18 2.24c-.2-.06-.43-.08-.7-.08-.76 0-1.36.2-1.78.58-.43.4-.64.94-.64 1.64V30H502v-8.73h1.8l.36 1.46h.11c.27-.49.64-.88 1.1-1.18.46-.3.96-.45 1.5-.45zM511.16 25.62c0 .86.14 1.52.43 1.96.28.44.75.66 1.39.66.63 0 1.09-.22 1.36-.65.28-.45.43-1.1.43-1.97 0-.87-.14-1.52-.43-1.95-.28-.43-.74-.65-1.38-.65-.63 0-1.1.22-1.37.65a3.59 3.59 0 00-.43 1.95zm6.04 0a4.7 4.7 0 01-1.12 3.33c-.75.8-1.8 1.2-3.13 1.2a4.4 4.4 0 01-2.22-.54 3.69 3.69 0 01-1.48-1.59 5.31 5.31 0 01-.52-2.4c0-1.43.38-2.54 1.12-3.33A4.1 4.1 0 01513 21.1c.84 0 1.58.18 2.22.55.64.36 1.13.89 1.48 1.57.34.68.51 1.48.51 2.4zM526.35 30l-.67-3.05-.9-3.86h-.06l-1.6 6.91h-2.56l-2.48-8.73h2.37l1.01 3.86c.16.7.33 1.65.5 2.87h.04c.02-.4.11-1.02.27-1.88l.13-.67 1.08-4.18h2.62l1.02 4.18.1.51a16.8 16.8 0 01.3 2.04h.05a29.68 29.68 0 01.5-2.87l1.05-3.86h2.34L528.95 30h-2.6zM538.97 27.4c0 .9-.31 1.58-.94 2.05-.62.47-1.55.7-2.79.7-.63 0-1.17-.04-1.62-.13-.45-.08-.87-.2-1.26-.37v-1.97a8.33 8.33 0 002.96.73c.86 0 1.3-.25 1.3-.75a.61.61 0 00-.17-.45 2.33 2.33 0 00-.6-.4 14.1 14.1 0 00-1.12-.52 7.2 7.2 0 01-1.49-.78 2.26 2.26 0 01-.69-.82c-.14-.32-.2-.7-.2-1.15 0-.78.3-1.38.9-1.8a4.4 4.4 0 012.55-.64c1.06 0 2.08.23 3.08.69l-.72 1.72c-.44-.19-.85-.34-1.23-.46a3.86 3.86 0 00-1.16-.18c-.7 0-1.06.19-1.06.57 0 .21.11.4.34.55.23.16.72.39 1.49.7.68.27 1.18.53 1.5.77.32.24.55.52.7.83.15.31.23.68.23 1.12zM544.45 22.8c-.51 0-.9.16-1.2.48a2.2 2.2 0 00-.48 1.36h3.34a1.97 1.97 0 00-.46-1.36c-.3-.32-.7-.48-1.2-.48zm.33 7.36c-1.4 0-2.5-.4-3.3-1.17-.79-.77-1.18-1.87-1.18-3.3 0-1.46.36-2.59 1.1-3.39.73-.8 1.74-1.2 3.03-1.2 1.23 0 2.2.35 2.88 1.06.69.7 1.03 1.67 1.03 2.91v1.16h-5.63c.03.67.23 1.2.6 1.58.38.38.9.57 1.58.57a6.56 6.56 0 002.96-.68v1.84c-.42.2-.86.36-1.33.46-.48.1-1.06.16-1.74.16zM555.16 21.1c.32 0 .59.02.8.07l-.18 2.24c-.2-.06-.43-.08-.7-.08-.76 0-1.36.2-1.78.58-.42.4-.64.94-.64 1.64V30h-2.38v-8.73h1.8l.36 1.46h.11c.28-.49.64-.88 1.1-1.18.46-.3.97-.45 1.5-.45z"/>
  <rect width="224" height="155" x="490" y="42" fill="#2A3852" rx="4"/>
  <path fill="#fff" d="M498 74h208v115H498V74z"/>
  <path fill="#EC665A" fill-rule="evenodd" d="M502 54a4 4 0 110 8 4 4 0 010-8z" clip-rule="evenodd"/>
  <path fill="#E0C14C" fill-rule="evenodd" d="M514 54a4 4 0 110 8 4 4 0 010-8z" clip-rule="evenodd"/>
  <path fill="#72C047" fill-rule="evenodd" d="M526 54a4 4 0 110 8 4 4 0 010-8z" clip-rule="evenodd"/>
  <rect width="127" height="22" x="539" y="47" fill="#000" opacity=".4" rx="11"/>
  <path fill="#fff" d="M555.78 61h-1.16v-3.32c0-.42-.08-.73-.25-.93-.17-.2-.43-.31-.8-.31-.48 0-.83.14-1.06.43-.23.3-.34.77-.34 1.45V61h-1.14v-7.6h1.14v1.93c0 .31-.02.64-.06 1h.08c.15-.27.37-.47.65-.61.28-.15.6-.22.97-.22 1.31 0 1.97.66 1.97 1.98V61zM559.38 60.17c.28 0 .57-.04.85-.13v.86a3.2 3.2 0 01-1.11.2c-1.1 0-1.64-.58-1.64-1.72v-2.91h-.74v-.5l.8-.43.38-1.14h.71v1.2h1.54v.87h-1.54v2.89c0 .28.07.48.2.61.15.13.33.2.55.2zM563.32 60.17c.28 0 .56-.04.84-.13v.86a3.21 3.21 0 01-1.11.2c-1.09 0-1.63-.58-1.63-1.72v-2.91h-.74v-.5l.79-.43.39-1.14h.7v1.2h1.55v.87h-1.54v2.89c0 .28.07.48.2.61.14.13.33.2.55.2zM567.98 61.1c-.68 0-1.21-.25-1.59-.74h-.07c.05.46.07.73.07.83v2.21h-1.15v-7.8h.93l.16.72h.06c.36-.54.9-.82 1.61-.82.68 0 1.2.25 1.58.73.37.5.56 1.18.56 2.06 0 .88-.19 1.57-.57 2.07-.39.49-.91.74-1.59.74zm-.27-4.66c-.46 0-.8.13-1 .4-.21.27-.32.7-.32 1.28v.17c0 .66.1 1.13.31 1.43.21.3.55.44 1.02.44.4 0 .7-.16.92-.49.22-.32.33-.79.33-1.39 0-.6-.11-1.06-.33-1.37a1.06 1.06 0 00-.93-.47zM575.1 59.46c0 .53-.19.93-.57 1.22-.39.28-.94.42-1.65.42-.72 0-1.3-.11-1.74-.33v-1c.64.3 1.23.45 1.77.45.71 0 1.07-.21 1.07-.64a.5.5 0 00-.12-.34c-.08-.1-.2-.19-.39-.29-.18-.1-.43-.2-.75-.33a3.48 3.48 0 01-1.26-.72 1.34 1.34 0 01-.33-.94c0-.46.19-.82.56-1.07.37-.26.88-.39 1.52-.39s1.24.13 1.8.39l-.37.86a4.01 4.01 0 00-1.47-.36c-.6 0-.9.17-.9.52 0 .17.07.31.23.43s.5.28 1.03.48c.45.17.77.33.98.47.2.15.35.31.45.5.1.19.14.41.14.67zM576.18 60.39c0-.24.06-.42.18-.55.13-.12.3-.19.54-.19.24 0 .42.07.54.2.13.13.19.31.19.54 0 .23-.07.41-.2.55-.12.13-.3.2-.53.2-.24 0-.41-.07-.54-.2a.78.78 0 01-.18-.55zm0-4.17c0-.5.24-.74.72-.74.24 0 .43.07.55.2.12.13.18.3.18.54 0 .23-.07.41-.2.55-.12.13-.3.2-.53.2-.24 0-.41-.07-.54-.2a.78.78 0 01-.18-.55zM582.1 53.86L579.44 61h-1.08l2.66-7.14h1.08zM586 53.86L583.36 61h-1.08l2.66-7.14H586zM589.27 61.1c-.84 0-1.5-.25-1.97-.73a2.8 2.8 0 01-.7-2.03c0-.88.21-1.58.65-2.08.44-.5 1.04-.76 1.81-.76.72 0 1.28.22 1.7.65.4.43.61 1.03.61 1.79v.62h-3.6c.02.52.16.93.43 1.2.26.29.64.43 1.13.43a4.25 4.25 0 001.77-.4v.94c-.28.13-.56.23-.85.28-.28.06-.61.09-.98.09zm-.2-4.73c-.37 0-.67.12-.89.35-.21.23-.34.57-.39 1h2.45c0-.44-.11-.77-.32-1a1.1 1.1 0 00-.86-.35zM593.88 58.24l-1.81-2.64h1.3l1.23 1.89 1.25-1.89h1.3l-1.82 2.64 1.9 2.76h-1.3l-1.33-2.02-1.32 2.02h-1.3l1.9-2.76zM601.56 61l-.23-.75h-.04c-.26.33-.52.55-.78.67-.27.12-.6.18-1.02.18-.53 0-.94-.15-1.24-.43-.3-.29-.45-.7-.45-1.22 0-.55.2-.97.62-1.26a3.57 3.57 0 011.9-.46l.92-.03v-.29c0-.34-.08-.6-.24-.77-.16-.17-.4-.26-.75-.26-.27 0-.54.04-.8.12-.25.08-.49.18-.72.3l-.38-.83a4.35 4.35 0 011.95-.47c.69 0 1.2.15 1.55.45.36.3.53.77.53 1.41V61h-.82zm-1.7-.78c.41 0 .74-.12 1-.35.25-.23.38-.56.38-.98v-.47l-.7.03c-.54.02-.93.11-1.18.27-.24.16-.37.41-.37.74 0 .24.08.43.22.56.14.13.36.2.64.2zM608.53 61h-1.15v-3.33c0-.41-.08-.72-.23-.92-.16-.2-.4-.31-.73-.31-.45 0-.77.14-.98.43-.2.3-.3.77-.3 1.44V61h-1.16v-5.4h.9l.16.7h.06c.15-.25.37-.45.65-.59.29-.14.6-.2.94-.2.83 0 1.38.28 1.65.84h.08c.16-.27.39-.47.68-.62.29-.15.62-.23 1-.23.64 0 1.1.16 1.4.49.3.33.44.82.44 1.49V61h-1.14v-3.33c0-.41-.08-.72-.24-.92-.16-.2-.4-.31-.74-.31-.44 0-.77.14-.98.42-.2.28-.3.7-.3 1.28V61zM616.28 61.1a1.9 1.9 0 01-1.59-.74h-.07c.05.46.07.73.07.83v2.21h-1.15v-7.8h.93l.16.72h.06c.36-.54.9-.82 1.61-.82.68 0 1.2.25 1.58.73.37.5.56 1.18.56 2.06 0 .88-.19 1.57-.57 2.07-.38.49-.91.74-1.59.74zm-.27-4.66c-.46 0-.8.13-1 .4-.21.27-.32.7-.32 1.28v.17c0 .66.1 1.13.31 1.43.21.3.55.44 1.02.44.4 0 .7-.16.92-.49.22-.32.33-.79.33-1.39 0-.6-.11-1.06-.33-1.37a1.06 1.06 0 00-.93-.47zM620.92 61h-1.14v-7.6h1.14V61zM624.93 61.1c-.84 0-1.5-.25-1.98-.73a2.8 2.8 0 01-.7-2.03c0-.88.22-1.58.65-2.08.45-.5 1.05-.76 1.82-.76.71 0 1.27.22 1.69.65.41.43.62 1.03.62 1.79v.62h-3.6c.01.52.16.93.42 1.2.27.29.64.43 1.13.43a4.24 4.24 0 001.78-.4v.94c-.28.13-.56.23-.85.28a5.2 5.2 0 01-.98.09zm-.21-4.73c-.37 0-.66.12-.88.35-.22.23-.35.57-.4 1h2.46c0-.44-.12-.77-.32-1a1.1 1.1 0 00-.86-.35zM628.16 60.39c0-.24.06-.42.19-.55.12-.12.3-.19.53-.19.24 0 .42.07.54.2.13.13.19.31.19.54 0 .23-.06.41-.2.55-.12.13-.3.2-.53.2-.23 0-.41-.07-.53-.2a.78.78 0 01-.2-.55zM633.26 61.1c-.81 0-1.44-.24-1.86-.72-.43-.47-.64-1.16-.64-2.05 0-.9.22-1.6.67-2.1.44-.48 1.09-.73 1.92-.73.57 0 1.09.1 1.54.32l-.34.92a3.48 3.48 0 00-1.2-.28c-.94 0-1.4.62-1.4 1.86 0 .6.1 1.06.34 1.37.23.3.58.45 1.03.45.5 0 .99-.13 1.45-.38v1c-.2.12-.43.2-.66.26a3.9 3.9 0 01-.85.08zM640.83 58.29c0 .88-.23 1.57-.68 2.07-.46.49-1.09.74-1.9.74-.5 0-.94-.12-1.33-.34a2.26 2.26 0 01-.9-.99c-.2-.42-.3-.92-.3-1.48 0-.88.22-1.56.67-2.05.45-.5 1.08-.74 1.9-.74.78 0 1.4.25 1.85.76.46.5.69 1.18.69 2.03zm-3.94 0c0 1.25.47 1.87 1.39 1.87.9 0 1.36-.62 1.36-1.87 0-1.23-.46-1.85-1.37-1.85-.49 0-.84.16-1.05.48-.22.32-.33.77-.33 1.37zM646.7 61h-1.15v-3.33c0-.41-.08-.72-.24-.92-.15-.2-.4-.31-.73-.31-.44 0-.77.14-.98.43-.2.3-.3.77-.3 1.44V61h-1.15v-5.4h.9l.16.7h.06c.15-.25.36-.45.65-.59.28-.14.6-.2.94-.2.83 0 1.38.28 1.65.84h.08c.16-.27.38-.47.67-.62.29-.15.62-.23 1-.23.64 0 1.11.16 1.4.49.3.33.45.82.45 1.49V61h-1.15v-3.33c0-.41-.08-.72-.24-.92-.16-.2-.4-.31-.73-.31-.45 0-.77.14-.98.42-.2.28-.31.7-.31 1.28V61zM654.7 53.86L652.06 61h-1.08l2.66-7.14h1.08z"/>
  <path fill="#D1D5D9" d="M602 154a12 12 0 100-24 12 12 0 000 24z"/>
  <rect width="16" height="4" x="594" y="160" fill="#D1D5D9" rx="1"/>
  <rect width="26" height="4" x="589" y="166" fill="#D1D5D9" rx="1"/>
  <rect width="26" height="4" x="589" y="172" fill="#D1D5D9" rx="1"/>
  <path fill="#D1D5D9" d="M555 154a12 12 0 100-24 12 12 0 000 24z"/>
  <rect width="16" height="4" x="547" y="160" fill="#D1D5D9" rx="1"/>
  <rect width="26" height="4" x="542" y="166" fill="#D1D5D9" rx="1"/>
  <rect width="26" height="4" x="542" y="172" fill="#D1D5D9" rx="1"/>
  <path fill="#D1D5D9" d="M650 154a12 12 0 100-24 12 12 0 000 24z"/>
  <rect width="16" height="4" x="642" y="160" fill="#D1D5D9" rx="1"/>
  <rect width="26" height="4" x="637" y="166" fill="#D1D5D9" rx="1"/>
  <rect width="26" height="4" x="637" y="172" fill="#D1D5D9" rx="1"/>
  <path fill="#6D7789" d="M498 74h208v47H498V74z"/>
  <rect width="64" height="5" x="570" y="83" fill="#D1D5D9" rx="1"/>
  <rect width="95" height="5" x="555" y="92" fill="#D1D5D9" rx="1"/>
  <rect width="34" height="8" x="585" y="103" fill="#D1D5D9" rx="1"/>
  <path fill="#36B6E5" d="M295 112v6h-61v-6zM295 123v-16l9 8-9 8z"/>
  <path fill="#333" d="M247.98 95.76c-.67 0-1.2.24-1.58.71a3.05 3.05 0 00-.58 1.97c0 .88.19 1.54.55 1.99.37.45.91.67 1.6.67.31 0 .6-.03.89-.09.28-.06.58-.14.88-.23v1c-.56.21-1.2.32-1.9.32-1.05 0-1.85-.32-2.4-.95-.57-.63-.85-1.54-.85-2.72 0-.74.14-1.4.4-1.95.28-.55.67-.98 1.19-1.28.51-.3 1.12-.44 1.8-.44.74 0 1.41.15 2.03.46l-.42.97c-.24-.11-.5-.21-.77-.3a2.68 2.68 0 00-.84-.13zM255.95 99.29c0 .88-.23 1.57-.68 2.06-.45.5-1.08.75-1.89.75-.5 0-.95-.12-1.34-.34a2.26 2.26 0 01-.9-.99c-.2-.42-.3-.92-.3-1.48 0-.88.22-1.56.67-2.05.45-.5 1.08-.74 1.9-.74.78 0 1.4.25 1.85.76.46.5.69 1.18.69 2.03zm-3.93 0c0 1.25.46 1.87 1.38 1.87.91 0 1.37-.62 1.37-1.87 0-1.23-.46-1.85-1.38-1.85-.48 0-.83.16-1.05.48-.22.32-.32.77-.32 1.37zM261.82 102h-1.15v-3.33c0-.41-.08-.72-.23-.92-.16-.2-.4-.31-.74-.31-.44 0-.76.14-.97.43-.2.29-.31.77-.31 1.44V102h-1.15v-5.4h.9l.16.7h.06c.15-.25.37-.45.65-.59.29-.14.6-.2.94-.2.83 0 1.38.28 1.65.84h.08c.16-.27.38-.47.67-.62.3-.15.63-.23 1-.23.64 0 1.11.16 1.4.49.3.33.45.82.45 1.49V102h-1.15v-3.33c0-.41-.08-.72-.24-.92-.15-.2-.4-.31-.73-.31-.44 0-.77.14-.98.42-.2.28-.3.7-.3 1.28V102zM271.38 102h-1.15v-3.33c0-.41-.08-.72-.23-.92-.16-.2-.4-.31-.74-.31-.44 0-.76.14-.97.43-.2.29-.31.77-.31 1.44V102h-1.15v-5.4h.9l.16.7h.06c.15-.25.37-.45.65-.59.29-.14.6-.2.94-.2.83 0 1.38.28 1.65.84h.08c.16-.27.38-.47.67-.62.3-.15.63-.23 1-.23.64 0 1.11.16 1.4.49.3.33.45.82.45 1.49V102h-1.15v-3.33c0-.41-.08-.72-.24-.92-.15-.2-.4-.31-.73-.31-.44 0-.77.14-.98.42-.2.28-.3.7-.3 1.28V102zM279.77 102l-.23-.75h-.04c-.26.33-.52.55-.78.67-.27.12-.6.18-1.02.18-.53 0-.94-.15-1.24-.43-.3-.29-.45-.7-.45-1.22 0-.55.2-.97.62-1.26a3.57 3.57 0 011.9-.46l.92-.03v-.29c0-.34-.08-.6-.24-.77-.16-.17-.4-.26-.75-.26-.27 0-.54.04-.8.12-.25.08-.5.18-.73.3l-.37-.83a4.35 4.35 0 011.95-.47c.69 0 1.2.15 1.55.45.36.3.53.77.53 1.41V102h-.82zm-1.7-.78c.4 0 .74-.12 1-.35.25-.23.37-.56.37-.98v-.47l-.69.03c-.54.02-.93.11-1.18.27-.25.16-.37.41-.37.74 0 .24.07.43.22.56.14.13.36.2.64.2zM286.94 102h-1.15v-3.32c0-.42-.08-.73-.25-.93-.17-.2-.43-.31-.8-.31-.48 0-.84.14-1.06.43-.23.29-.34.77-.34 1.44V102h-1.15v-5.4h.9l.16.7h.06c.16-.25.4-.45.7-.59.3-.14.63-.2 1-.2 1.29 0 1.93.65 1.93 1.97V102zM290.36 102.1c-.67 0-1.2-.25-1.57-.73a3.3 3.3 0 01-.57-2.06c0-.89.19-1.57.57-2.07.38-.5.91-.74 1.6-.74.7 0 1.24.26 1.61.79h.06c-.05-.39-.08-.7-.08-.92V94.4h1.15v7.6h-.9l-.2-.7h-.05c-.37.53-.9.8-1.62.8zm.31-.93c.47 0 .81-.13 1.03-.4.22-.26.33-.7.33-1.29v-.16c0-.68-.1-1.16-.33-1.45-.22-.29-.57-.43-1.04-.43-.4 0-.71.16-.93.5-.22.32-.33.78-.33 1.39 0 .6.1 1.06.32 1.37.2.31.53.47.95.47z"/>
  <path fill="url(#paint0_linear)" d="M481 112h6v81h-6z" transform="rotate(90 481 112)"/>
  <path fill="#2B3953" d="M481 123v-16l9 8-9 8z"/>
  <path fill="#333" d="M426.8 86.06a1.8 1.8 0 01-.7 1.5 3 3 0 01-1.9.54c-.8 0-1.46-.13-1.98-.38v-1.1a5.38 5.38 0 002.06.5c.46 0 .8-.1 1.02-.27a.86.86 0 00.33-.71c0-.27-.1-.5-.3-.68-.2-.18-.62-.4-1.25-.66a3.3 3.3 0 01-1.38-.9c-.26-.34-.4-.75-.4-1.22 0-.6.22-1.07.64-1.4.42-.35 1-.52 1.7-.52.69 0 1.37.15 2.05.45l-.38.95c-.63-.27-1.2-.4-1.7-.4-.37 0-.66.08-.86.25a.8.8 0 00-.29.65c0 .18.04.34.12.48.08.13.2.25.38.37.18.11.5.27.97.46.53.22.91.42 1.15.61.25.2.43.4.54.64.12.24.17.52.17.84zM430.41 88.1c-.84 0-1.5-.25-1.97-.73a2.8 2.8 0 01-.71-2.03c0-.88.22-1.58.66-2.08.44-.5 1.04-.76 1.81-.76.71 0 1.28.22 1.69.65.41.43.62 1.03.62 1.79v.62h-3.6c.02.52.16.93.43 1.2.26.29.64.43 1.12.43a4.25 4.25 0 001.78-.4v.94c-.28.13-.56.23-.85.28-.28.06-.61.09-.98.09zm-.21-4.73c-.36 0-.66.12-.88.35-.22.23-.35.57-.39 1h2.45c0-.44-.11-.77-.32-1a1.1 1.1 0 00-.86-.35zM436.55 82.5c.23 0 .42.02.57.05l-.1 1.07a2.17 2.17 0 00-.52-.06c-.45 0-.83.15-1.11.45-.29.3-.43.69-.43 1.17V88h-1.15v-5.4h.9l.15.95h.06c.18-.32.41-.58.7-.76.29-.2.6-.29.93-.29zM439.28 88h-1.15v-5.4h1.15V88zm-1.22-6.83c0-.2.06-.36.17-.47.11-.12.27-.17.48-.17.2 0 .36.05.47.17.11.1.17.26.17.47 0 .2-.06.35-.17.46a.63.63 0 01-.47.17c-.2 0-.37-.06-.48-.17a.64.64 0 01-.17-.46zM444.3 88l-.23-.75h-.04c-.26.33-.52.55-.78.67-.27.12-.6.18-1.02.18-.53 0-.94-.15-1.24-.43-.3-.29-.45-.7-.45-1.22 0-.55.2-.97.62-1.26a3.58 3.58 0 011.9-.46l.92-.03v-.29c0-.34-.08-.6-.24-.77-.16-.17-.4-.26-.75-.26-.27 0-.54.04-.8.12-.25.08-.5.18-.73.3l-.37-.83a4.34 4.34 0 011.95-.47c.69 0 1.2.15 1.56.45.35.3.52.77.52 1.41V88h-.82zm-1.7-.78c.4 0 .74-.12 1-.35.25-.23.38-.56.38-.98v-.47l-.7.03c-.54.02-.93.11-1.18.27-.25.16-.37.41-.37.74 0 .24.07.43.22.56.14.13.36.2.64.2zM447.87 88h-1.15v-7.6h1.15V88zM450.66 88h-1.14v-5.4h1.14V88zm-1.21-6.83c0-.2.05-.36.16-.47.12-.12.28-.17.49-.17.2 0 .36.05.47.17.11.1.17.26.17.47 0 .2-.06.35-.17.46a.63.63 0 01-.47.17c-.21 0-.37-.06-.49-.17a.64.64 0 01-.16-.46zM455.92 88h-4.1v-.7l2.73-3.82H452v-.88h3.85v.8l-2.67 3.72h2.75V88zM459.45 88.1c-.84 0-1.5-.25-1.97-.73a2.8 2.8 0 01-.7-2.03c0-.88.21-1.58.65-2.08.44-.5 1.05-.76 1.81-.76.72 0 1.28.22 1.7.65.4.43.61 1.03.61 1.79v.62h-3.6c.02.52.16.93.43 1.2.27.29.64.43 1.13.43a4.25 4.25 0 001.77-.4v.94c-.28.13-.56.23-.84.28-.3.06-.62.09-.99.09zm-.2-4.73c-.37 0-.66.12-.89.35-.21.23-.34.57-.39 1h2.45c0-.44-.1-.77-.32-1a1.1 1.1 0 00-.86-.35zM464.68 88.1c-.68 0-1.2-.25-1.58-.73a3.29 3.29 0 01-.57-2.06c0-.89.2-1.57.58-2.07.38-.5.91-.74 1.59-.74.7 0 1.25.26 1.62.79h.06c-.06-.39-.09-.7-.09-.92V80.4h1.16V88h-.9l-.2-.7h-.06c-.36.53-.9.8-1.61.8zm.3-.93c.48 0 .82-.13 1.04-.4.21-.26.32-.7.33-1.29v-.16c0-.68-.11-1.16-.33-1.45-.23-.29-.57-.43-1.04-.43-.4 0-.72.16-.94.5-.22.32-.32.78-.32 1.39 0 .6.1 1.06.31 1.37.22.31.53.47.96.47zM424 95.76c-.67 0-1.2.24-1.58.71a3.05 3.05 0 00-.57 1.97c0 .88.18 1.54.55 1.99.37.45.9.67 1.6.67.3 0 .6-.03.88-.09.29-.06.58-.14.89-.23v1c-.56.21-1.2.32-1.9.32-1.05 0-1.86-.32-2.42-.95-.56-.63-.83-1.54-.83-2.72 0-.74.13-1.4.4-1.95s.67-.98 1.18-1.28c.52-.3 1.12-.44 1.81-.44.73 0 1.4.15 2.03.46l-.43.97c-.24-.11-.5-.21-.76-.3a2.69 2.69 0 00-.85-.13zM431.97 99.29c0 .88-.22 1.57-.68 2.06-.45.5-1.08.75-1.89.75-.5 0-.95-.12-1.33-.34a2.25 2.25 0 01-.9-.99c-.2-.42-.31-.92-.31-1.48 0-.88.22-1.56.67-2.05.45-.5 1.09-.74 1.9-.74.78 0 1.4.25 1.86.76.45.5.68 1.18.68 2.03zm-3.93 0c0 1.25.46 1.87 1.38 1.87.91 0 1.37-.62 1.37-1.87 0-1.23-.46-1.85-1.38-1.85-.48 0-.83.16-1.05.48-.21.32-.32.77-.32 1.37zM437.85 102h-1.16v-3.33c0-.41-.07-.72-.23-.92-.16-.2-.4-.31-.73-.31-.44 0-.77.14-.98.43-.2.29-.3.77-.3 1.44V102h-1.15v-5.4h.9l.16.7h.05c.15-.25.37-.45.65-.59.29-.14.6-.2.95-.2.83 0 1.38.28 1.65.84h.07c.16-.27.39-.47.68-.62.29-.15.62-.23 1-.23.64 0 1.1.16 1.4.49.3.33.44.82.44 1.49V102h-1.14v-3.33c0-.41-.08-.72-.24-.92-.16-.2-.4-.31-.73-.31-.45 0-.78.14-.99.42-.2.28-.3.7-.3 1.28V102zM447.4 102h-1.14v-3.33c0-.41-.08-.72-.24-.92-.16-.2-.4-.31-.73-.31-.44 0-.77.14-.98.43-.2.29-.3.77-.3 1.44V102h-1.15v-5.4h.9l.16.7h.06c.14-.25.36-.45.64-.59.29-.14.6-.2.95-.2.83 0 1.38.28 1.65.84h.07c.16-.27.39-.47.68-.62.29-.15.62-.23 1-.23.64 0 1.1.16 1.4.49.3.33.44.82.44 1.49V102h-1.14v-3.33c0-.41-.08-.72-.24-.92-.16-.2-.4-.31-.73-.31-.45 0-.78.14-.99.42-.2.28-.3.7-.3 1.28V102zM455.8 102l-.23-.75h-.04c-.26.33-.52.55-.79.67-.26.12-.6.18-1.01.18-.54 0-.95-.15-1.25-.43-.3-.29-.44-.7-.44-1.22 0-.55.2-.97.62-1.26a3.58 3.58 0 011.89-.46l.93-.03v-.29c0-.34-.08-.6-.25-.77-.16-.17-.4-.26-.74-.26-.28 0-.55.04-.8.12-.25.08-.5.18-.73.3l-.37-.83a4.34 4.34 0 011.95-.47c.68 0 1.2.15 1.55.45.35.3.53.77.53 1.41V102h-.82zm-1.71-.78c.41 0 .75-.12 1-.35.25-.23.38-.56.38-.98v-.47l-.7.03c-.53.02-.93.11-1.18.27-.24.16-.36.41-.36.74 0 .24.07.43.21.56.15.13.36.2.65.2zM462.97 102h-1.15v-3.32c0-.42-.09-.73-.26-.93-.16-.2-.43-.31-.8-.31-.48 0-.83.14-1.06.43-.22.29-.33.77-.33 1.44V102h-1.15v-5.4h.9l.16.7h.06c.16-.25.39-.45.69-.59.3-.14.63-.2 1-.2 1.3 0 1.94.65 1.94 1.97V102zM466.39 102.1c-.68 0-1.2-.25-1.58-.73a3.29 3.29 0 01-.57-2.06c0-.89.2-1.57.57-2.07.39-.5.92-.74 1.6-.74.7 0 1.25.26 1.62.79h.06c-.06-.39-.09-.7-.09-.92V94.4h1.15v7.6h-.9l-.2-.7H468c-.37.53-.9.8-1.61.8zm.3-.93c.48 0 .82-.13 1.04-.4.2-.26.32-.7.33-1.29v-.16c0-.68-.11-1.16-.33-1.45-.23-.29-.57-.43-1.05-.43-.4 0-.71.16-.93.5-.22.32-.32.78-.32 1.39 0 .6.1 1.06.31 1.37.21.31.53.47.95.47z"/>
  <path fill="#36B6E5" d="M243 167v-6h61v6zM243 156v16l-9-8 9-8z"/>
  <path fill="#333" d="M256.1 147.18h.82c.54 0 .94-.1 1.18-.3.25-.2.37-.5.37-.9s-.13-.7-.4-.87a2.17 2.17 0 00-1.19-.26h-.77v2.33zm0 .97V151h-1.16v-7.14h2.02c.92 0 1.6.17 2.05.52.44.34.66.87.66 1.56 0 .89-.46 1.52-1.39 1.9l2.02 3.16h-1.33l-1.7-2.85h-1.16zM263.57 151.1c-.83 0-1.5-.25-1.97-.73a2.8 2.8 0 01-.7-2.03c0-.88.21-1.58.65-2.08.44-.5 1.05-.76 1.81-.76.72 0 1.28.22 1.7.65.4.43.62 1.03.62 1.79v.62h-3.6c.01.52.15.93.42 1.21.27.28.64.42 1.13.42a4.29 4.29 0 001.78-.4v.94c-.28.14-.57.23-.85.28-.29.06-.62.09-.99.09zm-.2-4.73c-.37 0-.66.12-.88.35-.22.23-.35.57-.4 1h2.46c-.01-.44-.12-.77-.32-1a1.1 1.1 0 00-.87-.35zM270.6 149.46c0 .53-.19.94-.57 1.22-.38.28-.93.42-1.65.42-.72 0-1.3-.11-1.73-.33v-1c.63.3 1.22.45 1.77.45.7 0 1.06-.21 1.06-.64a.5.5 0 00-.12-.34c-.08-.1-.2-.19-.38-.29-.18-.1-.43-.2-.75-.33a3.48 3.48 0 01-1.27-.72 1.34 1.34 0 01-.32-.94c0-.46.18-.82.55-1.07.38-.26.89-.39 1.53-.39.63 0 1.23.13 1.8.39l-.37.86a4 4 0 00-1.47-.36c-.6 0-.91.17-.91.52 0 .17.08.31.23.43.16.12.5.28 1.04.48.44.17.77.33.97.47.2.15.35.31.45.5.1.19.15.41.15.67zM275.66 151l-.16-.7h-.06c-.16.24-.39.44-.68.58-.3.15-.63.22-1 .22-.66 0-1.15-.16-1.47-.5-.33-.32-.49-.8-.49-1.47v-3.53h1.16v3.33c0 .41.09.72.25.93.17.2.44.31.8.31.48 0 .84-.14 1.06-.43.23-.29.34-.77.34-1.45v-2.69h1.15v5.4h-.9zM279.35 151h-1.15v-7.6h1.15v7.6zM283 150.17c.28 0 .56-.04.84-.13v.86a3.22 3.22 0 01-1.11.2c-1.09 0-1.63-.57-1.63-1.72v-2.91h-.74v-.5l.8-.43.38-1.14h.71v1.2h1.54v.87h-1.54v2.89c0 .28.07.48.2.61.15.13.33.2.55.2z"/>
  <path fill="#2A3852" d="M409 167v-6h81v6zM409 156v16l-9-8 9-8z"/>
  <path fill="#333" d="M432.1 147.18h.82c.54 0 .94-.1 1.18-.3.25-.2.37-.5.37-.9s-.13-.7-.4-.87a2.17 2.17 0 00-1.19-.26h-.77v2.33zm0 .97V151h-1.16v-7.14h2.02c.92 0 1.6.17 2.05.52.44.34.66.87.66 1.56 0 .89-.46 1.52-1.39 1.9l2.02 3.16h-1.33l-1.7-2.85h-1.16zM439.57 151.1c-.83 0-1.5-.25-1.97-.73a2.8 2.8 0 01-.7-2.03c0-.88.21-1.58.65-2.08.44-.5 1.05-.76 1.81-.76.72 0 1.28.22 1.7.65.4.43.62 1.03.62 1.79v.62h-3.6c.01.52.15.93.42 1.21.27.28.64.42 1.13.42a4.29 4.29 0 001.78-.4v.94c-.28.14-.57.23-.85.28-.29.06-.62.09-.99.09zm-.2-4.73c-.37 0-.66.12-.88.35-.22.23-.35.57-.4 1h2.46c-.01-.44-.12-.77-.32-1a1.1 1.1 0 00-.87-.35zM446.6 149.46c0 .53-.19.94-.57 1.22-.38.28-.93.42-1.65.42-.72 0-1.3-.11-1.73-.33v-1c.63.3 1.22.45 1.77.45.7 0 1.06-.21 1.06-.64a.5.5 0 00-.12-.34c-.08-.1-.2-.19-.38-.29-.18-.1-.43-.2-.75-.33a3.48 3.48 0 01-1.27-.72 1.34 1.34 0 01-.32-.94c0-.46.18-.82.55-1.07.38-.26.89-.39 1.53-.39.63 0 1.23.13 1.8.39l-.37.86a4 4 0 00-1.47-.36c-.6 0-.91.17-.91.52 0 .17.08.31.23.43.16.12.5.28 1.04.48.44.17.77.33.97.47.2.15.35.31.45.5.1.19.15.41.15.67zM451.66 151l-.16-.7h-.06c-.16.24-.39.44-.68.58-.3.15-.63.22-1 .22-.66 0-1.15-.16-1.47-.5-.33-.32-.49-.8-.49-1.47v-3.53h1.16v3.33c0 .41.09.72.25.93.17.2.44.31.8.31.48 0 .84-.14 1.06-.43.23-.29.34-.77.34-1.45v-2.69h1.15v5.4h-.9zM455.35 151h-1.15v-7.6h1.15v7.6zM459 150.17c.28 0 .56-.04.84-.13v.86a3.22 3.22 0 01-1.11.2c-1.09 0-1.63-.57-1.63-1.72v-2.91h-.74v-.5l.8-.43.38-1.14h.71v1.2h1.54v.87h-1.54v2.89c0 .28.07.48.2.61.15.13.33.2.55.2z"/>
  <path fill="#F17EB8" d="M168 137h8v1h-8zM111 157h37v1h-37zM168 139h8v1h-8zM111 159h37v1h-37z"/>
  <defs>
    <linearGradient id="paint0_linear" x1="484" x2="484" y1="112" y2="193" gradientUnits="userSpaceOnUse">
      <stop stop-color="#2A3852"/>
      <stop offset="1" stop-color="#36B6E5"/>
    </linearGradient>
    <filter id="filter0_d" width="440" height="235" x="0" y="12" color-interpolation-filters="sRGB" filterUnits="userSpaceOnUse">
      <feFlood flood-opacity="0" result="BackgroundImageFix"/>
      <feColorMatrix in="SourceAlpha" values="0 0 0 0 0 0 0 0 0 0 0 0 0 0 0 0 0 0 127 0"/>
      <feOffset dy="10"/>
      <feGaussianBlur stdDeviation="10"/>
      <feColorMatrix values="0 0 0 0 0.211765 0 0 0 0 0.713726 0 0 0 0 0.898039 0 0 0 0.07 0"/>
      <feBlend in2="BackgroundImageFix" result="effect1_dropShadow"/>
      <feBlend in="SourceGraphic" in2="effect1_dropShadow" result="shape"/>
    </filter>
  </defs>
</svg>
