<svg xmlns="http://www.w3.org/2000/svg" width="25" height="21"><path fill="#FFF" fill-rule="evenodd" d="M25 2.487c-.92.421-1.908.706-2.946.834 1.059-.656 1.872-1.694 2.255-2.933-.991.608-2.088 1.05-3.257 1.287C20.117.645 18.784.001 17.308.001c-2.832 0-5.129 2.373-5.129 5.301 0 .415.046.82.133 1.207C8.05 6.288 4.27 4.178 1.74.971c-.441.783-.694 1.694-.694 2.665 0 1.839.905 3.462 2.282 4.412-.841-.027-1.632-.266-2.323-.663-.001.022-.001.044-.001.067 0 2.568 1.768 4.71 4.114 5.197-.43.121-.883.186-1.351.186-.33 0-.652-.033-.965-.095.653 2.106 2.547 3.638 4.791 3.681-1.755 1.422-3.967 2.269-6.37 2.269-.414 0-.822-.025-1.223-.074 2.27 1.504 4.966 2.382 7.862 2.382 9.434 0 14.593-8.077 14.593-15.082 0-.23-.005-.458-.014-.686 1.002-.747 1.871-1.681 2.559-2.743z"/></svg>