<svg width="24" height="20" viewBox="0 0 24 20" fill="none" xmlns="http://www.w3.org/2000/svg">
<path d="M23.643 2.93695C22.808 3.30695 21.911 3.55695 20.968 3.66995C21.93 3.09395 22.668 2.17995 23.016 1.09195C22.116 1.62595 21.119 2.01395 20.058 2.22195C19.208 1.31795 17.998 0.751953 16.658 0.751953C14.086 0.751953 12 2.83795 12 5.41195C12 5.77595 12.042 6.12995 12.12 6.47195C8.24701 6.27695 4.81601 4.42195 2.51801 1.60395C2.11801 2.29395 1.88801 3.09395 1.88801 3.94595C1.88801 5.56195 2.71101 6.98895 3.96001 7.82395C3.19601 7.79895 2.47801 7.58995 1.85001 7.24095V7.30095C1.85001 9.55795 3.45501 11.441 5.58701 11.869C5.19501 11.975 4.78401 12.031 4.36001 12.031C4.06001 12.031 3.76701 12.003 3.48301 11.949C4.07601 13.799 5.79601 15.147 7.83501 15.183C6.24001 16.433 4.23101 17.178 2.04901 17.178C1.67301 17.178 1.30201 17.156 0.937012 17.113C2.99901 18.436 5.44701 19.206 8.07701 19.206C16.647 19.206 21.332 12.108 21.332 5.95195C21.332 5.75195 21.327 5.54995 21.318 5.34995C22.228 4.69195 23.018 3.87295 23.641 2.93995L23.643 2.93695Z" fill="#1DA1F2"/>
</svg>
