<svg width="50" height="43" viewBox="0 0 50 43" fill="none" xmlns="http://www.w3.org/2000/svg">
<path fill-rule="evenodd" clip-rule="evenodd" d="M49.007 39.392L46.391 42.008L39.782 35.398C37.611 37.024 34.925 37.999 32.004 37.999C24.825 37.999 19.004 32.179 19.004 24.999C19.004 17.82 24.825 11.999 32.004 11.999C39.184 11.999 45.004 17.82 45.004 24.999C45.004 27.923 44.028 30.612 42.399 32.783L49.007 39.392ZM43.004 24.999C43.004 18.924 38.079 13.999 32.004 13.999C25.929 13.999 21.004 18.924 21.004 24.999C21.004 31.075 25.929 35.999 32.004 35.999C38.079 35.999 43.004 31.075 43.004 24.999ZM35.293 29.708L32 26.415L28.707 29.708L27.293 28.293L30.586 25.001L27.293 21.708L28.707 20.293L32 23.586L35.293 20.293L36.707 21.708L33.414 25.001L36.707 28.293L35.293 29.708ZM29 7H7C6.448 7 6 6.553 6 6C6 5.448 6.448 5 7 5H29C29.552 5 30 5.448 30 6C30 6.553 29.552 7 29 7ZM23 2.001H7C6.448 2.001 6 1.553 6 1.001C6 0.448 6.448 0 7 0H23C23.552 0 24 0.448 24 1.001C24 1.553 23.552 2.001 23 2.001ZM1.513 38.792C0.998 38.792 0.521 38.703 0.084 38.526V36.454C0.462 36.742 0.886 36.885 1.355 36.885C2.363 36.885 2.866 36.138 2.866 34.643V28.819H5.067V34.732C5.067 36.044 4.763 37.049 4.155 37.746C3.546 38.444 2.666 38.792 1.513 38.792ZM2 22H1C0.448 22 0 21.553 0 21C0 20.448 0.448 20 1 20H2C2.552 20 3 20.448 3 21C3 21.553 2.552 22 2 22ZM2 17H1C0.448 17 0 16.553 0 16.001C0 15.448 0.448 15 1 15H2C2.552 15 3 15.448 3 16.001C3 16.553 2.552 17 2 17ZM2 12H1C0.448 12 0 11.552 0 11C0 10.448 0.448 10 1 10H2C2.552 10 3 10.448 3 11C3 11.552 2.552 12 2 12ZM2 7H1C0.448 7 0 6.553 0 6C0 5.448 0.448 5 1 5H2C2.552 5 3 5.448 3 6C3 6.553 2.552 7 2 7ZM2 2.001H1C0.448 2.001 0 1.553 0 1.001C0 0.448 0.448 0 1 0H2C2.552 0 3 0.448 3 1.001C3 1.553 2.552 2.001 2 2.001ZM7 10H18C18.552 10 19 10.448 19 11C19 11.552 18.552 12 18 12H7C6.448 12 6 11.552 6 11C6 10.448 6.448 10 7 10ZM7 15H13C13.552 15 14 15.448 14 16.001C14 16.553 13.552 17 13 17H7C6.448 17 6 16.553 6 16.001C6 15.448 6.448 15 7 15ZM7 20H15C15.552 20 16 20.448 16 21C16 21.553 15.552 22 15 22H7C6.448 22 6 21.553 6 21C6 20.448 6.448 20 7 20ZM10.372 35.135C10.183 35.007 9.959 34.885 9.699 34.766C9.439 34.648 9.159 34.527 8.858 34.404C8.092 34.085 7.522 33.695 7.146 33.235C6.77 32.774 6.582 32.218 6.582 31.567C6.582 31.056 6.684 30.618 6.889 30.251C7.094 29.884 7.373 29.582 7.727 29.345C8.08 29.108 8.489 28.934 8.954 28.822C9.419 28.711 9.911 28.655 10.43 28.655C10.941 28.655 11.393 28.685 11.787 28.747C12.181 28.808 12.545 28.903 12.877 29.03V31.075C12.713 30.961 12.535 30.86 12.341 30.774C12.147 30.687 11.948 30.615 11.743 30.558C11.538 30.501 11.334 30.459 11.131 30.432C10.928 30.405 10.736 30.391 10.553 30.391C10.303 30.391 10.075 30.415 9.87 30.463C9.665 30.51 9.491 30.578 9.35 30.664C9.209 30.751 9.1 30.855 9.022 30.975C8.945 31.096 8.906 31.232 8.906 31.382C8.906 31.546 8.949 31.693 9.036 31.823C9.122 31.953 9.245 32.076 9.405 32.192C9.564 32.308 9.758 32.422 9.986 32.534C10.214 32.646 10.471 32.761 10.758 32.879C11.15 33.043 11.502 33.218 11.814 33.402C12.127 33.587 12.394 33.795 12.618 34.028C12.841 34.26 13.012 34.526 13.13 34.824C13.249 35.122 13.308 35.47 13.308 35.866C13.308 36.413 13.204 36.873 12.997 37.244C12.79 37.615 12.508 37.916 12.153 38.146C11.797 38.376 11.384 38.542 10.912 38.642C10.44 38.742 9.943 38.792 9.419 38.792C8.881 38.792 8.369 38.747 7.884 38.656C7.399 38.564 6.978 38.428 6.623 38.245V36.058C7.019 36.391 7.45 36.64 7.915 36.807C8.379 36.973 8.849 37.056 9.323 37.056C9.601 37.056 9.843 37.031 10.051 36.981C10.258 36.931 10.431 36.861 10.57 36.772C10.709 36.683 10.813 36.579 10.881 36.458C10.95 36.337 10.984 36.206 10.984 36.065C10.984 35.873 10.929 35.703 10.82 35.552C10.711 35.402 10.561 35.263 10.372 35.135Z" fill="#544945"/>
</svg>
