<svg width="50" height="50" xmlns="http://www.w3.org/2000/svg" data-name="Layer 1" viewBox="0 0 50 49"><path fill="#404142" fill-rule="evenodd" d="M24.9984 0a25.0024 25.0024 0 0 0-7.9006 48.7223c1.25.2293 1.7063-.5425 1.7063-1.205 0-.5935-.0217-2.1657-.0338-4.252-6.9541 1.5107-8.4215-3.3513-8.4215-3.3513-1.1368-2.888-2.7757-3.657-2.7757-3.657-2.2699-1.5511.1717-1.5196.1717-1.5196a5.2514 5.2514 0 0 1 3.8293 2.5763c2.2301 3.8204 5.8512 2.7172 7.2757 2.0772a5.3417 5.3417 0 0 1 1.5872-3.342C14.8856 35.418 9.0495 33.2732 9.0495 23.693a9.6634 9.6634 0 0 1 2.5733-6.7084 8.9919 8.9919 0 0 1 .245-6.6162s2.0991-.6722 6.8749 2.5628a23.6962 23.6962 0 0 1 12.5175 0c4.7729-3.235 6.868-2.5628 6.868-2.5628a8.9794 8.9794 0 0 1 .2489 6.6162 9.647 9.647 0 0 1 2.5697 6.7084c0 9.604-5.8452 11.7173-11.4145 12.3363a5.9667 5.9667 0 0 1 1.6972 4.6296c0 3.3422-.0307 6.0385-.0307 6.8582 0 .6685.4503 1.4463 1.719 1.2022A25.0037 25.0037 0 0 0 24.9984 0z"/></svg>