<svg width="48" height="48" viewBox="0 0 48 48" fill="none" xmlns="http://www.w3.org/2000/svg">
<path fill-rule="evenodd" clip-rule="evenodd" d="M45.8899 21.0113C45.8179 20.3783 45.0799 19.9033 44.4419 19.9033C42.3789 19.9033 40.5479 18.6923 39.7799 16.8193C38.9949 14.8993 39.5009 12.6623 41.0389 11.2513C41.5229 10.8093 41.5819 10.0683 41.1759 9.55435C40.1199 8.21335 38.9199 7.00235 37.6089 5.95335C37.0959 5.54135 36.3429 5.59835 35.8979 6.09035C34.5559 7.57735 32.1449 8.12935 30.2819 7.35235C28.3439 6.53635 27.1209 4.57335 27.2409 2.46435C27.2799 1.80235 26.7959 1.22735 26.1359 1.15035C24.4539 0.955348 22.7569 0.949348 21.0699 1.13635C20.4179 1.20835 19.9339 1.77035 19.9559 2.42435C20.0289 4.51135 18.7919 6.44135 16.8719 7.22735C15.0319 7.97935 12.6379 7.43135 11.2989 5.95835C10.8559 5.47335 10.1149 5.41435 9.59992 5.81535C8.24992 6.87435 7.02292 8.08635 5.95692 9.41635C5.54092 9.93335 5.60292 10.6823 6.09092 11.1273C7.65892 12.5463 8.16492 14.8033 7.34992 16.7443C6.57292 18.5943 4.65092 19.7873 2.45092 19.7873C1.73692 19.7643 1.22892 20.2433 1.15092 20.8923C0.952916 22.5833 0.949916 24.3073 1.14092 26.0123C1.21192 26.6473 1.97192 27.1183 2.61692 27.1183C4.57792 27.0683 6.46092 28.2823 7.24992 30.2033C8.03692 32.1223 7.53092 34.3584 5.99092 35.7704C5.50992 36.2124 5.44792 36.9524 5.85392 37.4664C6.90092 38.7984 8.10092 40.0114 9.41592 41.0694C9.93192 41.4854 10.6829 41.4263 11.1299 40.9333C12.4769 39.4443 14.8879 38.8933 16.7429 39.6713C18.6869 40.4843 19.9089 42.4484 19.7889 44.5574C19.7499 45.2204 20.2369 45.7963 20.8939 45.8723C21.7549 45.9723 22.6199 46.0233 23.4879 46.0233C24.3119 46.0233 25.1359 45.9773 25.9599 45.8863C26.6129 45.8143 27.0969 45.2524 27.0749 44.5964C26.9989 42.5104 28.2379 40.5813 30.1549 39.7963C32.0079 39.0393 34.3919 39.5934 35.7309 41.0644C36.1769 41.5494 36.9119 41.6073 37.4309 41.2063C38.7779 40.1503 40.0019 38.9393 41.0729 37.6063C41.4889 37.0903 41.4299 36.3394 40.9389 35.8954C39.3719 34.4764 38.8629 32.2183 39.6769 30.2793C40.4429 28.4533 42.2929 27.2273 44.2829 27.2273L44.5619 27.2353C45.2069 27.2873 45.8009 26.7903 45.8799 26.1313C46.0779 24.4383 46.0799 22.7173 45.8899 21.0113Z" stroke="#544945" stroke-width="2"/>
<path fill-rule="evenodd" clip-rule="evenodd" d="M28.907 29.587V27.041L34.648 24.174V24.131L28.907 21.058V18.501L36.934 23.271V25.011L28.907 29.587ZM20.501 32.96L26.431 15H28.27L22.314 32.96H20.501ZM11 23.41L19.027 18.609V21.166L13.303 24.227V24.291L19.027 27.171V29.727L11 25.151V23.41Z" fill="#544945"/>
</svg>
