<svg width="53" height="50" viewBox="0 0 53 50" fill="none" xmlns="http://www.w3.org/2000/svg">
<path fill-rule="evenodd" clip-rule="evenodd" d="M27.992 50C26.978 50 25.983 49.921 25 49.804V46.771C25.659 46.861 26.326 46.92 27 46.957V44.989C27 44.437 27.448 43.99 28 43.99C28.552 43.99 29 44.437 29 44.989V46.948C32.279 46.799 35.363 45.928 38.108 44.497L37.134 42.81C36.858 42.332 37.022 41.72 37.5 41.444C37.978 41.168 38.59 41.332 38.866 41.81L39.835 43.489C42.504 41.771 44.782 39.497 46.494 36.822L44.82 35.855C44.342 35.579 44.178 34.968 44.454 34.489C44.731 34.011 45.342 33.847 45.82 34.123L47.494 35.09C48.918 32.342 49.798 29.265 49.945 25.99H48C47.448 25.99 47 25.542 47 24.989C47 24.437 47.448 23.989 48 23.989H49.944C49.795 20.715 48.913 17.64 47.487 14.893L45.82 15.855C45.342 16.132 44.731 15.968 44.454 15.489C44.178 15.011 44.342 14.399 44.82 14.123L46.485 13.162C44.772 10.49 42.495 8.219 39.827 6.504L38.866 8.169C38.59 8.647 37.978 8.811 37.5 8.535C37.022 8.259 36.858 7.647 37.134 7.169L38.1 5.496C35.357 4.067 32.275 3.198 29 3.05V4.989C29 5.542 28.552 5.989 28 5.989C27.448 5.989 27 5.542 27 4.989V3.04C26.326 3.078 25.659 3.136 25 3.226V0.196C25.983 0.078 26.978 0 27.992 0C41.8 0 52.992 11.193 52.992 25C52.992 38.807 41.8 50 27.992 50ZM28.499 28.991C26.566 28.991 24.999 27.424 24.999 25.491C24.999 24.002 25.932 22.739 27.243 22.233L36.792 11.035L31.92 24.761C31.97 24.997 31.999 25.24 31.999 25.491C31.999 27.424 30.432 28.991 28.499 28.991ZM21 7.989H13C12.448 7.989 12 7.542 12 6.99C12 6.437 12.448 5.989 13 5.989H21V7.989ZM21 13.989H9C8.448 13.989 8 13.542 8 12.989C8 12.437 8.448 11.989 9 11.989H21V13.989ZM21 19.989H6C5.448 19.989 5 19.542 5 18.989C5 18.437 5.448 17.989 6 17.989H21V19.989ZM21 25.99H3C2.448 25.99 2 25.542 2 24.989C2 24.437 2.448 23.989 3 23.989H21V25.99ZM21 31.989H1C0.448 31.989 0 31.542 0 30.989C0 30.437 0.448 29.989 1 29.989H21V31.989ZM5 35.989H21V37.989H5C4.448 37.989 4 37.542 4 36.989C4 36.437 4.448 35.989 5 35.989ZM9 41.989H21V43.99H9C8.448 43.99 8 43.542 8 42.989C8 42.437 8.448 41.989 9 41.989Z" fill="#544945"/>
</svg>
