<svg width="50" height="50" viewBox="0 0 50 50" fill="none" xmlns="http://www.w3.org/2000/svg">
<path fill-rule="evenodd" clip-rule="evenodd" d="M48.369 50H10.63C9.73 50 9 49.271 9 48.372V16.629C9 15.73 9.73 15.001 10.63 15.001H48.369C49.27 15.001 50 15.73 50 16.629V48.372C50 49.271 49.27 50 48.369 50ZM47 18H12V25H47V18ZM47 28H12V47H47V28ZM35.492 20.004C36.32 20.004 36.994 20.677 36.994 21.504C36.994 22.331 36.32 23.004 35.492 23.004C34.664 23.004 33.991 22.331 33.991 21.504C33.991 20.677 34.664 20.004 35.492 20.004ZM39.492 20.004C40.32 20.004 40.994 20.677 40.994 21.504C40.994 22.331 40.32 23.004 39.492 23.004C38.664 23.004 37.991 22.331 37.991 21.504C37.991 20.677 38.664 20.004 39.492 20.004ZM43.492 20.004C44.32 20.004 44.994 20.677 44.994 21.504C44.994 22.331 44.32 23.004 43.492 23.004C42.664 23.004 41.991 22.331 41.991 21.504C41.991 20.677 42.664 20.004 43.492 20.004ZM38 13H3V32H7V35H1.63C0.73 35 0 34.271 0 33.372V1.629C0 0.73 0.73 0 1.63 0H39.369C40.27 0 41 0.73 41 1.629V13H38ZM38 3H3V10H38V3ZM26.492 5.005C27.32 5.005 27.994 5.677 27.994 6.504C27.994 7.331 27.32 8.004 26.492 8.004C25.664 8.004 24.991 7.331 24.991 6.504C24.991 5.677 25.664 5.005 26.492 5.005ZM30.492 5.005C31.32 5.005 31.994 5.677 31.994 6.504C31.994 7.331 31.32 8.004 30.492 8.004C29.664 8.004 28.991 7.331 28.991 6.504C28.991 5.677 29.664 5.005 30.492 5.005ZM34.492 5.005C35.32 5.005 35.994 5.677 35.994 6.504C35.994 7.331 35.32 8.004 34.492 8.004C33.664 8.004 32.991 7.331 32.991 6.504C32.991 5.677 33.664 5.005 34.492 5.005Z" fill="#544945"/>
</svg>
