<svg width="50" height="44" viewBox="0 0 50 44" fill="none" xmlns="http://www.w3.org/2000/svg">
<path fill-rule="evenodd" clip-rule="evenodd" d="M48.369 43.999H1.63C0.73 43.999 0 43.27 0 42.371V2.628C0 1.729 0.73 0.999 1.63 0.999H48.369C49.27 0.999 50 1.729 50 2.628V42.371C50 43.27 49.27 43.999 48.369 43.999ZM48 2.999H2V11.999H48V2.999ZM48 13.999H2V41.999H48V13.999ZM16.339 21.572C16.811 20.906 17.643 20.826 18.198 21.392L22.515 25.802C23.134 26.434 23.134 27.582 22.515 28.214L18.198 32.624C17.643 33.19 16.811 33.11 16.339 32.444C15.867 31.778 16.934 30.779 17.488 30.212L20.625 27.008L17.488 23.804C16.934 23.237 15.866 22.238 16.339 21.572ZM26.5 30.999H33.5C34.328 30.999 35 31.447 35 31.999C35 32.552 34.328 32.999 33.5 32.999H26.5C25.671 32.999 25 32.552 25 31.999C25 31.447 25.671 30.999 26.5 30.999ZM35.492 6.004C36.32 6.004 36.994 6.676 36.994 7.503C36.994 8.33 36.32 9.003 35.492 9.003C34.664 9.003 33.991 8.33 33.991 7.503C33.991 6.676 34.664 6.004 35.492 6.004ZM39.492 6.004C40.32 6.004 40.994 6.676 40.994 7.503C40.994 8.33 40.32 9.003 39.492 9.003C38.664 9.003 37.991 8.33 37.991 7.503C37.991 6.676 38.664 6.004 39.492 6.004ZM43.492 6.004C44.32 6.004 44.994 6.676 44.994 7.503C44.994 8.33 44.32 9.003 43.492 9.003C42.664 9.003 41.991 8.33 41.991 7.503C41.991 6.676 42.664 6.004 43.492 6.004Z" fill="#404142"/>
</svg>
