<svg width="50" height="50" viewBox="0 0 50 50" fill="none" xmlns="http://www.w3.org/2000/svg">
<path fill="#1da1f2" fill-rule="evenodd" clip-rule="evenodd" d="M25 50C11.193 50 0 38.807 0 25C0 11.192 11.193 0 25 0C38.808 0 50 11.192 50 25C50 38.807 38.808 50 25 50ZM25.002 3.001C12.851 3.001 3.002 12.851 3.002 25.001C3.002 37.152 12.851 47.001 25.002 47.001C37.152 47.001 47.002 37.152 47.002 25.001C47.002 12.851 37.152 3.001 25.002 3.001ZM37.829 18.494C37.841 18.776 37.847 19.059 37.847 19.344C37.847 28.018 31.451 38.021 19.755 38.021C16.164 38.021 12.821 36.934 10.007 35.072C10.505 35.133 11.011 35.163 11.524 35.163C14.503 35.163 17.245 34.114 19.422 32.353C16.639 32.3 14.291 30.402 13.482 27.795C13.87 27.871 14.268 27.913 14.678 27.913C15.258 27.913 15.82 27.832 16.353 27.682C13.444 27.079 11.252 24.426 11.252 21.246C11.252 21.218 11.252 21.19 11.253 21.163C12.11 21.655 13.091 21.95 14.133 21.984C12.427 20.807 11.304 18.798 11.304 16.52C11.304 15.317 11.618 14.19 12.165 13.22C15.302 17.191 19.987 19.805 25.272 20.079C25.163 19.598 25.107 19.097 25.107 18.583C25.107 14.957 27.954 12.018 31.466 12.018C33.295 12.018 34.948 12.816 36.108 14.091C37.556 13.797 38.917 13.251 40.146 12.498C39.671 14.031 38.662 15.318 37.35 16.13C38.636 15.972 39.861 15.619 41.002 15.096C40.149 16.413 39.071 17.569 37.829 18.494Z"/>
</svg>
