<svg width="45" height="45" viewBox="0 0 45 45" fill="none" xmlns="http://www.w3.org/2000/svg">
<path fill-rule="evenodd" clip-rule="evenodd" d="M42.208 27.998H18.808C17.814 27.998 17.008 27.192 17.008 26.198V2.798C17.008 1.803 17.814 0.998 18.808 0.998H42.208C43.202 0.998 44.008 1.803 44.008 2.798V26.198C44.008 27.192 43.202 27.998 42.208 27.998ZM42 2.999H19V25.999H42V2.999ZM33.159 16.054H30.363V24.059H28.148V16.054H25.366V14.256H33.159V16.054ZM37.636 20.573C37.447 20.445 37.223 20.322 36.963 20.204C36.703 20.085 36.423 19.964 36.122 19.841C35.357 19.522 34.786 19.133 34.41 18.672C34.034 18.212 33.846 17.656 33.846 17.004C33.846 16.494 33.948 16.055 34.153 15.688C34.359 15.322 34.638 15.02 34.991 14.783C35.344 14.546 35.753 14.371 36.218 14.26C36.683 14.148 37.175 14.092 37.695 14.092C38.205 14.092 38.657 14.123 39.051 14.184C39.446 14.246 39.809 14.341 40.142 14.468V16.512C39.978 16.398 39.799 16.298 39.605 16.211C39.411 16.125 39.212 16.053 39.007 15.996C38.802 15.939 38.598 15.897 38.395 15.87C38.192 15.842 38 15.829 37.818 15.829C37.567 15.829 37.339 15.853 37.134 15.9C36.929 15.948 36.756 16.015 36.614 16.102C36.473 16.189 36.364 16.292 36.286 16.413C36.209 16.534 36.17 16.669 36.17 16.82C36.17 16.984 36.213 17.131 36.3 17.261C36.386 17.391 36.51 17.514 36.669 17.63C36.829 17.746 37.022 17.86 37.25 17.972C37.478 18.083 37.736 18.198 38.023 18.317C38.415 18.481 38.767 18.655 39.079 18.84C39.391 19.024 39.659 19.233 39.882 19.465C40.105 19.698 40.276 19.963 40.395 20.262C40.513 20.56 40.572 20.908 40.572 21.304C40.572 21.851 40.469 22.31 40.261 22.682C40.054 23.053 39.773 23.354 39.417 23.584C39.062 23.814 38.648 23.979 38.176 24.08C37.705 24.18 37.207 24.23 36.683 24.23C36.145 24.23 35.634 24.184 35.148 24.093C34.663 24.002 34.242 23.865 33.887 23.683V21.496C34.283 21.828 34.714 22.078 35.179 22.244C35.644 22.411 36.113 22.494 36.587 22.494C36.865 22.494 37.108 22.469 37.315 22.418C37.523 22.368 37.696 22.299 37.835 22.21C37.974 22.121 38.077 22.016 38.146 21.896C38.214 21.775 38.248 21.644 38.248 21.502C38.248 21.311 38.194 21.14 38.084 20.99C37.975 20.839 37.825 20.7 37.636 20.573ZM18.249 31.26C18.714 31.148 19.206 31.092 19.726 31.092C20.236 31.092 20.688 31.123 21.083 31.184C21.477 31.246 21.84 31.341 22.173 31.468V33.512C22.009 33.398 21.83 33.298 21.636 33.211C21.443 33.125 21.243 33.053 21.038 32.996C20.833 32.939 20.629 32.897 20.426 32.87C20.224 32.842 20.031 32.829 19.849 32.829C19.598 32.829 19.37 32.853 19.165 32.9C18.96 32.948 18.787 33.015 18.646 33.102C18.504 33.189 18.395 33.292 18.318 33.413C18.24 33.534 18.201 33.669 18.201 33.82C18.201 33.984 18.245 34.131 18.331 34.261C18.418 34.391 18.541 34.514 18.7 34.63C18.86 34.746 19.054 34.86 19.281 34.972C19.509 35.083 19.767 35.198 20.054 35.317C20.446 35.481 20.798 35.655 21.11 35.84C21.422 36.024 21.69 36.233 21.913 36.465C22.137 36.698 22.307 36.963 22.426 37.262C22.544 37.56 22.604 37.908 22.604 38.304C22.604 38.851 22.5 39.31 22.293 39.682C22.085 40.053 21.804 40.354 21.448 40.584C21.093 40.814 20.679 40.979 20.208 41.08C19.736 41.18 19.238 41.23 18.714 41.23C18.176 41.23 17.665 41.184 17.179 41.093C16.694 41.002 16.274 40.865 15.918 40.683V38.496C16.315 38.828 16.745 39.078 17.21 39.244C17.675 39.411 18.144 39.494 18.618 39.494C18.896 39.494 19.139 39.469 19.346 39.418C19.554 39.368 19.727 39.299 19.866 39.21C20.005 39.121 20.109 39.016 20.177 38.896C20.245 38.775 20.28 38.644 20.28 38.502C20.28 38.311 20.225 38.14 20.115 37.99C20.006 37.839 19.857 37.7 19.668 37.573C19.479 37.445 19.254 37.322 18.994 37.204C18.735 37.085 18.454 36.964 18.154 36.841C17.388 36.522 16.817 36.133 16.441 35.672C16.065 35.212 15.877 34.656 15.877 34.004C15.877 33.494 15.98 33.055 16.185 32.688C16.39 32.322 16.669 32.02 17.022 31.783C17.375 31.546 17.784 31.371 18.249 31.26ZM14.363 31.256V37.169C14.363 38.482 14.059 39.487 13.45 40.184C12.842 40.881 11.961 41.23 10.808 41.23C10.293 41.23 9.817 41.141 9.379 40.963V38.892C9.758 39.179 10.182 39.323 10.651 39.323C11.658 39.323 12.162 38.575 12.162 37.08V31.256H14.363ZM2 42.999H25V29.999H27.008V43.198C27.008 44.192 26.202 44.998 25.208 44.998H1.808C0.814 44.998 0.008 44.192 0.008 43.198V19.798C0.008 18.803 0.814 17.998 1.808 17.998H15V19.999H2V42.999ZM12 14H1C0.448 14 0 13.552 0 12.999C0 12.447 0.448 11.999 1 11.999H12C12.552 11.999 13 12.447 13 12.999C13 13.552 12.552 14 12 14ZM12 9.999H3C2.448 9.999 2 9.551 2 8.999C2 8.447 2.448 7.999 3 7.999H12C12.552 7.999 13 8.447 13 8.999C13 9.551 12.552 9.999 12 9.999ZM12 6H5C4.448 6 4 5.552 4 4.999C4 4.447 4.448 3.999 5 3.999H12C12.552 3.999 13 4.447 13 4.999C13 5.552 12.552 6 12 6ZM31 31H42C42.552 31 43 31.447 43 32C43 32.552 42.552 33 42 33H31C30.448 33 30 32.552 30 32C30 31.447 30.448 31 31 31ZM31 35H40C40.552 35 41 35.447 41 36C41 36.552 40.552 37 40 37H31C30.448 37 30 36.552 30 36C30 35.447 30.448 35 31 35ZM31 39H38C38.552 39 39 39.447 39 40C39 40.552 38.552 41 38 41H31C30.448 41 30 40.552 30 40C30 39.447 30.448 39 31 39Z" fill="#544945"/>
</svg>
