<svg xmlns="http://www.w3.org/2000/svg" fill="none" viewBox="0 0 735 259"><path fill="#000" d="M508.67 32H510l1.83-6.54h.07l1.84 6.54h1.32l2.43-8.73h-1.4l-1.69 6.77h-.08l-1.77-6.77h-1.37l-1.77 6.76h-.08l-1.7-6.76h-1.38l2.42 8.73zm9.92 0h1.27v-6.55h-1.27V32zm.64-7.56c.44 0 .8-.34.8-.75 0-.42-.36-.77-.8-.77-.44 0-.8.35-.8.77 0 .41.36.75.8.75zm3.62 3.67c0-1.04.64-1.64 1.52-1.64.87 0 1.4.57 1.4 1.52V32h1.27v-4.16c0-1.62-.9-2.47-2.23-2.47-.98 0-1.63.46-1.93 1.15h-.08v-1.07h-1.22V32h1.27v-3.89zm8.35 4.02a2 2 0 001.89-1.15h.1V32h1.25v-8.73h-1.27v3.25h-.08c-.23-.4-.67-1.15-1.88-1.15-1.59 0-2.75 1.25-2.75 3.37s1.15 3.39 2.74 3.39zm.28-1.09c-1.14 0-1.73-1-1.73-2.31 0-1.3.58-2.28 1.73-2.28 1.11 0 1.7.9 1.7 2.28 0 1.37-.6 2.31-1.7 2.31zm7.54 1.1c1.84 0 3.05-1.36 3.05-3.38 0-2.04-1.2-3.4-3.05-3.4-1.85 0-3.05 1.36-3.05 3.4 0 2.02 1.2 3.37 3.05 3.37zm0-1.08c-1.2 0-1.77-1.05-1.77-2.3 0-1.26.56-2.33 1.77-2.33 1.2 0 1.76 1.07 1.76 2.32 0 1.26-.56 2.31-1.76 2.31zm5.69.94h1.3l1.32-4.73h.1l1.33 4.73h1.3l1.92-6.55h-1.31l-1.28 4.79h-.06l-1.28-4.79h-1.32l-1.28 4.81h-.07l-1.28-4.8h-1.32l1.93 6.54zm18.1 0h1.03l.38-2.34h1.26l.17-1.02h-1.26l.33-2H566l.16-1.03h-1.26l.38-2.34h-1.02l-.38 2.34h-2.05l.38-2.34h-1.02l-.38 2.34h-1.26l-.17 1.02h1.26l-.33 2.01h-1.27l-.16 1.02h1.26l-.38 2.34h1.02l.38-2.34h2.05l-.38 2.34zm-1.49-3.36l.33-2h2.05l-.33 2h-2.05zm9.16-5.37h-1.28l-2.18 1.43v1.26l2.09-1.37h.05V32h1.32v-8.73z"/><path fill="#364152" d="M506 46a4 4 0 014-4h196a4 4 0 014 4v147a4 4 0 01-4 4H510a4 4 0 01-4-4V46z"/><path fill="#fff" d="M514 74h188v115H514V74z"/><path fill="#EC665A" fill-rule="evenodd" d="M518 54a4 4 0 110 8 4 4 0 010-8z" clip-rule="evenodd"/><path fill="#FACA15" fill-rule="evenodd" d="M530 54a4 4 0 110 8 4 4 0 010-8z" clip-rule="evenodd"/><path fill="#72C047" fill-rule="evenodd" d="M542 54a4 4 0 110 8 4 4 0 010-8z" clip-rule="evenodd"/><path fill="#000" d="M555 58a11 11 0 0111-11h85a11 11 0 010 22h-85a11 11 0 01-11-11z" opacity=".4"/><path fill="#fff" d="M571.17 59.74c0 .92-.69 1.37-1.28 1.37-.66 0-1.11-.48-1.11-1.22v-3.34h-1.07V60c0 1.36.75 2.06 1.8 2.06a1.7 1.7 0 001.62-1.01h.06V62h1.04v-5.45h-1.06v3.19zm2.5 2.26h1.05v-3.33c0-.71.55-1.23 1.3-1.23.23 0 .48.04.56.06V56.5a4.3 4.3 0 00-.45-.03c-.64 0-1.19.37-1.39.95h-.05v-.86h-1.03V62zm4.9-7.27h-1.07V62h1.06v-7.27zm2.12 7.34c.39 0 .7-.32.7-.71 0-.39-.31-.7-.7-.7-.4 0-.71.31-.71.7 0 .4.32.7.7.7zm4.43.04c1.29 0 2.12-.77 2.24-1.84h-1.03c-.14.6-.6.94-1.2.94-.9 0-1.48-.75-1.48-1.94 0-1.17.59-1.9 1.48-1.9.67 0 1.08.43 1.2.94h1.03c-.11-1.1-1.01-1.84-2.25-1.84-1.54 0-2.53 1.16-2.53 2.83 0 1.64.95 2.81 2.54 2.81zm5.67 0c1.54 0 2.55-1.13 2.55-2.81 0-1.7-1.01-2.83-2.55-2.83-1.53 0-2.54 1.13-2.54 2.83 0 1.68 1 2.81 2.54 2.81zm0-.9c-1 0-1.47-.87-1.47-1.92 0-1.04.47-1.93 1.48-1.93 1 0 1.46.89 1.46 1.93 0 1.05-.47 1.93-1.46 1.93zm3.73.79h1.06v-3.36c0-.74.52-1.25 1.12-1.25.59 0 1 .4 1 .98V62h1.06v-3.48c0-.65.4-1.13 1.1-1.13.55 0 1.01.31 1.01 1.05V62h1.06v-3.66c0-1.24-.7-1.87-1.68-1.87-.78 0-1.37.38-1.63.96h-.06c-.24-.6-.74-.96-1.47-.96-.72 0-1.26.36-1.48.96h-.07v-.88h-1.02V62zm11.6-7.61h-.94l-2.34 8.7h.94l2.35-8.7zm2.1 7.61h1.07l1.11-3.94h.08L611.6 62h1.08l1.6-5.45h-1.1l-1.05 3.98h-.06L611 56.55h-1.1l-1.07 4h-.06l-1.06-4h-1.1l1.6 5.45zm9.25.11c1.19 0 2.03-.59 2.27-1.47l-1-.18c-.2.51-.66.77-1.26.77-.91 0-1.52-.59-1.55-1.64h3.88v-.37c0-1.98-1.18-2.75-2.42-2.75-1.52 0-2.52 1.16-2.52 2.84 0 1.7.99 2.8 2.6 2.8zm-1.54-3.31c.05-.78.6-1.45 1.47-1.45.82 0 1.36.61 1.37 1.45h-2.84zm6.12-4.07h-1.06V62h1.06v-7.27zm3.72 7.38c1.3 0 2.13-.77 2.24-1.84h-1.03c-.13.6-.6.94-1.2.94-.9 0-1.48-.75-1.48-1.94 0-1.17.6-1.9 1.48-1.9.68 0 1.09.43 1.2.94h1.03c-.11-1.1-1-1.84-2.25-1.84-1.53 0-2.53 1.16-2.53 2.83 0 1.64.96 2.81 2.54 2.81zm5.68 0c1.53 0 2.54-1.13 2.54-2.81 0-1.7-1-2.83-2.54-2.83s-2.55 1.13-2.55 2.83c0 1.68 1 2.81 2.55 2.81zm0-.9c-1 0-1.47-.87-1.47-1.92 0-1.04.47-1.93 1.47-1.93s1.47.89 1.47 1.93c0 1.05-.47 1.93-1.47 1.93zm3.72.79h1.07v-3.36c0-.74.51-1.25 1.12-1.25.59 0 1 .4 1 .98V62h1.05v-3.48c0-.65.4-1.13 1.1-1.13.56 0 1.02.31 1.02 1.05V62h1.06v-3.66c0-1.24-.7-1.87-1.68-1.87-.79 0-1.38.38-1.64.96h-.06c-.24-.6-.74-.96-1.46-.96-.73 0-1.26.36-1.49.96h-.07v-.88h-1.02V62zm11.2.11c1.18 0 2.02-.59 2.27-1.47l-1-.18c-.2.51-.66.77-1.27.77-.9 0-1.52-.59-1.54-1.64h3.87v-.37c0-1.98-1.18-2.75-2.41-2.75-1.52 0-2.52 1.16-2.52 2.84 0 1.7.99 2.8 2.6 2.8zm-1.54-3.31c.04-.78.6-1.45 1.47-1.45.82 0 1.36.61 1.36 1.45h-2.83z"/><path fill="#000" d="M508.19 219.34a.7.7 0 01.22-.55.8.8 0 01.58-.21c.25 0 .45.07.6.21a.7.7 0 01.22.55c0 .23-.07.42-.22.56a.83.83 0 01-.6.21.8.8 0 01-.58-.21.74.74 0 01-.22-.56zm9.15.13c-.1.08-.2.16-.34.24a3.36 3.36 0 01-1.08.37 3.9 3.9 0 01-1.85-.12c-.34-.12-.62-.3-.85-.52a2.42 2.42 0 01-.54-.83 3.2 3.2 0 01-.18-1.11c0-.44.07-.82.2-1.15.15-.33.34-.61.58-.83.24-.22.53-.38.86-.49a3.22 3.22 0 011.84-.07c.27.07.52.18.75.35.22.16.4.38.55.65.14.27.22.62.22 1.04 0 .29-.04.6-.1.93h-3.6c0 .21.05.4.13.54.08.15.2.27.33.36.14.1.3.16.47.21a2.89 2.89 0 001.55-.08c.26-.1.47-.2.63-.34l.43.85zm-2.16-3.57c-.18 0-.34.02-.5.07-.15.05-.29.12-.41.21s-.22.2-.3.33c-.08.13-.13.28-.14.45h2.46c0-.33-.1-.58-.28-.77-.18-.2-.46-.29-.83-.29zm4.92 1.52l-1.74-2.42h1.55l1.13 1.67 1.18-1.67h1.41l-1.7 2.4 1.8 2.6h-1.5l-1.28-1.84-1.29 1.84h-1.42l1.86-2.58zM524 215h1.7l.15.6h.04c.35-.5.9-.74 1.68-.74.3 0 .59.05.84.15.26.1.48.24.66.45.19.2.33.47.43.78.1.31.15.69.15 1.13 0 .43-.06.81-.17 1.16-.12.34-.28.63-.5.87a2.1 2.1 0 01-.77.55c-.3.13-.66.19-1.05.19-.2 0-.41-.02-.61-.05a1.6 1.6 0 01-.5-.14V222h-1.3v-5.9h-.75V215zm3.18.96c-.25 0-.49.06-.7.19a1 1 0 00-.43.57v2.08c.1.07.23.13.4.18.18.04.36.06.54.06a1.12 1.12 0 00.94-.4c.12-.14.21-.32.28-.53.06-.21.1-.47.1-.77 0-.44-.1-.78-.32-1.02a1.04 1.04 0 00-.81-.36zm8.15 3.51c-.08.08-.2.16-.34.24a3.36 3.36 0 01-1.08.37 3.9 3.9 0 01-1.85-.12c-.33-.12-.61-.3-.85-.52a2.42 2.42 0 01-.54-.83 3.2 3.2 0 01-.18-1.11c0-.44.07-.82.21-1.15.14-.33.33-.61.57-.83.25-.22.54-.38.86-.49a3.22 3.22 0 011.84-.07c.28.07.53.18.75.35.23.16.41.38.55.65.15.27.22.62.22 1.04 0 .29-.03.6-.1.93h-3.6c.01.21.05.4.13.54.1.15.2.27.33.36.14.1.3.16.47.21a2.89 2.89 0 001.55-.08c.26-.1.47-.2.63-.34l.43.85zm-2.16-3.57c-.17 0-.33.02-.49.07-.15.05-.29.12-.42.21-.12.09-.22.2-.3.33-.08.13-.12.28-.14.45h2.46c0-.33-.09-.58-.28-.77-.18-.2-.45-.29-.83-.29zm8.28 3.62c-.27.2-.6.36-.96.47-.37.1-.75.15-1.15.15a3.3 3.3 0 01-1.16-.19c-.33-.13-.62-.3-.85-.53-.23-.23-.4-.51-.52-.84a3.11 3.11 0 01.03-2.2c.14-.33.33-.6.58-.83.25-.23.55-.4.89-.51a4.06 4.06 0 012.16-.05c.33.09.58.17.75.25V217h-1.1v-.92c-.2-.05-.41-.07-.62-.07-.19 0-.37.03-.56.09a1.3 1.3 0 00-.49.27c-.14.12-.26.27-.35.46a1.6 1.6 0 00-.13.67c0 .21.04.41.11.59a1.42 1.42 0 00.8.79c.2.07.42.11.66.11.38 0 .69-.05.93-.16.25-.1.43-.2.55-.28l.43.97zm1.7-3.42h-1V215h1v-1.14l1.3-.37V215h2.62v1.1h-2.62v1.43c0 .51.1.89.29 1.12a1 1 0 00.8.34c.19 0 .35-.02.5-.06a1.94 1.94 0 00.7-.39l.28-.22.6.9a2 2 0 01-.43.37 3.9 3.9 0 01-1.16.48c-.22.05-.43.07-.63.07-.75 0-1.31-.2-1.7-.62-.37-.42-.55-1.08-.55-1.99v-1.43zm9.38 6.02a4.62 4.62 0 01-1.36-.44 3.99 3.99 0 01-1.99-2.25c-.2-.53-.3-1.15-.3-1.86 0-.7.1-1.32.3-1.85a4.05 4.05 0 011.99-2.29c.44-.23.9-.38 1.36-.47l.24 1.07c-.23.05-.5.15-.8.29-.3.13-.57.34-.84.61-.26.27-.5.61-.68 1.04-.18.43-.27.96-.27 1.6 0 .61.1 1.13.3 1.55.19.42.42.76.7 1.03a3.3 3.3 0 001.6.88l-.25 1.09zm2.1-4.41h1.1v.99l.06.02a2.8 2.8 0 001.09.23c.37 0 .66-.07.87-.22.2-.15.3-.36.3-.61a.67.67 0 00-.25-.55 2.48 2.48 0 00-.63-.37l-.82-.32c-.3-.1-.57-.24-.82-.4a2.41 2.41 0 01-.63-.62 1.68 1.68 0 01-.25-.96 1.93 1.93 0 01.66-1.47c.21-.18.47-.32.76-.42.3-.1.62-.15.98-.15.4 0 .8.04 1.2.11.4.07.7.17.94.3v2.03h-1.1v-1.11l-.06-.01c-.15-.04-.3-.07-.48-.09a3.13 3.13 0 00-.5-.04c-.32 0-.57.06-.76.19a.6.6 0 00-.27.51c0 .22.08.4.25.54.17.14.38.27.63.38.25.11.52.23.82.34.3.11.57.25.82.42.25.16.46.36.63.61.17.25.26.56.26.93 0 .36-.07.68-.2.95-.13.27-.32.5-.56.68-.24.18-.52.31-.85.4a3.86 3.86 0 01-1.77.08 4.87 4.87 0 01-1.42-.51v-1.86zm10.68 1.76c-.08.08-.2.16-.33.24a3.36 3.36 0 01-1.09.37 3.9 3.9 0 01-1.85-.12c-.33-.12-.61-.3-.85-.52a2.42 2.42 0 01-.53-.83 3.2 3.2 0 01-.18-1.11c0-.44.06-.82.2-1.15.15-.33.34-.61.58-.83.24-.22.53-.38.86-.49a3.22 3.22 0 011.84-.07c.27.07.52.18.75.35.22.16.4.38.54.65.15.27.23.62.23 1.04 0 .29-.04.6-.1.93h-3.6c0 .21.05.4.13.54.08.15.2.27.33.36.13.1.3.16.47.21a2.89 2.89 0 001.55-.08c.25-.1.47-.2.63-.34l.42.85zm-2.15-3.57c-.18 0-.34.02-.5.07-.15.05-.29.12-.41.21-.13.09-.23.2-.3.33-.09.13-.13.28-.15.45h2.47c0-.33-.1-.58-.28-.77-.19-.2-.46-.29-.84-.29zm3.68-2.9h2.13v4.62c0 .51.06.87.2 1.07.12.2.32.3.6.3.2 0 .38-.02.51-.06.13-.05.27-.11.4-.19l.5.9-.35.21c-.11.06-.23.11-.36.15a2.78 2.78 0 01-.92.14c-.63 0-1.1-.16-1.4-.48-.32-.32-.48-.77-.48-1.36v-4.2h-.83V213zm10.47 6.47c-.09.08-.2.16-.34.24a3.36 3.36 0 01-1.08.37 3.9 3.9 0 01-1.85-.12c-.34-.12-.62-.3-.85-.52a2.42 2.42 0 01-.54-.83 3.2 3.2 0 01-.18-1.11c0-.44.07-.82.2-1.15.15-.33.34-.61.58-.83.24-.22.53-.38.86-.49a3.22 3.22 0 011.84-.07c.27.07.52.18.75.35.22.16.4.38.55.65.14.27.22.62.22 1.04 0 .29-.04.6-.1.93h-3.6c0 .21.05.4.13.54.08.15.2.27.33.36.14.1.3.16.47.21a2.89 2.89 0 001.55-.08c.26-.1.47-.2.63-.34l.43.85zm-2.16-3.57c-.18 0-.34.02-.5.07-.15.05-.29.12-.41.21s-.22.2-.3.33c-.08.13-.13.28-.14.45h2.46c0-.33-.1-.58-.28-.77-.18-.2-.46-.29-.83-.29zm8.27 3.62c-.27.2-.59.36-.96.47-.36.1-.75.15-1.15.15a3.3 3.3 0 01-1.16-.19c-.33-.13-.61-.3-.85-.53-.22-.23-.4-.51-.52-.84a3.11 3.11 0 01.03-2.2 2.38 2.38 0 011.47-1.34 4.07 4.07 0 012.16-.05c.33.09.58.17.75.25V217h-1.1v-.92c-.2-.05-.41-.07-.62-.07-.18 0-.37.03-.56.09a1.3 1.3 0 00-.49.27c-.14.12-.25.27-.35.46-.08.19-.13.41-.13.67 0 .21.04.41.11.59a1.4 1.4 0 00.8.79c.2.07.42.11.66.11.38 0 .7-.05.93-.16.25-.1.43-.2.55-.28l.43.97zm1.7-3.42h-1V215h1v-1.14l1.3-.37V215h2.62v1.1h-2.62v1.43c0 .51.1.89.29 1.12a1 1 0 00.8.34c.19 0 .35-.02.5-.06a1.9 1.9 0 00.7-.39l.28-.22.6.9c-.11.13-.26.26-.43.37a3.85 3.85 0 01-1.16.48c-.21.05-.42.07-.63.07-.75 0-1.31-.2-1.7-.62-.36-.42-.55-1.08-.55-1.99v-1.43zm5.18 1.4c0-.42.07-.8.2-1.12.12-.33.3-.6.53-.83.24-.23.51-.4.84-.51.32-.12.68-.18 1.09-.18.41 0 .79.06 1.12.19.33.13.6.3.83.54.23.23.4.5.51.83.13.33.19.69.19 1.08 0 .42-.07.8-.2 1.12a2.28 2.28 0 01-1.38 1.35c-.31.11-.67.17-1.07.17-.43 0-.8-.06-1.13-.19-.33-.13-.6-.3-.84-.53-.22-.23-.4-.51-.51-.84a3.29 3.29 0 01-.18-1.08zm1.35 0c0 .22.02.42.09.61.05.19.14.35.25.49.12.14.25.25.41.33.16.07.35.11.56.11.38 0 .7-.12.93-.37.25-.25.38-.64.38-1.17 0-.46-.12-.83-.35-1.11a1.16 1.16 0 00-.96-.43c-.2 0-.37.03-.53.09a1 1 0 00-.41.27c-.12.13-.2.29-.27.48-.07.2-.1.43-.1.7zm4.7 1.4h1.23v-2.8h-1.24V215h2.25l.15.66h.04c.19-.22.4-.4.64-.55.24-.15.52-.22.84-.22.4 0 .72.15.94.44.23.3.35.78.35 1.47h-1.17c0-.24-.03-.41-.1-.52-.07-.11-.18-.17-.34-.17-.26 0-.48.07-.65.2-.16.13-.3.29-.4.46v2.13h2.16v1.1h-4.7v-1.1zm10.15 3.22a4.62 4.62 0 01-1.36-.44 3.99 3.99 0 01-2-2.25c-.2-.53-.3-1.15-.3-1.86 0-.7.1-1.32.3-1.85.21-.54.49-1 .83-1.38.34-.38.73-.68 1.17-.91.44-.23.9-.38 1.36-.47l.24 1.07c-.24.05-.5.15-.8.29-.3.13-.58.34-.84.61-.27.27-.5.61-.68 1.04-.18.43-.27.96-.27 1.6a3.4 3.4 0 00.99 2.58 3.3 3.3 0 001.6.88l-.24 1.09zm44.62-1.09a3.3 3.3 0 001.59-.88c.28-.27.51-.61.7-1.03.2-.42.3-.94.3-1.55a4 4 0 00-.28-1.6c-.18-.43-.4-.77-.67-1.04a2.75 2.75 0 00-.85-.61c-.3-.14-.56-.24-.8-.29l.25-1.07c.46.09.92.24 1.36.47a4.05 4.05 0 011.98 2.29c.2.53.3 1.15.3 1.85 0 .7-.1 1.33-.3 1.86a3.99 3.99 0 01-1.98 2.25c-.44.22-.9.37-1.36.44l-.24-1.09zm6.98-1.69a.7.7 0 01.22-.55.8.8 0 01.58-.21c.26 0 .46.07.6.21a.7.7 0 01.22.55c0 .23-.07.42-.22.56a.83.83 0 01-.6.21.8.8 0 01-.58-.21.74.74 0 01-.22-.56zm4.97-3.24h-1V215h1v-1.14l1.3-.37V215h2.62v1.1h-2.62v1.43c0 .51.1.89.29 1.12a1 1 0 00.8.34c.19 0 .35-.02.5-.06a1.9 1.9 0 00.7-.39l.28-.22.6.9c-.12.13-.26.26-.43.37a3.85 3.85 0 01-1.16.48c-.22.05-.43.07-.63.07-.75 0-1.31-.2-1.7-.62-.37-.42-.55-1.08-.55-1.99v-1.43zm10.18 3.37c-.1.08-.2.16-.35.24a3.46 3.46 0 01-1.07.37 3.92 3.92 0 01-1.86-.12c-.33-.12-.61-.3-.85-.52a2.4 2.4 0 01-.53-.83 3.2 3.2 0 01-.19-1.11c0-.44.08-.82.22-1.15.13-.33.32-.61.56-.83.25-.22.54-.38.87-.49a3.22 3.22 0 011.84-.07c.27.07.52.18.75.35.22.16.4.38.54.65.15.27.23.62.23 1.04 0 .29-.04.6-.1.93h-3.6c0 .21.04.4.13.54.08.15.2.27.32.36.14.1.3.16.48.21a2.9 2.9 0 001.55-.08c.25-.1.46-.2.62-.34l.44.85zm-2.16-3.57c-.18 0-.34.02-.5.07-.15.05-.29.12-.42.21-.12.09-.21.2-.3.33-.08.13-.12.28-.13.45h2.45c0-.33-.09-.58-.27-.77-.18-.2-.46-.29-.83-.29zm4.92 1.52l-1.74-2.42h1.55l1.13 1.67 1.18-1.67h1.41l-1.7 2.4 1.8 2.6h-1.5l-1.28-1.84-1.29 1.84h-1.42l1.86-2.58zm5.05-1.32h-1V215h1v-1.14l1.3-.37V215h2.62v1.1h-2.62v1.43c0 .51.1.89.29 1.12a1 1 0 00.8.34c.19 0 .35-.02.5-.06a1.94 1.94 0 00.7-.39l.28-.22.6.9a2 2 0 01-.43.37 3.9 3.9 0 01-1.16.48c-.22.05-.43.07-.63.07-.75 0-1.31-.2-1.7-.62-.37-.42-.55-1.08-.55-1.99v-1.43zm9.27 1.55h1.1v2c-.21.15-.48.27-.82.36a4.14 4.14 0 01-2.27-.06 2.77 2.77 0 01-1.76-1.76 4.7 4.7 0 01-.27-1.69c0-.69.1-1.26.3-1.72.2-.47.47-.84.8-1.12.31-.29.67-.49 1.06-.61a4.32 4.32 0 012.86.14v2.08h-1.1v-1.14c-.2-.03-.42-.05-.64-.05-.26 0-.5.05-.73.15-.22.1-.41.24-.58.44-.16.2-.3.45-.39.76-.1.3-.14.66-.14 1.07 0 .36.05.69.13.99.09.3.22.55.38.76.17.21.37.38.61.5.24.11.52.17.82.17.22 0 .44-.02.64-.06v-1.21zm1.9-.15c0-.42.07-.8.2-1.12a2.24 2.24 0 011.37-1.34c.33-.12.69-.18 1.09-.18.42 0 .8.06 1.12.19.33.13.61.3.84.54.23.23.4.5.5.83.13.33.19.69.19 1.08 0 .42-.06.8-.2 1.12a2.3 2.3 0 01-1.37 1.35c-.32.11-.68.17-1.08.17-.42 0-.8-.06-1.13-.19-.33-.13-.6-.3-.83-.53-.23-.23-.4-.51-.52-.84a3.29 3.29 0 01-.17-1.08zm1.35 0c0 .22.03.42.09.61s.15.35.26.49c.11.14.25.25.4.33.17.07.35.11.56.11.39 0 .7-.12.94-.37.25-.25.37-.64.37-1.17 0-.46-.11-.83-.34-1.11a1.16 1.16 0 00-.97-.43c-.19 0-.36.03-.52.09a1 1 0 00-.42.27c-.11.13-.2.29-.27.48-.07.2-.1.43-.1.7zm4.42-2.5h1.75l.15.66h.04a2.08 2.08 0 011.69-.8c.25 0 .48.03.7.1a1.32 1.32 0 01.91.96c.1.26.14.58.14.97V220h-1.3v-2.84c0-.4-.09-.7-.28-.88a.93.93 0 00-.68-.27c-.25 0-.48.07-.69.22-.2.14-.33.32-.4.53V220h-1.3v-3.9h-.73V215zm7.04 1.1h-.99V215h1v-1.14l1.3-.37V215h2.61v1.1h-2.62v1.43c0 .51.1.89.3 1.12a1 1 0 00.8.34c.18 0 .34-.02.5-.06a1.9 1.9 0 00.7-.39c.1-.08.2-.15.27-.22l.6.9c-.11.13-.26.26-.43.37a3.9 3.9 0 01-1.16.48c-.21.05-.42.07-.63.07-.75 0-1.3-.2-1.69-.62-.37-.42-.56-1.08-.56-1.99v-1.43zm10.18 3.37c-.09.08-.2.16-.34.24a3.36 3.36 0 01-1.08.37 3.9 3.9 0 01-1.85-.12c-.34-.12-.62-.3-.85-.52a2.42 2.42 0 01-.54-.83 3.2 3.2 0 01-.18-1.11c0-.44.07-.82.2-1.15.15-.33.34-.61.58-.83.24-.22.53-.38.86-.49a3.22 3.22 0 011.84-.07c.27.07.52.18.75.35.22.16.4.38.55.65.14.27.22.62.22 1.04 0 .29-.04.6-.1.93h-3.6c0 .21.05.4.13.54.08.15.2.27.33.36.14.1.3.16.47.21a2.89 2.89 0 001.55-.08c.26-.1.47-.2.63-.34l.43.85zm-2.16-3.57c-.18 0-.34.02-.5.07-.15.05-.29.12-.41.21s-.22.2-.3.33c-.08.13-.13.28-.14.45h2.46c0-.33-.1-.58-.28-.77-.18-.2-.46-.29-.83-.29zm2.93-.9h1.75l.15.66h.04a2.08 2.08 0 011.69-.8c.25 0 .48.03.7.1a1.32 1.32 0 01.91.96c.1.26.14.58.14.97V220h-1.3v-2.84c0-.4-.09-.7-.28-.88a.93.93 0 00-.69-.27c-.24 0-.47.07-.68.22-.2.14-.33.32-.4.53V220h-1.3v-3.9h-.73V215zm7.04 1.1h-1V215h1v-1.14l1.3-.37V215h2.62v1.1h-2.62v1.43c0 .51.1.89.29 1.12a1 1 0 00.8.34c.19 0 .35-.02.5-.06a1.9 1.9 0 00.7-.39l.28-.22.6.9c-.11.13-.26.26-.43.37a3.85 3.85 0 01-1.16.48c-.21.05-.42.07-.63.07-.75 0-1.31-.2-1.7-.62-.36-.42-.55-1.08-.55-1.99v-1.43zm6.03 4.93a3.3 3.3 0 001.6-.88c.27-.27.51-.61.7-1.03.2-.42.3-.94.3-1.55a4 4 0 00-.28-1.6c-.19-.43-.4-.77-.67-1.04a2.75 2.75 0 00-.86-.61c-.29-.14-.55-.24-.79-.29l.25-1.07c.46.09.92.24 1.36.47a4.05 4.05 0 011.98 2.29c.2.53.3 1.15.3 1.85 0 .7-.1 1.33-.3 1.86a3.99 3.99 0 01-1.98 2.25c-.45.22-.9.37-1.37.44l-.24-1.09zM508.2 235.34a.7.7 0 01.22-.55.8.8 0 01.58-.21c.25 0 .45.07.6.21a.7.7 0 01.22.55c0 .23-.07.42-.22.56a.83.83 0 01-.6.21.8.8 0 01-.58-.21.74.74 0 01-.22-.56zm9.15.13c-.1.08-.2.16-.34.24a3.36 3.36 0 01-1.08.37 3.9 3.9 0 01-1.85-.12c-.34-.12-.62-.3-.85-.52a2.42 2.42 0 01-.54-.83 3.2 3.2 0 01-.18-1.11c0-.44.07-.82.2-1.15.15-.33.34-.61.58-.83.24-.22.53-.38.86-.49a3.22 3.22 0 011.84-.07c.27.07.52.18.75.35.22.16.4.38.55.65.14.27.22.62.22 1.04 0 .29-.04.6-.1.93h-3.6c0 .21.05.4.13.54.08.15.2.27.33.36.14.1.3.16.47.21a2.89 2.89 0 001.55-.08c.26-.1.47-.2.63-.34l.43.85zm-2.16-3.57c-.18 0-.34.02-.5.07-.15.05-.29.12-.41.21s-.22.2-.3.33c-.08.13-.13.28-.14.45h2.46c0-.33-.1-.58-.28-.77-.18-.2-.46-.29-.83-.29zm8.11 6.1H522v-2.43h-.04c-.11.17-.3.31-.56.42a2.35 2.35 0 01-1.7-.01c-.26-.1-.48-.26-.67-.47a2.32 2.32 0 01-.44-.8c-.1-.32-.16-.69-.16-1.11 0-.44.07-.83.2-1.17a2.36 2.36 0 011.46-1.37 3.5 3.5 0 011.15-.18 6.12 6.12 0 011.2.1 4.16 4.16 0 01.86.2V238zm-2.4-2.96c.26 0 .48-.06.68-.17.2-.11.35-.28.42-.51v-2.22c-.1-.05-.22-.1-.38-.12-.14-.03-.3-.04-.46-.04-.42 0-.75.13-1 .4-.26.27-.39.66-.39 1.17 0 .49.1.86.3 1.11a1 1 0 00.83.38zm3.97-6.04h2.13v4.62c0 .51.06.87.19 1.07.13.2.33.3.6.3.22 0 .38-.02.52-.06.13-.05.27-.11.4-.19l.49.9-.34.21-.36.15a2.77 2.77 0 01-.92.14c-.63 0-1.1-.16-1.41-.48-.31-.32-.47-.77-.47-1.36v-4.2h-.83V229zm9.67 9.12a4.63 4.63 0 01-1.36-.44 3.99 3.99 0 01-1.99-2.25c-.2-.53-.3-1.15-.3-1.86 0-.7.1-1.32.3-1.85a4.05 4.05 0 011.99-2.29c.44-.23.9-.38 1.36-.47l.24 1.07c-.23.05-.5.15-.8.29-.29.13-.57.34-.84.61-.26.27-.49.61-.68 1.04-.18.43-.27.96-.27 1.6a3.44 3.44 0 00.99 2.58 3.32 3.32 0 001.6.88l-.24 1.09zm116.58-1.09a3.3 3.3 0 001.59-.88c.28-.27.51-.61.7-1.03.2-.42.3-.94.3-1.55a4 4 0 00-.28-1.6c-.18-.43-.4-.77-.67-1.04a2.75 2.75 0 00-.85-.61c-.3-.14-.56-.24-.8-.29l.25-1.07c.46.09.92.24 1.36.47a4.05 4.05 0 011.98 2.29c.2.53.3 1.15.3 1.85 0 .7-.1 1.33-.3 1.86a3.99 3.99 0 01-1.98 2.25c-.44.22-.9.37-1.36.44l-.24-1.09z"/><path fill="#3F83F8" d="M610.36 213h1.14l-.36 3.16h-.78V213zm6.67 4.95h-.89l-.36 1.54h-1.07l.36-1.54h-.74l.22-.97h.75l.25-1.06h-.72l.22-.97h.73l.35-1.44h1.06l-.34 1.44h.89l.35-1.44h1.06l-.34 1.44h.72l-.25.97h-.7l-.25 1.06h.69l-.24.97h-.68l-.36 1.54h-1.07l.36-1.54zm-.66-.97h.89l.25-1.06h-.89l-.25 1.06zm6.86-1.98h1.86v3.9h.76v1.1h-1.58l-.23-.74H624c-.16.25-.39.46-.7.63a2.32 2.32 0 01-1.72.15c-.2-.07-.38-.18-.52-.33a1.53 1.53 0 01-.34-.62 3.39 3.39 0 01-.12-.98v-2.01h-.57V215h1.87v2.84c0 .4.06.7.19.88.13.18.34.27.62.27.24 0 .46-.07.66-.22s.34-.33.42-.54v-2.13h-.56V215zm6.71 3.62c0-.13-.08-.24-.25-.32a3.4 3.4 0 00-.6-.22l-.79-.2a3.92 3.92 0 01-.79-.29 2.16 2.16 0 01-.6-.47c-.17-.2-.25-.44-.25-.74 0-.25.06-.46.16-.65.11-.19.26-.34.45-.47.2-.13.42-.23.68-.3a4.64 4.64 0 012.36.14 5.03 5.03 0 01.81.45l-.55.89-.35-.18a3.2 3.2 0 00-1.32-.36c-.28 0-.5.04-.68.11-.17.07-.26.19-.26.34 0 .12.08.22.24.29.17.07.37.14.61.21l.8.2c.28.07.54.17.78.29.24.11.44.26.6.45.17.19.25.43.25.72 0 .5-.19.9-.56 1.2-.36.29-.91.43-1.64.43a3.53 3.53 0 01-2.49-.85l.6-.94c.09.07.2.16.34.25a3.66 3.66 0 001.67.5c.22 0 .4-.04.55-.11.15-.07.23-.2.23-.37zm7.32.85c-.09.08-.2.16-.34.24a3.36 3.36 0 01-1.08.37 3.9 3.9 0 01-1.85-.12c-.34-.12-.62-.3-.85-.52a2.42 2.42 0 01-.54-.83 3.2 3.2 0 01-.18-1.11c0-.44.07-.82.2-1.15.15-.33.34-.61.58-.83.25-.22.53-.38.86-.49a3.22 3.22 0 011.84-.07c.27.07.52.18.75.35.23.16.4.38.55.65.14.27.22.62.22 1.04 0 .29-.03.6-.1.93h-3.6c0 .21.05.4.13.54.08.15.2.27.33.36.14.1.3.16.47.21a2.89 2.89 0 001.55-.08c.26-.1.47-.2.63-.34l.43.85zm-2.16-3.57c-.18 0-.34.02-.5.07-.14.05-.28.12-.41.21-.12.09-.22.2-.3.33-.08.13-.13.28-.14.45h2.46c0-.33-.1-.58-.28-.77-.18-.2-.46-.29-.83-.29zm3.2 3h1.24v-2.8h-1.24V215h2.25l.15.66h.04c.2-.22.4-.4.64-.55.24-.15.52-.22.84-.22.4 0 .72.15.94.44.24.3.35.78.35 1.47h-1.17c0-.24-.03-.41-.1-.52-.07-.11-.18-.17-.34-.17-.26 0-.48.07-.65.2-.16.13-.3.29-.4.46v2.13H643v1.1h-4.7v-1.1zm8.04-5.9h1.14l-.36 3.16h-.78V213zm-107.93 16h1.14l-.36 3.16h-.78V229zm7.7 4.07h-2.26V236h-1.37v-7h1.37v2.85h2.26V229h1.37v7h-1.37v-2.93zm7.2 2.4c-.08.08-.2.16-.34.24a3.46 3.46 0 01-1.08.37 3.92 3.92 0 01-1.85-.12c-.33-.12-.61-.3-.85-.52a2.4 2.4 0 01-.54-.83 3.2 3.2 0 01-.18-1.11c0-.44.07-.82.21-1.15.14-.33.33-.61.57-.83.25-.22.54-.38.86-.49a3.22 3.22 0 011.84-.07c.28.07.53.18.75.35.23.16.41.38.55.65.15.27.22.62.22 1.04 0 .29-.03.6-.1.93h-3.6c0 .21.05.4.13.54.09.15.2.27.33.36.14.1.3.16.47.21a2.9 2.9 0 001.55-.08c.26-.1.47-.2.63-.34l.43.85zm-2.16-3.57c-.17 0-.33.02-.49.07-.15.05-.3.12-.42.21s-.22.2-.3.33c-.08.13-.12.28-.14.45h2.46c0-.33-.1-.58-.28-.77-.18-.2-.45-.29-.83-.29zm3.69-2.9h2.13v4.62c0 .51.06.87.19 1.07.13.2.33.3.6.3.22 0 .38-.02.52-.06.13-.05.26-.11.4-.19l.49.9-.34.21a2.2 2.2 0 01-.36.15 2.8 2.8 0 01-.92.14c-.63 0-1.1-.16-1.41-.48-.31-.32-.47-.77-.47-1.36v-4.2h-.83V229zm6 0h2.13v4.62c0 .51.06.87.18 1.07.13.2.34.3.62.3.2 0 .37-.02.5-.06.14-.05.27-.11.4-.19l.5.9-.34.21c-.12.06-.24.11-.37.15a2.78 2.78 0 01-.92.14c-.62 0-1.1-.16-1.4-.48-.32-.32-.48-.77-.48-1.36v-4.2h-.82V229zm5.47 4.5c0-.42.06-.8.2-1.12a2.24 2.24 0 011.37-1.34c.32-.12.68-.18 1.08-.18.42 0 .8.06 1.12.19.33.13.61.3.84.54.23.23.4.5.51.83.12.33.18.69.18 1.08 0 .42-.06.8-.19 1.12a2.3 2.3 0 01-1.38 1.35c-.32.11-.68.17-1.08.17-.42 0-.8-.06-1.13-.19-.33-.13-.6-.3-.83-.53-.23-.23-.4-.51-.52-.84a3.29 3.29 0 01-.17-1.08zm1.34 0c0 .22.03.42.1.61.05.19.14.35.25.49.11.14.25.25.41.33.16.07.34.11.55.11.39 0 .7-.12.94-.37.25-.25.37-.64.37-1.17 0-.46-.11-.83-.34-1.11a1.16 1.16 0 00-.97-.43c-.19 0-.36.03-.52.09a1 1 0 00-.42.27c-.11.13-.2.29-.27.48-.07.2-.1.43-.1.7zm10.46-2.92c0-.6.13-1.03.38-1.3.26-.27.62-.4 1.08-.4.46 0 .81.13 1.06.38.26.25.4.7.4 1.32 0 .63-.14 1.07-.4 1.32-.25.25-.6.38-1.06.38-.46 0-.82-.13-1.08-.38-.25-.25-.38-.7-.38-1.32zm.97 0c0 .57.17.86.5.86a.4.4 0 00.34-.18c.09-.13.13-.35.13-.68 0-.32-.04-.54-.13-.67a.39.39 0 00-.35-.19.41.41 0 00-.36.19c-.08.13-.13.35-.13.67zm4.07-1.67l.58.53-5.07 6.7-.56-.57 5.05-6.66zm-2.27 5.39c0-.6.13-1.03.38-1.3.26-.27.62-.4 1.08-.4.46 0 .81.13 1.06.38.26.25.4.7.4 1.32 0 .63-.14 1.07-.4 1.32-.25.25-.6.38-1.06.38-.46 0-.82-.13-1.08-.38-.25-.25-.38-.7-.38-1.32zm.97 0c0 .57.17.86.5.86a.4.4 0 00.34-.18c.09-.13.13-.35.13-.68 0-.32-.04-.54-.13-.67a.39.39 0 00-.35-.19.41.41 0 00-.36.19c-.08.13-.13.35-.13.67zm6.3-5.3h1.3v4.48c0 .45-.06.85-.18 1.18a2.04 2.04 0 01-1.28 1.3c-.3.1-.63.16-1 .16-.86 0-1.5-.21-1.92-.63-.41-.42-.62-1.03-.62-1.84V229h1.37v4.38c0 .53.1.92.29 1.16.2.24.5.36.9.36s.7-.13.87-.38a2 2 0 00.27-1.14V229zm5.82 5.62c0-.13-.09-.24-.25-.32a3.4 3.4 0 00-.6-.22l-.8-.2a3.95 3.95 0 01-.79-.29 2.16 2.16 0 01-.6-.47c-.16-.2-.25-.44-.25-.74 0-.25.06-.46.17-.65.1-.19.26-.34.44-.47.2-.13.43-.23.69-.3a4.64 4.64 0 012.36.14 4.79 4.79 0 01.81.45l-.55.89-.36-.18a3.15 3.15 0 00-1.32-.36c-.27 0-.5.04-.67.11-.18.07-.26.19-.26.34 0 .12.08.22.24.29.16.07.37.14.6.21l.8.2c.28.07.54.17.78.29.25.11.45.26.6.45.17.19.25.43.25.72 0 .5-.18.9-.55 1.2-.37.29-.92.43-1.64.43a3.55 3.55 0 01-2.49-.85l.6-.94c.08.07.2.16.34.25a3.66 3.66 0 001.66.5c.22 0 .4-.04.56-.11.15-.07.23-.2.23-.37zm7.31.85c-.08.08-.2.16-.34.24a3.36 3.36 0 01-1.08.37 3.9 3.9 0 01-1.85-.12c-.33-.12-.62-.3-.85-.52a2.42 2.42 0 01-.54-.83 3.2 3.2 0 01-.18-1.11c0-.44.07-.82.21-1.15.14-.33.33-.61.57-.83.25-.22.53-.38.86-.49a3.22 3.22 0 011.84-.07c.28.07.53.18.75.35.23.16.41.38.55.65.15.27.22.62.22 1.04 0 .29-.03.6-.1.93h-3.6c0 .21.05.4.13.54.09.15.2.27.33.36.14.1.3.16.47.21a2.89 2.89 0 001.55-.08c.26-.1.47-.2.63-.34l.43.85zm-2.16-3.57c-.17 0-.34.02-.49.07-.15.05-.3.12-.42.21s-.22.2-.3.33c-.08.13-.13.28-.14.45h2.46c0-.33-.1-.58-.28-.77-.18-.2-.46-.29-.83-.29zm3.2 3h1.25v-2.8h-1.24V231h2.25l.15.66h.04c.18-.22.4-.4.64-.55.24-.15.52-.22.84-.22.4 0 .71.15.94.44.23.3.35.78.35 1.47h-1.17c0-.24-.04-.41-.11-.52-.07-.11-.18-.17-.33-.17a1 1 0 00-.65.2c-.16.13-.3.29-.41.46v2.13h2.17v1.1h-4.71v-1.1zm5.73-3.9h1.75l.15.66h.04a2.08 2.08 0 011.69-.8c.25 0 .48.03.7.1a1.33 1.33 0 01.91.96c.1.26.14.58.14.97V236h-1.3v-2.84c0-.4-.09-.7-.28-.88a.93.93 0 00-.69-.27c-.24 0-.47.07-.68.22-.2.14-.33.32-.4.53V236h-1.3v-3.9h-.73V231zm6.78.34a5.5 5.5 0 012.17-.44c.35 0 .64.04.88.13a1.33 1.33 0 01.92.9c.07.21.1.45.1.72 0 .34-.01.63-.04.87a7.8 7.8 0 00.02 1.38h.65v1.1h-1.66l-.13-.68h-.05c-.13.2-.32.39-.57.54-.25.15-.58.22-1 .22-.5 0-.9-.13-1.19-.4-.3-.27-.44-.62-.44-1.06 0-.28.05-.52.15-.72.1-.2.26-.37.45-.5.2-.13.44-.23.71-.29a4 4 0 011.31-.08l.49.04.02-.2v-.19c0-.25-.07-.43-.22-.54a1.05 1.05 0 00-.65-.17c-.34 0-.65.04-.92.13s-.5.17-.69.26l-.31-1.02zm1.71 3.67c.32 0 .56-.06.72-.17.16-.12.28-.25.35-.38v-.6a3.41 3.41 0 00-.3-.04 2.91 2.91 0 00-.81.01c-.13.02-.24.06-.34.11a.63.63 0 00-.24.19.47.47 0 00-.09.29c0 .19.05.33.16.44.11.1.3.15.55.15zm5.8.99v-3.06c0-.2-.02-.36-.04-.48a.82.82 0 00-.11-.29.27.27 0 00-.16-.14.46.46 0 00-.2-.04.53.53 0 00-.5.39V236h-1.2v-5h.95l.14.55h.03c.1-.2.24-.35.44-.47a1.32 1.32 0 011.31-.03c.2.1.33.3.4.56.1-.23.26-.41.47-.53a1.35 1.35 0 011.15-.11c.14.05.27.13.38.26.1.13.18.3.24.52.06.21.09.49.09.83V236h-1.2v-3.2c0-.3-.05-.51-.15-.63a.43.43 0 00-.35-.18.53.53 0 00-.31.09.42.42 0 00-.18.27V236h-1.2zm8.92-.53c-.09.08-.2.16-.34.24a3.36 3.36 0 01-1.08.37 3.9 3.9 0 01-1.85-.12c-.33-.12-.62-.3-.85-.52a2.42 2.42 0 01-.54-.83 3.2 3.2 0 01-.18-1.11c0-.44.07-.82.21-1.15.14-.33.33-.61.57-.83.25-.22.53-.38.86-.49a3.22 3.22 0 011.84-.07c.27.07.52.18.75.35.23.16.41.38.55.65.15.27.22.62.22 1.04 0 .29-.03.6-.1.93h-3.6c0 .21.05.4.13.54.09.15.2.27.33.36.14.1.3.16.47.21a2.89 2.89 0 001.55-.08c.26-.1.47-.2.63-.34l.43.85zm-2.16-3.57c-.17 0-.34.02-.49.07-.15.05-.3.12-.42.21s-.22.2-.3.33c-.08.13-.13.28-.14.45h2.46c0-.33-.1-.58-.28-.77-.18-.2-.45-.29-.83-.29zm2.98-1.32c0-.6.13-1.03.38-1.3.26-.27.62-.4 1.08-.4.45 0 .8.13 1.06.38s.39.7.39 1.32c0 .63-.13 1.07-.4 1.32-.25.25-.6.38-1.05.38-.46 0-.82-.13-1.08-.38-.25-.25-.38-.7-.38-1.32zm.97 0c0 .57.16.86.49.86a.4.4 0 00.35-.18c.09-.13.13-.35.13-.68 0-.32-.04-.54-.13-.67a.39.39 0 00-.35-.19.41.41 0 00-.36.19c-.09.13-.13.35-.13.67zm4.07-1.67l.58.53-5.07 6.7-.56-.57 5.05-6.66zm-2.27 5.39c0-.6.13-1.03.38-1.3.26-.27.62-.4 1.08-.4.45 0 .8.13 1.06.38s.39.7.39 1.32c0 .63-.13 1.07-.4 1.32-.25.25-.6.38-1.05.38-.46 0-.82-.13-1.08-.38-.25-.25-.38-.7-.38-1.32zm.97 0c0 .57.16.86.49.86a.4.4 0 00.35-.18c.09-.13.13-.35.13-.68 0-.32-.04-.54-.13-.67a.39.39 0 00-.35-.19.41.41 0 00-.36.19c-.09.13-.13.35-.13.67zm4.42-5.3h1.34v3.29l-.26 1.63h-.82l-.26-1.63V229zm-.14 6.34a.7.7 0 01.22-.55.8.8 0 01.58-.21c.26 0 .46.07.6.21a.7.7 0 01.22.55c0 .23-.07.42-.22.56a.83.83 0 01-.6.21.8.8 0 01-.58-.21.74.74 0 01-.22-.56zm6.24-6.34h1.14l-.36 3.16h-.78V229z"/><path fill="#000" d="M550.92 135h1.58v-3.7h4.05v3.7h1.58v-8.73h-1.58v3.7h-4.05v-3.7h-1.58V135zm11.76.13c1.53 0 2.58-.75 2.85-1.89l-1.44-.16c-.21.56-.72.85-1.39.85-1 0-1.65-.66-1.67-1.78h4.56v-.47c0-2.3-1.38-3.31-2.99-3.31-1.87 0-3.1 1.38-3.1 3.4 0 2.05 1.21 3.36 3.18 3.36zm-1.64-4.02c.05-.84.66-1.54 1.58-1.54.89 0 1.49.65 1.5 1.54h-3.08zm7.4-4.84h-1.54V135h1.54v-8.73zm3.13 0h-1.54V135h1.54v-8.73zm4.44 8.86c1.92 0 3.14-1.35 3.14-3.38s-1.22-3.38-3.14-3.38c-1.92 0-3.13 1.35-3.13 3.38s1.21 3.38 3.13 3.38zm.01-1.24c-1.06 0-1.58-.94-1.58-2.14 0-1.2.52-2.16 1.58-2.16 1.04 0 1.56.96 1.56 2.16 0 1.2-.52 2.14-1.56 2.14zm12.06-.53c0 1.02.65 1.88 1.85 1.88 1.2 0 1.85-.86 1.84-1.88v-.46c0-1.02-.63-1.88-1.84-1.88-1.18 0-1.84.87-1.85 1.88v.46zm-4.43-5c0 1.02.64 1.88 1.85 1.88 1.18 0 1.84-.85 1.84-1.87v-.46c0-1.02-.64-1.88-1.84-1.88-1.18 0-1.85.86-1.85 1.88v.46zm.38 6.64h1.07l6-8.73h-1.07l-6 8.73zm5.17-2.1c0-.45.2-.9.73-.9.56 0 .73.45.72.9v.46c0 .45-.18.9-.72.9-.55 0-.73-.45-.73-.9v-.46zm-4.43-5c0-.44.19-.9.73-.9.56 0 .72.46.72.9v.47c0 .45-.18.9-.72.9-.55 0-.73-.45-.73-.9v-.46zm14.36-1.63V132c0 1.08-.86 1.7-1.96 1.7s-1.96-.62-1.96-1.7v-5.73h-1.58v5.77c0 1.98 1.51 3.1 3.54 3.1 2.01 0 3.54-1.12 3.54-3.1v-5.77h-1.58zm8.4 3.92c-.21-1.11-1.1-1.82-2.63-1.82-1.58 0-2.65.78-2.65 1.98 0 .96.59 1.59 1.84 1.85l1.12.24c.6.13.88.37.88.74 0 .45-.48.78-1.22.78-.7 0-1.16-.3-1.3-.89l-1.5.14c.2 1.2 1.2 1.92 2.8 1.92 1.64 0 2.8-.85 2.8-2.09 0-.93-.6-1.5-1.84-1.77l-1.11-.24c-.67-.15-.93-.38-.93-.76 0-.44.49-.75 1.13-.75.71 0 1.09.39 1.2.82l1.41-.16zm4.31 4.94c1.53 0 2.58-.75 2.85-1.89l-1.44-.16c-.21.56-.72.85-1.39.85-1 0-1.65-.66-1.67-1.78h4.56v-.47c0-2.3-1.38-3.31-2.99-3.31-1.87 0-3.1 1.38-3.1 3.4 0 2.05 1.21 3.36 3.18 3.36zm-1.64-4.02c.04-.84.66-1.54 1.58-1.54.89 0 1.49.65 1.5 1.54h-3.08zm5.86 3.89h1.54v-3.85c0-.83.63-1.42 1.48-1.42.25 0 .58.05.71.1v-1.43a3.77 3.77 0 00-.55-.04c-.75 0-1.38.43-1.62 1.18h-.07v-1.08h-1.5V135zm6.3-3.84c0-.94.57-1.49 1.38-1.49.8 0 1.28.53 1.28 1.4V135h1.54v-4.17c0-1.57-.89-2.46-2.24-2.46-.98 0-1.66.47-1.95 1.2h-.08v-1.11h-1.47V135h1.54v-3.84zm7.65 3.97c1.03 0 1.64-.48 1.92-1.03h.06v.9h1.48v-4.38c0-1.73-1.41-2.25-2.66-2.25-1.38 0-2.43.61-2.77 1.8l1.44.21c.15-.45.58-.83 1.34-.83.71 0 1.1.37 1.1 1.01v.03c0 .44-.46.46-1.61.58-1.27.14-2.49.52-2.49 2 0 1.28.94 1.96 2.2 1.96zm.4-1.13c-.64 0-1.1-.3-1.1-.86 0-.6.52-.84 1.2-.94.41-.05 1.22-.16 1.42-.32v.77c0 .73-.59 1.35-1.52 1.35zm4.6 1h1.55v-3.98c0-.8.54-1.35 1.2-1.35.65 0 1.1.44 1.1 1.11V135h1.52v-4.08c0-.74.44-1.25 1.18-1.25.62 0 1.12.37 1.12 1.18V135h1.54v-4.4c0-1.45-.84-2.23-2.04-2.23-.95 0-1.68.47-1.97 1.2h-.06c-.26-.75-.9-1.2-1.77-1.2-.88 0-1.54.45-1.81 1.2h-.08v-1.11h-1.47V135zm13.68.13c1.52 0 2.57-.75 2.84-1.89l-1.44-.16c-.2.56-.72.85-1.38.85-1 0-1.66-.66-1.67-1.78h4.56v-.47c0-2.3-1.38-3.31-3-3.31-1.87 0-3.1 1.38-3.1 3.4 0 2.05 1.21 3.36 3.19 3.36zm-1.65-4.02c.05-.84.67-1.54 1.59-1.54.88 0 1.48.65 1.49 1.54h-3.08zm10.51 2.25c0 1.02.65 1.88 1.85 1.88 1.19 0 1.85-.86 1.84-1.88v-.46c0-1.02-.63-1.88-1.84-1.88-1.18 0-1.85.87-1.85 1.88v.46zm-4.43-5c0 1.02.64 1.88 1.84 1.88 1.2 0 1.85-.85 1.84-1.87v-.46c.01-1.02-.63-1.88-1.84-1.88-1.17 0-1.84.86-1.85 1.88v.46zm.38 6.64h1.07l6-8.73h-1.07l-6 8.73zm5.16-2.1c0-.45.2-.9.74-.9.56 0 .73.45.72.9v.46c0 .45-.18.9-.72.9-.55 0-.73-.45-.74-.9v-.46zm-4.42-5c0-.44.18-.9.72-.9.57 0 .73.46.72.9v.47c0 .45-.17.9-.72.9-.54 0-.72-.45-.72-.9v-.46zm10.67-1.63h-1.64l.13 6.17h1.37l.14-6.17zm-.82 8.82c.5 0 .93-.41.94-.93a.95.95 0 00-.94-.93.93.93 0 100 1.87z"/><path fill="#374151" d="M236 128v6h-32v-6zM236 139v-16l9 8-9 8z"/><path fill="#000" d="M2.19 219.34a.7.7 0 01.22-.55.8.8 0 01.58-.21c.25 0 .45.07.6.21a.7.7 0 01.22.55c0 .23-.07.42-.22.56a.83.83 0 01-.6.21.8.8 0 01-.58-.21.74.74 0 01-.22-.56zm9.27.18c-.28.2-.6.36-.96.47-.37.1-.75.15-1.15.15a3.3 3.3 0 01-1.16-.19c-.34-.13-.62-.3-.85-.53-.23-.23-.4-.51-.52-.84a3.11 3.11 0 01.03-2.2 2.39 2.39 0 011.47-1.34 4.07 4.07 0 012.16-.05c.32.09.57.17.75.25V217h-1.1v-.92c-.21-.05-.42-.07-.62-.07s-.38.03-.56.09a1.3 1.3 0 00-.5.27c-.13.12-.25.27-.34.46-.1.19-.13.41-.13.67a1.4 1.4 0 00.91 1.38c.2.07.42.11.66.11.38 0 .69-.05.93-.16.24-.1.43-.2.55-.28l.43.97zm1.4-6.52H15v4.62c0 .51.07.87.2 1.07.12.2.32.3.6.3.2 0 .38-.02.51-.06.14-.05.27-.11.4-.19l.5.9-.35.21c-.11.06-.23.11-.36.15a2.78 2.78 0 01-.92.14c-.62 0-1.1-.16-1.4-.48-.32-.32-.48-.77-.48-1.36v-4.2h-.83V213zm5.72 5.9h1.76v-2.8h-1.76V215h3.06v3.9h1.85v1.1h-4.91v-1.1zm1.52-5.26c0-.2.07-.38.23-.53a.89.89 0 01.64-.22c.28 0 .5.07.67.22.16.15.25.32.25.53 0 .21-.09.39-.25.53-.17.13-.4.2-.67.2a.95.95 0 01-.64-.2.69.69 0 01-.23-.53zm9.34 5.88c-.27.2-.59.36-.96.47-.36.1-.75.15-1.15.15a3.3 3.3 0 01-1.16-.19c-.33-.13-.61-.3-.85-.53-.22-.23-.4-.51-.52-.84a3.11 3.11 0 01.03-2.2 2.39 2.39 0 011.47-1.34 4.07 4.07 0 012.16-.05c.33.09.58.17.75.25V217h-1.1v-.92c-.2-.05-.4-.07-.62-.07-.18 0-.37.03-.56.09a1.3 1.3 0 00-.49.27c-.14.12-.25.27-.35.46-.08.19-.13.41-.13.67 0 .21.04.41.11.59a1.4 1.4 0 00.8.79c.2.07.42.11.66.11.38 0 .7-.05.93-.16.25-.1.43-.2.55-.28l.43.97zm.54-6.52h2.12v3.99h.3l1.64-1.99h1.53l-2.02 2.28 1.31 1.62h.93v1.1h-1.62l-1.72-2.07h-.35V220h-1.3v-5.9h-.82V213zm10.55 9.12a4.63 4.63 0 01-1.36-.44 3.99 3.99 0 01-2-2.25c-.2-.53-.3-1.15-.3-1.86 0-.7.1-1.32.3-1.85.21-.54.49-1 .83-1.38.34-.38.73-.68 1.17-.91.44-.23.89-.38 1.36-.47l.24 1.07c-.24.05-.5.15-.8.29-.3.13-.58.34-.84.61-.27.27-.5.61-.68 1.04-.18.43-.27.96-.27 1.6a3.42 3.42 0 00.99 2.58 3.3 3.3 0 001.6.88l-.24 1.09zm86.59-1.09a3.3 3.3 0 001.59-.88c.28-.27.51-.61.7-1.03.2-.42.3-.94.3-1.55a4 4 0 00-.28-1.6c-.18-.43-.4-.77-.67-1.04a2.76 2.76 0 00-.85-.61c-.3-.14-.56-.24-.8-.29l.25-1.07c.47.09.92.24 1.36.47a4.05 4.05 0 011.98 2.29c.2.53.3 1.15.3 1.85 0 .7-.1 1.33-.3 1.86a3.99 3.99 0 01-1.98 2.25c-.44.22-.9.37-1.36.44l-.24-1.09z"/><path fill="#3F83F8" d="M44.4 213h1.14l-.36 3.16h-.78V213zm6.67 4.95h-.9l-.35 1.54h-1.07l.36-1.54h-.74l.22-.97h.75l.25-1.06h-.72l.22-.97h.73l.35-1.44h1.06l-.34 1.44h.89l.35-1.44h1.06l-.34 1.44h.72l-.25.97h-.7l-.25 1.06h.69l-.24.97h-.68l-.36 1.54H50.7l.36-1.54zm-.66-.97h.89l.25-1.06h-.9l-.24 1.06zm4.42-3.98h2.13v4.62c0 .51.07.87.2 1.07.12.2.32.3.6.3.21 0 .38-.02.51-.06.14-.05.27-.11.4-.19l.5.9-.35.21c-.1.06-.23.11-.36.15a2.78 2.78 0 01-.92.14c-.62 0-1.1-.16-1.4-.48-.32-.32-.48-.77-.48-1.36v-4.2h-.83V213zm5.48 4.5c0-.42.06-.8.2-1.12.12-.33.3-.6.53-.83.23-.23.51-.4.83-.51.33-.12.7-.18 1.1-.18.41 0 .78.06 1.11.19.33.13.61.3.84.54.23.23.4.5.51.83.12.33.18.69.18 1.08 0 .42-.06.8-.19 1.12a2.3 2.3 0 01-1.38 1.35c-.32.11-.68.17-1.08.17-.42 0-.8-.06-1.13-.19-.33-.13-.6-.3-.83-.53-.23-.23-.4-.51-.52-.84a3.28 3.28 0 01-.17-1.08zm1.34 0c0 .22.03.42.1.61.05.19.14.35.25.49.11.14.25.25.41.33.16.07.34.11.55.11.39 0 .7-.12.94-.37.25-.25.37-.64.37-1.17 0-.46-.11-.83-.34-1.11a1.16 1.16 0 00-.97-.43c-.19 0-.36.03-.52.09a1 1 0 00-.42.27c-.11.13-.2.29-.27.48-.07.2-.1.43-.1.7zm9.6 2.5c0 .36-.06.67-.18.94a1.96 1.96 0 01-1.28 1.05 3.4 3.4 0 01-1.65.07 3.66 3.66 0 01-1.04-.34 1.67 1.67 0 01-.32-.2l.5-.92c.16.1.35.2.57.3.22.1.5.15.85.15.42 0 .74-.1.96-.29.22-.2.33-.47.33-.83v-.32h-.04c-.12.16-.3.28-.53.36-.24.07-.5.11-.81.11-.32 0-.62-.05-.9-.15a1.94 1.94 0 01-1.16-1.23c-.11-.31-.16-.68-.16-1.1 0-.44.06-.83.19-1.17a2.27 2.27 0 011.4-1.37c.33-.12.7-.18 1.1-.18a6.85 6.85 0 011.25.09 5.1 5.1 0 01.93.21V220zm-2.4-.96c.26 0 .49-.06.69-.17.2-.11.34-.28.42-.51v-2.25a3 3 0 00-.88-.13c-.19 0-.37.03-.53.09-.16.06-.3.16-.43.29a1.4 1.4 0 00-.3.49c-.06.2-.1.43-.1.7 0 .24.04.45.1.64.06.19.14.34.25.47.1.13.22.22.36.29.13.06.27.09.43.09zm3.7-.14h1.75v-2.8h-1.76V215h3.06v3.9h1.85v1.1h-4.9v-1.1zm1.51-5.26c0-.2.08-.38.23-.53a.89.89 0 01.64-.22c.28 0 .5.07.67.22.17.15.25.32.25.53 0 .21-.08.39-.25.53-.16.13-.39.2-.67.2a.95.95 0 01-.64-.2.69.69 0 01-.23-.53zm4 1.36h1.76l.15.66H80a2.08 2.08 0 011.69-.8c.25 0 .48.03.69.1a1.32 1.32 0 01.92.96c.1.26.14.58.14.97V220h-1.3v-2.84c0-.4-.1-.7-.28-.88a.93.93 0 00-.7-.27c-.24 0-.46.07-.67.22-.2.14-.34.32-.41.53V220h-1.3v-3.9h-.72V215zm7.43 1.55h2.9v1.15h-2.9v-1.15zm4.45-1.55h1.7l.15.6h.04c.35-.5.9-.74 1.68-.74.3 0 .59.05.84.15.26.1.48.24.66.45.19.2.33.47.43.78.1.31.15.69.15 1.13 0 .43-.06.81-.17 1.16-.11.34-.28.63-.49.87a2.1 2.1 0 01-.78.55c-.3.13-.66.19-1.05.19-.2 0-.4-.02-.6-.05a1.6 1.6 0 01-.5-.14V222h-1.3v-5.9h-.76V215zm3.18.96c-.25 0-.49.06-.7.19a1 1 0 00-.43.57v2.08c.1.07.23.13.4.18.18.04.36.06.54.06a1.12 1.12 0 00.94-.4c.12-.14.21-.32.28-.53.07-.21.1-.47.1-.77 0-.44-.1-.78-.32-1.02a1.04 1.04 0 00-.8-.36zm3.17 1.54c0-.42.06-.8.19-1.12a2.25 2.25 0 011.37-1.34c.32-.12.69-.18 1.09-.18.42 0 .8.06 1.12.19a2.17 2.17 0 011.35 1.37c.12.33.18.69.18 1.08 0 .42-.07.8-.2 1.12a2.3 2.3 0 01-1.37 1.35c-.32.11-.68.17-1.08.17-.42 0-.8-.06-1.13-.19-.33-.13-.6-.3-.83-.53-.23-.23-.4-.51-.52-.84a3.28 3.28 0 01-.17-1.08zm1.34 0c0 .22.03.42.09.61s.14.35.26.49c.11.14.25.25.4.33.17.07.35.11.56.11.38 0 .7-.12.94-.37s.37-.64.37-1.17c0-.46-.12-.83-.34-1.11a1.16 1.16 0 00-.97-.43c-.19 0-.36.03-.52.09a1 1 0 00-.42.27c-.12.13-.2.29-.27.48-.07.2-.1.43-.1.7zm4.3-2.5h1.7l.15.6h.04c.35-.5.91-.74 1.68-.74.31 0 .59.05.84.15.26.1.48.24.66.45.19.2.33.47.43.78.1.31.15.69.15 1.13 0 .43-.05.81-.17 1.16-.11.34-.27.63-.49.87-.21.24-.47.42-.78.55-.3.13-.65.19-1.05.19-.2 0-.4-.02-.6-.05-.2-.03-.37-.07-.5-.14V222h-1.3v-5.9h-.76V215zm3.18.96c-.25 0-.48.06-.7.19a1 1 0 00-.43.57v2.08c.1.07.23.13.4.18.18.04.36.06.54.06a1.12 1.12 0 00.94-.4c.12-.14.22-.32.28-.53.07-.21.1-.47.1-.77 0-.44-.1-.78-.32-1.02a1.04 1.04 0 00-.8-.36zm6.12-.96h1.86v3.9h.76v1.1h-1.58l-.23-.74H112c-.15.25-.38.46-.69.63a2.32 2.32 0 01-1.72.15c-.2-.07-.38-.18-.53-.33a1.53 1.53 0 01-.34-.62 3.39 3.39 0 01-.12-.98v-2.01h-.57V215h1.87v2.84c0 .4.06.7.19.88.13.18.34.27.62.27.25 0 .47-.07.66-.22.2-.15.34-.33.42-.54v-2.13h-.56V215zm2.7 0h1.7l.15.6h.04c.34-.5.9-.74 1.68-.74.3 0 .58.05.84.15.26.1.48.24.66.45.18.2.33.47.43.78.1.31.15.69.15 1.13 0 .43-.06.81-.17 1.16-.12.34-.28.63-.5.87-.2.24-.47.42-.77.55-.31.13-.66.19-1.05.19-.21 0-.41-.02-.61-.05-.2-.03-.37-.07-.5-.14V222h-1.3v-5.9h-.75V215zm3.18.96c-.26 0-.5.06-.7.19a1 1 0 00-.43.57v2.08c.09.07.22.13.4.18.18.04.36.06.54.06a1.12 1.12 0 00.94-.4c.12-.14.2-.32.28-.53.06-.21.1-.47.1-.77 0-.44-.11-.78-.32-1.02a1.04 1.04 0 00-.81-.36zm5.24-2.96h1.14l-.36 3.16h-.78V213z"/><path fill="#000" d="M2.67 32H4l1.83-6.54h.07L7.74 32h1.32l2.43-8.73h-1.4L8.4 30.04h-.08l-1.77-6.77H5.18l-1.77 6.76h-.08l-1.7-6.76H.25L2.67 32zm9.92 0h1.27v-6.55H12.6V32zm.64-7.56c.44 0 .8-.34.8-.75 0-.42-.36-.77-.8-.77-.44 0-.8.35-.8.77 0 .41.36.75.8.75zm3.62 3.67c0-1.04.64-1.64 1.52-1.64.87 0 1.4.57 1.4 1.52V32h1.27v-4.16c0-1.62-.9-2.47-2.23-2.47-.98 0-1.63.46-1.93 1.15h-.08v-1.07h-1.22V32h1.27v-3.89zm8.35 4.02a2 2 0 001.89-1.15h.1V32h1.25v-8.73h-1.27v3.25h-.08c-.23-.4-.67-1.15-1.88-1.15-1.59 0-2.75 1.25-2.75 3.37s1.15 3.39 2.74 3.39zm.28-1.09c-1.14 0-1.73-1-1.73-2.31 0-1.3.58-2.28 1.73-2.28 1.11 0 1.7.9 1.7 2.28 0 1.37-.6 2.31-1.7 2.31zm7.54 1.1c1.84 0 3.05-1.36 3.05-3.38 0-2.04-1.2-3.4-3.05-3.4-1.85 0-3.06 1.36-3.06 3.4 0 2.02 1.21 3.37 3.06 3.37zm0-1.08c-1.2 0-1.77-1.05-1.77-2.3 0-1.26.56-2.33 1.77-2.33 1.2 0 1.76 1.07 1.76 2.32 0 1.26-.56 2.31-1.76 2.31zm5.69.94H40l1.32-4.73h.1L42.76 32h1.3l1.92-6.55h-1.31l-1.28 4.79h-.06l-1.28-4.79h-1.32l-1.28 4.81h-.07l-1.28-4.8h-1.32L38.71 32zm18.1 0h1.03l.38-2.34h1.26l.17-1.02h-1.26l.33-2H60l.16-1.03H58.9l.38-2.34h-1.02l-.38 2.34h-2.05l.38-2.34h-1.02l-.38 2.34h-1.26l-.17 1.02h1.26l-.33 2.01h-1.27l-.16 1.02h1.26L53.75 32h1.02l.38-2.34h2.05L56.82 32zm-1.49-3.36l.33-2h2.05l-.33 2h-2.05zm9.16-5.37H63.2l-2.18 1.43v1.26l2.09-1.37h.05V32h1.32v-8.73z"/><path fill="#000" d="M273.67 14H275l1.83-6.54h.07l1.84 6.54h1.32l2.43-8.73h-1.4l-1.69 6.77h-.08l-1.77-6.77h-1.37l-1.77 6.76h-.08l-1.7-6.76h-1.38l2.42 8.73zm9.92 0h1.27V7.45h-1.27V14zm.64-7.56c.44 0 .8-.34.8-.75 0-.42-.36-.77-.8-.77-.44 0-.8.35-.8.77 0 .41.36.75.8.75zm3.62 3.67c0-1.04.64-1.64 1.52-1.64.87 0 1.4.57 1.4 1.52V14h1.27V9.84c0-1.62-.9-2.47-2.23-2.47-.99 0-1.63.46-1.93 1.15h-.08V7.45h-1.23V14h1.28v-3.89zm8.35 4.02a2 2 0 001.89-1.15h.1V14h1.25V5.27h-1.27v3.25h-.08c-.23-.4-.66-1.15-1.88-1.15-1.58 0-2.75 1.25-2.75 3.37s1.15 3.39 2.74 3.39zm.28-1.09c-1.14 0-1.73-1-1.73-2.31 0-1.3.58-2.28 1.73-2.28 1.11 0 1.7.9 1.7 2.28 0 1.37-.6 2.31-1.7 2.31zm7.54 1.1c1.84 0 3.05-1.36 3.05-3.38 0-2.04-1.2-3.4-3.05-3.4-1.85 0-3.06 1.36-3.06 3.4 0 2.02 1.21 3.37 3.06 3.37zm0-1.08c-1.2 0-1.77-1.05-1.77-2.3 0-1.26.56-2.33 1.77-2.33 1.2 0 1.76 1.07 1.76 2.32 0 1.26-.56 2.31-1.76 2.31zm5.69.94h1.3l1.32-4.73h.1l1.33 4.73h1.3l1.92-6.55h-1.31l-1.28 4.79h-.06l-1.28-4.79h-1.32l-1.28 4.81h-.07l-1.28-4.8h-1.32l1.93 6.54zm18.1 0h1.03l.38-2.34h1.26l.17-1.02h-1.26l.33-2H331l.16-1.03h-1.26l.38-2.34h-1.02l-.38 2.34h-2.05l.38-2.34h-1.02l-.38 2.34h-1.26l-.17 1.02h1.26l-.33 2.01h-1.27l-.16 1.02h1.26l-.38 2.34h1.02l.38-2.34h2.05l-.38 2.34zm-1.49-3.36l.33-2h2.05l-.33 2h-2.05zm9.16-5.37h-1.28l-2.18 1.43v1.26l2.09-1.37h.05V14h1.32V5.27z" opacity=".15"/><path fill="#364152" d="M0 46a4 4 0 014-4h196a4 4 0 014 4v147a4 4 0 01-4 4H4a4 4 0 01-4-4V46z"/><path fill="#fff" d="M8 74h188v115H8V74z"/><path fill="#EC665A" fill-rule="evenodd" d="M12 54a4 4 0 110 8 4 4 0 010-8z" clip-rule="evenodd"/><path fill="#FACA15" fill-rule="evenodd" d="M24 54a4 4 0 110 8 4 4 0 010-8z" clip-rule="evenodd"/><path fill="#72C047" fill-rule="evenodd" d="M36 54a4 4 0 110 8 4 4 0 010-8z" clip-rule="evenodd"/><path fill="#000" d="M49 58a11 11 0 0111-11h85a11 11 0 010 22H60a11 11 0 01-11-11z" opacity=".4"/><path fill="#fff" d="M65.17 59.74c0 .92-.69 1.37-1.28 1.37-.66 0-1.11-.48-1.11-1.22v-3.34H61.7V60c0 1.36.75 2.06 1.8 2.06.81 0 1.37-.43 1.62-1.01h.06V62h1.04v-5.45h-1.06v3.19zm2.5 2.26h1.05v-3.33c0-.71.55-1.23 1.3-1.23.23 0 .47.04.56.06V56.5c-.1-.02-.32-.03-.45-.03-.64 0-1.19.37-1.39.95h-.05v-.86h-1.03V62zm4.9-7.27H71.5V62h1.06v-7.27zm2.12 7.34c.39 0 .7-.32.7-.71 0-.39-.31-.7-.7-.7-.4 0-.71.31-.71.7 0 .4.32.7.7.7zm4.43.04c1.29 0 2.12-.77 2.24-1.84h-1.03c-.14.6-.6.94-1.2.94-.9 0-1.48-.75-1.48-1.94 0-1.17.59-1.9 1.48-1.9.67 0 1.08.43 1.2.94h1.03c-.11-1.1-1.01-1.84-2.25-1.84-1.54 0-2.53 1.16-2.53 2.83 0 1.64.95 2.81 2.54 2.81zm5.67 0c1.54 0 2.55-1.13 2.55-2.81 0-1.7-1.01-2.83-2.55-2.83-1.54 0-2.54 1.13-2.54 2.83 0 1.68 1 2.81 2.54 2.81zm0-.9c-1 0-1.47-.87-1.47-1.92 0-1.04.47-1.93 1.48-1.93 1 0 1.46.89 1.46 1.93 0 1.05-.47 1.93-1.46 1.93zm3.73.79h1.06v-3.36c0-.74.52-1.25 1.12-1.25.59 0 1 .4 1 .98V62h1.06v-3.48c0-.65.4-1.13 1.1-1.13.55 0 1.01.31 1.01 1.05V62h1.07v-3.66c0-1.24-.7-1.87-1.69-1.87-.78 0-1.37.38-1.64.96h-.05c-.24-.6-.74-.96-1.47-.96-.72 0-1.26.36-1.48.96h-.07v-.88h-1.02V62z"/><rect width="99" height="21" x="52.5" y="121.5" fill="#475569" stroke="#475569" rx="3.5"/><path fill="#fff" d="M90.63 135h4.07v-1h-2.88v-5.54h-1.19V135zm7.19.1c1.44 0 2.35-1.02 2.35-2.53 0-1.53-.91-2.54-2.35-2.54s-2.35 1.01-2.35 2.53c0 1.52.91 2.54 2.35 2.54zm0-.93c-.8 0-1.18-.71-1.18-1.6 0-.9.39-1.63 1.19-1.63.78 0 1.17.72 1.17 1.62 0 .9-.4 1.6-1.17 1.6zm5.47 2.75c1.32 0 2.3-.6 2.3-1.84v-4.99h-1.14v.81h-.06a1.46 1.46 0 00-1.41-.87c-1.14 0-2.03.88-2.03 2.5 0 1.6.9 2.4 2.02 2.4.84 0 1.24-.45 1.42-.81h.05v.93c0 .7-.47 1-1.13 1-.7 0-1-.33-1.15-.6l-1.04.25c.21.67.92 1.22 2.17 1.22zm0-2.9c-.76 0-1.16-.6-1.16-1.5 0-.89.4-1.54 1.17-1.54.74 0 1.15.61 1.15 1.54 0 .94-.41 1.5-1.15 1.5zm3.49.98h1.16v-4.9h-1.16v4.9zm.58-5.6c.37 0 .67-.29.67-.63 0-.35-.3-.63-.67-.63-.37 0-.67.28-.67.63 0 .34.3.62.67.62zm2.92 2.72c0-.7.43-1.12 1.04-1.12.6 0 .96.4.96 1.05V135h1.15v-3.13c0-1.17-.67-1.84-1.68-1.84-.73 0-1.24.35-1.46.9h-.06v-.84h-1.1V135h1.15v-2.88z"/><g opacity=".15"><path fill="#364152" d="M271 28a4 4 0 014-4h196a4 4 0 014 4v147a4 4 0 01-4 4H275a4 4 0 01-4-4V28z"/><path fill="#fff" d="M279 56h188v115H279V56z"/><path fill="#EC665A" fill-rule="evenodd" d="M283 36a4 4 0 110 8 4 4 0 010-8z" clip-rule="evenodd"/><path fill="#FACA15" fill-rule="evenodd" d="M295 36a4 4 0 110 8 4 4 0 010-8z" clip-rule="evenodd"/><path fill="#72C047" fill-rule="evenodd" d="M307 36a4 4 0 110 8 4 4 0 010-8z" clip-rule="evenodd"/><path fill="#000" d="M320 40a11 11 0 0111-11h85a11 11 0 010 22h-85a11 11 0 01-11-11z" opacity=".4"/><path fill="#fff" d="M336.17 41.74c0 .92-.69 1.37-1.28 1.37-.66 0-1.11-.48-1.11-1.22v-3.34h-1.07V42c0 1.36.75 2.06 1.8 2.06a1.7 1.7 0 001.62-1.01h.06V44h1.04v-5.45h-1.06v3.19zm2.5 2.26h1.05v-3.33c0-.71.55-1.23 1.3-1.23.23 0 .48.04.56.06V38.5a4.3 4.3 0 00-.45-.03c-.64 0-1.19.37-1.39.95h-.05v-.86h-1.03V44zm4.9-7.27h-1.07V44h1.06v-7.27zm2.12 7.34c.39 0 .7-.32.7-.71 0-.39-.31-.7-.7-.7-.4 0-.71.31-.71.7 0 .4.32.7.7.7zm4.43.04c1.29 0 2.12-.77 2.24-1.84h-1.03c-.14.6-.6.94-1.2.94-.9 0-1.48-.75-1.48-1.94 0-1.17.59-1.9 1.48-1.9.67 0 1.08.43 1.2.94h1.03c-.11-1.1-1.01-1.84-2.25-1.84-1.54 0-2.53 1.16-2.53 2.83 0 1.64.96 2.81 2.54 2.81zm5.67 0c1.54 0 2.54-1.13 2.54-2.81 0-1.7-1-2.83-2.54-2.83s-2.54 1.13-2.54 2.83c0 1.68 1 2.81 2.54 2.81zm0-.9c-1 0-1.47-.87-1.47-1.92 0-1.04.47-1.93 1.48-1.93 1 0 1.46.89 1.46 1.93 0 1.05-.47 1.93-1.46 1.93zm3.73.79h1.06v-3.36c0-.74.52-1.25 1.12-1.25.59 0 1 .4 1 .98V44h1.06v-3.48c0-.65.4-1.13 1.1-1.13.55 0 1.01.31 1.01 1.05V44h1.06v-3.66c0-1.24-.7-1.87-1.68-1.87-.78 0-1.37.38-1.63.96h-.06c-.24-.6-.74-.96-1.47-.96-.72 0-1.26.36-1.48.96h-.07v-.88h-1.02V44z"/><rect width="99" height="21" x="323.5" y="103.5" fill="#475569" stroke="#475569" rx="3.5"/><path fill="#fff" d="M361.63 117h4.07v-1h-2.88v-5.55h-1.19V117zm7.19.1c1.44 0 2.35-1.02 2.35-2.53 0-1.53-.91-2.54-2.35-2.54s-2.35 1.01-2.35 2.53c0 1.52.91 2.54 2.35 2.54zm0-.93c-.8 0-1.18-.71-1.18-1.6 0-.9.39-1.63 1.19-1.63.78 0 1.17.72 1.17 1.62 0 .9-.4 1.6-1.18 1.6zm5.47 2.75c1.32 0 2.3-.6 2.3-1.84v-4.99h-1.14v.81h-.06a1.46 1.46 0 00-1.41-.87c-1.14 0-2.03.89-2.03 2.5 0 1.6.9 2.4 2.03 2.4.83 0 1.23-.45 1.4-.81h.06v.93c0 .7-.47 1-1.13 1-.7 0-1-.33-1.15-.6l-1.04.25c.21.67.92 1.22 2.17 1.22zm0-2.9c-.76 0-1.16-.6-1.16-1.5 0-.89.4-1.54 1.17-1.54.74 0 1.15.61 1.15 1.54 0 .94-.41 1.5-1.15 1.5zm3.49.98h1.16v-4.9h-1.16v4.9zm.58-5.6c.37 0 .67-.29.67-.63 0-.35-.3-.63-.67-.63-.37 0-.67.28-.67.63 0 .34.3.62.67.62zm2.92 2.72c0-.7.43-1.12 1.04-1.12.6 0 .96.4.96 1.05V117h1.15v-3.13c0-1.17-.67-1.84-1.68-1.84-.73 0-1.24.35-1.46.9h-.06v-.84h-1.1V117h1.15v-2.88z"/></g><path fill="#000" d="M255.19 219.34a.7.7 0 01.22-.55.8.8 0 01.58-.21c.25 0 .45.07.6.21a.7.7 0 01.22.55c0 .23-.07.42-.22.56a.83.83 0 01-.6.21.8.8 0 01-.58-.21.74.74 0 01-.22-.56zm4.97-3.24h-1V215h1v-1.14l1.3-.37V215h2.62v1.1h-2.62v1.43c0 .51.1.89.29 1.12a1 1 0 00.8.34c.19 0 .35-.02.5-.06a1.9 1.9 0 00.7-.39l.28-.22.6.9c-.12.13-.26.26-.43.37a3.9 3.9 0 01-1.16.48c-.22.05-.43.07-.63.07-.75 0-1.31-.2-1.7-.62-.37-.42-.55-1.08-.55-1.99v-1.43zm7.84 2.49h.38l.97-3.59h1.34l-1.42 4.51c-.12.37-.25.71-.37 1.02a3.7 3.7 0 01-.42.81c-.16.23-.35.4-.57.52-.21.13-.47.19-.79.19a1.6 1.6 0 01-.8-.21 1.61 1.61 0 01-.3-.18 1.65 1.65 0 01-.22-.17l.67-.89c.09.07.2.14.31.2.12.07.24.1.34.1.2 0 .36-.07.47-.21.12-.14.24-.37.34-.69h-.7l-2.09-5h1.41l1.45 3.59zM271 215h1.7l.15.6h.04c.35-.5.9-.74 1.68-.74.3 0 .58.05.84.15.26.1.48.24.66.45.19.2.33.47.43.78.1.31.15.69.15 1.13 0 .43-.06.81-.17 1.16-.12.34-.28.63-.5.87a2.1 2.1 0 01-.77.55c-.3.13-.66.19-1.05.19-.2 0-.41-.02-.61-.05a1.6 1.6 0 01-.5-.14V222h-1.3v-5.9h-.75V215zm3.18.96c-.25 0-.49.06-.7.19a1 1 0 00-.43.57v2.08c.1.07.22.13.4.18.18.04.36.06.54.06a1.12 1.12 0 00.94-.4c.12-.14.21-.32.28-.53.06-.21.1-.47.1-.77 0-.44-.1-.78-.32-1.02a1.04 1.04 0 00-.81-.36zm8.15 3.51c-.08.08-.2.16-.34.24a3.36 3.36 0 01-1.08.37 3.9 3.9 0 01-1.85-.12c-.33-.12-.61-.3-.85-.52a2.42 2.42 0 01-.54-.83 3.2 3.2 0 01-.18-1.11c0-.44.07-.82.21-1.15.14-.33.33-.61.57-.83.25-.22.54-.38.86-.49a3.22 3.22 0 011.84-.07c.28.07.53.18.75.35.23.16.41.38.55.65.15.27.22.62.22 1.04 0 .29-.03.6-.1.93h-3.6c.01.21.05.4.13.54.1.15.2.27.33.36.14.1.3.16.47.21a2.89 2.89 0 001.55-.08c.26-.1.47-.2.63-.34l.43.85zm-2.16-3.57c-.17 0-.33.02-.49.07-.15.05-.29.12-.42.21-.12.09-.22.2-.3.33-.08.13-.12.28-.14.45h2.46c0-.33-.09-.58-.28-.77-.18-.2-.45-.29-.83-.29zm4 3h1.14v-4.8h-.96v1.21h-1.1V213h5.48v2.31h-1.1v-1.21h-.95v4.8h1.13v1.1h-3.64v-1.1zm10.16.57c-.09.08-.2.16-.34.24a3.46 3.46 0 01-1.08.37 3.92 3.92 0 01-1.85-.12c-.34-.12-.62-.3-.85-.52a2.4 2.4 0 01-.54-.83 3.2 3.2 0 01-.18-1.11c0-.44.07-.82.2-1.15.15-.33.34-.61.58-.83.24-.22.53-.38.86-.49a3.22 3.22 0 011.84-.07c.27.07.52.18.75.35.22.16.4.38.55.65.14.27.22.62.22 1.04 0 .29-.04.6-.1.93h-3.6c0 .21.05.4.13.54.08.15.2.27.33.36.14.1.3.16.47.21a2.9 2.9 0 001.55-.08c.26-.1.47-.2.63-.34l.43.85zm-2.16-3.57c-.18 0-.34.02-.5.07-.15.05-.29.12-.41.21s-.22.2-.3.33c-.08.13-.13.28-.14.45h2.46c0-.33-.1-.58-.28-.77-.18-.2-.46-.29-.83-.29zm4.92 1.52l-1.74-2.42h1.55l1.13 1.67 1.18-1.67h1.41l-1.7 2.4 1.8 2.6h-1.5l-1.28-1.84-1.29 1.84h-1.42l1.86-2.58zm5.05-1.32h-1V215h1v-1.14l1.3-.37V215h2.62v1.1h-2.62v1.43c0 .51.1.89.29 1.12a1 1 0 00.8.34c.19 0 .35-.02.5-.06a1.94 1.94 0 00.7-.39l.28-.22.6.9a2 2 0 01-.43.37 3.9 3.9 0 01-1.16.48c-.21.05-.43.07-.63.07-.75 0-1.31-.2-1.7-.62-.37-.42-.55-1.08-.55-1.99v-1.43zm9.38 6.02a4.62 4.62 0 01-1.36-.44 3.99 3.99 0 01-1.98-2.25c-.2-.53-.3-1.15-.3-1.86 0-.7.1-1.32.3-1.85a4.05 4.05 0 011.99-2.29c.44-.23.89-.38 1.35-.47l.25 1.07c-.24.05-.5.15-.8.29-.3.13-.58.34-.84.61-.27.27-.5.61-.69 1.04-.18.43-.26.96-.26 1.6a3.42 3.42 0 00.99 2.58 3.3 3.3 0 001.6.88l-.25 1.09zm69.59-2.76c0-.23.07-.4.22-.54.15-.13.34-.2.57-.2.37 0 .64.12.83.36.18.24.28.54.28.89a2.08 2.08 0 01-.63 1.46 2.5 2.5 0 01-1.31.67l-.27-.55c.16-.04.32-.1.48-.17a1.81 1.81 0 00.78-.66c.1-.15.14-.3.16-.48-.2.04-.37.04-.51.01a.8.8 0 01-.35-.15.72.72 0 01-.2-.28 1.07 1.07 0 01-.05-.36zm70.97 1.67a3.3 3.3 0 001.6-.88c.27-.27.5-.61.7-1.03.2-.42.3-.94.3-1.55a4 4 0 00-.29-1.6c-.18-.43-.4-.77-.67-1.04a2.76 2.76 0 00-.85-.61c-.3-.14-.56-.24-.79-.29l.24-1.07c.47.09.92.24 1.36.47a4.05 4.05 0 011.98 2.29c.2.53.31 1.15.31 1.85 0 .7-.1 1.33-.3 1.86a3.99 3.99 0 01-1.98 2.25c-.45.22-.9.37-1.37.44l-.24-1.09zM255.2 235.34a.7.7 0 01.22-.55.8.8 0 01.58-.21c.25 0 .45.07.6.21a.7.7 0 01.22.55c0 .23-.07.42-.22.56a.83.83 0 01-.6.21.8.8 0 01-.58-.21.74.74 0 01-.22-.56zm4.97-3.24h-1V231h1v-1.14l1.3-.37V231h2.62v1.1h-2.62v1.43c0 .51.1.89.29 1.12a1 1 0 00.8.34c.19 0 .35-.02.5-.06a1.9 1.9 0 00.7-.39l.28-.22.6.9c-.12.13-.26.26-.43.37a3.9 3.9 0 01-1.16.48c-.22.05-.43.07-.63.07-.75 0-1.31-.2-1.7-.62-.37-.42-.55-1.08-.55-1.99v-1.43zm7.84 2.49h.38l.97-3.59h1.34l-1.42 4.51c-.12.37-.25.71-.37 1.02a3.7 3.7 0 01-.42.81c-.16.23-.35.4-.57.52-.21.13-.47.19-.79.19a1.6 1.6 0 01-.8-.21 1.61 1.61 0 01-.3-.18 1.65 1.65 0 01-.22-.17l.67-.89c.09.07.2.14.31.2.12.07.24.1.34.1.2 0 .36-.07.47-.21.12-.14.24-.37.34-.69h-.7l-2.09-5h1.41l1.45 3.59zM271 231h1.7l.15.6h.04c.35-.5.9-.74 1.68-.74.3 0 .58.05.84.15.26.1.48.24.66.45.19.2.33.47.43.78.1.31.15.69.15 1.13 0 .43-.06.81-.17 1.16-.12.34-.28.63-.5.87a2.1 2.1 0 01-.77.55c-.3.13-.66.19-1.05.19-.2 0-.41-.02-.61-.05a1.6 1.6 0 01-.5-.14V238h-1.3v-5.9h-.75V231zm3.18.96c-.25 0-.49.06-.7.19a1 1 0 00-.43.57v2.08c.1.07.22.13.4.18.18.04.36.06.54.06a1.12 1.12 0 00.94-.4c.12-.14.21-.32.28-.53.06-.21.1-.47.1-.77 0-.44-.1-.78-.32-1.02a1.04 1.04 0 00-.81-.36zm8.15 3.51c-.08.08-.2.16-.34.24a3.36 3.36 0 01-1.08.37 3.9 3.9 0 01-1.85-.12c-.33-.12-.61-.3-.85-.52a2.42 2.42 0 01-.54-.83 3.2 3.2 0 01-.18-1.11c0-.44.07-.82.21-1.15.14-.33.33-.61.57-.83.25-.22.54-.38.86-.49a3.22 3.22 0 011.84-.07c.28.07.53.18.75.35.23.16.41.38.55.65.15.27.22.62.22 1.04 0 .29-.03.6-.1.93h-3.6c.01.21.05.4.13.54.1.15.2.27.33.36.14.1.3.16.47.21a2.89 2.89 0 001.55-.08c.26-.1.47-.2.63-.34l.43.85zm-2.16-3.57c-.17 0-.33.02-.49.07-.15.05-.29.12-.42.21-.12.09-.22.2-.3.33-.08.13-.12.28-.14.45h2.46c0-.33-.09-.58-.28-.77-.18-.2-.45-.29-.83-.29zm4 3h1.14v-4.8h-.96v1.21h-1.1V229h5.48v2.31h-1.1v-1.21h-.95v4.8h1.13v1.1h-3.64v-1.1zm10.16.57c-.09.08-.2.16-.34.24a3.46 3.46 0 01-1.08.37 3.92 3.92 0 01-1.85-.12c-.34-.12-.62-.3-.85-.52a2.4 2.4 0 01-.54-.83 3.2 3.2 0 01-.18-1.11c0-.44.07-.82.2-1.15.15-.33.34-.61.58-.83.24-.22.53-.38.86-.49a3.22 3.22 0 011.84-.07c.27.07.52.18.75.35.22.16.4.38.55.65.14.27.22.62.22 1.04 0 .29-.04.6-.1.93h-3.6c0 .21.05.4.13.54.08.15.2.27.33.36.14.1.3.16.47.21a2.9 2.9 0 001.55-.08c.26-.1.47-.2.63-.34l.43.85zm-2.16-3.57c-.18 0-.34.02-.5.07-.15.05-.29.12-.41.21s-.22.2-.3.33c-.08.13-.13.28-.14.45h2.46c0-.33-.1-.58-.28-.77-.18-.2-.46-.29-.83-.29zm4.92 1.52l-1.74-2.42h1.55l1.13 1.67 1.18-1.67h1.41l-1.7 2.4 1.8 2.6h-1.5l-1.28-1.84-1.29 1.84h-1.42l1.86-2.58zm5.05-1.32h-1V231h1v-1.14l1.3-.37V231h2.62v1.1h-2.62v1.43c0 .51.1.89.29 1.12a1 1 0 00.8.34c.19 0 .35-.02.5-.06a1.94 1.94 0 00.7-.39l.28-.22.6.9a2 2 0 01-.43.37 3.9 3.9 0 01-1.16.48c-.21.05-.43.07-.63.07-.75 0-1.31-.2-1.7-.62-.37-.42-.55-1.08-.55-1.99v-1.43zm9.38 6.02a4.62 4.62 0 01-1.36-.44 3.99 3.99 0 01-1.98-2.25c-.2-.53-.3-1.15-.3-1.86 0-.7.1-1.32.3-1.85a4.05 4.05 0 011.99-2.29c.44-.23.89-.38 1.35-.47l.25 1.07c-.24.05-.5.15-.8.29-.3.13-.58.34-.84.61-.27.27-.5.61-.69 1.04-.18.43-.26.96-.26 1.6a3.42 3.42 0 00.99 2.58 3.3 3.3 0 001.6.88l-.25 1.09zm45.6-2.76c0-.23.08-.4.22-.54.16-.13.35-.2.57-.2.37 0 .65.12.83.36.19.24.28.54.28.89a2.11 2.11 0 01-.63 1.46 2.5 2.5 0 01-1.31.67l-.27-.55c.16-.04.32-.1.48-.17.17-.07.32-.17.45-.28.14-.1.25-.23.33-.38.1-.15.15-.3.16-.48-.2.04-.37.04-.5.01a.8.8 0 01-.36-.15.72.72 0 01-.19-.28 1.07 1.07 0 01-.06-.36zm70.98 1.67a3.32 3.32 0 002.3-1.91c.19-.42.29-.94.29-1.55 0-.64-.1-1.17-.28-1.6-.18-.43-.4-.77-.67-1.04a2.76 2.76 0 00-.85-.61c-.3-.14-.56-.24-.8-.29l.25-1.07c.46.09.92.24 1.36.47a4.05 4.05 0 011.98 2.29c.2.53.3 1.15.3 1.85 0 .7-.1 1.33-.3 1.86a3.99 3.99 0 01-1.98 2.25c-.44.22-.9.37-1.36.44l-.24-1.09zm-172.9 14.31a.7.7 0 01.22-.55.8.8 0 01.58-.21c.25 0 .45.07.6.21a.7.7 0 01.22.55c0 .23-.07.42-.22.56a.83.83 0 01-.6.21.8.8 0 01-.58-.21.74.74 0 01-.22-.56zm9.27.18c-.28.2-.6.36-.96.47-.37.1-.75.15-1.15.15a3.3 3.3 0 01-1.16-.19c-.34-.13-.62-.3-.85-.53-.23-.23-.4-.51-.52-.84a3.11 3.11 0 01.03-2.2 2.38 2.38 0 011.47-1.34 4.07 4.07 0 012.16-.05c.32.09.57.17.75.25V249h-1.1v-.92c-.21-.05-.42-.07-.62-.07s-.38.03-.56.09a1.3 1.3 0 00-.5.27c-.13.12-.25.27-.34.46-.1.19-.13.41-.13.67a1.4 1.4 0 00.91 1.38c.2.07.42.11.66.11.38 0 .69-.05.93-.16.24-.1.43-.2.55-.28l.43.97zm1.4-6.52H268v4.62c0 .51.07.87.2 1.07.12.2.32.3.6.3.2 0 .38-.02.51-.06.14-.05.27-.11.4-.19l.5.9-.35.21c-.11.06-.23.11-.36.15a2.77 2.77 0 01-.92.14c-.62 0-1.1-.16-1.4-.48-.32-.32-.48-.77-.48-1.36v-4.2h-.83V245zm5.72 5.9h1.76v-2.8h-1.76V247h3.06v3.9h1.85v1.1h-4.91v-1.1zm1.52-5.26c0-.2.07-.38.23-.53a.89.89 0 01.64-.22c.28 0 .5.07.67.22.17.15.25.32.25.53 0 .21-.08.39-.25.53-.17.13-.4.2-.67.2a.95.95 0 01-.64-.2.69.69 0 01-.23-.53zm9.34 5.88c-.27.2-.59.36-.96.47-.36.1-.75.15-1.15.15a3.3 3.3 0 01-1.16-.19c-.33-.13-.61-.3-.85-.53-.22-.23-.4-.51-.52-.84a3.11 3.11 0 01.03-2.2c.14-.33.34-.6.58-.83.26-.23.55-.4.9-.51a4.06 4.06 0 012.16-.05c.32.09.57.17.74.25V249h-1.1v-.92c-.2-.05-.4-.07-.62-.07-.18 0-.37.03-.56.09a1.3 1.3 0 00-.49.27c-.14.12-.25.27-.35.46a1.6 1.6 0 00-.13.67c0 .21.04.41.11.59a1.42 1.42 0 00.8.79c.2.07.42.11.66.11.38 0 .7-.05.93-.16.25-.1.43-.2.55-.28l.43.97zm.54-6.52h2.12v3.99h.3l1.64-1.99h1.53l-2.02 2.28 1.31 1.62h.93v1.1h-1.62l-1.72-2.07h-.35V252h-1.3v-5.9h-.82V245zm10.55 9.12a4.62 4.62 0 01-1.36-.44 3.99 3.99 0 01-2-2.25c-.2-.53-.3-1.15-.3-1.86 0-.7.1-1.32.3-1.85.21-.54.49-1 .83-1.38.34-.38.73-.68 1.17-.91.44-.23.89-.38 1.36-.47l.24 1.07c-.24.05-.5.15-.8.29-.3.13-.58.34-.84.61-.27.27-.5.61-.68 1.04-.18.43-.27.96-.27 1.6a3.4 3.4 0 00.99 2.58 3.3 3.3 0 001.6.88l-.24 1.09zm56.6-1.09a3.32 3.32 0 002.3-1.91c.2-.42.3-.94.3-1.55 0-.64-.1-1.17-.28-1.6-.18-.43-.4-.77-.67-1.04a2.76 2.76 0 00-.85-.61c-.3-.14-.56-.24-.8-.29l.25-1.07c.46.09.92.24 1.36.47a4.05 4.05 0 011.98 2.29c.2.53.3 1.15.3 1.85 0 .7-.1 1.33-.3 1.86a3.99 3.99 0 01-1.98 2.25c-.44.22-.9.37-1.36.44l-.24-1.09z"/><path fill="#3F83F8" d="M315.4 213h1.13l-.36 3.16h-.78V213zm6.66 4.95h-.9l-.35 1.54h-1.07l.36-1.54h-.74l.22-.97h.75l.25-1.06h-.72l.22-.97h.73l.35-1.44h1.06l-.34 1.44h.89l.35-1.44h1.06l-.34 1.44h.72l-.25.97h-.7l-.25 1.06h.69l-.24.97h-.68l-.36 1.54h-1.07l.36-1.54zm-.66-.97h.89l.25-1.06h-.9l-.24 1.06zm6.85-1.98h1.86v3.9h.76v1.1h-1.58l-.23-.74h-.04c-.15.25-.38.46-.69.63a2.33 2.33 0 01-1.72.15c-.2-.07-.38-.18-.53-.33a1.53 1.53 0 01-.34-.62 3.39 3.39 0 01-.12-.98v-2.01h-.57V215h1.87v2.84c0 .4.07.7.2.88.13.18.33.27.61.27.25 0 .47-.07.66-.22.2-.15.34-.33.42-.54v-2.13h-.56V215zm6.72 3.62c0-.13-.08-.24-.25-.32a3.4 3.4 0 00-.6-.22l-.8-.2a3.95 3.95 0 01-.78-.29 2.16 2.16 0 01-.61-.47c-.16-.2-.24-.44-.24-.74 0-.25.05-.46.16-.65s.26-.34.45-.47c.2-.13.42-.23.68-.3a4.64 4.64 0 012.36.14 4.79 4.79 0 01.81.45l-.55.89-.35-.18a3.15 3.15 0 00-1.32-.36c-.28 0-.5.04-.68.11-.17.07-.26.19-.26.34 0 .12.08.22.24.29l.6.21.8.2c.29.07.55.17.79.29.24.11.44.26.6.45.17.19.25.43.25.72 0 .5-.19.9-.56 1.2-.37.29-.91.43-1.64.43a3.55 3.55 0 01-2.49-.85l.6-.94c.09.07.2.16.34.25a3.66 3.66 0 001.67.5c.21 0 .4-.04.55-.11.15-.07.23-.2.23-.37zm7.31.85c-.08.08-.2.16-.33.24a3.36 3.36 0 01-1.08.37 3.9 3.9 0 01-1.86-.12c-.33-.12-.61-.3-.84-.52a2.42 2.42 0 01-.55-.83 3.2 3.2 0 01-.18-1.11c0-.44.07-.82.21-1.15.15-.33.34-.61.58-.83.24-.22.53-.38.85-.49a3.22 3.22 0 011.85-.07c.27.07.52.18.75.35.22.16.4.38.55.65.14.27.21.62.21 1.04 0 .29-.03.6-.1.93h-3.6c.01.21.06.4.13.54.1.15.2.27.33.36.15.1.3.16.48.21a2.89 2.89 0 001.55-.08c.25-.1.46-.2.63-.34l.43.85zm-2.15-3.57c-.18 0-.34.02-.5.07-.15.05-.29.12-.42.21-.11.09-.21.2-.3.33-.08.13-.12.28-.14.45h2.47c0-.33-.1-.58-.29-.77-.18-.2-.45-.29-.82-.29zm3.2 3h1.24v-2.8h-1.24V215h2.25l.15.66h.04c.19-.22.4-.4.64-.55.24-.15.52-.22.84-.22.4 0 .71.15.94.44.24.3.35.78.35 1.47h-1.17c0-.24-.04-.41-.1-.52-.07-.11-.19-.17-.34-.17-.26 0-.48.07-.65.2-.16.13-.3.29-.4.46v2.13h2.16v1.1h-4.7v-1.1zm5.73-3.9h1.75l.15.66h.04a2.08 2.08 0 011.69-.8c.24 0 .47.03.69.1a1.33 1.33 0 01.92.96c.1.26.14.58.14.97V220h-1.3v-2.84c0-.4-.1-.7-.28-.88a.93.93 0 00-.7-.27c-.24 0-.47.07-.67.22-.2.14-.34.32-.41.53V220h-1.3v-3.9h-.72V215zm6.77.34a5.5 5.5 0 012.17-.44c.35 0 .64.04.88.13a1.33 1.33 0 01.92.9c.07.21.1.45.1.72 0 .34-.01.63-.04.87a7.8 7.8 0 00.02 1.38h.65v1.1h-1.66l-.13-.68h-.05c-.13.2-.32.39-.57.54-.24.15-.58.22-1 .22-.5 0-.9-.13-1.19-.4-.29-.27-.44-.62-.44-1.06 0-.28.05-.52.15-.72.11-.2.26-.37.45-.5.2-.13.44-.23.71-.29a4 4 0 011.31-.08l.5.04.01-.2v-.19c0-.25-.07-.43-.22-.54a1.05 1.05 0 00-.65-.17c-.34 0-.64.04-.92.13-.27.09-.5.17-.69.26l-.3-1.02zm1.71 3.67c.32 0 .56-.06.72-.17.16-.12.28-.25.35-.38v-.6a3.41 3.41 0 00-.3-.04 2.91 2.91 0 00-.8.01c-.13.02-.25.06-.35.11a.63.63 0 00-.24.19.47.47 0 00-.09.29c0 .19.06.33.16.44.12.1.3.15.55.15zm5.8.99v-3.06c0-.2-.01-.36-.04-.48a.82.82 0 00-.11-.29.27.27 0 00-.16-.14.46.46 0 00-.19-.04.53.53 0 00-.51.39V220h-1.2v-5h.95l.14.55h.03c.1-.2.25-.35.44-.47a1.32 1.32 0 011.31-.03c.2.1.34.3.41.56.1-.23.25-.41.46-.53a1.35 1.35 0 011.15-.11c.15.05.27.13.38.26.1.13.19.3.24.52.06.21.09.49.09.83V220h-1.2v-3.2c0-.3-.05-.51-.15-.63a.43.43 0 00-.35-.18.53.53 0 00-.31.09.42.42 0 00-.18.27V220h-1.2zm8.93-.53c-.1.08-.2.16-.34.24a3.46 3.46 0 01-1.08.37 3.92 3.92 0 01-1.85-.12c-.34-.12-.62-.3-.85-.52a2.4 2.4 0 01-.54-.83 3.2 3.2 0 01-.18-1.11c0-.44.07-.82.2-1.15.15-.33.34-.61.58-.83.24-.22.53-.38.86-.49a3.22 3.22 0 011.84-.07c.27.07.52.18.75.35.22.16.4.38.55.65.14.27.22.62.22 1.04 0 .29-.04.6-.1.93h-3.6c0 .21.05.4.13.54.08.15.2.27.33.36.14.1.3.16.47.21a2.9 2.9 0 001.55-.08c.26-.1.47-.2.63-.34l.43.85zm-2.16-3.57c-.18 0-.34.02-.5.07-.15.05-.29.12-.41.21s-.22.2-.3.33c-.08.13-.13.28-.14.45h2.46c0-.33-.1-.58-.28-.77-.18-.2-.46-.29-.83-.29zm5.24-2.9h1.14l-.36 3.16h-.78V213zm17.99 0h1.14l-.36 3.16h-.78V213zm6.87 2h1.86v3.9h.76v1.1h-1.58l-.23-.74h-.04c-.16.25-.39.46-.7.63a2.33 2.33 0 01-1.72.15c-.2-.07-.38-.18-.52-.33a1.54 1.54 0 01-.34-.62 3.39 3.39 0 01-.12-.98v-2.01H397V215h1.87v2.84c0 .4.06.7.19.88.13.18.34.27.62.27.24 0 .46-.07.66-.22s.34-.33.42-.54v-2.13h-.56V215zm6.71 3.62c0-.13-.08-.24-.25-.32a3.4 3.4 0 00-.6-.22l-.79-.2a3.95 3.95 0 01-.79-.29 2.16 2.16 0 01-.6-.47c-.17-.2-.25-.44-.25-.74 0-.25.06-.46.16-.65.12-.19.27-.34.45-.47.2-.13.42-.23.68-.3a4.64 4.64 0 012.36.14 4.79 4.79 0 01.81.45l-.55.89c-.1-.06-.21-.12-.35-.18a3.15 3.15 0 00-1.32-.36c-.28 0-.5.04-.68.11-.17.07-.26.19-.26.34 0 .12.08.22.24.29.17.07.37.14.61.21l.8.2c.28.07.54.17.78.29.24.11.44.26.6.45.17.19.25.43.25.72 0 .5-.18.9-.56 1.2-.36.29-.91.43-1.64.43a3.55 3.55 0 01-2.49-.85l.6-.94c.09.07.2.16.34.25a3.66 3.66 0 001.67.5c.22 0 .4-.04.55-.11.16-.07.23-.2.23-.37zm7.32.85c-.09.08-.2.16-.34.24a3.36 3.36 0 01-1.08.37 3.9 3.9 0 01-1.85-.12c-.34-.12-.62-.3-.85-.52a2.42 2.42 0 01-.54-.83 3.2 3.2 0 01-.18-1.11c0-.44.07-.82.2-1.15.15-.33.34-.61.58-.83.25-.22.53-.38.86-.49a3.22 3.22 0 011.84-.07c.27.07.52.18.75.35.23.16.4.38.55.65.14.27.22.62.22 1.04 0 .29-.03.6-.1.93h-3.6c0 .21.05.4.13.54.09.15.2.27.33.36.14.1.3.16.47.21a2.89 2.89 0 001.55-.08c.26-.1.47-.2.63-.34l.43.85zm-2.16-3.57c-.18 0-.34.02-.5.07-.14.05-.28.12-.41.21-.12.09-.22.2-.3.33-.08.13-.13.28-.14.45h2.46c0-.33-.1-.58-.28-.77-.18-.2-.46-.29-.83-.29zm3.2 3h1.25v-2.8h-1.24V215h2.25l.14.66h.05c.18-.22.4-.4.63-.55.25-.15.52-.22.84-.22.4 0 .72.15.94.44.24.3.36.78.36 1.47h-1.18c0-.24-.03-.41-.1-.52-.07-.11-.18-.17-.34-.17a1 1 0 00-.64.2c-.17.13-.3.29-.42.46v2.13H420v1.1h-4.71v-1.1zm5.73-3.9h1.75l.15.66h.04a2.08 2.08 0 011.69-.8c.25 0 .48.03.7.1a1.33 1.33 0 01.91.96c.1.26.14.58.14.97V220h-1.3v-2.84c0-.4-.1-.7-.28-.88a.93.93 0 00-.69-.27c-.25 0-.47.07-.68.22-.2.14-.34.32-.4.53V220h-1.3v-3.9H421V215zm6.78.34a5.5 5.5 0 012.17-.44c.34 0 .64.04.88.13a1.33 1.33 0 01.92.9c.06.21.1.45.1.72 0 .34-.02.63-.04.87a7.8 7.8 0 00.02 1.38h.65v1.1h-1.66l-.13-.68h-.05c-.14.2-.33.39-.57.54-.25.15-.58.22-1 .22-.5 0-.9-.13-1.2-.4-.29-.27-.43-.62-.43-1.06 0-.28.05-.52.15-.72.1-.2.25-.37.45-.5s.43-.23.7-.29a4 4 0 011.32-.08l.49.04.02-.2v-.19c0-.25-.08-.43-.22-.54a1.05 1.05 0 00-.65-.17c-.34 0-.65.04-.92.13-.28.09-.5.17-.7.26l-.3-1.02zm1.7 3.67c.33 0 .57-.06.73-.17.16-.12.27-.25.35-.38v-.6a3.41 3.41 0 00-.3-.04 2.91 2.91 0 00-.81.01c-.13.02-.24.06-.34.11a.63.63 0 00-.24.19.47.47 0 00-.1.29c0 .19.06.33.17.44.11.1.3.15.55.15zm5.8.99v-3.06c0-.2-.01-.36-.04-.48a.82.82 0 00-.1-.29.27.27 0 00-.17-.14.46.46 0 00-.19-.04.53.53 0 00-.5.39V220h-1.2v-5h.94l.14.55h.03c.1-.2.25-.35.44-.47a1.32 1.32 0 011.31-.03c.2.1.34.3.41.56.1-.23.26-.41.46-.53a1.35 1.35 0 011.15-.11c.15.05.28.13.38.26.1.13.19.3.24.52.06.21.1.49.1.83V220h-1.2v-3.2c0-.3-.06-.51-.16-.63a.43.43 0 00-.35-.18.53.53 0 00-.3.09.42.42 0 00-.19.27V220h-1.2zm8.93-.53c-.09.08-.2.16-.34.24a3.36 3.36 0 01-1.08.37 3.9 3.9 0 01-1.85-.12c-.33-.12-.62-.3-.85-.52a2.42 2.42 0 01-.54-.83 3.2 3.2 0 01-.18-1.11c0-.44.07-.82.2-1.15.15-.33.34-.61.58-.83.25-.22.53-.38.86-.49a3.22 3.22 0 011.84-.07c.27.07.52.18.75.35.23.16.4.38.55.65.15.27.22.62.22 1.04 0 .29-.03.6-.1.93h-3.6c0 .21.05.4.13.54.09.15.2.27.33.36.14.1.3.16.47.21a2.89 2.89 0 001.55-.08c.26-.1.47-.2.63-.34l.43.85zm-2.16-3.57c-.17 0-.34.02-.5.07-.14.05-.28.12-.41.21-.12.09-.22.2-.3.33-.08.13-.13.28-.14.45h2.46c0-.33-.1-.58-.28-.77-.18-.2-.46-.29-.83-.29zm5.25-2.9h1.13l-.36 3.16h-.77V213zm-131.92 16h1.14l-.36 3.16h-.78V229zm6.67 4.95h-.9l-.35 1.54h-1.07l.36-1.54h-.74l.22-.97h.75l.25-1.06h-.72l.22-.97h.73l.35-1.44h1.06l-.34 1.44h.89l.35-1.44h1.06l-.34 1.44h.72l-.25.97h-.7l-.25 1.06h.69l-.24.97h-.68l-.36 1.54h-1.07l.36-1.54zm-.66-.97h.89l.25-1.06h-.9l-.24 1.06zm3.55-1.98h1.7l.15.6h.04c.35-.5.91-.74 1.68-.74.31 0 .59.05.84.15.26.1.48.24.66.45.19.2.33.47.43.78.1.31.15.69.15 1.13 0 .43-.05.81-.17 1.16-.11.34-.27.63-.49.87a2.1 2.1 0 01-.78.55c-.3.13-.65.19-1.05.19-.2 0-.4-.02-.6-.05-.2-.03-.37-.07-.5-.14V238h-1.3v-5.9h-.76V231zm3.18.96c-.25 0-.48.06-.7.19a1 1 0 00-.43.57v2.08c.1.07.23.13.4.18.18.04.36.06.54.06a1.12 1.12 0 00.94-.4c.12-.14.22-.32.28-.53.07-.21.1-.47.1-.77 0-.44-.1-.78-.32-1.02a1.04 1.04 0 00-.8-.36zm3.72-.62a5.28 5.28 0 012.17-.44c.35 0 .64.04.88.13.25.08.44.2.59.35.15.15.26.34.33.55.07.21.1.45.1.72 0 .34-.01.63-.04.87a7.8 7.8 0 00.02 1.38h.65v1.1h-1.66l-.13-.68h-.05c-.13.2-.32.39-.57.54-.25.15-.58.22-1 .22-.5 0-.9-.13-1.2-.4-.28-.27-.43-.62-.43-1.06 0-.28.05-.52.15-.72.1-.2.26-.37.45-.5.2-.13.44-.23.7-.29a4 4 0 011.32-.08l.49.04a.97.97 0 00.02-.2v-.19c0-.25-.07-.43-.22-.54a1.05 1.05 0 00-.65-.17c-.34 0-.65.04-.92.13s-.5.17-.7.26l-.3-1.02zm1.7 3.67c.33 0 .57-.06.73-.17.16-.12.28-.25.35-.38v-.6a3.3 3.3 0 00-.3-.04 2.9 2.9 0 00-.81.01c-.13.02-.24.06-.34.11a.63.63 0 00-.24.19.47.47 0 00-.1.29c0 .19.06.33.17.44.11.1.3.15.55.15zm7.41-.39c0-.13-.08-.24-.25-.32a3.4 3.4 0 00-.6-.22l-.79-.2a3.95 3.95 0 01-.78-.29 2.16 2.16 0 01-.62-.47c-.16-.2-.24-.44-.24-.74 0-.25.06-.46.17-.65.1-.19.26-.34.44-.47.2-.13.42-.23.69-.3a4.64 4.64 0 012.36.14 4.79 4.79 0 01.81.45l-.55.89-.36-.18a3.15 3.15 0 00-1.31-.36c-.29 0-.51.04-.69.11-.17.07-.25.19-.25.34 0 .12.07.22.24.29.16.07.37.14.6.21l.8.2c.28.07.55.17.79.29.23.11.44.26.6.45.16.19.25.43.25.72 0 .5-.2.9-.56 1.2-.37.29-.92.43-1.64.43a3.55 3.55 0 01-2.49-.85l.6-.94.33.25a3.66 3.66 0 001.68.5c.2 0 .4-.04.55-.11.15-.07.22-.2.22-.37zm6 0c0-.13-.08-.24-.25-.32a3.4 3.4 0 00-.6-.22l-.79-.2a3.95 3.95 0 01-.79-.29 2.16 2.16 0 01-.6-.47c-.17-.2-.25-.44-.25-.74 0-.25.06-.46.16-.65.12-.19.27-.34.45-.47.2-.13.42-.23.68-.3a4.64 4.64 0 012.36.14 4.79 4.79 0 01.81.45l-.55.89c-.1-.06-.21-.12-.35-.18a3.15 3.15 0 00-1.32-.36c-.28 0-.5.04-.68.11-.17.07-.26.19-.26.34 0 .12.08.22.24.29.17.07.37.14.61.21l.8.2c.28.07.54.17.78.29.24.11.44.26.6.45.17.19.25.43.25.72 0 .5-.19.9-.56 1.2-.37.29-.91.43-1.64.43a3.55 3.55 0 01-2.49-.85l.6-.94c.09.07.2.16.34.25a3.66 3.66 0 001.67.5c.21 0 .4-.04.55-.11.15-.07.23-.2.23-.37zm4.4-5.62h1.15l-.36 3.16h-.78V229zm18 0h1.14l-.36 3.16h-.78V229zm5.97 7v-3.06c0-.2-.01-.36-.04-.48a.8.8 0 00-.1-.29.27.27 0 00-.17-.14.46.46 0 00-.19-.04.53.53 0 00-.5.39V236h-1.2v-5h.94l.14.55h.03c.1-.2.25-.35.44-.47a1.32 1.32 0 011.31-.03c.2.1.34.3.41.56.1-.23.25-.41.46-.53a1.35 1.35 0 011.15-.11c.15.05.28.13.38.26.1.13.19.3.24.52.06.21.1.49.1.83V236h-1.2v-3.2c0-.3-.06-.51-.16-.63a.43.43 0 00-.35-.18.53.53 0 00-.3.09.42.42 0 00-.19.27V236h-1.2zm6.6-1.41h.38l.97-3.59h1.34l-1.42 4.51-.37 1.02a3.7 3.7 0 01-.42.81c-.16.23-.35.4-.57.52-.21.13-.48.19-.8.19a1.6 1.6 0 01-.8-.21 1.61 1.61 0 01-.3-.18 1.52 1.52 0 01-.21-.17l.67-.89c.09.07.19.14.3.2.13.07.24.1.35.1.2 0 .35-.07.47-.21.12-.14.23-.37.34-.69h-.71l-2.08-5h1.4l1.46 3.59zm3.63-.88h1.1v.99l.06.02a2.81 2.81 0 001.09.23c.38 0 .67-.07.87-.22.21-.15.31-.36.31-.61a.67.67 0 00-.26-.55 2.48 2.48 0 00-.63-.37l-.82-.32c-.29-.1-.56-.24-.82-.4a2.41 2.41 0 01-.63-.62 1.68 1.68 0 01-.25-.96c0-.3.06-.57.17-.82a1.97 1.97 0 011.25-1.07c.3-.1.62-.15.98-.15.41 0 .81.04 1.2.11.4.07.71.17.94.3v2.03h-1.1v-1.11l-.06-.01c-.14-.04-.3-.07-.48-.09a3.12 3.12 0 00-.5-.04c-.32 0-.57.06-.76.19a.6.6 0 00-.27.51c0 .22.09.4.25.54.18.14.39.27.63.38l.82.34c.3.11.58.25.82.42.26.16.47.36.63.61.18.25.26.56.26.93a1.96 1.96 0 01-.76 1.63c-.24.18-.52.31-.85.4a3.86 3.86 0 01-1.77.08 4.96 4.96 0 01-1.42-.51v-1.86zm10.69 1.76c-.09.08-.2.16-.34.24a3.36 3.36 0 01-1.08.37 3.9 3.9 0 01-1.85-.12c-.33-.12-.62-.3-.85-.52a2.42 2.42 0 01-.54-.83 3.2 3.2 0 01-.18-1.11c0-.44.07-.82.21-1.15.14-.33.33-.61.57-.83.25-.22.53-.38.86-.49a3.22 3.22 0 011.84-.07c.27.07.52.18.75.35.23.16.41.38.55.65.15.27.22.62.22 1.04 0 .29-.03.6-.1.93h-3.6c0 .21.05.4.13.54.09.15.2.27.33.36.14.1.3.16.47.21a2.89 2.89 0 001.55-.08c.26-.1.47-.2.63-.34l.43.85zm-2.16-3.57c-.17 0-.34.02-.49.07-.15.05-.3.12-.42.21s-.22.2-.3.33c-.08.13-.13.28-.14.45h2.46c0-.33-.1-.58-.28-.77-.18-.2-.46-.29-.83-.29zm8.28 3.62c-.28.2-.6.36-.96.47-.37.1-.75.15-1.15.15a3.3 3.3 0 01-1.16-.19c-.34-.13-.62-.3-.85-.53-.23-.23-.4-.51-.52-.84a3.11 3.11 0 01.03-2.2c.14-.33.33-.6.58-.83.25-.23.55-.4.89-.51a4.06 4.06 0 012.16-.05c.32.09.57.17.75.25V233h-1.1v-.92c-.21-.05-.42-.07-.62-.07-.19 0-.38.03-.56.09a1.3 1.3 0 00-.5.27c-.13.12-.25.27-.34.46a1.6 1.6 0 00-.13.67 1.42 1.42 0 00.91 1.38c.2.07.42.11.66.11.38 0 .69-.05.93-.16.24-.1.43-.2.55-.28l.43.97zm.92-.62h1.24v-2.8h-1.24V231h2.25l.15.66h.04c.19-.22.4-.4.64-.55.24-.15.52-.22.84-.22.4 0 .72.15.94.44.24.3.35.78.35 1.47h-1.17c0-.24-.03-.41-.1-.52-.07-.11-.18-.17-.34-.17-.26 0-.48.07-.65.2-.16.13-.3.29-.4.46v2.13H408v1.1h-4.7v-1.1zm10.95.57c-.09.08-.2.16-.34.24a3.36 3.36 0 01-1.08.37 3.9 3.9 0 01-1.85-.12c-.34-.12-.62-.3-.85-.52a2.42 2.42 0 01-.54-.83 3.2 3.2 0 01-.18-1.11c0-.44.07-.82.2-1.15.15-.33.34-.61.58-.83.25-.22.53-.38.86-.49a3.22 3.22 0 011.84-.07c.27.07.52.18.75.35.23.16.4.38.55.65.14.27.22.62.22 1.04 0 .29-.03.6-.1.93h-3.6c0 .21.05.4.13.54.09.15.2.27.33.36.14.1.3.16.47.21a2.89 2.89 0 001.55-.08c.26-.1.47-.2.63-.34l.43.85zm-2.16-3.57c-.18 0-.34.02-.5.07-.14.05-.28.12-.41.21-.12.09-.22.2-.3.33-.08.13-.13.28-.14.45h2.46c0-.33-.1-.58-.28-.77-.18-.2-.46-.29-.83-.29zm3.98.2h-1V231h1v-1.14l1.3-.37V231h2.62v1.1h-2.63v1.43c0 .51.1.89.3 1.12a1 1 0 00.8.34c.19 0 .35-.02.5-.06a1.94 1.94 0 00.7-.39l.28-.22.6.9a2 2 0 01-.43.37 3.9 3.9 0 01-1.17.48c-.2.05-.42.07-.63.07-.74 0-1.3-.2-1.69-.62-.37-.42-.56-1.08-.56-1.99v-1.43zm7.26-3.1h1.14l-.36 3.16h-.78V229zM297.4 245h1.14l-.36 3.16h-.78V245zm6.67 4.95h-.9l-.35 1.54h-1.07l.36-1.54h-.74l.22-.97h.75l.25-1.06h-.72l.22-.97h.73l.35-1.44h1.06l-.34 1.44h.89l.35-1.44h1.06l-.34 1.44h.72l-.25.97h-.7l-.25 1.06h.69l-.24.97h-.68l-.36 1.54h-1.07l.36-1.54zm-.66-.97h.89l.25-1.06h-.9l-.24 1.06zm7.57 1.64c0-.13-.08-.24-.25-.32a3.4 3.4 0 00-.6-.22l-.78-.2a3.92 3.92 0 01-.8-.29 2.16 2.16 0 01-.6-.47c-.16-.2-.25-.44-.25-.74 0-.25.06-.46.17-.65.1-.19.26-.34.44-.47.2-.13.43-.23.69-.3a4.64 4.64 0 012.36.14 5.03 5.03 0 01.81.45l-.56.89c-.1-.06-.21-.12-.35-.18a3.2 3.2 0 00-1.31-.36c-.28 0-.51.04-.69.11-.17.07-.25.19-.25.34 0 .12.07.22.24.29.16.07.37.14.6.21l.8.2c.28.07.55.17.79.29.24.11.44.26.6.45.16.19.25.43.25.72 0 .5-.2.9-.56 1.2-.37.29-.92.43-1.65.43a3.53 3.53 0 01-2.49-.85l.6-.94c.1.07.2.16.35.25a3.66 3.66 0 001.66.5c.22 0 .4-.04.56-.11.15-.07.23-.2.23-.37zm5.28-3.62h1.86v3.9h.76v1.1h-1.58l-.23-.74h-.04c-.15.25-.38.46-.69.63a2.33 2.33 0 01-1.72.15c-.2-.07-.38-.18-.53-.33a1.53 1.53 0 01-.34-.62 3.39 3.39 0 01-.12-.98v-2.01h-.57V247h1.87v2.84c0 .4.06.7.2.88.12.18.33.27.61.27.25 0 .47-.07.66-.22.2-.15.34-.33.42-.54v-2.13h-.56V247zm2.57-2h2.07v2.4h.04c.14-.16.32-.29.56-.38.24-.1.53-.14.88-.14.66 0 1.18.2 1.58.62.4.41.6 1.04.6 1.87 0 .45-.07.84-.2 1.19a2.33 2.33 0 01-1.46 1.38 3.6 3.6 0 01-1.18.18 4.11 4.11 0 01-2.12-.54v-5.48h-.77V245zm3.19 2.98c-.1 0-.2.02-.31.05-.12.03-.23.08-.33.14-.1.06-.2.14-.3.23a.8.8 0 00-.18.3v2.08a2.64 2.64 0 001.04.24c.17 0 .33-.03.49-.09.16-.07.3-.17.4-.3.13-.13.22-.3.29-.5.06-.2.1-.44.1-.72 0-.47-.1-.83-.31-1.07-.2-.24-.5-.36-.9-.36zm5.34 4.02v-3.06c0-.2-.01-.36-.04-.48a.8.8 0 00-.1-.29.27.27 0 00-.17-.14.46.46 0 00-.19-.04.53.53 0 00-.5.39V252h-1.2v-5h.94l.14.55h.03c.1-.2.25-.35.44-.47a1.32 1.32 0 011.31-.03c.2.1.34.3.41.56.1-.23.26-.41.46-.53a1.35 1.35 0 011.15-.11c.15.05.28.13.38.26.11.13.19.3.24.52.06.21.1.49.1.83V252h-1.2v-3.2c0-.3-.06-.51-.16-.63a.43.43 0 00-.35-.18.53.53 0 00-.3.09.42.42 0 00-.19.27V252h-1.2zm4.18-1.1h1.76v-2.8h-1.76V247h3.06v3.9h1.85v1.1h-4.91v-1.1zm1.52-5.26c0-.2.08-.38.23-.53a.89.89 0 01.64-.22c.28 0 .5.07.67.22.17.15.25.32.25.53 0 .21-.08.39-.25.53-.17.13-.4.2-.67.2a.95.95 0 01-.64-.2.69.69 0 01-.23-.53zm5.05 2.46h-1V247h1v-1.14l1.3-.37V247h2.61v1.1h-2.62v1.43c0 .51.1.89.3 1.12a1 1 0 00.8.34c.19 0 .35-.02.5-.06a1.9 1.9 0 00.7-.39l.28-.22.6.9c-.12.13-.26.26-.44.37a3.85 3.85 0 01-1.15.48c-.22.05-.43.07-.63.07-.75 0-1.31-.2-1.7-.62-.37-.42-.56-1.08-.56-1.99v-1.43zm7.26-3.1h1.14l-.36 3.16h-.78V245z"/><path fill="#000" d="M255.67 32H257l1.83-6.54h.07l1.84 6.54h1.32l2.43-8.73h-1.4l-1.69 6.77h-.08l-1.77-6.77h-1.37l-1.77 6.76h-.08l-1.7-6.76h-1.38l2.42 8.73zm9.92 0h1.27v-6.55h-1.27V32zm.64-7.56c.44 0 .8-.34.8-.75 0-.42-.36-.77-.8-.77-.44 0-.8.35-.8.77 0 .41.36.75.8.75zm3.62 3.67c0-1.04.64-1.64 1.52-1.64.87 0 1.4.57 1.4 1.52V32h1.27v-4.16c0-1.62-.9-2.47-2.23-2.47-.99 0-1.63.46-1.93 1.15h-.08v-1.07h-1.23V32h1.28v-3.89zm8.35 4.02a2 2 0 001.89-1.15h.1V32h1.25v-8.73h-1.27v3.25h-.08c-.23-.4-.66-1.15-1.88-1.15-1.58 0-2.75 1.25-2.75 3.37s1.15 3.39 2.74 3.39zm.28-1.09c-1.14 0-1.73-1-1.73-2.31 0-1.3.58-2.28 1.73-2.28 1.11 0 1.7.9 1.7 2.28 0 1.37-.6 2.31-1.7 2.31zm7.54 1.1c1.84 0 3.05-1.36 3.05-3.38 0-2.04-1.2-3.4-3.05-3.4-1.85 0-3.06 1.36-3.06 3.4 0 2.02 1.21 3.37 3.06 3.37zm0-1.08c-1.2 0-1.77-1.05-1.77-2.3 0-1.26.56-2.33 1.77-2.33 1.2 0 1.76 1.07 1.76 2.32 0 1.26-.56 2.31-1.76 2.31zm5.69.94h1.3l1.32-4.73h.1l1.33 4.73h1.3l1.92-6.55h-1.31l-1.28 4.79h-.06l-1.28-4.79h-1.32l-1.28 4.81h-.07l-1.28-4.8h-1.32l1.93 6.54zm18.1 0h1.03l.38-2.34h1.26l.17-1.02h-1.26l.33-2H313l.16-1.03h-1.26l.38-2.34h-1.02l-.38 2.34h-2.05l.38-2.34h-1.02l-.38 2.34h-1.26l-.17 1.02h1.26l-.33 2.01h-1.27l-.16 1.02h1.26l-.38 2.34h1.02l.38-2.34h2.05l-.38 2.34zm-1.49-3.36l.33-2h2.05l-.33 2h-2.05zm5.85 3.36h5.74v-1.13h-3.93v-.06l1.74-1.82c1.6-1.61 2.05-2.38 2.05-3.36 0-1.4-1.14-2.48-2.79-2.48-1.63 0-2.82 1.06-2.82 2.65h1.26c0-.93.6-1.55 1.54-1.55.89 0 1.56.55 1.56 1.42 0 .77-.46 1.32-1.4 2.32l-2.95 3.06V32z"/><path fill="#0694A2" d="M253 46a4 4 0 014-4h196a4 4 0 014 4v147a4 4 0 01-4 4H257a4 4 0 01-4-4V46z"/><path fill="#fff" d="M261 74h188v115H261V74z"/><path fill="#EC665A" fill-rule="evenodd" d="M265 54a4 4 0 110 8 4 4 0 010-8z" clip-rule="evenodd"/><path fill="#FACA15" fill-rule="evenodd" d="M277 54a4 4 0 110 8 4 4 0 010-8z" clip-rule="evenodd"/><path fill="#72C047" fill-rule="evenodd" d="M289 54a4 4 0 110 8 4 4 0 010-8z" clip-rule="evenodd"/><path fill="#000" d="M302 58a11 11 0 0111-11h85a11 11 0 010 22h-85a11 11 0 01-11-11z" opacity=".4"/><path fill="#fff" d="M318.17 59.74c0 .92-.69 1.37-1.28 1.37-.66 0-1.11-.48-1.11-1.22v-3.34h-1.07V60c0 1.36.75 2.06 1.8 2.06a1.7 1.7 0 001.62-1.01h.06V62h1.04v-5.45h-1.06v3.19zm2.5 2.26h1.05v-3.33c0-.71.55-1.23 1.3-1.23.23 0 .48.04.56.06V56.5a4.3 4.3 0 00-.45-.03c-.64 0-1.19.37-1.39.95h-.05v-.86h-1.03V62zm4.9-7.27h-1.07V62h1.06v-7.27zm2.12 7.34c.39 0 .7-.32.7-.71 0-.39-.31-.7-.7-.7-.4 0-.71.31-.71.7 0 .4.32.7.7.7zm4.43.04c1.29 0 2.12-.77 2.24-1.84h-1.03c-.14.6-.6.94-1.2.94-.9 0-1.48-.75-1.48-1.94 0-1.17.59-1.9 1.48-1.9.67 0 1.08.43 1.2.94h1.03c-.11-1.1-1.01-1.84-2.25-1.84-1.54 0-2.53 1.16-2.53 2.83 0 1.64.96 2.81 2.54 2.81zm5.67 0c1.54 0 2.54-1.13 2.54-2.81 0-1.7-1-2.83-2.54-2.83s-2.54 1.13-2.54 2.83c0 1.68 1 2.81 2.54 2.81zm0-.9c-1 0-1.47-.87-1.47-1.92 0-1.04.47-1.93 1.48-1.93 1 0 1.46.89 1.46 1.93 0 1.05-.47 1.93-1.46 1.93zm3.73.79h1.06v-3.36c0-.74.52-1.25 1.12-1.25.59 0 1 .4 1 .98V62h1.06v-3.48c0-.65.4-1.13 1.1-1.13.55 0 1.01.31 1.01 1.05V62h1.06v-3.66c0-1.24-.7-1.87-1.68-1.87-.78 0-1.37.38-1.63.96h-.06c-.24-.6-.74-.96-1.47-.96-.72 0-1.26.36-1.48.96h-.07v-.88h-1.02V62zm11.6-7.61h-.94l-2.34 8.7h.94l2.35-8.7zm1.97.34h-1.06V62h1.06v-7.27zm3.73 7.38c1.54 0 2.54-1.13 2.54-2.81 0-1.7-1-2.83-2.54-2.83s-2.55 1.13-2.55 2.83c0 1.68 1.01 2.81 2.55 2.81zm0-.9c-1 0-1.47-.87-1.47-1.92 0-1.04.47-1.93 1.47-1.93s1.47.89 1.47 1.93c0 1.05-.47 1.93-1.47 1.93zm6.01 2.94c1.4 0 2.46-.64 2.46-2.03v-5.57h-1.04v.88h-.07a1.66 1.66 0 00-1.58-.96c-1.32 0-2.3 1.04-2.3 2.78 0 1.74 1 2.67 2.29 2.67 1 0 1.39-.57 1.58-.91h.06v1.07c0 .84-.58 1.21-1.39 1.21-.88 0-1.22-.44-1.41-.74l-.92.37c.3.66 1.02 1.23 2.32 1.23zm0-3.11c-.96 0-1.45-.73-1.45-1.8 0-1.05.48-1.86 1.44-1.86.93 0 1.43.75 1.43 1.86 0 1.12-.51 1.8-1.43 1.8zm3.89.96h1.06v-5.45h-1.06V62zm.53-6.3c.37 0 .68-.28.68-.63s-.31-.63-.68-.63a.66.66 0 00-.67.63c0 .35.3.63.67.63zm3.02 3.06c0-.87.53-1.37 1.27-1.37.72 0 1.16.48 1.16 1.27V62h1.06v-3.47c0-1.35-.74-2.06-1.86-2.06-.82 0-1.35.38-1.6.96h-.07v-.88h-1.02V62h1.06v-3.24z"/><rect width="99" height="21" x="305.5" y="149.5" fill="#475569" stroke="#475569" rx="3.5"/><path fill="#fff" d="M344.29 158.25h1.14c-.03-1.1-.97-1.88-2.36-1.88-1.38 0-2.4.77-2.4 1.92 0 .95.66 1.49 1.74 1.76l.74.2c.71.17 1.18.4 1.18.9 0 .56-.53.94-1.3.94-.75 0-1.32-.34-1.37-1.02h-1.17c.05 1.3 1.02 2.03 2.54 2.03 1.57 0 2.48-.78 2.49-1.94 0-1.13-.94-1.65-1.93-1.88l-.61-.16c-.54-.13-1.12-.35-1.11-.9 0-.49.44-.85 1.18-.85.7 0 1.18.33 1.24.88zm5.36 2.69c0 .74-.53 1.11-1.04 1.11-.56 0-.93-.39-.93-1.01v-2.95h-1.16v3.13c0 1.18.67 1.84 1.64 1.84.73 0 1.25-.38 1.48-.93h.05v.87h1.12v-4.9h-1.16v2.84zm2.4 2.06h1.14v-.77h.06c.19.36.57.86 1.41.86 1.16 0 2.02-.92 2.02-2.54 0-1.64-.89-2.52-2.02-2.52-.87 0-1.23.52-1.4.87h-.05v-2.44h-1.16V163zm1.13-2.46c0-.95.41-1.56 1.16-1.56.77 0 1.17.65 1.17 1.56 0 .93-.4 1.6-1.17 1.6-.74 0-1.16-.64-1.16-1.6zm4.49 2.46h1.15v-2.99c0-.6.4-1 .9-1s.83.32.83.83V163h1.13v-3.06c0-.56.33-.94.9-.94.46 0 .83.28.83.88V163h1.16v-3.3c0-1.1-.63-1.67-1.53-1.67-.72 0-1.26.35-1.48.9h-.05c-.19-.56-.66-.9-1.32-.9s-1.15.34-1.36.9h-.06v-.84h-1.1V163zm8.07 0h1.16v-4.9h-1.15v4.9zm.59-5.6c.36 0 .66-.29.66-.63 0-.35-.3-.63-.66-.63-.37 0-.68.28-.68.63 0 .34.3.62.68.62zm4.21.7h-.97v-1.19h-1.15v1.18h-.7v.9h.7v2.72c0 .93.66 1.38 1.53 1.36.33-.01.56-.08.68-.12l-.2-.9c-.06.01-.19.04-.33.04-.3 0-.53-.1-.53-.57V159h.97v-.9z"/><path fill="#fff" stroke="#64748B" d="M305.5 121.5h99v21h-99z"/><path fill="#000" d="M311.77 134.5h.75l-.07-1.72 1.46.92.37-.65-1.53-.8 1.53-.8-.37-.65-1.46.92.07-1.72h-.75l.06 1.72-1.45-.92-.38.65 1.53.8-1.53.8.38.65 1.45-.92-.06 1.72zM317.27 134.5h.75l-.07-1.72 1.46.92.37-.65-1.53-.8 1.53-.8-.37-.65-1.46.92.07-1.72h-.75l.06 1.72-1.45-.92-.38.65 1.53.8-1.53.8.38.65 1.45-.92-.06 1.72zM322.77 134.5h.75l-.07-1.72 1.46.92.37-.65-1.53-.8 1.53-.8-.37-.65-1.46.92.07-1.72h-.75l.06 1.72-1.45-.92-.38.65 1.53.8-1.53.8.38.65 1.45-.92-.06 1.72zM328.27 134.5h.75l-.07-1.72 1.46.92.37-.65-1.53-.8 1.53-.8-.37-.65-1.46.92.07-1.72h-.75l.06 1.72-1.45-.92-.38.65 1.53.8-1.53.8.38.65 1.45-.92-.06 1.72zM333.77 134.5h.75l-.07-1.72 1.46.92.37-.65-1.53-.8 1.53-.8-.37-.65-1.46.92.07-1.72h-.75l.06 1.72-1.45-.92-.38.65 1.53.8-1.53.8.38.65 1.45-.92-.06 1.72zM339.27 134.5h.75l-.07-1.72 1.46.92.37-.65-1.53-.8 1.53-.8-.37-.65-1.46.92.07-1.72h-.75l.06 1.72-1.45-.92-.38.65 1.53.8-1.53.8.38.65 1.45-.92-.06 1.72zM344.77 134.5h.75l-.07-1.72 1.46.92.37-.65-1.53-.8 1.53-.8-.37-.65-1.46.92.07-1.72h-.75l.06 1.72-1.45-.92-.38.65 1.53.8-1.53.8.38.65 1.45-.92-.06 1.72zM350.27 134.5h.75l-.07-1.72 1.46.92.37-.65-1.53-.8 1.53-.8-.37-.65-1.46.92.07-1.72h-.75l.06 1.72-1.45-.92-.38.65 1.53.8-1.53.8.38.65 1.45-.92-.06 1.72zM355.77 134.5h.75l-.07-1.72 1.46.92.37-.65-1.53-.8 1.53-.8-.37-.65-1.46.92.07-1.72h-.75l.06 1.72-1.45-.92-.38.65 1.53.8-1.53.8.38.65 1.45-.92-.06 1.72zM361.27 134.5h.75l-.07-1.72 1.46.92.37-.65-1.53-.8 1.53-.8-.37-.65-1.46.92.07-1.72h-.75l.06 1.72-1.45-.92-.38.65 1.53.8-1.53.8.38.65 1.45-.92-.06 1.72zM366.77 134.5h.75l-.07-1.72 1.46.92.37-.65-1.53-.8 1.53-.8-.37-.65-1.46.92.07-1.72h-.75l.06 1.72-1.45-.92-.38.65 1.53.8-1.53.8.38.65 1.45-.92-.06 1.72zM372.27 134.5h.75l-.07-1.72 1.46.92.37-.65-1.53-.8 1.53-.8-.37-.65-1.46.92.07-1.72h-.75l.06 1.72-1.45-.92-.38.65 1.53.8-1.53.8.38.65 1.45-.92-.06 1.72z"/><path fill="#fff" stroke="#64748B" d="M305.5 93.5h99v21h-99z"/><path fill="#000" d="M313.75 104.96c0 .84-.62 1.23-1.15 1.23-.6 0-1-.42-1-1.1v-3h-.96v3.12c0 1.22.67 1.85 1.61 1.85.74 0 1.24-.39 1.47-.91h.05v.85h.94v-4.9h-.96v2.86zm5.92-1.67c-.2-.76-.8-1.26-1.85-1.26-1.11 0-1.9.58-1.9 1.45 0 .7.42 1.16 1.34 1.37l.84.18c.47.1.69.31.69.62 0 .38-.4.68-1.03.68-.58 0-.94-.25-1.06-.73l-.92.14c.16.87.88 1.36 1.98 1.36 1.19 0 2-.63 2-1.52 0-.7-.43-1.12-1.33-1.33l-.78-.18c-.54-.13-.78-.3-.77-.64 0-.38.4-.65.95-.65.6 0 .87.33.98.66l.86-.15zm3.27 3.8c1.07 0 1.82-.52 2.04-1.32l-.9-.16c-.18.46-.6.7-1.13.7-.82 0-1.37-.53-1.4-1.48h3.5v-.34c0-1.77-1.07-2.46-2.18-2.46-1.37 0-2.27 1.04-2.27 2.55 0 1.52.89 2.52 2.34 2.52zm-1.38-2.97c.03-.7.54-1.3 1.31-1.3.75 0 1.23.55 1.24 1.3h-2.56zm4.54 2.88h.96v-3c0-.64.5-1.1 1.17-1.1.2 0 .42.03.5.05v-.91l-.4-.02c-.58 0-1.07.32-1.25.85h-.05v-.78h-.93V107zm4.41-2.92c0-.78.48-1.22 1.15-1.22.64 0 1.04.42 1.04 1.13V107h.95v-3.12c0-1.22-.66-1.85-1.67-1.85-.74 0-1.22.34-1.45.86h-.06v-.8h-.91V107h.95v-2.92zm5.85 3.03c.82 0 1.27-.41 1.45-.78h.04v.67h.94v-3.26c0-1.43-1.13-1.71-1.9-1.71-.9 0-1.71.36-2.03 1.25l.9.2c.13-.34.5-.68 1.13-.68.62 0 .94.32.94.88v.02c0 .35-.36.34-1.24.45-.93.1-1.88.35-1.88 1.46 0 .97.72 1.5 1.65 1.5zm.21-.77c-.54 0-.93-.24-.93-.71 0-.52.46-.7 1-.77.32-.04 1.05-.13 1.2-.26v.63c0 .58-.47 1.11-1.27 1.11zm3.49.66h.95v-3.03c0-.66.47-1.12 1.01-1.12.53 0 .9.35.9.89V107h.95v-3.13c0-.59.36-1.02.99-1.02.5 0 .92.28.92.95v3.2h.95v-3.3c0-1.11-.62-1.67-1.51-1.67-.7 0-1.24.34-1.48.86h-.05a1.33 1.33 0 00-1.32-.86c-.64 0-1.13.32-1.33.86h-.06v-.8h-.92V107zm10.07.1c1.07 0 1.83-.53 2.05-1.33l-.91-.16c-.17.46-.59.7-1.13.7-.82 0-1.37-.53-1.4-1.48h3.5v-.34c0-1.77-1.07-2.46-2.18-2.46-1.37 0-2.27 1.04-2.27 2.55 0 1.52.9 2.52 2.34 2.52zm-1.38-2.98c.04-.7.54-1.3 1.32-1.3.74 0 1.23.55 1.23 1.3h-2.55z"/><path fill="#0694A2" d="M489 128v6h-32v-6zM489 139v-16l9 8-9 8z"/></svg>